#Barrel_Met1_01_27626_27.obj

v 0.2288216 0.2351172 -0.2288343
v 1.967457E-05 -1.275874E-05 2.4924E-06
v 0.2689723 0.1236069 -0.2689927
v 0.1662827 0.3236126 -0.1662734
v 0.2828438 -1.662483E-05 -0.282849
v 0.08746172 0.3804474 -0.08745
v 0.2689871 -0.123609 -0.2689927
v -4.890578E-06 0.4000098 2.4924E-06
v 0.2288642 -0.2351128 -0.2288343
v -0.08736835 0.3804477 0.08745498
v 0.1663155 -0.3235967 -0.1662734
v -0.1662014 0.3236172 0.1662784
v 0.08740003 -0.3804391 -0.08745
v -0.2288326 0.2351214 0.2288393
v 3.771296E-05 -0.4000062 2.4924E-06
v -0.2689554 0.1236176 0.2689977
v -0.08743031 -0.3804375 0.08745498
v -0.2828056 -3.83266E-06 0.2828541
v -0.1662496 -0.3236103 0.1662784
v -0.2689406 -0.1235983 0.2689977
v -0.2287899 -0.2351086 0.2288393
v 0.952997 0.1068798 0.4878778
v 0.6921127 -1.712211E-05 0.6921549
v 0.9182749 0.2032879 0.5225601
v 0.9649838 -2.96649E-06 0.4758469
v 0.8641285 0.2797683 0.5766579
v 0.9529869 -0.1068675 0.4878778
v 0.7959648 0.3288973 0.6447779
v 0.9182358 -0.2032739 0.5225601
v 0.7203947 0.3458429 0.7204484
v 0.8641381 -0.2797735 0.5766579
v 0.6448587 0.3288996 0.7959529
v 0.7959892 -0.3288887 0.6447779
v 0.5767099 0.2797844 0.8641558
v 0.7204533 -0.345832 0.7204484
v 0.5225298 0.2032729 0.9182536
v 0.6448832 -0.3288864 0.7959529
v 0.4878611 0.1068784 0.9529359
v 0.5766385 -0.2797755 0.8641558
v 0.4758693 -8.919807E-06 0.9649668
v 0.5225717 -0.2032707 0.9182536
v 0.487851 -0.1068689 0.9529359
v 0.5837308 0.03621025 0.8662301
v 0.5460766 0.005435346 0.9038994
v 0.5677902 0.05875041 0.8821608
v 0.5896139 0.005436252 0.8603392
v 0.5460418 0.06699883 0.9038994
v 0.5837656 -0.02535324 0.8662301
v 0.5242529 0.05874951 0.9257211
v 0.5678176 -0.04788939 0.8821608
v 0.5083066 0.03620577 0.9416517
v 0.5460302 -0.05614504 0.9038994
v 0.5025394 0.005434439 0.9474598
v 0.5242804 -0.04789029 0.9257211
v 0.5083411 -0.02535645 0.9416517

vn 0.04553223 0.435791 -0.8989258
vn -0.6918945 0.1591797 -0.7045898
vn 0.06976318 0.2214355 -0.9726563
vn -0.03320313 0.6225586 -0.7822266
vn 0.04293823 -0.005615234 -0.9990234
vn -0.15625 0.7543945 -0.6376953
vn -0.03152466 -0.2301025 -0.9726563
vn -0.3007813 0.8271484 -0.4748535
vn -0.1450195 -0.4135742 -0.8989258
vn -0.4699707 0.824707 -0.314209
vn -0.2958984 -0.5483398 -0.7822266
vn -0.6303711 0.7563477 -0.1760254
vn -0.463623 -0.6152344 -0.6376953
vn -0.7807617 0.6210938 -0.06359863
vn -0.625 -0.6191406 -0.4748535
vn -0.8989258 0.4379883 0
vn -0.7773438 -0.5449219 -0.314209
vn -0.9750977 0.2226563 0
vn -0.8925781 -0.4145508 -0.1760254
vn -1 -0.01198578 0
vn -0.9716797 -0.2281494 -0.06359863
vn 0.7783203 -0.1304932 0.6137695
vn 0.6933594 -0.1514893 0.7045898
vn 0.7700195 -0.09637451 0.6303711
vn 0.777832 -0.1704102 0.6049805
vn 0.7617188 -0.06234741 0.6450195
vn 0.7597656 -0.2145996 0.6137695
vn 0.7421875 -0.04190063 0.6689453
vn 0.7373047 -0.2418213 0.6303711
vn 0.7133789 -0.02737427 0.7001953
vn 0.715332 -0.269043 0.6450195
vn 0.6811523 -0.02816772 0.7319336
vn 0.6889648 -0.2790527 0.6689453
vn 0.6547852 -0.03833008 0.7548828
vn 0.6567383 -0.2800293 0.7001953
vn 0.6245117 -0.06378174 0.7783203
vn 0.6279297 -0.2653809 0.7319336
vn 0.6103516 -0.09265137 0.7866211
vn 0.6083984 -0.2449951 0.7548828
vn 0.59375 -0.1292725 0.7939453
vn 0.5922852 -0.2092285 0.7783203
vn 0.5913086 -0.1768799 0.7866211
vn 0.9858398 0.1669922 0
vn 0.6933594 -0.1514893 0.7045898
vn 0.8588867 0.4785156 0.1824951
vn 0.9765625 -0.2150879 0
vn 0.6132813 0.6381836 0.465332
vn 0.8203125 -0.5722656 0
vn 0.3308105 0.597168 0.730957
vn 0.5722656 -0.7993164 0.1824951
vn 0.07940674 0.3720703 0.9248047
vn 0.2819824 -0.8388672 0.465332
vn -0.07183838 0.0201416 0.9970703
vn 0.04415894 -0.6811523 0.730957
vn -0.08709717 -0.3703613 0.9248047

vt 2.849609 1.742188
vt 2.505859 1.493164
vt 2.910156 1.624023
vt 2.755859 1.836914
vt 2.929688 1.493164
vt 2.636719 1.896484
vt 2.910156 1.361328
vt 2.505859 1.917969
vt 2.849609 1.242188
vt 2.375 1.896484
vt 2.755859 1.148438
vt 2.255859 1.836914
vt 2.636719 1.088867
vt 2.162109 1.742188
vt 2.505859 1.067383
vt 2.101563 1.624023
vt 2.375 1.088867
vt 2.080078 1.493164
vt 2.255859 1.148438
vt 2.101563 1.361328
vt 2.162109 1.242188
vt 1.869141 1.613281
vt 1.500977 1.493164
vt 1.813477 1.719727
vt 1.887695 1.493164
vt 1.728516 1.806641
vt 1.869141 1.373047
vt 1.620117 1.860352
vt 1.813477 1.265625
vt 1.500977 1.879883
vt 1.728516 1.179688
vt 1.380859 1.860352
vt 1.620117 1.124023
vt 1.272461 1.806641
vt 1.500977 1.105469
vt 1.1875 1.719727
vt 1.380859 1.124023
vt 1.131836 1.613281
vt 1.272461 1.179688
vt 1.113281 1.493164
vt 1.1875 1.265625
vt 1.131836 1.373047
vt 0.2714844 1.529297
vt 0.2171631 1.498047
vt 0.2481689 1.552734
vt 0.2800293 1.498047
vt 0.2171631 1.560547
vt 0.2714844 1.46582
vt 0.1853027 1.552734
vt 0.2481689 1.443359
vt 0.1627197 1.529297
vt 0.2171631 1.435547
vt 0.1542969 1.498047
vt 0.1853027 1.443359
vt 0.1627197 1.46582

g Barrel_Met1_01_27626_27
usemtl Barrel_Met1_01_27626_27
usemap Barrel_Met1_01_27626_27
f 1/1/1 3/3/3 2/2/2
f 4/4/4 1/1/1 2/2/2
f 3/3/3 5/5/5 2/2/2
f 6/6/6 4/4/4 2/2/2
f 5/5/5 7/7/7 2/2/2
f 8/8/8 6/6/6 2/2/2
f 7/7/7 9/9/9 2/2/2
f 10/10/10 8/8/8 2/2/2
f 9/9/9 11/11/11 2/2/2
f 12/12/12 10/10/10 2/2/2
f 11/11/11 13/13/13 2/2/2
f 14/14/14 12/12/12 2/2/2
f 13/13/13 15/15/15 2/2/2
f 16/16/16 14/14/14 2/2/2
f 15/15/15 17/17/17 2/2/2
f 18/18/18 16/16/16 2/2/2
f 17/17/17 19/19/19 2/2/2
f 20/20/20 18/18/18 2/2/2
f 19/19/19 21/21/21 2/2/2
f 21/21/21 20/20/20 2/2/2
f 22/22/22 24/24/24 23/23/23
f 25/25/25 22/22/22 23/23/23
f 24/24/24 26/26/26 23/23/23
f 27/27/27 25/25/25 23/23/23
f 26/26/26 28/28/28 23/23/23
f 29/29/29 27/27/27 23/23/23
f 28/28/28 30/30/30 23/23/23
f 31/31/31 29/29/29 23/23/23
f 30/30/30 32/32/32 23/23/23
f 33/33/33 31/31/31 23/23/23
f 32/32/32 34/34/34 23/23/23
f 35/35/35 33/33/33 23/23/23
f 34/34/34 36/36/36 23/23/23
f 37/37/37 35/35/35 23/23/23
f 36/36/36 38/38/38 23/23/23
f 39/39/39 37/37/37 23/23/23
f 38/38/38 40/40/40 23/23/23
f 41/41/41 39/39/39 23/23/23
f 40/40/40 42/42/42 23/23/23
f 42/42/42 41/41/41 23/23/23
f 43/43/43 45/45/45 44/44/44
f 46/46/46 43/43/43 44/44/44
f 45/45/45 47/47/47 44/44/44
f 48/48/48 46/46/46 44/44/44
f 47/47/47 49/49/49 44/44/44
f 50/50/50 48/48/48 44/44/44
f 49/49/49 51/51/51 44/44/44
f 52/52/52 50/50/50 44/44/44
f 51/51/51 53/53/53 44/44/44
f 54/54/54 52/52/52 44/44/44
f 53/53/53 55/55/55 44/44/44
f 55/55/55 54/54/54 44/44/44
