#Barrel_Met5_01_27595_34.obj

v 0.06256013 -1.083108E-05 -0.3951589
v -2.416609E-05 -1.418969E-05 -4.622922E-05
v 0.1816068 -6.257407E-06 -0.356411
v -0.06260847 -1.754831E-05 -0.3951589
v 0.2827999 -1.805578E-05 -0.2828978
v -0.1815741 -3.96055E-06 -0.356411
v 0.3563542 -1.718162E-05 -0.1816719
v -0.2828485 -9.058607E-06 -0.2828978
v 0.3950443 -1.544217E-05 -0.06260712
v -0.3564036 -6.137771E-06 -0.1816719
v 0.3950443 -1.544217E-05 0.06251466
v -0.3950926 -1.293721E-05 -0.06260712
v 0.3563542 -1.718162E-05 0.1815795
v -0.3950926 -1.293721E-05 0.06251466
v 0.2827999 -1.805578E-05 0.2828053
v -0.3564036 -6.137771E-06 0.1815795
v 0.1816068 -6.257407E-06 0.3564015
v -0.2828485 -9.058607E-06 0.2828053
v 0.06256013 -1.083108E-05 0.3949835
v -0.1815741 -3.96055E-06 0.3564015
v -0.06260847 -1.754831E-05 0.3949835
v 0.1569782 1.01878 -0.3082042
v -4.516806E-05 0.9788239 -4.622922E-05
v 0.05408578 1.018785 -0.341642
v 0.2444796 1.018774 -0.2445647
v -0.0541602 1.018775 -0.341642
v 0.3080848 1.018775 -0.1570293
v -0.1570514 1.018775 -0.3082042
v 0.3415854 1.018787 -0.05414397
v -0.244554 1.018786 -0.2445647
v 0.3415854 1.018787 0.05405151
v -0.3081592 1.018785 -0.1570293
v 0.3080848 1.018775 0.1569368
v -0.3415778 1.018786 -0.05414397
v 0.2444796 1.018774 0.2444723
v -0.3415778 1.018786 0.05405151
v 0.1569782 1.01878 0.3081118
v -0.3081592 1.018785 0.1569368
v 0.05408578 1.018785 0.3415495
v -0.244554 1.018786 0.2444723
v -0.0541602 1.018775 0.3415495
v -0.1570514 1.018775 0.3081118
v -0.1668377 1.025252 0.1156167
v -0.1828215 1.02524 0.1750247
v -0.1987255 1.025252 0.1156167
v -0.1392849 1.025244 0.1315474
v -0.2263596 1.025243 0.1315474
v -0.123301 1.025255 0.1590941
v -0.2422625 1.02525 0.1590941
v -0.123301 1.025255 0.1910383
v -0.2422625 1.02525 0.1910383
v -0.1392849 1.025244 0.218585
v -0.2263596 1.025243 0.218585
v -0.1668377 1.025252 0.2345156
v -0.1987255 1.025252 0.2345156

vn -0.03582764 -0.6791992 -0.7329102
vn -0.2226563 -0.9750977 0
vn 0.1784668 -0.7270508 -0.6625977
vn -0.2578125 -0.6293945 -0.7329102
vn 0.3620605 -0.7685547 -0.5273438
vn -0.4719238 -0.581543 -0.6625977
vn 0.4921875 -0.7978516 -0.3483887
vn -0.6557617 -0.5400391 -0.5273438
vn 0.5688477 -0.8149414 -0.1119385
vn -0.7856445 -0.5107422 -0.3483887
vn 0.5688477 -0.8149414 0.1119385
vn -0.8623047 -0.4938965 -0.1119385
vn 0.4921875 -0.7978516 0.3483887
vn -0.8623047 -0.4938965 0.1119385
vn 0.3620605 -0.7685547 0.5273438
vn -0.7856445 -0.5107422 0.3483887
vn 0.1784668 -0.7270508 0.6625977
vn -0.6557617 -0.5400391 0.5273438
vn -0.03582764 -0.6791992 0.7329102
vn -0.4719238 -0.581543 0.6625977
vn -0.2578125 -0.6293945 0.7329102
vn 0.2746582 0.9550781 -0.1102905
vn 0.2150879 0.9765625 0
vn 0.2363281 0.9638672 -0.1234741
vn 0.3051758 0.9482422 -0.08654785
vn 0.197998 0.972168 -0.1234741
vn 0.328125 0.9433594 -0.05187988
vn 0.15979 0.980957 -0.1102905
vn 0.3432617 0.9394531 0
vn 0.1291504 0.987793 -0.08654785
vn 0.3432617 0.9394531 0
vn 0.1062012 0.9931641 -0.05187988
vn 0.328125 0.9433594 0.05187988
vn 0.09082031 0.9960938 0
vn 0.3051758 0.9482422 0.08654785
vn 0.09082031 0.9960938 0
vn 0.2746582 0.9550781 0.1102905
vn 0.1062012 0.9931641 0.05187988
vn 0.2363281 0.9638672 0.1234741
vn 0.1291504 0.987793 0.08654785
vn 0.197998 0.972168 0.1234741
vn 0.15979 0.980957 0.1102905
vn 0.3308105 0.597168 -0.730957
vn 0.2150879 0.9765625 0
vn -0.04415894 0.6811523 -0.730957
vn 0.6674805 0.5214844 -0.53125
vn -0.3808594 0.7568359 -0.53125
vn 0.8588867 0.4785156 -0.1824951
vn -0.5722656 0.7993164 -0.1824951
vn 0.8588867 0.4785156 0.1824951
vn -0.5722656 0.7993164 0.1824951
vn 0.6674805 0.5214844 0.53125
vn -0.3808594 0.7568359 0.53125
vn 0.3308105 0.597168 0.730957
vn -0.04415894 0.6811523 0.730957

vt 2.849609 1.742188
vt 2.505859 1.493164
vt 2.910156 1.624023
vt 2.755859 1.836914
vt 2.929688 1.493164
vt 2.636719 1.896484
vt 2.910156 1.361328
vt 2.505859 1.917969
vt 2.849609 1.242188
vt 2.375 1.896484
vt 2.755859 1.148438
vt 2.255859 1.836914
vt 2.636719 1.088867
vt 2.162109 1.742188
vt 2.505859 1.067383
vt 2.101563 1.624023
vt 2.375 1.088867
vt 2.080078 1.493164
vt 2.255859 1.148438
vt 2.101563 1.361328
vt 2.162109 1.242188
vt 1.869141 1.613281
vt 1.500977 1.493164
vt 1.813477 1.719727
vt 1.887695 1.493164
vt 1.728516 1.806641
vt 1.869141 1.373047
vt 1.620117 1.860352
vt 1.813477 1.265625
vt 1.500977 1.879883
vt 1.728516 1.179688
vt 1.380859 1.860352
vt 1.620117 1.124023
vt 1.272461 1.806641
vt 1.500977 1.105469
vt 1.1875 1.719727
vt 1.380859 1.124023
vt 1.131836 1.613281
vt 1.272461 1.179688
vt 1.113281 1.493164
vt 1.1875 1.265625
vt 1.131836 1.373047
vt 0.2714844 1.529297
vt 0.2171631 1.498047
vt 0.2481689 1.552734
vt 0.2800293 1.498047
vt 0.2171631 1.560547
vt 0.2714844 1.46582
vt 0.1853027 1.552734
vt 0.2481689 1.443359
vt 0.1627197 1.529297
vt 0.2171631 1.435547
vt 0.1542969 1.498047
vt 0.1853027 1.443359
vt 0.1627197 1.46582

g Barrel_Met5_01_27595_34
usemtl Barrel_Met5_01_27595_34
usemap Barrel_Met5_01_27595_34
f 1/1/1 3/3/3 2/2/2
f 4/4/4 1/1/1 2/2/2
f 3/3/3 5/5/5 2/2/2
f 6/6/6 4/4/4 2/2/2
f 5/5/5 7/7/7 2/2/2
f 8/8/8 6/6/6 2/2/2
f 7/7/7 9/9/9 2/2/2
f 10/10/10 8/8/8 2/2/2
f 9/9/9 11/11/11 2/2/2
f 12/12/12 10/10/10 2/2/2
f 11/11/11 13/13/13 2/2/2
f 14/14/14 12/12/12 2/2/2
f 13/13/13 15/15/15 2/2/2
f 16/16/16 14/14/14 2/2/2
f 15/15/15 17/17/17 2/2/2
f 18/18/18 16/16/16 2/2/2
f 17/17/17 19/19/19 2/2/2
f 20/20/20 18/18/18 2/2/2
f 19/19/19 21/21/21 2/2/2
f 21/21/21 20/20/20 2/2/2
f 22/22/22 24/24/24 23/23/23
f 25/25/25 22/22/22 23/23/23
f 24/24/24 26/26/26 23/23/23
f 27/27/27 25/25/25 23/23/23
f 26/26/26 28/28/28 23/23/23
f 29/29/29 27/27/27 23/23/23
f 28/28/28 30/30/30 23/23/23
f 31/31/31 29/29/29 23/23/23
f 30/30/30 32/32/32 23/23/23
f 33/33/33 31/31/31 23/23/23
f 32/32/32 34/34/34 23/23/23
f 35/35/35 33/33/33 23/23/23
f 34/34/34 36/36/36 23/23/23
f 37/37/37 35/35/35 23/23/23
f 36/36/36 38/38/38 23/23/23
f 39/39/39 37/37/37 23/23/23
f 38/38/38 40/40/40 23/23/23
f 41/41/41 39/39/39 23/23/23
f 40/40/40 42/42/42 23/23/23
f 42/42/42 41/41/41 23/23/23
f 43/43/43 45/45/45 44/44/44
f 46/46/46 43/43/43 44/44/44
f 45/45/45 47/47/47 44/44/44
f 48/48/48 46/46/46 44/44/44
f 47/47/47 49/49/49 44/44/44
f 50/50/50 48/48/48 44/44/44
f 49/49/49 51/51/51 44/44/44
f 52/52/52 50/50/50 44/44/44
f 51/51/51 53/53/53 44/44/44
f 54/54/54 52/52/52 44/44/44
f 53/53/53 55/55/55 44/44/44
f 55/55/55 54/54/54 44/44/44
