#Barrel_Met4_01_27430_48.obj

v 0.323642 1.862278E-05 -0.2351193
v 3.385293E-06 1.452346E-05 2.333588E-05
v 0.3804449 1.784859E-05 -0.1236049
v 0.2351223 1.546047E-05 -0.3235675
v 0.4000036 1.415441E-05 2.333588E-05
v 0.1236423 1.690981E-05 -0.3804033
v 0.3804449 1.784859E-05 0.1236516
v 3.385293E-06 1.452346E-05 -0.3999847
v 0.323642 1.862278E-05 0.235166
v -0.1236344 7.077125E-06 -0.3804033
v 0.2351223 1.546047E-05 0.3236141
v -0.2351155 1.358646E-05 -0.3235675
v 0.1236423 1.690981E-05 0.38045
v -0.3236341 5.364155E-06 -0.2351193
v 3.385293E-06 1.452346E-05 0.4000313
v -0.380437 6.138345E-06 -0.1236049
v -0.1236344 7.077125E-06 0.38045
v -0.3999957 9.832525E-06 2.333588E-05
v -0.2351155 1.358646E-05 0.3236141
v -0.380437 6.138345E-06 0.1236516
v -0.3236341 5.364155E-06 0.235166
v 0.3289427 1.018817 -0.1068446
v -1.137368E-05 0.9788248 2.333588E-05
v 0.2797948 1.018809 -0.2032581
v 0.345865 1.018814 2.333588E-05
v 0.2032648 1.018806 -0.2797582
v 0.3289427 1.018817 0.1068913
v 0.1068366 1.018804 -0.3288777
v 0.2797948 1.018809 0.2033047
v 3.053746E-05 1.018819 -0.3458039
v 0.2032648 1.018806 0.2798049
v -0.1068562 1.018814 -0.3288777
v 0.1068366 1.018804 0.3289243
v -0.2032835 1.018808 -0.2797582
v 3.053746E-05 1.018819 0.3458506
v -0.2798135 1.018806 -0.2032581
v -0.1068562 1.018814 0.3289243
v -0.3288802 1.018815 -0.1068446
v -0.2032835 1.018808 0.2798049
v -0.3458028 1.018818 2.333588E-05
v -0.2798135 1.018806 0.2033047
v -0.3288802 1.018815 0.1068913
v -0.1997146 1.025264 -0.03615246
v -0.2530307 1.025263 -0.005369844
v -0.2222479 1.02526 -0.05872084
v -0.1914662 1.025263 -0.005369844
v -0.2530307 1.025263 -0.06693507
v -0.1997146 1.025264 0.02541277
v -0.2838124 1.02526 -0.05872084
v -0.2222479 1.02526 0.04789818
v -0.3063469 1.025262 -0.03615246
v -0.2530307 1.025263 0.05619538
v -0.3145953 1.025262 -0.005369844
v -0.2838124 1.02526 0.04789818
v -0.3063469 1.025262 0.02541277

vn 0.4387207 -0.7856445 -0.4362793
vn -0.2226563 -0.9750977 0
vn 0.5380859 -0.8081055 -0.2398682
vn 0.2780762 -0.7495117 -0.6005859
vn 0.5766602 -0.8164063 -0.03112793
vn 0.07897949 -0.7050781 -0.7045898
vn 0.5380859 -0.8081055 0.2398682
vn -0.1506348 -0.6533203 -0.7416992
vn 0.4387207 -0.7856445 0.4362793
vn -0.3725586 -0.6035156 -0.7045898
vn 0.2780762 -0.7495117 0.6005859
vn -0.5712891 -0.559082 -0.6005859
vn 0.07897949 -0.7050781 0.7045898
vn -0.7324219 -0.5229492 -0.4362793
vn -0.1506348 -0.6533203 0.7416992
vn -0.831543 -0.5004883 -0.2398682
vn -0.3725586 -0.6035156 0.7045898
vn -0.8701172 -0.4921875 -0.03112793
vn -0.5712891 -0.559082 0.6005859
vn -0.831543 -0.5004883 0.2398682
vn -0.7324219 -0.5229492 0.4362793
vn 0.3356934 0.9414063 -0.02908325
vn 0.2150879 0.9765625 0
vn 0.3205566 0.9448242 -0.06640625
vn 0.3432617 0.9394531 0
vn 0.2897949 0.9516602 -0.1003418
vn 0.3356934 0.9414063 0.02908325
vn 0.2592773 0.9584961 -0.1173096
vn 0.3205566 0.9448242 0.06640625
vn 0.2133789 0.96875 -0.124939
vn 0.2897949 0.9516602 0.1003418
vn 0.1750488 0.9775391 -0.1173096
vn 0.2592773 0.9584961 0.1173096
vn 0.1444092 0.984375 -0.1003418
vn 0.2133789 0.96875 0.124939
vn 0.1138306 0.9912109 -0.06640625
vn 0.1750488 0.9775391 0.1173096
vn 0.09857178 0.9946289 -0.02908325
vn 0.1444092 0.984375 0.1003418
vn 0.09082031 0.9960938 0
vn 0.1138306 0.9912109 0.06640625
vn 0.09857178 0.9946289 0.02908325
vn 0.7822266 0.4956055 -0.3771973
vn 0.2150879 0.9765625 0
vn 0.5146484 0.5556641 -0.652832
vn 0.8808594 0.4729004 0
vn 0.1395264 0.6396484 -0.7558594
vn 0.7822266 0.4956055 0.3771973
vn -0.2277832 0.722168 -0.652832
vn 0.5146484 0.5556641 0.652832
vn -0.4956055 0.7822266 -0.3771973
vn 0.1395264 0.6396484 0.7558594
vn -0.5947266 0.8041992 0
vn -0.2277832 0.722168 0.652832
vn -0.4956055 0.7822266 0.3771973

vt 2.849609 1.742188
vt 2.505859 1.493164
vt 2.910156 1.624023
vt 2.755859 1.836914
vt 2.929688 1.493164
vt 2.636719 1.896484
vt 2.910156 1.361328
vt 2.505859 1.917969
vt 2.849609 1.242188
vt 2.375 1.896484
vt 2.755859 1.148438
vt 2.255859 1.836914
vt 2.636719 1.088867
vt 2.162109 1.742188
vt 2.505859 1.067383
vt 2.101563 1.624023
vt 2.375 1.088867
vt 2.080078 1.493164
vt 2.255859 1.148438
vt 2.101563 1.361328
vt 2.162109 1.242188
vt 1.869141 1.613281
vt 1.500977 1.493164
vt 1.813477 1.719727
vt 1.887695 1.493164
vt 1.728516 1.806641
vt 1.869141 1.373047
vt 1.620117 1.860352
vt 1.813477 1.265625
vt 1.500977 1.879883
vt 1.728516 1.179688
vt 1.380859 1.860352
vt 1.620117 1.124023
vt 1.272461 1.806641
vt 1.500977 1.105469
vt 1.1875 1.719727
vt 1.380859 1.124023
vt 1.131836 1.613281
vt 1.272461 1.179688
vt 1.113281 1.493164
vt 1.1875 1.265625
vt 1.131836 1.373047
vt 0.2714844 1.529297
vt 0.2171631 1.498047
vt 0.2481689 1.552734
vt 0.2800293 1.498047
vt 0.2171631 1.560547
vt 0.2714844 1.46582
vt 0.1853027 1.552734
vt 0.2481689 1.443359
vt 0.1627197 1.529297
vt 0.2171631 1.435547
vt 0.1542969 1.498047
vt 0.1853027 1.443359
vt 0.1627197 1.46582

g Barrel_Met4_01_27430_48
usemtl Barrel_Met4_01_27430_48
usemap Barrel_Met4_01_27430_48
f 1/1/1 3/3/3 2/2/2
f 4/4/4 1/1/1 2/2/2
f 3/3/3 5/5/5 2/2/2
f 6/6/6 4/4/4 2/2/2
f 5/5/5 7/7/7 2/2/2
f 8/8/8 6/6/6 2/2/2
f 7/7/7 9/9/9 2/2/2
f 10/10/10 8/8/8 2/2/2
f 9/9/9 11/11/11 2/2/2
f 12/12/12 10/10/10 2/2/2
f 11/11/11 13/13/13 2/2/2
f 14/14/14 12/12/12 2/2/2
f 13/13/13 15/15/15 2/2/2
f 16/16/16 14/14/14 2/2/2
f 15/15/15 17/17/17 2/2/2
f 18/18/18 16/16/16 2/2/2
f 17/17/17 19/19/19 2/2/2
f 20/20/20 18/18/18 2/2/2
f 19/19/19 21/21/21 2/2/2
f 21/21/21 20/20/20 2/2/2
f 22/22/22 24/24/24 23/23/23
f 25/25/25 22/22/22 23/23/23
f 24/24/24 26/26/26 23/23/23
f 27/27/27 25/25/25 23/23/23
f 26/26/26 28/28/28 23/23/23
f 29/29/29 27/27/27 23/23/23
f 28/28/28 30/30/30 23/23/23
f 31/31/31 29/29/29 23/23/23
f 30/30/30 32/32/32 23/23/23
f 33/33/33 31/31/31 23/23/23
f 32/32/32 34/34/34 23/23/23
f 35/35/35 33/33/33 23/23/23
f 34/34/34 36/36/36 23/23/23
f 37/37/37 35/35/35 23/23/23
f 36/36/36 38/38/38 23/23/23
f 39/39/39 37/37/37 23/23/23
f 38/38/38 40/40/40 23/23/23
f 41/41/41 39/39/39 23/23/23
f 40/40/40 42/42/42 23/23/23
f 42/42/42 41/41/41 23/23/23
f 43/43/43 45/45/45 44/44/44
f 46/46/46 43/43/43 44/44/44
f 45/45/45 47/47/47 44/44/44
f 48/48/48 46/46/46 44/44/44
f 47/47/47 49/49/49 44/44/44
f 50/50/50 48/48/48 44/44/44
f 49/49/49 51/51/51 44/44/44
f 52/52/52 50/50/50 44/44/44
f 51/51/51 53/53/53 44/44/44
f 54/54/54 52/52/52 44/44/44
f 53/53/53 55/55/55 44/44/44
f 55/55/55 54/54/54 44/44/44
