#Barrel_Met5_03_27498_3.obj

v -0.3492589 0.839753 0.04144569
v -0.3783197 0.8605812 0.05416024
v -0.3733544 0.8359398 0.05600664
v -0.3542241 0.8643944 0.03959929
v -0.3214374 0.8453597 0.04095474
v -0.3264847 0.8700065 0.03919413
v -0.2973356 0.85126 0.05474922
v -0.3023847 0.8759066 0.05290459
v -0.3733544 0.8359398 0.05600664
v -0.3783197 0.8605812 0.05416024
v -0.3922004 0.8596029 0.07889047
v -0.3871531 0.8349327 0.08073483
v -0.3921122 0.8616834 0.1071601
v -0.3871469 0.8370419 0.1090065
v -0.3782552 0.8663182 0.1314012
v -0.3732078 0.8416494 0.1332455
v -0.3732078 0.8416494 0.1332455
v -0.3782552 0.8663182 0.1314012
v -0.3541535 0.8722172 0.1451956
v -0.3491063 0.847569 0.1469562
v -0.3263319 0.8778252 0.1447047
v -0.3212829 0.8531773 0.1465493
v -0.3023185 0.8816424 0.1302295
v -0.2972728 0.8569747 0.1319899
v -0.2972728 0.8569747 0.1319899
v -0.3023185 0.8816424 0.1302295
v -0.2884378 0.8826208 0.1054993
v -0.2833905 0.857974 0.1072599
v -0.2884422 0.8805338 0.07722788
v -0.2833965 0.8558661 0.07898824
v -0.3023847 0.8759066 0.05290459
v -0.2973356 0.85126 0.05474922

vn -0.2214355 -0.1505127 -0.9633789
vn -0.6787109 0.4335938 -0.5922852
vn -0.6625977 -0.2512207 -0.7055664
vn -0.3464355 0.5112305 -0.7866211
vn 0.2734375 -0.0111618 -0.9619141
vn 0.02668762 0.6176758 -0.7856445
vn 0.7006836 0.1341553 -0.7006836
vn 0.3493652 0.7231445 -0.5961914
vn -0.6625977 -0.2512207 -0.7055664
vn -0.6787109 0.4335938 -0.5922852
vn -0.878418 0.4072266 -0.2504883
vn -0.9257813 -0.2888184 -0.2442627
vn -0.8886719 0.4423828 0.1210938
vn -0.9389648 -0.2446289 0.2418213
vn -0.7075195 0.5234375 0.4748535
vn -0.7001953 -0.1345215 0.7011719
vn -0.7001953 -0.1345215 0.7011719
vn -0.7075195 0.5234375 0.4748535
vn -0.385498 0.6362305 0.668457
vn -0.2731934 0.01078033 0.9619141
vn -0.004852295 0.7436523 0.6689453
vn 0.2219238 0.1501465 0.9633789
vn 0.3278809 0.8208008 0.4675293
vn 0.6630859 0.2507324 0.7055664
vn 0.6630859 0.2507324 0.7055664
vn 0.3278809 0.8208008 0.4675293
vn 0.5195313 0.8393555 0.1595459
vn 0.9262695 0.2883301 0.2429199
vn 0.5297852 0.8115234 -0.2460938
vn 0.9321289 0.2432861 -0.2678223
vn 0.3493652 0.7231445 -0.5961914
vn 0.7006836 0.1341553 -0.7006836

vt 0.3688965 1.729492
vt 0.4104004 1.782227
vt 0.4104004 1.729492
vt 0.3688965 1.782227
vt 0.3276367 1.729492
vt 0.3276367 1.782227
vt 0.2861328 1.729492
vt 0.2861328 1.782227
vt -0.08624268 1.729492
vt -0.08624268 1.782227
vt -0.04486084 1.782227
vt -0.04486084 1.729492
vt -0.003484726 1.782227
vt -0.003484726 1.729492
vt 0.03790283 1.782227
vt 0.03790283 1.729492
vt 0.03790283 1.729492
vt 0.03790283 1.782227
vt 0.07928467 1.782227
vt 0.07928467 1.729492
vt 0.1206665 1.782227
vt 0.1206665 1.729492
vt 0.1619873 1.782227
vt 0.1619873 1.729492
vt 0.1619873 1.729492
vt 0.1619873 1.782227
vt 0.2033691 1.782227
vt 0.2033691 1.729492
vt 0.244751 1.782227
vt 0.244751 1.729492
vt 0.2861328 1.782227
vt 0.2861328 1.729492

g Barrel_Met5_03_27498_3
usemtl Barrel_Met5_03_27498_3
usemap Barrel_Met5_03_27498_3
f 1/1/1 3/3/3 2/2/2
f 1/1/1 2/2/2 4/4/4
f 5/5/5 1/1/1 4/4/4
f 5/5/5 4/4/4 6/6/6
f 7/7/7 5/5/5 6/6/6
f 7/7/7 6/6/6 8/8/8
f 9/9/9 11/11/11 10/10/10
f 9/9/9 12/12/12 11/11/11
f 12/12/12 13/13/13 11/11/11
f 12/12/12 14/14/14 13/13/13
f 14/14/14 15/15/15 13/13/13
f 14/14/14 16/16/16 15/15/15
f 17/17/17 19/19/19 18/18/18
f 17/17/17 20/20/20 19/19/19
f 20/20/20 21/21/21 19/19/19
f 20/20/20 22/22/22 21/21/21
f 22/22/22 23/23/23 21/21/21
f 22/22/22 24/24/24 23/23/23
f 25/25/25 27/27/27 26/26/26
f 25/25/25 28/28/28 27/27/27
f 28/28/28 29/29/29 27/27/27
f 28/28/28 30/30/30 29/29/29
f 30/30/30 31/31/31 29/29/29
f 30/30/30 32/32/32 31/31/31
