#Building37_27467_56.obj

v 11.55872 16.69571 4.080505
v 11.55872 15.50292 -4.61145
v 11.55872 15.50292 4.080505
v 11.55872 16.69571 -4.61145
v 11.55872 16.69571 4.080505
v -0.0002441406 15.50394 4.608337
v -0.0002441406 16.69215 4.609863
v 11.55872 15.50292 4.080505
v -11.55872 16.69571 4.080505
v -11.55872 15.50292 -4.61145
v -11.55872 16.69571 -4.61145
v -11.55872 15.50292 4.080505
v -11.55872 16.69571 4.080505
v -0.0002441406 15.50394 4.608337
v -11.55872 15.50292 4.080505
v -0.0002441406 16.69215 4.609863

vn 1 0.003921509 0
vn 1 0.003921509 0
vn 1 0.003921509 0
vn 1 0.003921509 0
vn 0.05883789 -0.003921509 0.9980469
vn 0.05883789 -0.003921509 0.9980469
vn 0.05883789 -0.003921509 0.9980469
vn 0.05883789 -0.003921509 0.9980469
vn -1 0.003921509 0
vn -1 0.003921509 0
vn -1 0.003921509 0
vn -1 0.003921509 0
vn -0.05883789 -0.003921509 0.9980469
vn -0.05883789 -0.003921509 0.9980469
vn -0.05883789 -0.003921509 0.9980469
vn -0.05883789 -0.003921509 0.9980469

vt 0.3796387 1
vt 6.28125 0.0001780987
vt 0.3796387 0.0001780987
vt 6.28125 1
vt 6.28125 1
vt 2.179688 0.000749588
vt 2.179688 1
vt 6.28125 0.0001780987
vt 0.3796387 1
vt 6.28125 0.0001780987
vt 6.28125 1
vt 0.3796387 0.0001780987
vt 6.28125 1
vt 2.179688 0.000749588
vt 6.28125 0.0001780987
vt 2.179688 1

g Building37_27467_56
usemtl Building37_27467_56
usemap Building37_27467_56
f 1/1/1 3/3/3 2/2/2
f 2/2/2 4/4/4 1/1/1
f 5/5/5 7/7/7 6/6/6
f 6/6/6 8/8/8 5/5/5
f 9/9/9 11/11/11 10/10/10
f 10/10/10 12/12/12 9/9/9
f 13/13/13 15/15/15 14/14/14
f 14/14/14 16/16/16 13/13/13
