#Building14_27637_117.obj

v -0.6323941 -19.99736 -12.85594
v -3.04018 -19.99736 -13.22449
v -1.833617 -19.99736 -13.06051
v -3.04018 -19.99736 -13.22449
v -6.07617 -19.99736 -13.45662
v -4.859638 -19.99736 -13.39376
v -0.6323941 -19.99736 -12.85594
v -6.07617 -19.99736 -13.45662
v -3.04018 -19.99736 -13.22449
v 14.5942 -19.99736 -6.439311
v 11.7995 -19.99736 -8.224283
v 13.21526 -19.99736 -7.361653
v 14.90522 -19.99736 0.000406901
v 14.90212 -19.99736 -6.215617
v -10.73626 -19.99736 -4.835103
v -10.73544 -19.99736 -0.000406901
v -12.70581 -19.99736 -4.842021
v -0.6323941 -19.99736 -12.85594
v -6.07617 -19.99736 -13.45662
v -10.62517 -19.99736 -13.26813
v -8.431873 -19.99736 -13.47799
v -12.68206 -19.99736 -12.70732
v 4.102713 -19.99736 -11.63025
v 8.863913 -19.99736 -9.766336
v 10.34778 -19.99736 -9.026285
v 7.730897 -19.99736 -10.27964
v 2.333101 -19.99736 -12.17112
v 3.502127 -19.99736 -11.8279
v 1.154105 -19.99736 -12.47518
v 14.5942 -19.99736 6.439311
v 14.90522 -19.99736 0.000406901
v 14.90212 -19.99736 6.215617
v -10.73626 -19.99736 4.835103
v -10.73544 -19.99736 -0.000406901
v 10.34778 -19.99736 9.026285
v 11.7995 -19.99736 8.224283
v 13.21526 -19.99736 7.361653
v -1.833617 -19.99736 13.06051
v -8.431873 -19.99736 13.47799
v -12.68206 -19.99736 12.70732
v -12.70581 -19.99736 4.842021
v -10.62517 -19.99736 13.26813
v -4.859638 -19.99736 13.39376
v -6.07617 -19.99736 13.45652
v -3.04018 -19.99736 13.22449
v 3.502127 -19.99736 11.82861
v 1.154105 -19.99736 12.47518
v -0.6331571 -19.99736 12.85594
v 2.333101 -19.99736 12.17112
v 7.730897 -19.99736 10.27964
v 4.102713 -19.99736 11.63025
v 8.863913 -19.99736 9.766336

vn -0.004901886 1 0
vn -0.004901886 1 0
vn -0.004901886 1 0
vn -0.004901886 1 0
vn -0.004901886 1 0
vn -0.004901886 1 0
vn -0.004901886 1 0
vn -0.004901886 1 0
vn -0.004901886 1 0
vn -0.004901886 1 0
vn -0.004901886 1 0
vn -0.004901886 1 0
vn -0.004901886 1 0
vn -0.004901886 1 0
vn -0.004901886 1 0
vn -0.004901886 1 0
vn -0.004901886 1 0
vn -0.004901886 1 0
vn -0.004901886 1 0
vn -0.004901886 1 0
vn -0.004901886 1 0
vn -0.004901886 1 0
vn -0.004901886 1 0
vn -0.004901886 1 0
vn -0.004901886 1 0
vn -0.004901886 1 0
vn -0.004901886 1 0
vn -0.004901886 1 0
vn -0.004901886 1 0
vn -0.004901886 1 0
vn -0.004901886 1 0
vn -0.004901886 1 0
vn -0.004901886 1 0
vn -0.004901886 1 0
vn -0.004901886 1 0
vn -0.004901886 1 0
vn -0.004901886 1 0
vn -0.004901886 1 0
vn -0.004901886 1 0
vn -0.004901886 1 0
vn -0.004901886 1 0
vn -0.004901886 1 0
vn -0.004901886 1 0
vn -0.004901886 1 0
vn -0.004901886 1 0
vn -0.004901886 1 0
vn -0.004901886 1 0
vn -0.004901886 1 0
vn -0.004901886 1 0
vn -0.004901886 1 0
vn -0.004901886 1 0
vn -0.004901886 1 0

vt 0.5629883 0.03417969
vt 0.6499023 0.01428223
vt 0.605957 0.02320862
vt 0.6499023 0.01428223
vt 0.7597656 0.001235962
vt 0.7158203 0.004669189
vt 0.5629883 0.03417969
vt 0.7597656 0.001235962
vt 0.6499023 0.01428223
vt 0.010849 0.3903809
vt 0.1124268 0.291748
vt 0.06097412 0.3395996
vt 0.05822754 0.7475586
vt -0.0001375675 0.402832
vt 0.9287109 0.4797363
vt 0.9287109 0.7475586
vt 1 0.4790039
vt 0.5629883 0.03417969
vt 0.7597656 0.001235962
vt 0.9248047 0.01153564
vt 0.8452148 -0.0001375675
vt 0.9995117 0.04312134
vt 0.3911133 0.1028442
vt 0.2188721 0.2058105
vt 0.1646729 0.2470703
vt 0.2600098 0.1777344
vt 0.4550781 0.07263184
vt 0.4130859 0.09185791
vt 0.498291 0.05548096
vt 0.010849 0.3903809
vt 0.05822754 0.7475586
vt -0.0001375675 0.402832
vt 0.9287109 0.4797363
vt 0.9287109 0.7475586
vt 0.1646729 0.2470703
vt 0.1124268 0.291748
vt 0.06097412 0.3395996
vt 0.605957 0.02320862
vt 0.8452148 -0.0001375675
vt 0.9995117 0.04312134
vt 1 0.4790039
vt 0.9248047 0.01153564
vt 0.7158203 0.004669189
vt 0.7597656 0.001235962
vt 0.6499023 0.01428223
vt 0.4130859 0.09185791
vt 0.498291 0.05548096
vt 0.5629883 0.03417969
vt 0.4550781 0.07263184
vt 0.2600098 0.1777344
vt 0.3911133 0.1028442
vt 0.2188721 0.2058105

g Building14_27637_117
usemtl Building14_27637_117
usemap Building14_27637_117
f 1/1/1 3/3/3 2/2/2
f 4/4/4 6/6/6 5/5/5
f 7/7/7 9/9/9 8/8/8
f 10/10/10 12/12/12 11/11/11
f 10/10/10 11/11/11 13/13/13
f 10/10/10 13/13/13 14/14/14
f 11/11/11 15/15/15 13/13/13
f 15/15/15 16/16/16 13/13/13
f 11/11/11 17/17/17 15/15/15
f 11/11/11 18/18/18 17/17/17
f 18/18/18 19/19/19 17/17/17
f 19/19/19 20/20/20 17/17/17
f 19/19/19 21/21/21 20/20/20
f 20/20/20 22/22/22 17/17/17
f 11/11/11 23/23/23 18/18/18
f 11/11/11 24/24/24 23/23/23
f 11/11/11 25/25/25 24/24/24
f 24/24/24 26/26/26 23/23/23
f 23/23/23 27/27/27 18/18/18
f 23/23/23 28/28/28 27/27/27
f 27/27/27 29/29/29 18/18/18
f 30/30/30 32/32/32 31/31/31
f 30/30/30 31/31/31 33/33/33
f 31/31/31 34/34/34 33/33/33
f 30/30/30 33/33/33 35/35/35
f 30/30/30 35/35/35 36/36/36
f 30/30/30 36/36/36 37/37/37
f 33/33/33 38/38/38 35/35/35
f 33/33/33 39/39/39 38/38/38
f 33/33/33 40/40/40 39/39/39
f 33/33/33 41/41/41 40/40/40
f 40/40/40 42/42/42 39/39/39
f 39/39/39 43/43/43 38/38/38
f 39/39/39 44/44/44 43/43/43
f 43/43/43 45/45/45 38/38/38
f 38/38/38 46/46/46 35/35/35
f 38/38/38 47/47/47 46/46/46
f 38/38/38 48/48/48 47/47/47
f 47/47/47 49/49/49 46/46/46
f 46/46/46 50/50/50 35/35/35
f 46/46/46 51/51/51 50/50/50
f 50/50/50 52/52/52 35/35/35
