#Building53_27490_105.obj

v 10.79517 6.530157 21.34961
v -10.79517 6.530157 21.34961
v -10.79517 6.876783 21.34961
v 10.79517 6.876783 21.34961
v 10.79517 6.530157 -21.34961
v 10.79517 6.530157 21.34961
v 10.79517 6.876783 21.34961
v 10.79517 6.876783 -21.34961
v -10.79517 6.530157 -21.34961
v 10.79517 6.530157 -21.34961
v 10.79517 6.876783 -21.34961
v -10.79517 6.876783 -21.34961
v -10.79517 6.530157 21.34961
v -10.79517 6.530157 -21.34961
v -10.79517 6.876783 -21.34961
v -10.79517 6.876783 21.34961

vn -0.003921509 0.003921509 1
vn -0.003921509 0.003921509 1
vn -0.003921509 0.003921509 1
vn -0.003921509 0.003921509 1
vn 1 0.003921509 0
vn 1 0.003921509 0
vn 1 0.003921509 0
vn 1 0.003921509 0
vn -0.003921509 0.003921509 -1
vn -0.003921509 0.003921509 -1
vn -0.003921509 0.003921509 -1
vn -0.003921509 0.003921509 -1
vn -1 0.003921509 0
vn -1 0.003921509 0
vn -1 0.003921509 0
vn -1 0.003921509 0

vt 0.9995117 0.7495117
vt 0.0001167059 0.7495117
vt 0.0001167059 0.9995117
vt 0.9995117 0.9995117
vt 0.9995117 0.7495117
vt 0.0001167059 0.7495117
vt 0.0001167059 0.9995117
vt 0.9995117 0.9995117
vt 0.9995117 0.7495117
vt 0.0001167059 0.7495117
vt 0.0001167059 0.9995117
vt 0.9995117 0.9995117
vt 0.9995117 0.7495117
vt 0.0001167059 0.7495117
vt 0.0001167059 0.9995117
vt 0.9995117 0.9995117

g Building53_27490_105
usemtl Building53_27490_105
usemap Building53_27490_105
f 1/1/1 3/3/3 2/2/2
f 1/1/1 4/4/4 3/3/3
f 5/5/5 7/7/7 6/6/6
f 5/5/5 8/8/8 7/7/7
f 9/9/9 11/11/11 10/10/10
f 9/9/9 12/12/12 11/11/11
f 13/13/13 15/15/15 14/14/14
f 13/13/13 16/16/16 15/15/15
