#Building71_(4)_27332_143.obj

v -1.415568 2.379721 0.008593816
v -1.415568 3.896927 0.008593816
v -3.571415 3.896927 2.162887
v -3.571415 2.379721 2.162887
v -3.571415 2.379721 2.162887
v -3.571415 3.896927 2.162887
v -1.435248 3.896927 4.30078
v -1.435248 2.379721 4.30078
v -1.435248 2.379721 4.30078
v -1.435248 3.896927 4.30078
v 0.7008322 3.896927 6.438415
v 0.7008322 2.379721 6.438415
v 0.7008322 2.379721 6.438415
v 0.7008322 3.896927 6.438415
v 2.856938 3.896927 4.283863
v 2.856938 2.379721 4.283863
v 2.856938 2.379721 4.283863
v 2.856938 3.896927 4.283863
v 5.012699 3.896927 2.129656
v 5.012699 2.379721 2.129656
v 5.012699 2.379721 2.129656
v 5.012699 3.896927 2.129656
v 7.168719 3.896927 -0.02463756
v 7.168719 2.379721 -0.02463756
v 7.168719 2.379721 -0.02463756
v 7.168719 3.896927 -0.02463756
v 5.032552 3.896927 -2.162531
v 5.032552 2.379721 -2.162531
v 5.032552 2.379721 -2.162531
v 5.032552 3.896927 -2.162531
v 2.896299 3.896927 -4.300165
v 2.896299 2.379721 -4.300165
v 2.896299 2.379721 -4.300165
v 2.896299 3.896927 -4.300165
v 0.760219 3.896927 -6.437799
v 0.760219 2.379721 -6.437799
v 0.760219 2.379721 -6.437799
v 0.760219 3.896927 -6.437799
v -1.395628 3.896927 -4.283506
v -1.395628 2.379721 -4.283506
v -1.395628 2.379721 -4.283506
v -1.395628 3.896927 -4.283506
v -3.551648 3.896927 -2.12904
v -3.551648 2.379721 -2.12904
v -3.551648 2.379721 -2.12904
v -3.551648 3.896927 -2.12904
v -1.415568 3.896927 0.008593816
v -1.415568 2.379721 0.008593816

vn -1 0.003921509 0.003829956
vn -1 0.003921509 0.003829956
vn -1 0.003921509 0.003829956
vn -1 0.003921509 0.003829956
vn -0.003829956 0.003921509 1
vn -0.003829956 0.003921509 1
vn -0.003829956 0.003921509 1
vn -0.003829956 0.003921509 1
vn -0.003829956 0.003921509 1
vn -0.003829956 0.003921509 1
vn -0.003829956 0.003921509 1
vn -0.003829956 0.003921509 1
vn 1 0.003921509 -0.003829956
vn 1 0.003921509 -0.003829956
vn 1 0.003921509 -0.003829956
vn 1 0.003921509 -0.003829956
vn 1 0.003921509 -0.003829956
vn 1 0.003921509 -0.003829956
vn 1 0.003921509 -0.003829956
vn 1 0.003921509 -0.003829956
vn 1 0.003921509 -0.003829956
vn 1 0.003921509 -0.003829956
vn 1 0.003921509 -0.003829956
vn 1 0.003921509 -0.003829956
vn 0.003829956 0.003921509 -1
vn 0.003829956 0.003921509 -1
vn 0.003829956 0.003921509 -1
vn 0.003829956 0.003921509 -1
vn 0.003829956 0.003921509 -1
vn 0.003829956 0.003921509 -1
vn 0.003829956 0.003921509 -1
vn 0.003829956 0.003921509 -1
vn 0.003829956 0.003921509 -1
vn 0.003829956 0.003921509 -1
vn 0.003829956 0.003921509 -1
vn 0.003829956 0.003921509 -1
vn -1 0.003921509 0.003829956
vn -1 0.003921509 0.003829956
vn -1 0.003921509 0.003829956
vn -1 0.003921509 0.003829956
vn -1 0.003921509 0.003829956
vn -1 0.003921509 0.003829956
vn -1 0.003921509 0.003829956
vn -1 0.003921509 0.003829956
vn -0.003829956 0.003921509 1
vn -0.003829956 0.003921509 1
vn -0.003829956 0.003921509 1
vn -0.003829956 0.003921509 1

vt -5.960464E-08 -5.960464E-08
vt -5.960464E-08 1
vt 1 1
vt 1 -5.960464E-08
vt -5.960464E-08 -5.960464E-08
vt -5.960464E-08 1
vt 1 1
vt 1 -5.960464E-08
vt -5.960464E-08 -5.960464E-08
vt -5.960464E-08 1
vt 1 1
vt 1 -5.960464E-08
vt -5.960464E-08 -5.960464E-08
vt -5.960464E-08 1
vt 1 1
vt 1 -5.960464E-08
vt -5.960464E-08 -5.960464E-08
vt -5.960464E-08 1
vt 1 1
vt 1 -5.960464E-08
vt -5.960464E-08 -5.960464E-08
vt -5.960464E-08 1
vt 1 1
vt 1 -5.960464E-08
vt -5.960464E-08 -5.960464E-08
vt -5.960464E-08 1
vt 1 1
vt 1 -5.960464E-08
vt -5.960464E-08 -5.960464E-08
vt -5.960464E-08 1
vt 1 1
vt 1 -5.960464E-08
vt -5.960464E-08 -5.960464E-08
vt -5.960464E-08 1
vt 1 1
vt 1 -5.960464E-08
vt -5.960464E-08 -5.960464E-08
vt -5.960464E-08 1
vt 1 1
vt 1 -5.960464E-08
vt -5.960464E-08 -5.960464E-08
vt -5.960464E-08 1
vt 1 1
vt 1 -5.960464E-08
vt -5.960464E-08 -5.960464E-08
vt -5.960464E-08 1
vt 1 1
vt 1 -5.960464E-08

g Building71_(4)_27332_143
usemtl Building71_(4)_27332_143
usemap Building71_(4)_27332_143
f 1/1/1 3/3/3 2/2/2
f 1/1/1 4/4/4 3/3/3
f 5/5/5 7/7/7 6/6/6
f 5/5/5 8/8/8 7/7/7
f 9/9/9 11/11/11 10/10/10
f 9/9/9 12/12/12 11/11/11
f 13/13/13 15/15/15 14/14/14
f 13/13/13 16/16/16 15/15/15
f 17/17/17 19/19/19 18/18/18
f 17/17/17 20/20/20 19/19/19
f 21/21/21 23/23/23 22/22/22
f 21/21/21 24/24/24 23/23/23
f 25/25/25 27/27/27 26/26/26
f 25/25/25 28/28/28 27/27/27
f 29/29/29 31/31/31 30/30/30
f 29/29/29 32/32/32 31/31/31
f 33/33/33 35/35/35 34/34/34
f 33/33/33 36/36/36 35/35/35
f 37/37/37 39/39/39 38/38/38
f 37/37/37 40/40/40 39/39/39
f 41/41/41 43/43/43 42/42/42
f 41/41/41 44/44/44 43/43/43
f 45/45/45 47/47/47 46/46/46
f 45/45/45 48/48/48 47/47/47
