#Building53_27490_103.obj

v 10.79517 -5.360626 -21.34961
v 10.79517 -5.360626 15.26355
v 10.79517 -5.360626 19.37744
v 10.79517 -5.360626 21.34961
v 10.79517 -5.360626 -21.34961
v -10.79517 6.530157 21.34961
v 10.79517 6.530157 21.34961
v 10.79517 -5.360626 21.34961
v 2.272339 -5.360626 21.34961
v -2.272339 -5.360626 21.34961
v -10.79517 -5.360626 21.34961
v 10.79517 -5.360626 21.34961
v 10.79517 6.530157 21.34961
v 10.79517 -5.360626 -21.34961
v 10.79517 6.530157 -21.34961
v -10.79517 -5.360626 -21.34961
v 10.79517 -5.360626 -21.34961
v 10.79517 6.530157 -21.34961
v -10.79517 6.530157 -21.34961

vn 1 0.003921509 0
vn 1 0.003921509 0
vn 1 0.003921509 0
vn 1 0.003921509 0
vn 1 0.003921509 0
vn -0.003921509 0.003921509 1
vn -0.003921509 0.003921509 1
vn -0.003921509 0.003921509 1
vn -0.003921509 0.003921509 1
vn -0.003921509 0.003921509 1
vn -0.003921509 0.003921509 1
vn 1 0.003921509 0
vn 1 0.003921509 0
vn 1 0.003921509 0
vn 1 0.003921509 0
vn -0.003921509 0.003921509 -1
vn -0.003921509 0.003921509 -1
vn -0.003921509 0.003921509 -1
vn -0.003921509 0.003921509 -1

vt 3.972656 -0.6674805
vt -1.982422 -0.6674805
vt -2.650391 -0.6674805
vt -2.972656 -0.6674805
vt 3.972656 -0.6674805
vt -1.024414 1.319336
vt 2.023438 1.319336
vt 2.023438 -0.6674805
vt 0.8208008 -0.6674805
vt 0.1791992 -0.6674805
vt -1.024414 -0.6674805
vt -2.972656 -0.6674805
vt -2.972656 1.319336
vt 3.972656 -0.6674805
vt 3.972656 1.319336
vt 2.023438 -0.6674805
vt -1.024414 -0.6674805
vt -1.024414 1.319336
vt 2.023438 1.319336

g Building53_27490_103
usemtl Building53_27490_103
usemap Building53_27490_103
f 1/1/1 3/3/3 2/2/2
f 3/3/3 5/5/5 4/4/4
f 6/6/6 8/8/8 7/7/7
f 8/8/8 6/6/6 9/9/9
f 9/9/9 6/6/6 10/10/10
f 10/10/10 6/6/6 11/11/11
f 12/12/12 14/14/14 13/13/13
f 13/13/13 14/14/14 15/15/15
f 16/16/16 18/18/18 17/17/17
f 16/16/16 19/19/19 18/18/18
