#Building23_28442_32.obj

v 4.809204 18.51877 -10.06787
v 4.809204 -29.11615 8.486938
v 4.809204 -29.11615 -10.06787
v 4.809204 18.51877 8.486938
v 5.127441 -29.11615 8.486938
v 5.127441 18.51877 -10.06787
v 5.127441 -29.11615 -10.06787
v 5.127441 18.51877 8.486938
v 5.127441 18.52991 -5.061523
v 5.127441 18.51877 -10.06787
v 4.809204 -29.11615 -10.06787
v 5.127441 -29.11615 -10.06787
v 4.809204 18.51877 -10.06787
v 4.809204 18.51877 8.486938
v 5.127441 -29.11615 8.486938
v 4.809204 -29.11615 8.486938
v 5.127441 18.51877 8.486938
v 5.127441 28.41484 8.486938
v 4.809204 28.41484 8.486938
v -5.139526 18.51877 -10.06787
v -5.139526 -29.11615 8.486938
v -5.139526 -29.11615 -10.06787
v -5.139526 18.51877 8.486938
v -5.139526 18.53701 -1.240967
v -5.139526 18.53701 -5.061523
v -5.139526 22.60286 -1.240967
v -5.139526 28.41484 -6.247314
v -5.139526 28.41484 8.486938
v -5.139526 22.60286 -5.061523
v -4.821289 18.51877 -10.06787
v -4.821289 -29.11615 8.486938
v -4.821289 18.51877 8.486938
v -4.821289 -29.11615 -10.06787
v -4.821289 18.51877 -10.06787
v -5.139526 -29.11615 -10.06787
v -4.821289 -29.11615 -10.06787
v -5.139526 18.51877 -10.06787
v -5.139526 18.51877 8.486938
v -4.821289 -29.11615 8.486938
v -5.139526 -29.11615 8.486938
v -4.821289 18.51877 8.486938
v -4.821289 28.41484 8.486938
v -5.139526 28.41484 8.486938
v 4.809204 28.41484 -6.247314
v 5.127441 18.51877 -10.06787
v 5.127441 28.41484 -6.247314
v 4.809204 18.51877 -10.06787
v -5.139526 28.41484 -6.247314
v -4.821289 18.51877 -10.06787
v -4.821289 28.41484 -6.247314
v -5.139526 18.51877 -10.06787
v 5.127441 18.52991 -5.061523
v 5.127441 18.51877 8.486938
v 5.127441 18.52991 -1.240967
v 5.127441 28.41484 8.486938
v 5.127441 22.60286 -1.240967
v 5.127441 28.41484 -6.247314
v 5.127441 22.60286 -5.061523
v 5.127441 18.51877 -10.06787
v 5.127441 18.52991 -5.061523
v -4.821289 18.53701 -5.061523
v -4.821289 18.51877 8.486938
v -4.821289 18.53701 -1.240967
v -4.821289 28.41484 8.486938
v -4.821289 22.60286 -1.240967
v -4.821289 28.41484 -6.247314
v -4.821289 22.60286 -5.061523
v -4.821289 18.51877 -10.06787
v -4.821289 18.53701 -5.061523
v 4.809204 18.52991 -5.061523
v 4.809204 18.52991 -1.240967
v 4.809204 18.51877 -10.06787
v 4.809204 28.41484 -6.247314
v 4.809204 22.60286 -5.061523
v 4.809204 28.41484 8.486938
v 4.809204 22.60286 -1.240967
v 4.809204 18.51877 8.486938
v 4.809204 18.52991 -1.240967
v 4.809204 18.52991 -1.240967
v 5.127441 18.52991 -5.061523
v 5.127441 18.52991 -1.240967
v 4.809204 18.52991 -5.061523
v 4.809204 22.60286 -5.061523
v 5.127441 22.60286 -1.240967
v 5.127441 22.60286 -5.061523
v 4.809204 22.60286 -1.240967
v 5.127441 18.52991 -1.240967
v 4.809204 22.60286 -1.240967
v 4.809204 18.52991 -1.240967
v 5.127441 22.60286 -1.240967
v 4.809204 22.60286 -5.061523
v 5.127441 18.52991 -5.061523
v 4.809204 18.52991 -5.061523
v 5.127441 22.60286 -5.061523
v -5.139526 22.60286 -5.061523
v -4.821289 22.60286 -1.240967
v -4.821289 22.60286 -5.061523
v -5.139526 22.60286 -1.240967
v -5.139526 22.60286 -1.240967
v -4.821289 18.53701 -1.240967
v -4.821289 22.60286 -1.240967
v -5.139526 18.53701 -1.240967
v -5.139526 18.53701 -5.061523
v -4.821289 18.53701 -1.240967
v -5.139526 18.53701 -1.240967
v -4.821289 18.53701 -5.061523
v -5.139526 22.60286 -5.061523
v -4.821289 18.53701 -5.061523
v -5.139526 18.53701 -5.061523
v -4.821289 22.60286 -5.061523
v 0.0390625 33.20732 6.931274
v 0.0390625 -29.11615 5.771973
v 0.0390625 -29.11615 6.931274
v 0.0390625 33.20732 5.771973
v -0.05212402 33.20732 6.931274
v -0.05212402 -29.11615 5.771973
v -0.05212402 33.20732 5.771973
v -0.05212402 -29.11615 6.931274
v 0.0390625 33.20732 6.931274
v -0.05212402 -29.11615 6.931274
v -0.05212402 33.20732 6.931274
v 0.0390625 -29.11615 6.931274
v 0.0390625 18.60795 -9.356445
v 0.0390625 -29.11615 -8.197021
v 0.0390625 18.60795 -8.197021
v 0.0390625 -29.11615 -9.356445
v -0.05212402 18.60795 -9.356445
v -0.05212402 -29.11615 -8.197021
v -0.05212402 -29.11615 -9.356445
v -0.05212402 18.60795 -8.197021
v 0.0390625 18.60795 -9.356445
v -0.05212402 -29.11615 -9.356445
v 0.0390625 -29.11615 -9.356445
v -0.05212402 18.60795 -9.356445
v 0.0390625 18.60795 -8.197021
v -0.05212402 18.60795 -9.356445
v 0.0390625 18.60795 -9.356445
v -0.05212402 18.60795 -8.197021

vn -1 0.003921509 0
vn -1 0.003921509 0
vn -1 0.003921509 0
vn -1 0.003921509 0
vn 1 0.003921509 0
vn 1 0.003921509 0
vn 1 0.003921509 0
vn 1 0.003921509 0
vn 1 0.003921509 0
vn -0.003921509 0.003921509 -1
vn -0.003921509 0.003921509 -1
vn -0.003921509 0.003921509 -1
vn -0.003921509 0.003921509 -1
vn -0.003921509 0.003921509 1
vn -0.003921509 0.003921509 1
vn -0.003921509 0.003921509 1
vn -0.003921509 0.003921509 1
vn -0.003921509 0.003921509 1
vn -0.003921509 0.003921509 1
vn -1 0.003921509 0
vn -1 0.003921509 0
vn -1 0.003921509 0
vn -1 0.003921509 0
vn -1 0.003921509 0
vn -1 0.003921509 0
vn -1 0.003921509 0
vn -1 0.003921509 0
vn -1 0.003921509 0
vn -1 0.003921509 0
vn 1 0.003921509 0
vn 1 0.003921509 0
vn 1 0.003921509 0
vn 1 0.003921509 0
vn -0.003921509 0.003921509 -1
vn -0.003921509 0.003921509 -1
vn -0.003921509 0.003921509 -1
vn -0.003921509 0.003921509 -1
vn -0.003921509 0.003921509 1
vn -0.003921509 0.003921509 1
vn -0.003921509 0.003921509 1
vn -0.003921509 0.003921509 1
vn -0.003921509 0.003921509 1
vn -0.003921509 0.003921509 1
vn -0.003921509 0.3959961 -0.9179688
vn -0.003921509 0.3959961 -0.9179688
vn -0.003921509 0.3959961 -0.9179688
vn -0.003921509 0.3959961 -0.9179688
vn -0.003921509 0.3959961 -0.9179688
vn -0.003921509 0.3959961 -0.9179688
vn -0.003921509 0.3959961 -0.9179688
vn -0.003921509 0.3959961 -0.9179688
vn 1 0.003921509 0
vn 1 0.003921509 0
vn 1 0.003921509 0
vn 1 0.003921509 0
vn 1 0.003921509 0
vn 1 0.003921509 0
vn 1 0.003921509 0
vn 1 0.003921509 0
vn 1 0.003921509 0
vn 1 0.003921509 0
vn 1 0.003921509 0
vn 1 0.003921509 0
vn 1 0.003921509 0
vn 1 0.003921509 0
vn 1 0.003921509 0
vn 1 0.003921509 0
vn 1 0.003921509 0
vn 1 0.003921509 0
vn -1 0.003921509 0
vn -1 0.003921509 0
vn -1 0.003921509 0
vn -1 0.003921509 0
vn -1 0.003921509 0
vn -1 0.003921509 0
vn -1 0.003921509 0
vn -1 0.003921509 0
vn -1 0.003921509 0
vn -0.003921509 1 0
vn -0.003921509 1 0
vn -0.003921509 1 0
vn -0.003921509 1 0
vn -0.003921509 -1 0
vn -0.003921509 -1 0
vn -0.003921509 -1 0
vn -0.003921509 -1 0
vn 0.003921509 0.003921509 -1
vn 0.003921509 0.003921509 -1
vn 0.003921509 0.003921509 -1
vn 0.003921509 0.003921509 -1
vn -0.003921509 0.003921509 1
vn -0.003921509 0.003921509 1
vn -0.003921509 0.003921509 1
vn -0.003921509 0.003921509 1
vn -0.003921509 -1 0
vn -0.003921509 -1 0
vn -0.003921509 -1 0
vn -0.003921509 -1 0
vn 0.003921509 0.003921509 -1
vn 0.003921509 0.003921509 -1
vn 0.003921509 0.003921509 -1
vn 0.003921509 0.003921509 -1
vn -0.003921509 1 0
vn -0.003921509 1 0
vn -0.003921509 1 0
vn -0.003921509 1 0
vn -0.003921509 0.003921509 1
vn -0.003921509 0.003921509 1
vn -0.003921509 0.003921509 1
vn -0.003921509 0.003921509 1
vn 1 0.003921509 0
vn 1 0.003921509 0
vn 1 0.003921509 0
vn 1 0.003921509 0
vn -1 0.003921509 0
vn -1 0.003921509 0
vn -1 0.003921509 0
vn -1 0.003921509 0
vn -0.003921509 0.003921509 1
vn -0.003921509 0.003921509 1
vn -0.003921509 0.003921509 1
vn -0.003921509 0.003921509 1
vn 1 0.003921509 0
vn 1 0.003921509 0
vn 1 0.003921509 0
vn 1 0.003921509 0
vn -1 0.003921509 0
vn -1 0.003921509 0
vn -1 0.003921509 0
vn -1 0.003921509 0
vn -0.003921509 0.003921509 -1
vn -0.003921509 0.003921509 -1
vn -0.003921509 0.003921509 -1
vn -0.003921509 0.003921509 -1
vn -0.003921509 1 0
vn -0.003921509 1 0
vn -0.003921509 1 0
vn -0.003921509 1 0

vt -6.742188 4.328125
vt 7.742188 -6.742188
vt -6.742188 -6.742188
vt 7.742188 4.328125
vt -6.742188 -6.742188
vt 7.742188 4.328125
vt 7.742188 -6.742188
vt -6.742188 4.328125
vt 3.833984 4.332031
vt -6.742188 4.328125
vt -6.292969 -6.742188
vt -6.742188 -6.742188
vt -6.292969 4.328125
vt 7.292969 4.328125
vt 7.742188 -6.742188
vt 7.292969 -6.742188
vt 7.742188 4.328125
vt 7.742188 6.628906
vt 7.292969 6.628906
vt -6.742188 4.328125
vt 7.742188 -6.742188
vt -6.742188 -6.742188
vt 7.742188 4.328125
vt 0.1485596 4.332031
vt -2.833984 4.332031
vt 0.1485596 5.277344
vt -3.759766 6.628906
vt 7.742188 6.628906
vt -2.833984 5.277344
vt 7.742188 4.328125
vt -6.742188 -6.742188
vt -6.742188 4.328125
vt 7.742188 -6.742188
vt 7.292969 4.328125
vt 7.742188 -6.742188
vt 7.292969 -6.742188
vt 7.742188 4.328125
vt -6.742188 4.328125
vt -6.292969 -6.742188
vt -6.742188 -6.742188
vt -6.292969 4.328125
vt -6.292969 6.628906
vt -6.742188 6.628906
vt -6.292969 6.628906
vt -6.742188 4.328125
vt -6.742188 6.628906
vt -6.292969 4.328125
vt 7.742188 6.628906
vt 7.292969 4.328125
vt 7.292969 6.628906
vt 7.742188 4.328125
vt 3.833984 4.332031
vt -6.742188 4.328125
vt 0.8515625 4.332031
vt -6.742188 6.628906
vt 0.8515625 5.277344
vt 4.761719 6.628906
vt 3.833984 5.277344
vt 7.742188 4.328125
vt 3.833984 4.332031
vt 3.833984 4.332031
vt -6.742188 4.328125
vt 0.8515625 4.332031
vt -6.742188 6.628906
vt 0.8515625 5.277344
vt 4.761719 6.628906
vt 3.833984 5.277344
vt 7.742188 4.328125
vt 3.833984 4.332031
vt -2.833984 4.332031
vt 0.1485596 4.332031
vt -6.742188 4.328125
vt -3.759766 6.628906
vt -2.833984 5.277344
vt 7.742188 6.628906
vt 0.1485596 5.277344
vt 7.742188 4.328125
vt 0.1485596 4.332031
vt -6.292969 0.1485596
vt -6.742188 -2.833984
vt -6.742188 0.1485596
vt -6.292969 -2.833984
vt 7.292969 -2.833984
vt 7.742188 0.1485596
vt 7.742188 -2.833984
vt 7.292969 0.1485596
vt -6.742188 4.332031
vt -6.292969 5.277344
vt -6.292969 4.332031
vt -6.742188 5.277344
vt 7.292969 5.277344
vt 7.742188 4.332031
vt 7.292969 4.332031
vt 7.742188 5.277344
vt -6.742188 -2.833984
vt -6.292969 0.1485596
vt -6.292969 -2.833984
vt -6.742188 0.1485596
vt 7.742188 5.277344
vt 7.292969 4.332031
vt 7.292969 5.277344
vt 7.742188 4.332031
vt 7.742188 -2.833984
vt 7.292969 0.1485596
vt 7.742188 0.1485596
vt 7.292969 -2.833984
vt -6.742188 5.277344
vt -6.292969 4.332031
vt -6.742188 4.332031
vt -6.292969 5.277344
vt -5.527344 7.742188
vt -4.625 -6.742188
vt -5.527344 -6.742188
vt -4.625 7.742188
vt 6.527344 7.742188
vt 5.625 -6.742188
vt 5.625 7.742188
vt 6.527344 -6.742188
vt 0.5644531 7.742188
vt 0.435791 -6.742188
vt 0.435791 7.742188
vt 0.5644531 -6.742188
vt 7.1875 4.351563
vt 6.28125 -6.742188
vt 6.28125 4.351563
vt 7.1875 -6.742188
vt -6.1875 4.351563
vt -5.28125 -6.742188
vt -6.1875 -6.742188
vt -5.28125 4.351563
vt 0.435791 4.351563
vt 0.5644531 -6.742188
vt 0.435791 -6.742188
vt 0.5644531 4.351563
vt 0.435791 -5.28125
vt 0.5644531 -6.1875
vt 0.435791 -6.1875
vt 0.5644531 -5.28125

g Building23_28442_32
usemtl Building23_28442_32
usemap Building23_28442_32
f 1/1/1 3/3/3 2/2/2
f 2/2/2 4/4/4 1/1/1
f 5/5/5 7/7/7 6/6/6
f 6/6/6 8/8/8 5/5/5
f 9/9/9 8/8/8 6/6/6
f 10/10/10 12/12/12 11/11/11
f 11/11/11 13/13/13 10/10/10
f 14/14/14 16/16/16 15/15/15
f 15/15/15 17/17/17 14/14/14
f 14/14/14 17/17/17 18/18/18
f 18/18/18 19/19/19 14/14/14
f 20/20/20 22/22/22 21/21/21
f 21/21/21 23/23/23 20/20/20
f 20/20/20 23/23/23 24/24/24
f 25/25/25 20/20/20 24/24/24
f 23/23/23 26/26/26 24/24/24
f 25/25/25 27/27/27 20/20/20
f 23/23/23 28/28/28 26/26/26
f 25/25/25 29/29/29 27/27/27
f 28/28/28 29/29/29 26/26/26
f 29/29/29 28/28/28 27/27/27
f 30/30/30 32/32/32 31/31/31
f 31/31/31 33/33/33 30/30/30
f 34/34/34 36/36/36 35/35/35
f 35/35/35 37/37/37 34/34/34
f 38/38/38 40/40/40 39/39/39
f 39/39/39 41/41/41 38/38/38
f 38/38/38 41/41/41 42/42/42
f 42/42/42 43/43/43 38/38/38
f 44/44/44 46/46/46 45/45/45
f 45/45/45 47/47/47 44/44/44
f 48/48/48 50/50/50 49/49/49
f 49/49/49 51/51/51 48/48/48
f 52/52/52 54/54/54 53/53/53
f 54/54/54 55/55/55 53/53/53
f 55/55/55 54/54/54 56/56/56
f 57/57/57 55/55/55 56/56/56
f 57/57/57 56/56/56 58/58/58
f 59/59/59 57/57/57 58/58/58
f 60/60/60 59/59/59 58/58/58
f 61/61/61 63/63/63 62/62/62
f 63/63/63 64/64/64 62/62/62
f 64/64/64 63/63/63 65/65/65
f 66/66/66 64/64/64 65/65/65
f 66/66/66 65/65/65 67/67/67
f 68/68/68 66/66/66 67/67/67
f 69/69/69 62/62/62 68/68/68
f 69/69/69 68/68/68 67/67/67
f 70/70/70 72/72/72 71/71/71
f 70/70/70 73/73/73 72/72/72
f 70/70/70 74/74/74 73/73/73
f 74/74/74 75/75/75 73/73/73
f 75/75/75 74/74/74 76/76/76
f 77/77/77 75/75/75 76/76/76
f 72/72/72 77/77/77 78/78/78
f 77/77/77 76/76/76 78/78/78
f 79/79/79 81/81/81 80/80/80
f 80/80/80 82/82/82 79/79/79
f 83/83/83 85/85/85 84/84/84
f 84/84/84 86/86/86 83/83/83
f 87/87/87 89/89/89 88/88/88
f 88/88/88 90/90/90 87/87/87
f 91/91/91 93/93/93 92/92/92
f 92/92/92 94/94/94 91/91/91
f 95/95/95 97/97/97 96/96/96
f 96/96/96 98/98/98 95/95/95
f 99/99/99 101/101/101 100/100/100
f 100/100/100 102/102/102 99/99/99
f 103/103/103 105/105/105 104/104/104
f 104/104/104 106/106/106 103/103/103
f 107/107/107 109/109/109 108/108/108
f 108/108/108 110/110/110 107/107/107
f 111/111/111 113/113/113 112/112/112
f 112/112/112 114/114/114 111/111/111
f 115/115/115 117/117/117 116/116/116
f 116/116/116 118/118/118 115/115/115
f 119/119/119 121/121/121 120/120/120
f 120/120/120 122/122/122 119/119/119
f 123/123/123 125/125/125 124/124/124
f 124/124/124 126/126/126 123/123/123
f 127/127/127 129/129/129 128/128/128
f 128/128/128 130/130/130 127/127/127
f 131/131/131 133/133/133 132/132/132
f 132/132/132 134/134/134 131/131/131
f 135/135/135 137/137/137 136/136/136
f 136/136/136 138/138/138 135/135/135
