#Building22_26603_11.obj

v 8.309998 -25.35853 9.520142
v 6.572021 -21.26663 9.32666
v 8.312317 -21.26818 9.520142
v -17.72485 -21.25193 0.02160645
v -17.7287 -25.34228 0.02160645
v -17.72717 -23.69484 0.02160645
v -14.78516 -25.34461 1.9198
v -14.78516 -24.57776 1.9198
v -14.78436 -21.25348 1.919067
v -16.27393 -24.3905 -0.9541016
v -17.7287 -25.34228 0.02160645
v -16.27393 -25.34306 -0.9541016
v -16.27393 -24.3905 -0.9541016
v -14.789 -21.25348 -1.88269
v -16.27319 -21.2527 -0.9533691
v -16.27161 -24.58318 0.9942627
v -14.78436 -21.25348 1.919067
v -14.78516 -24.57776 1.9198
v 13.5564 -21.27127 9.768555
v 15.30444 -25.36318 9.739136
v 13.55328 -25.36163 9.768555
v 15.30676 -21.27205 9.739136
v 17.05481 -25.36395 9.654785
v 17.06177 -21.2736 9.654785
v -13.27002 -21.25889 2.793457
v -12.25403 -25.34615 3.342773
v -13.27155 -25.34538 2.794189
v -14.78516 -25.34461 1.9198
v -14.78436 -21.25348 1.919067
v -16.27161 -24.58318 0.9942627
v -16.27087 -21.2527 0.9935303
v -17.72485 -21.25193 0.02160645
v -17.7287 -25.34228 0.02160645
v -16.27161 -25.34306 0.9942627
v -1.989441 -21.26121 7.533813
v -0.3048706 -25.35312 8.000366
v -1.99176 -25.35234 7.533813
v -0.3025513 -21.26276 8.001099
v 1.395996 -25.35389 8.413574
v 1.398315 -21.26353 8.414429
v 2.88092 -25.35544 8.724609
v 2.131897 -21.26431 8.567627
v -6.951111 -21.25812 5.812866
v -8.569153 -24.34794 5.134155
v -8.566833 -21.25735 5.134155
v -6.95343 -24.36109 5.812866
v -5.316833 -24.3874 6.438843
v -5.314514 -21.25967 6.439575
v -3.661621 -25.3508 7.009155
v -4.41687 -21.25967 6.748413
v -5.317566 -25.35002 6.438843
v 4.672302 -21.26586 9.048096
v 4.835571 -25.35621 9.077515
v 4.696289 -25.35621 9.052734
v 4.837891 -21.26586 9.077515
v 6.569702 -25.35776 9.32666
v 6.572021 -21.26663 9.32666
v 8.309998 -25.35853 9.520142
v 8.312317 -21.26818 9.520142
v 9.860657 -25.35931 9.639282
v 9.293457 -21.26818 9.595947
v -8.566833 -21.25735 5.134155
v -8.569153 -24.34794 5.134155
v -8.569153 -25.34847 5.134155
v -8.576111 -25.34847 0.01074219
v -8.572998 -21.25735 0.01074219
v -8.579163 -21.25735 -5.113403
v -8.581543 -24.26127 -5.113403
v -8.582275 -25.3477 -5.113403
v -2.001038 -25.35234 0.002319336
v -1.989441 -21.26121 7.533813
v -1.99176 -25.35234 7.533813
v -1.998718 -21.26121 0.002319336
v 13.54169 -25.36163 -0.01708984
v 13.5564 -21.27127 9.768555
v 13.55328 -25.36163 9.768555
v 13.54401 -21.27127 -0.01708984
v 13.53162 -21.27127 -9.80188
v 13.53009 -24.40984 -9.80188
v 13.5293 -25.36163 -9.80188
v 4.823975 -25.35621 -0.006225586
v 4.696289 -25.35621 9.052734
v 4.835571 -25.35621 9.077515
v 4.684692 -25.35621 -0.006225586
v 4.673828 -25.35621 -9.064453
v 4.81311 -25.35621 -9.089966
v -13.27386 -21.25889 0.01623535
v -12.25403 -25.34615 3.342773
v -13.27002 -21.25889 2.793457
v -12.25787 -25.34615 0.01550293
v -4.425415 -21.25967 0.005371094
v -3.661621 -25.3508 7.009155
v -4.41687 -21.25967 6.748413
v -3.670166 -25.3508 0.004638672
v -3.67865 -25.3508 -6.999878
v -4.433899 -21.25967 -6.737549
v 4.684692 -25.35621 -0.006225586
v 4.672302 -21.26586 9.048096
v 4.696289 -25.35621 9.052734
v 4.660706 -21.26586 -0.005493164
v 4.649841 -21.26586 -9.059814
v 4.673828 -25.35621 -9.064453
v 2.121033 -21.26431 -0.002319336
v 2.88092 -25.35544 8.724609
v 2.131897 -21.26431 8.567627
v 2.870117 -25.35544 -0.00390625
v 2.859253 -25.35544 -8.731689
v 2.110229 -21.26431 -8.572266
v 9.28186 -21.26818 -0.01159668
v 9.860657 -25.35931 9.639282
v 9.293457 -21.26818 9.595947
v 9.84906 -25.35931 -0.01245117
v 9.837463 -25.35931 -9.664185
v 9.26947 -21.26818 -9.61853
v 13.53009 -24.40984 -9.80188
v 15.28278 -21.27205 -9.7771
v 13.53162 -21.27127 -9.80188
v 15.28046 -24.41758 -9.7771
v 17.03778 -21.27282 -9.696655
v 17.03235 -24.43461 -9.696655
v -12.26251 -25.34615 -3.312744
v -13.27777 -24.38586 -2.761719
v -13.27856 -25.34538 -2.761719
v -13.27698 -21.25889 -2.760986
v -14.78979 -24.38431 -1.883423
v -14.789 -21.25348 -1.88269
v -16.27393 -24.3905 -0.9541016
v -17.72717 -23.69484 0.02160645
v -17.7287 -25.34228 0.02160645
v -17.72485 -21.25193 0.02160645
v -16.27319 -21.2527 -0.9533691
v -0.3249512 -25.35312 -7.999634
v -2.007996 -21.26121 -7.529175
v -2.010315 -25.35234 -7.529175
v -0.3218994 -21.26276 -8.000488
v 1.375061 -25.35389 -8.41748
v 1.377441 -21.26353 -8.41748
v -3.67865 -25.3508 -6.999878
v -5.332275 -24.28294 -6.425781
v -5.333069 -25.35002 -6.425781
v -5.33075 -21.25967 -6.426514
v -4.433899 -21.25967 -6.737549
v -6.967346 -24.27211 -5.795044
v -6.96582 -21.25812 -5.795898
v -8.581543 -24.26127 -5.113403
v -8.579163 -21.25735 -5.113403
v 4.649841 -21.26586 -9.059814
v 4.673828 -25.35621 -9.064453
v 4.81311 -25.35621 -9.089966
v 4.813904 -24.16145 -9.089966
v 4.81543 -21.26586 -9.089966
v 6.549561 -21.26663 -9.343018
v 6.547241 -24.15449 -9.343018
v 8.289063 -21.2674 -9.541138
v 8.287537 -24.15449 -9.541138
v 9.837463 -25.35931 -9.664185
v 8.286743 -25.35853 -9.541138
v 9.26947 -21.26818 -9.61853
v 1.377441 -21.26353 -8.41748
v 1.375061 -25.35389 -8.41748
v 2.859253 -25.35544 -8.731689
v 2.110229 -21.26431 -8.572266
v -2.001038 -25.35234 0.002319336
v -2.010315 -25.35234 -7.529175
v -2.007996 -21.26121 -7.529175
v -1.998718 -21.26121 0.002319336
v -13.27386 -21.25889 0.01623535
v -13.27698 -21.25889 -2.760986
v -12.26251 -25.34615 -3.312744
v -12.25787 -25.34615 0.01550293
v 17.07257 -21.2736 9.654053
v 17.04706 -25.36395 -0.01855469
v 17.07025 -25.36395 9.654053
v 17.05017 -21.27282 -0.01855469
v 17.03778 -21.27282 -9.696655
v 17.03546 -25.36395 -9.696655

vn -0.09802246 0.003921509 0.9951172
vn -0.137207 0.003921509 0.9907227
vn -0.09802246 0.003921509 0.9951172
vn -0.003921509 1 0
vn -0.003921509 1 0
vn 0.003921509 -0.003921509 1
vn -0.003921509 1 0
vn -0.9370117 0.003921509 -0.3486328
vn -0.003921509 1 0
vn -0.5449219 0.003921509 -0.8383789
vn -0.5605469 0.003921509 -0.828125
vn -0.5449219 0.003921509 -0.8383789
vn -0.5449219 0.003921509 -0.8383789
vn -0.5136719 0.003921509 -0.8579102
vn -0.5449219 0.003921509 -0.8383789
vn -0.5449219 0.003921509 0.8383789
vn -0.5136719 0.003921509 0.8579102
vn -0.5292969 0.003921509 0.8481445
vn 0.003921509 -0.003921509 1
vn 0.03530884 -0.003921509 0.9995117
vn 0.01960754 -0.003921509 1
vn 0.03530884 -0.003921509 0.9995117
vn 0.05099487 -0.003921509 0.9985352
vn 0.05099487 -0.003921509 0.9985352
vn -0.4902344 0.003921509 0.871582
vn -0.4746094 0.003921509 0.8803711
vn -0.4902344 0.003921509 0.871582
vn -0.4980469 0.003921509 0.8671875
vn -0.5136719 0.003921509 0.8579102
vn -0.5449219 0.003921509 0.8383789
vn -0.5449219 0.003921509 0.8383789
vn -0.5527344 0.003921509 0.8330078
vn -0.5527344 0.003921509 0.8330078
vn -0.5449219 0.003921509 0.8383789
vn -0.2783203 0.003921509 0.9604492
vn -0.2548828 0.003921509 0.9667969
vn -0.2705078 0.003921509 0.9628906
vn -0.2626953 0.003921509 0.9648438
vn -0.2235107 0.003921509 0.9746094
vn -0.2235107 0.003921509 0.9746094
vn -0.2078857 0.003921509 0.9780273
vn -0.2078857 0.003921509 0.9780273
vn -0.3725586 0.003921509 0.9282227
vn -0.3881836 0.003921509 0.9213867
vn -0.4038086 0.003921509 0.9145508
vn -0.3725586 0.003921509 0.9282227
vn -0.3410645 0.003921509 0.9399414
vn -0.3491211 0.003921509 0.9370117
vn -0.3254395 0.003921509 0.9453125
vn -0.3254395 0.003921509 0.9453125
vn -0.3410645 0.003921509 0.9399414
vn -0.1765137 0.003921509 0.984375
vn -0.1451416 0.003921509 0.9892578
vn -0.1765137 0.003921509 0.984375
vn -0.1451416 0.003921509 0.9892578
vn -0.1293945 0.003921509 0.9916992
vn -0.137207 0.003921509 0.9907227
vn -0.09802246 0.003921509 0.9951172
vn -0.09802246 0.003921509 0.9951172
vn -0.07452393 0.003921509 0.9970703
vn -0.07452393 -0.003921509 0.9970703
vn -1 0.003921509 0
vn -0.9609375 0.003921509 -0.2773438
vn -1 0.003921509 0
vn -1 0.003921509 0
vn -1 0.003921509 0
vn -1 0.003921509 0
vn -1 0.003921509 0
vn -1 0.003921509 0
vn -1 0.003921509 0
vn -1 0.003921509 0
vn -1 0.003921509 0
vn -1 0.003921509 0
vn -1 0.003921509 0
vn -1 0.003921509 0
vn -1 0.003921509 0
vn -1 0.003921509 0
vn -1 0.003921509 0
vn -1 0.003921509 0
vn -1 0.003921509 0
vn -0.003921509 -1 0
vn -0.003921509 -1 0
vn -0.003921509 -1 0
vn -0.003921509 -1 0
vn -0.003921509 -1 0
vn -0.003921509 -1 0
vn 0.96875 0.2392578 -0.06738281
vn 0.96875 0.2392578 -0.06738281
vn 0.96875 0.2392578 -0.06738281
vn 0.96875 0.2392578 -0.06738281
vn 0.9829102 0.184082 0
vn 0.9829102 0.184082 0
vn 0.9829102 0.184082 0
vn 0.9829102 0.184082 0
vn 0.9829102 0.184082 0
vn 0.9829102 0.184082 0
vn -1 -0.003921509 0
vn -1 -0.003921509 0
vn -1 -0.003921509 0
vn -1 -0.003921509 0
vn -1 -0.003921509 0
vn -1 -0.003921509 0
vn 0.984375 0.1765137 0
vn 0.984375 0.1765137 0
vn 0.984375 0.1765137 0
vn 0.984375 0.1765137 0
vn 0.984375 0.1765137 0
vn 0.984375 0.1765137 0
vn 0.9907227 0.137085 0
vn 0.9907227 0.137085 0
vn 0.9907227 0.137085 0
vn 0.9907227 0.137085 0
vn 0.9907227 0.137085 0
vn 0.9907227 0.137085 0
vn 0.01176453 -0.003921509 -1
vn 0.02745056 -0.003921509 -0.9995117
vn -0.003921509 0.003921509 -1
vn 0.02745056 -0.003921509 -0.9995117
vn 0.04315186 -0.003921509 -0.9990234
vn 0.04315186 -0.003921509 -0.9990234
vn -0.4746094 0.003921509 -0.8803711
vn -0.4902344 0.003921509 -0.871582
vn -0.4902344 0.003921509 -0.871582
vn -0.4902344 0.003921509 -0.871582
vn -0.5136719 0.003921509 -0.8579102
vn -0.5136719 0.003921509 -0.8579102
vn -0.5449219 0.003921509 -0.8383789
vn -0.5605469 0.003921509 -0.828125
vn -0.5605469 0.003921509 -0.828125
vn -0.5605469 0.003921509 -0.828125
vn -0.5449219 0.003921509 -0.8383789
vn -0.2548828 0.003921509 -0.9667969
vn -0.286377 0.003921509 -0.9580078
vn -0.2705078 0.003921509 -0.9628906
vn -0.2626953 0.003921509 -0.9648438
vn -0.2392578 0.003921509 -0.9711914
vn -0.2392578 0.003921509 -0.9711914
vn -0.3254395 0.003921509 -0.9453125
vn -0.3410645 0.003921509 -0.9399414
vn -0.3410645 0.003921509 -0.9399414
vn -0.3491211 0.003921509 -0.9370117
vn -0.3254395 0.003921509 -0.9453125
vn -0.3725586 0.003921509 -0.9282227
vn -0.3725586 0.003921509 -0.9282227
vn -0.3881836 0.003921509 -0.9213867
vn -0.4038086 0.003921509 -0.9145508
vn -0.1765137 0.003921509 -0.984375
vn -0.1765137 0.003921509 -0.984375
vn -0.1529541 0.003921509 -0.9882813
vn -0.1451416 0.003921509 -0.9892578
vn -0.1607666 0.003921509 -0.9868164
vn -0.137207 0.003921509 -0.9907227
vn -0.1293945 0.003921509 -0.9916992
vn -0.09802246 -0.003921509 -0.9951172
vn -0.09802246 0.003921509 -0.9951172
vn -0.08233643 0.003921509 -0.996582
vn -0.09802246 0.003921509 -0.9951172
vn -0.08233643 -0.003921509 -0.996582
vn -0.2078857 0.003921509 -0.9780273
vn -0.2078857 0.003921509 -0.9780273
vn -0.2078857 0.003921509 -0.9780273
vn -0.2078857 0.003921509 -0.9780273
vn -1 0.003921509 0
vn -1 0.003921509 0
vn -1 0.003921509 0
vn -1 0.003921509 0
vn 0.96875 0.2392578 -0.06738281
vn 0.96875 0.2392578 -0.06738281
vn 0.96875 0.2392578 -0.06738281
vn 0.96875 0.2392578 -0.06738281
vn 1 -0.003921509 0
vn 1 -0.003921509 0
vn 1 -0.003921509 0
vn 1 -0.003921509 0
vn 1 -0.003921509 0
vn 1 -0.003921509 0

vt 2.669922 0.0002586842
vt 3.199219 1.969727
vt 2.669922 1.969727
vt 10.60938 1.969727
vt 10.60938 0.0002586842
vt 10.60938 0.7929688
vt 9.710938 0.0002586842
vt 9.710938 0.3688965
vt 9.710938 1.969727
vt 0.4443359 0.4584961
vt 0.0002586842 0.0002586842
vt 0.4443359 0.0002586842
vt 0.4443359 0.4584961
vt 0.8969727 1.969727
vt 0.4436035 1.969727
vt 10.16406 0.3657227
vt 9.710938 1.969727
vt 9.710938 0.3688965
vt 1.069336 1.969727
vt 0.5351563 0.0002586842
vt 1.069336 0.0002586842
vt 0.5351563 1.969727
vt 0.001503944 0.0002586842
vt 0.0002586842 1.969727
vt 9.25 1.967773
vt 8.9375 0.0002586842
vt 9.25 0.0002586842
vt 9.710938 0.0002586842
vt 9.710938 1.969727
vt 10.16406 0.3657227
vt 10.16406 1.969727
vt 10.60938 1.969727
vt 10.60938 0.0002586842
vt 10.16406 0.0002586842
vt 5.8125 1.969727
vt 5.296875 0.0002586842
vt 5.8125 0.0002586842
vt 5.296875 1.969727
vt 4.777344 0.0002586842
vt 4.777344 1.969727
vt 4.324219 0.0002586842
vt 4.554688 1.969727
vt 7.324219 1.969727
vt 7.816406 0.4816895
vt 7.816406 1.969727
vt 7.324219 0.4760742
vt 6.824219 0.463623
vt 6.824219 1.969727
vt 6.320313 0.0002586842
vt 6.550781 1.969727
vt 6.824219 0.0002586842
vt 3.779297 1.969727
vt 3.728516 0.0002586842
vt 3.771484 0.0002586842
vt 3.728516 1.969727
vt 3.199219 0.0002586842
vt 3.199219 1.969727
vt 2.669922 0.0002586842
vt 2.669922 1.969727
vt 2.195313 0.0002586842
vt 2.369141 1.969727
vt 2.527344 1.969727
vt 2.527344 0.4816895
vt 2.527344 0.0002586842
vt 5.304688 0.0002586842
vt 5.304688 1.969727
vt 8.085938 1.969727
vt 8.085938 0.5234375
vt 8.085938 0.0002586842
vt 5.304688 0.0002586842
vt 1.22168 1.969727
vt 1.22168 0.0002586842
vt 5.304688 1.969727
vt 5.304688 0.0002586842
vt 0.0002586842 1.969727
vt 0.0002586842 0.0002586842
vt 5.304688 1.969727
vt 10.60938 1.969727
vt 10.60938 0.4584961
vt 10.60938 0.0002586842
vt 3.728516 0.9848633
vt 3.771484 1.897461
vt 3.728516 1.899414
vt 3.771484 0.9848633
vt 3.771484 0.07312012
vt 3.728516 0.07061768
vt 1.358398 0.9848633
vt 1.668945 1.320313
vt 1.358398 1.264648
vt 1.668945 0.9848633
vt 4.058594 0.9848633
vt 4.289063 1.689453
vt 4.058594 1.664063
vt 4.289063 0.9848633
vt 4.289063 0.2797852
vt 4.058594 0.3061523
vt 5.304688 0.0002586842
vt 0.3962402 1.969727
vt 0.3937988 0.0002586842
vt 5.304688 1.969727
vt 10.21094 1.969727
vt 10.21875 0.0002586842
vt 6.054688 0.9848633
vt 6.285156 1.863281
vt 6.054688 1.847656
vt 6.285156 0.9848633
vt 6.285156 0.1061401
vt 6.054688 0.1223145
vt 8.242188 0.9848633
vt 8.414063 1.956055
vt 8.242188 1.952148
vt 8.414063 0.9848633
vt 8.414063 0.01333618
vt 8.242188 0.0177002
vt 9.539063 0.4584961
vt 10.07813 1.969727
vt 9.539063 1.969727
vt 10.07813 0.454834
vt 10.60938 1.969727
vt 10.60938 0.4475098
vt 1.668945 0.0002586842
vt 1.358398 0.4624023
vt 1.358398 0.0002586842
vt 1.358398 1.967773
vt 0.8969727 0.4624023
vt 0.8969727 1.969727
vt 0.4443359 0.4584961
vt 0.0002586842 0.7929688
vt 0.0002586842 0.0002586842
vt 0.0002586842 1.969727
vt 0.4436035 1.969727
vt 5.3125 0.0002586842
vt 4.796875 1.969727
vt 4.796875 0.0002586842
vt 5.3125 1.969727
vt 5.832031 0.0002586842
vt 5.832031 1.969727
vt 4.289063 0.0002586842
vt 3.783203 0.5141602
vt 3.783203 0.0002586842
vt 3.783203 1.969727
vt 4.058594 1.969727
vt 3.285156 0.5185547
vt 3.285156 1.969727
vt 2.792969 0.5234375
vt 2.792969 1.969727
vt 6.832031 1.969727
vt 6.839844 0.0002586842
vt 6.878906 0.0002586842
vt 6.878906 0.5756836
vt 6.878906 1.969727
vt 7.410156 1.969727
vt 7.410156 0.5795898
vt 7.941406 1.969727
vt 7.941406 0.5800781
vt 8.414063 0.0002586842
vt 7.941406 0.0002586842
vt 8.242188 1.969727
vt 5.832031 1.969727
vt 5.832031 0.0002586842
vt 6.285156 0.0002586842
vt 6.054688 1.969727
vt 5.304688 0.0002586842
vt 9.390625 0.0002586842
vt 9.390625 1.969727
vt 5.304688 1.969727
vt 1.358398 0.9848633
vt 1.358398 0.7050781
vt 1.668945 0.6499023
vt 1.668945 0.9848633
vt 0.0002586842 1.969727
vt 5.304688 0.0002586842
vt 0.0002586842 0.0002586842
vt 5.304688 1.969727
vt 10.60938 1.969727
vt 10.60938 0.0002586842

g Building22_26603_16
usemtl Building22_26603_16
usemap Building22_26603_16
f 1/1/1 3/3/3 2/2/2
f 4/4/4 6/6/6 5/5/5
f 7/7/7 9/9/9 8/8/8
f 10/10/10 12/12/12 11/11/11
f 13/13/13 15/15/15 14/14/14
f 16/16/16 18/18/18 17/17/17
f 19/19/19 21/21/21 20/20/20
f 20/20/20 22/22/22 19/19/19
f 22/22/22 20/20/20 23/23/23
f 23/23/23 24/24/24 22/22/22
f 25/25/25 27/27/27 26/26/26
f 28/28/28 27/27/27 25/25/25
f 28/28/28 25/25/25 29/29/29
f 29/29/29 31/31/31 30/30/30
f 32/32/32 30/30/30 31/31/31
f 32/32/32 33/33/33 30/30/30
f 33/33/33 34/34/34 30/30/30
f 35/35/35 37/37/37 36/36/36
f 36/36/36 38/38/38 35/35/35
f 38/38/38 36/36/36 39/39/39
f 39/39/39 40/40/40 38/38/38
f 40/40/40 39/39/39 41/41/41
f 41/41/41 42/42/42 40/40/40
f 43/43/43 45/45/45 44/44/44
f 44/44/44 46/46/46 43/43/43
f 43/43/43 46/46/46 47/47/47
f 47/47/47 48/48/48 43/43/43
f 49/49/49 48/48/48 47/47/47
f 49/49/49 50/50/50 48/48/48
f 49/49/49 47/47/47 51/51/51
f 52/52/52 54/54/54 53/53/53
f 53/53/53 55/55/55 52/52/52
f 55/55/55 53/53/53 56/56/56
f 56/56/56 57/57/57 55/55/55
f 57/57/57 56/56/56 58/58/58
f 59/59/59 58/58/58 60/60/60
f 60/60/60 61/61/61 59/59/59
f 62/62/62 64/64/64 63/63/63
f 62/62/62 65/65/65 64/64/64
f 62/62/62 66/66/66 65/65/65
f 65/65/65 66/66/66 67/67/67
f 65/65/65 67/67/67 68/68/68
f 65/65/65 68/68/68 69/69/69
f 70/70/70 72/72/72 71/71/71
f 71/71/71 73/73/73 70/70/70
f 74/74/74 76/76/76 75/75/75
f 75/75/75 77/77/77 74/74/74
f 74/74/74 77/77/77 78/78/78
f 74/74/74 78/78/78 79/79/79
f 74/74/74 79/79/79 80/80/80
f 81/81/81 83/83/83 82/82/82
f 82/82/82 84/84/84 81/81/81
f 81/81/81 84/84/84 85/85/85
f 85/85/85 86/86/86 81/81/81
f 87/87/87 89/89/89 88/88/88
f 88/88/88 90/90/90 87/87/87
f 91/91/91 93/93/93 92/92/92
f 92/92/92 94/94/94 91/91/91
f 91/91/91 94/94/94 95/95/95
f 95/95/95 96/96/96 91/91/91
f 97/97/97 99/99/99 98/98/98
f 98/98/98 100/100/100 97/97/97
f 97/97/97 100/100/100 101/101/101
f 101/101/101 102/102/102 97/97/97
f 103/103/103 105/105/105 104/104/104
f 104/104/104 106/106/106 103/103/103
f 103/103/103 106/106/106 107/107/107
f 107/107/107 108/108/108 103/103/103
f 109/109/109 111/111/111 110/110/110
f 110/110/110 112/112/112 109/109/109
f 109/109/109 112/112/112 113/113/113
f 113/113/113 114/114/114 109/109/109
f 115/115/115 117/117/117 116/116/116
f 116/116/116 118/118/118 115/115/115
f 118/118/118 116/116/116 119/119/119
f 119/119/119 120/120/120 118/118/118
f 121/121/121 123/123/123 122/122/122
f 122/122/122 124/124/124 121/121/121
f 124/124/124 122/122/122 125/125/125
f 125/125/125 126/126/126 124/124/124
f 126/126/126 125/125/125 127/127/127
f 127/127/127 129/129/129 128/128/128
f 127/127/127 128/128/128 130/130/130
f 127/127/127 130/130/130 131/131/131
f 132/132/132 134/134/134 133/133/133
f 133/133/133 135/135/135 132/132/132
f 136/136/136 132/132/132 135/135/135
f 135/135/135 137/137/137 136/136/136
f 138/138/138 140/140/140 139/139/139
f 138/138/138 139/139/139 141/141/141
f 138/138/138 141/141/141 142/142/142
f 141/141/141 139/139/139 143/143/143
f 143/143/143 144/144/144 141/141/141
f 144/144/144 143/143/143 145/145/145
f 145/145/145 146/146/146 144/144/144
f 147/147/147 149/149/149 148/148/148
f 147/147/147 150/150/150 149/149/149
f 147/147/147 151/151/151 150/150/150
f 150/150/150 151/151/151 152/152/152
f 152/152/152 153/153/153 150/150/150
f 153/153/153 152/152/152 154/154/154
f 154/154/154 155/155/155 153/153/153
f 156/156/156 155/155/155 154/154/154
f 156/156/156 157/157/157 155/155/155
f 156/156/156 154/154/154 158/158/158
f 159/159/159 161/161/161 160/160/160
f 161/161/161 159/159/159 162/162/162
f 163/163/163 165/165/165 164/164/164
f 165/165/165 163/163/163 166/166/166
f 167/167/167 169/169/169 168/168/168
f 169/169/169 167/167/167 170/170/170
f 171/171/171 173/173/173 172/172/172
f 172/172/172 174/174/174 171/171/171
f 175/175/175 174/174/174 172/172/172
f 172/172/172 176/176/176 175/175/175
