#Building58_27643_24.obj

v -25.65802 6.890141 9.646851
v -25.65802 7.508492 9.646851
v 25.62823 7.508492 9.646851
v 25.62823 6.890141 9.646851
v 25.62823 6.890141 9.646851
v 25.62823 7.508492 9.646851
v 25.62823 7.508492 -9.607544
v 25.62823 6.890141 -9.607544
v 25.62823 6.890141 -9.607544
v 25.62823 7.508492 -9.607544
v -25.65802 7.508492 -9.607544
v -25.65802 6.890141 -9.607544
v -25.65802 6.890141 -9.607544
v -25.65802 7.508492 -9.607544
v -25.65802 7.508492 9.646851
v -25.65802 6.890141 9.646851

vn -0.003921509 0.003921509 1
vn -0.003921509 0.003921509 1
vn -0.003921509 0.003921509 1
vn -0.003921509 0.003921509 1
vn 1 0.003921509 0
vn 1 0.003921509 0
vn 1 0.003921509 0
vn 1 0.003921509 0
vn -0.003921509 0.003921509 -1
vn -0.003921509 0.003921509 -1
vn -0.003921509 0.003921509 -1
vn -0.003921509 0.003921509 -1
vn -1 0.003921509 0
vn -1 0.003921509 0
vn -1 0.003921509 0
vn -1 0.003921509 0

vt -18.75 -0.07727051
vt -18.75 1.077148
vt 36.46875 1.077148
vt 36.46875 -0.07727051
vt -1.371094 -0.07727051
vt -1.371094 1.077148
vt 19.09375 1.077148
vt 19.09375 -0.07727051
vt -18.75 -0.07727051
vt -18.75 1.077148
vt 36.46875 1.077148
vt 36.46875 -0.07727051
vt -1.371094 -0.07727051
vt -1.371094 1.077148
vt 19.09375 1.077148
vt 19.09375 -0.07727051

g Building58_27643_24
usemtl Building58_27643_24
usemap Building58_27643_24
f 1/1/1 3/3/3 2/2/2
f 1/1/1 4/4/4 3/3/3
f 5/5/5 7/7/7 6/6/6
f 5/5/5 8/8/8 7/7/7
f 9/9/9 11/11/11 10/10/10
f 9/9/9 12/12/12 11/11/11
f 13/13/13 15/15/15 14/14/14
f 13/13/13 16/16/16 15/15/15
