#Building23_28442_25.obj

v 9.874268 -29.11615 -3.21106
v 7.087402 19.38018 -3.21106
v 7.087402 -29.11615 -3.21106
v 9.874268 19.38018 -3.21106
v 2.631348 -29.11615 -9.205444
v -2.632324 -8.661228 -9.205444
v -2.632324 -29.11615 -9.205444
v -2.185425 0.9743958 -9.205444
v -4.978394 -8.661228 -9.205444
v 2.146973 0.9743958 -9.205444
v 2.631348 -8.661228 -9.205444
v -2.185425 18.60896 -9.205444
v 2.146973 18.60896 -9.205444
v -2.185425 19.38018 -9.205444
v -4.978394 19.38018 -9.205444
v 2.146973 19.38018 -9.205444
v 4.979492 19.38018 -9.205444
v 4.979492 -8.661228 -9.205444
v -10.1925 -29.11615 -3.21106
v -7.405518 19.38018 -3.21106
v -10.1925 19.38018 -3.21106
v -7.405518 -29.11615 -3.21106
v -4.978394 -8.661228 -9.205444
v -2.632324 -8.661228 -8.272095
v -2.632324 -8.661228 -9.205444
v -4.978394 -8.661228 -8.272095
v -2.632324 -8.661228 -9.205444
v -2.632324 -29.11615 -8.272095
v -2.632324 -29.11615 -9.205444
v -2.632324 -8.661228 -8.272095
v 2.631348 -29.11615 -9.205444
v 2.631348 -8.661228 -8.272095
v 2.631348 -8.661228 -9.205444
v 2.631348 -29.11615 -8.272095
v 2.631348 -8.661228 -9.205444
v 4.979492 -8.661228 -8.272095
v 4.979492 -8.661228 -9.205444
v 2.631348 -8.661228 -8.272095
v -2.185425 0.9743958 -9.205444
v -2.185425 18.60896 -8.272095
v -2.185425 18.60896 -9.205444
v -2.185425 0.9743958 -8.272095
v 2.146973 18.60896 -9.205444
v 2.146973 0.9743958 -8.272095
v 2.146973 0.9743958 -9.205444
v 2.146973 18.60896 -8.272095
v 9.874268 19.3812 7.778564
v 7.087402 19.3812 -3.21106
v 9.874268 19.3812 -3.21106
v 4.877075 19.3812 6.780273
v 4.877075 19.3812 7.778564
v 2.148926 19.3812 5.846924
v 2.148926 19.3812 6.780273
v -2.18335 19.3812 5.846924
v -4.821289 19.3812 -7.743042
v 2.146973 19.3812 -9.205444
v 4.808228 19.3812 -7.743042
v 7.087402 19.3812 -7.743042
v 4.808228 19.3812 -9.205444
v -2.185425 19.3812 -9.205444
v -4.821289 19.3812 -9.205444
v -10.1925 19.3812 7.778564
v -7.405518 19.3812 -3.21106
v -7.405518 19.3812 -7.743042
v -10.1925 19.3812 -3.21106
v -4.890259 19.3812 6.780273
v -4.890259 19.3812 7.778564
v -2.18335 19.3812 6.780273

vn -0.003921509 0.003921509 -1
vn -0.003921509 0.003921509 -1
vn -0.003921509 0.003921509 -1
vn -0.003921509 0.003921509 -1
vn -0.003921509 0.003921509 -1
vn -0.003921509 0.003921509 -1
vn -0.003921509 0.003921509 -1
vn -0.003921509 0.003921509 -1
vn -0.003921509 0.003921509 -1
vn -0.003921509 0.003921509 -1
vn -0.003921509 0.003921509 -1
vn -0.003921509 0.003921509 -1
vn -0.003921509 0.003921509 -1
vn -0.003921509 0.003921509 -1
vn -0.003921509 0.003921509 -1
vn -0.003921509 0.003921509 -1
vn -0.003921509 0.003921509 -1
vn -0.003921509 0.003921509 -1
vn -0.003921509 0.003921509 -1
vn -0.003921509 0.003921509 -1
vn -0.003921509 0.003921509 -1
vn -0.003921509 0.003921509 -1
vn -0.003921509 -1 0
vn -0.003921509 -1 0
vn -0.003921509 -1 0
vn -0.003921509 -1 0
vn -1 0.003921509 0
vn -1 0.003921509 0
vn -1 0.003921509 0
vn -1 0.003921509 0
vn 1 0.003921509 0
vn 1 0.003921509 0
vn 1 0.003921509 0
vn 1 0.003921509 0
vn -0.003921509 -1 0
vn -0.003921509 -1 0
vn -0.003921509 -1 0
vn -0.003921509 -1 0
vn 1 0.003921509 0
vn 1 0.003921509 0
vn 1 0.003921509 0
vn 1 0.003921509 0
vn -1 0.003921509 0
vn -1 0.003921509 0
vn -1 0.003921509 0
vn -1 0.003921509 0
vn -0.003921509 1 0
vn -0.003921509 1 0
vn -0.003921509 1 0
vn -0.003921509 1 0
vn -0.003921509 1 0
vn -0.003921509 1 0
vn -0.003921509 1 0
vn -0.003921509 1 0
vn -0.003921509 1 0
vn -0.003921509 1 0
vn -0.003921509 1 0
vn -0.003921509 1 0
vn -0.003921509 1 0
vn -0.003921509 1 0
vn -0.003921509 1 0
vn -0.003921509 1 0
vn -0.003921509 1 0
vn -0.003921509 1 0
vn -0.003921509 1 0
vn -0.003921509 1 0
vn -0.003921509 1 0
vn -0.003921509 1 0

vt -2.289063 -8.054688
vt -1.514648 9.054688
vt -1.514648 -8.054688
vt -2.289063 9.054688
vt -0.2758789 -8.054688
vt 1.1875 -0.8383789
vt 1.1875 -8.054688
vt 1.0625 2.560547
vt 1.839844 -0.8383789
vt -0.140625 2.560547
vt -0.2758789 -0.8383789
vt 1.0625 8.78125
vt -0.140625 8.78125
vt 1.0625 9.054688
vt 1.839844 9.054688
vt -0.140625 9.054688
vt -0.9287109 9.054688
vt -0.9287109 -0.8383789
vt 3.289063 -8.054688
vt 2.513672 9.054688
vt 3.289063 9.054688
vt 2.513672 -8.054688
vt -0.8398438 -2.289063
vt -0.1878662 -1.982422
vt -0.1878662 -2.289063
vt -0.8398438 -1.982422
vt -2.289063 -0.8383789
vt -1.982422 -8.054688
vt -2.289063 -8.054688
vt -1.982422 -0.8383789
vt 3.289063 -8.054688
vt 2.982422 -0.8383789
vt 3.289063 -0.8383789
vt 2.982422 -8.054688
vt 1.275391 -2.289063
vt 1.928711 -1.982422
vt 1.928711 -2.289063
vt 1.275391 -1.982422
vt 3.289063 2.560547
vt 2.982422 8.78125
vt 3.289063 8.78125
vt 2.982422 2.560547
vt -2.289063 8.78125
vt -1.982422 2.560547
vt -2.289063 2.560547
vt -1.982422 8.78125
vt -2.289063 3.289063
vt -1.514648 -0.3200684
vt -2.289063 -0.3200684
vt -0.9003906 2.960938
vt -0.9003906 3.289063
vt -0.1413574 2.654297
vt -0.1413574 2.960938
vt 1.0625 2.654297
vt 1.795898 -1.808594
vt -0.140625 -2.289063
vt -0.8813477 -1.808594
vt -1.514648 -1.808594
vt -0.8813477 -2.289063
vt 1.0625 -2.289063
vt 1.795898 -2.289063
vt 3.289063 3.289063
vt 2.513672 -0.3200684
vt 2.513672 -1.808594
vt 3.289063 -0.3200684
vt 1.81543 2.960938
vt 1.81543 3.289063
vt 1.0625 2.960938

g Building23_28442_25
usemtl Building23_28442_25
usemap Building23_28442_25
f 1/1/1 3/3/3 2/2/2
f 2/2/2 4/4/4 1/1/1
f 5/5/5 7/7/7 6/6/6
f 5/5/5 6/6/6 8/8/8
f 9/9/9 8/8/8 6/6/6
f 5/5/5 8/8/8 10/10/10
f 5/5/5 10/10/10 11/11/11
f 9/9/9 12/12/12 8/8/8
f 11/11/11 10/10/10 13/13/13
f 9/9/9 14/14/14 12/12/12
f 9/9/9 15/15/15 14/14/14
f 12/12/12 14/14/14 16/16/16
f 16/16/16 13/13/13 12/12/12
f 16/16/16 17/17/17 13/13/13
f 17/17/17 11/11/11 13/13/13
f 17/17/17 18/18/18 11/11/11
f 19/19/19 21/21/21 20/20/20
f 20/20/20 22/22/22 19/19/19
f 23/23/23 25/25/25 24/24/24
f 24/24/24 26/26/26 23/23/23
f 27/27/27 29/29/29 28/28/28
f 28/28/28 30/30/30 27/27/27
f 31/31/31 33/33/33 32/32/32
f 32/32/32 34/34/34 31/31/31
f 35/35/35 37/37/37 36/36/36
f 36/36/36 38/38/38 35/35/35
f 39/39/39 41/41/41 40/40/40
f 40/40/40 42/42/42 39/39/39
f 43/43/43 45/45/45 44/44/44
f 44/44/44 46/46/46 43/43/43
f 47/47/47 49/49/49 48/48/48
f 47/47/47 48/48/48 50/50/50
f 51/51/51 47/47/47 50/50/50
f 48/48/48 52/52/52 50/50/50
f 52/52/52 53/53/53 50/50/50
f 48/48/48 54/54/54 52/52/52
f 48/48/48 55/55/55 54/54/54
f 48/48/48 56/56/56 55/55/55
f 48/48/48 57/57/57 56/56/56
f 48/48/48 58/58/58 57/57/57
f 57/57/57 59/59/59 56/56/56
f 56/56/56 60/60/60 55/55/55
f 60/60/60 61/61/61 55/55/55
f 55/55/55 62/62/62 54/54/54
f 55/55/55 63/63/63 62/62/62
f 55/55/55 64/64/64 63/63/63
f 63/63/63 65/65/65 62/62/62
f 62/62/62 66/66/66 54/54/54
f 62/62/62 67/67/67 66/66/66
f 66/66/66 68/68/68 54/54/54
