#Building55_(1)_28005_81.obj

v -4.600219 2.379805 5.174683
v -4.633361 2.379805 2.935669
v -4.600219 2.379805 2.935669
v -4.633361 2.379805 5.174683
v -4.633361 2.379805 7.413208
v -4.600219 2.379805 7.413208
v -4.600219 2.379805 10.4353
v -3.309325 2.379805 12.41418
v -3.332762 2.379805 12.43762
v -4.623656 2.379805 10.45874
v -3.309325 2.379805 12.41418
v -1.552428 2.379805 13.4574
v -1.575866 2.379805 13.48083
v -3.332762 2.379805 12.43762
v 1.495363 2.379805 13.4574
v 5.633241 2.379805 13.4574
v 5.633241 2.379805 13.4906
v 1.495363 2.379805 13.4906
v -4.60022 2.379805 -5.174682
v -4.60022 2.379805 -2.935668
v -4.633362 2.379805 -2.935668
v -4.633362 2.379805 -5.174682
v -4.633362 2.379805 -7.413208
v -4.60022 2.379805 -7.413208
v -4.600221 2.379805 -10.4353
v -4.623658 2.379805 -10.45874
v -3.332765 2.379805 -12.43762
v -3.309327 2.379805 -12.41418
v -3.309327 2.379805 -12.41418
v -3.332765 2.379805 -12.43762
v -1.575868 2.379805 -13.48083
v -1.55243 2.379805 -13.4574
v 1.49536 2.379805 -13.4574
v 1.49536 2.379805 -13.4906
v 5.633239 2.379805 -13.4906
v 5.633239 2.379805 -13.4574

vn 0.003921509 1 0
vn 0.003921509 1 0
vn 0.003921509 1 0
vn 0.003921509 1 0
vn 0.003921509 1 0
vn 0.003921509 1 0
vn 0.003921509 1 0
vn 0.003921509 1 0
vn 0.003921509 1 0
vn 0.003921509 1 0
vn 0.003921509 1 0
vn 0.003921509 1 0
vn 0.003921509 1 0
vn 0.003921509 1 0
vn 0.003921509 1 0
vn 0.003921509 1 0
vn 0.003921509 1 0
vn 0.003921509 1 0
vn 0.003921509 1 0
vn 0.003921509 1 0
vn 0.003921509 1 0
vn 0.003921509 1 0
vn 0.003921509 1 0
vn 0.003921509 1 0
vn 0.003921509 1 0
vn 0.003921509 1 0
vn 0.003921509 1 0
vn 0.003921509 1 0
vn 0.003921509 1 0
vn 0.003921509 1 0
vn 0.003921509 1 0
vn 0.003921509 1 0
vn 0.003921509 1 0
vn 0.003921509 1 0
vn 0.003921509 1 0
vn 0.003921509 1 0

vt 0.9140625 1
vt 0.6665039 1
vt 0.6665039 1
vt 0.9140625 1
vt 0.6665039 1
vt 0.6665039 1
vt 0.3334961 1
vt -0.0002171993 1
vt -0.0002171993 1
vt 0.3334961 1
vt 1 1
vt 0.6665039 1
vt 0.6665039 1
vt 1 1
vt 0.3334961 1
vt -0.0002171993 1
vt -0.0002171993 1
vt 0.3334961 1
vt 0.9140625 1
vt 0.6665039 1
vt 0.6665039 1
vt 0.9140625 1
vt 0.6665039 1
vt 0.6665039 1
vt 0.3334961 1
vt 0.3334961 1
vt -0.0002171993 1
vt -0.0002171993 1
vt 1 1
vt 1 1
vt 0.6665039 1
vt 0.6665039 1
vt 0.3334961 1
vt 0.3334961 1
vt -0.0002171993 1
vt -0.0002171993 1

g Building55_(1)_28005_81
usemtl Building55_(1)_28005_81
usemap Building55_(1)_28005_81
f 1/1/1 3/3/3 2/2/2
f 1/1/1 2/2/2 4/4/4
f 1/1/1 4/4/4 5/5/5
f 1/1/1 5/5/5 6/6/6
f 7/7/7 9/9/9 8/8/8
f 7/7/7 10/10/10 9/9/9
f 11/11/11 13/13/13 12/12/12
f 11/11/11 14/14/14 13/13/13
f 15/15/15 17/17/17 16/16/16
f 15/15/15 18/18/18 17/17/17
f 19/19/19 21/21/21 20/20/20
f 19/19/19 22/22/22 21/21/21
f 19/19/19 23/23/23 22/22/22
f 19/19/19 24/24/24 23/23/23
f 25/25/25 27/27/27 26/26/26
f 25/25/25 28/28/28 27/27/27
f 29/29/29 31/31/31 30/30/30
f 29/29/29 32/32/32 31/31/31
f 33/33/33 35/35/35 34/34/34
f 33/33/33 36/36/36 35/35/35
