#Building55_28004_74.obj

v -4.60022 2.379805 5.174683
v -4.633362 2.379805 2.935669
v -4.60022 2.379805 2.935669
v -4.633362 2.379805 5.174683
v -4.633362 2.379805 7.413208
v -4.60022 2.379805 7.413208
v -4.60022 2.379805 10.4353
v -3.309326 2.379805 12.41418
v -3.332764 2.379805 12.43762
v -4.623657 2.379805 10.45874
v -3.309326 2.379805 12.41418
v -1.552429 2.379805 13.4574
v -1.575867 2.379805 13.48083
v -3.332764 2.379805 12.43762
v 1.495361 2.379805 13.4574
v 5.63324 2.379805 13.4574
v 5.63324 2.379805 13.4906
v 1.495361 2.379805 13.4906
v -4.60022 2.379805 -5.174683
v -4.60022 2.379805 -2.935669
v -4.633362 2.379805 -2.935669
v -4.633362 2.379805 -5.174683
v -4.633362 2.379805 -7.413208
v -4.60022 2.379805 -7.413208
v -4.60022 2.379805 -10.4353
v -4.623657 2.379805 -10.45874
v -3.332764 2.379805 -12.43762
v -3.309326 2.379805 -12.41418
v -3.309326 2.379805 -12.41418
v -3.332764 2.379805 -12.43762
v -1.575867 2.379805 -13.48083
v -1.552429 2.379805 -13.4574
v 1.495361 2.379805 -13.4574
v 1.495361 2.379805 -13.4906
v 5.63324 2.379805 -13.4906
v 5.63324 2.379805 -13.4574

vn -0.003921509 1 0
vn -0.003921509 1 0
vn -0.003921509 1 0
vn -0.003921509 1 0
vn -0.003921509 1 0
vn -0.003921509 1 0
vn -0.003921509 1 0
vn -0.003921509 1 0
vn -0.003921509 1 0
vn -0.003921509 1 0
vn -0.003921509 1 0
vn -0.003921509 1 0
vn -0.003921509 1 0
vn -0.003921509 1 0
vn -0.003921509 1 0
vn -0.003921509 1 0
vn -0.003921509 1 0
vn -0.003921509 1 0
vn -0.003921509 1 0
vn -0.003921509 1 0
vn -0.003921509 1 0
vn -0.003921509 1 0
vn -0.003921509 1 0
vn -0.003921509 1 0
vn -0.003921509 1 0
vn -0.003921509 1 0
vn -0.003921509 1 0
vn -0.003921509 1 0
vn -0.003921509 1 0
vn -0.003921509 1 0
vn -0.003921509 1 0
vn -0.003921509 1 0
vn -0.003921509 1 0
vn -0.003921509 1 0
vn -0.003921509 1 0
vn -0.003921509 1 0

vt 0.9140625 1
vt 0.6665039 1
vt 0.6665039 1
vt 0.9140625 1
vt 0.6665039 1
vt 0.6665039 1
vt 0.3334961 1
vt -0.0002171993 1
vt -0.0002171993 1
vt 0.3334961 1
vt 1 1
vt 0.6665039 1
vt 0.6665039 1
vt 1 1
vt 0.3334961 1
vt -0.0002171993 1
vt -0.0002171993 1
vt 0.3334961 1
vt 0.9140625 1
vt 0.6665039 1
vt 0.6665039 1
vt 0.9140625 1
vt 0.6665039 1
vt 0.6665039 1
vt 0.3334961 1
vt 0.3334961 1
vt -0.0002171993 1
vt -0.0002171993 1
vt 1 1
vt 1 1
vt 0.6665039 1
vt 0.6665039 1
vt 0.3334961 1
vt 0.3334961 1
vt -0.0002171993 1
vt -0.0002171993 1

g Building55_28004_74
usemtl Building55_28004_74
usemap Building55_28004_74
f 1/1/1 3/3/3 2/2/2
f 1/1/1 2/2/2 4/4/4
f 1/1/1 4/4/4 5/5/5
f 1/1/1 5/5/5 6/6/6
f 7/7/7 9/9/9 8/8/8
f 7/7/7 10/10/10 9/9/9
f 11/11/11 13/13/13 12/12/12
f 11/11/11 14/14/14 13/13/13
f 15/15/15 17/17/17 16/16/16
f 15/15/15 18/18/18 17/17/17
f 19/19/19 21/21/21 20/20/20
f 19/19/19 22/22/22 21/21/21
f 19/19/19 23/23/23 22/22/22
f 19/19/19 24/24/24 23/23/23
f 25/25/25 27/27/27 26/26/26
f 25/25/25 28/28/28 27/27/27
f 29/29/29 31/31/31 30/30/30
f 29/29/29 32/32/32 31/31/31
f 33/33/33 35/35/35 34/34/34
f 33/33/33 36/36/36 35/35/35
