#Building22_26603_15.obj

v -14.78979 -24.38431 -1.883423
v -16.27393 -25.34306 -0.9541016
v -14.78979 -25.34461 -1.883423
v -16.27393 -24.3905 -0.9541016

vn -0.5136719 0.003921509 -0.8579102
vn -0.5449219 0.003921509 -0.8383789
vn -0.5136719 0.003921509 -0.8579102
vn -0.5449219 0.003921509 -0.8383789

vt 1 0.0002586842
vt 0.0002586842 1.019531
vt 1 1.019531
vt 0.0002586842 0.007732391

g Building22_26603_15
usemtl Building22_26603_15
usemap Building22_26603_15
f 1/1/1 3/3/3 2/2/2
f 2/2/2 4/4/4 1/1/1
