#Building67_(2)_27533_241.obj

v -3.442993 1.983725 5.207764
v -4.662903 3.377836 1.493042
v -3.442993 1.983725 3.180664
v -4.662903 3.377836 5.207764
v -4.706787 3.377836 1.493042
v -5.927124 1.983725 5.207764
v -5.927124 1.983725 3.180664
v -4.706787 3.377836 5.207764
v 3.442993 1.983725 5.207764
v 4.662903 3.377836 1.493042
v 4.662903 3.377836 5.207764
v 3.442993 1.983725 3.180664
v 4.706787 3.377836 1.493042
v 5.927124 1.983725 5.207764
v 4.706787 3.377836 5.207764
v 5.927124 1.983725 3.180664
v -1.244202 1.983725 5.207764
v -0.02423096 3.377836 1.493042
v -0.02423096 3.377836 5.207764
v -1.244202 1.983725 3.180664
v 0.01965332 3.377836 1.493042
v 1.239929 1.983725 5.207764
v 0.01965332 3.377836 5.207764
v 1.239929 1.983725 3.180664
v -11.35242 -0.9761982 3.950317
v -6.579895 2.15082 0.2618408
v -8.02002 -0.9761982 3.950317
v -9.912598 2.15082 0.2618408
v -11.43207 -0.9769058 0.03735352
v -9.94873 2.139845 0.07910156
v -11.43207 -0.9769058 3.695435
v -9.94873 2.139845 0.03735352
v -9.94873 2.139845 -0.004760742
v -11.43207 -0.9769058 -3.695435
v -6.579224 2.152235 -0.1884766
v -11.35309 -0.9772606 -3.949219
v -8.020386 -0.9772606 -3.949219
v -9.912231 2.152235 -0.1884766
v -9.397156 -0.07806206 -5.594727
v -7.230591 4.387487 0.1092529
v -9.397156 -0.07806206 5.594727
v -7.230591 4.387487 0.03735352
v -7.230591 4.387487 -0.0345459
v -7.209717 4.387487 0.2929688
v -8.786499 0.09434319 5.570923
v -9.283875 0.0971756 5.570923
v -6.600769 4.383947 0.2929688
v -0.0001831055 0.09399033 5.570923
v -0.0001831055 4.383947 0.2929688
v 6.600769 4.383947 0.2929688
v 8.786499 0.09434319 5.570923
v 7.209717 4.387487 0.2929688
v 9.283875 0.0971756 5.570923
v -9.284241 0.09611511 -5.570313
v -6.600769 4.38501 -0.2193604
v -7.209351 4.388195 -0.2193604
v -8.786499 0.0932827 -5.570313
v -0.0001831055 0.0932827 -5.570313
v -0.0001831055 4.38501 -0.2193604
v 6.600769 4.38501 -0.2193604
v 8.786499 0.0932827 -5.570313
v 9.284241 0.09611511 -5.570313
v 7.209351 4.388195 -0.2193604
v 11.35242 -0.9761982 3.950317
v 6.579895 2.15082 0.2618408
v 9.912598 2.15082 0.2618408
v 8.02002 -0.9761982 3.950317
v 9.94873 2.139845 0.07910156
v 11.43207 -0.9769058 0.03735352
v 11.43207 -0.9769058 3.695435
v 9.94873 2.139845 0.03735352
v 9.94873 2.139845 -0.004760742
v 11.43207 -0.9769058 -3.695435
v 6.579224 2.152235 -0.1884766
v 11.35309 -0.9772606 -3.949219
v 9.912231 2.152235 -0.1884766
v 8.020386 -0.9772606 -3.949219
v 9.397156 -0.07806206 -5.594727
v 7.230591 4.387487 0.03735352
v 7.230591 4.387487 -0.0345459
v 7.230591 4.387487 0.1092529
v 9.397156 -0.07806206 5.594727

vn 0.1003418 0.6547852 0.7490234
vn 0.1003418 0.6547852 0.7490234
vn 0.1003418 0.6547852 0.7490234
vn 0.1003418 0.6547852 0.7490234
vn 0.1003418 0.6547852 -0.7490234
vn 0.1003418 0.6547852 -0.7490234
vn 0.1003418 0.6547852 -0.7490234
vn 0.1003418 0.6547852 -0.7490234
vn 0.1003418 0.6547852 -0.7490234
vn 0.1003418 0.6547852 -0.7490234
vn 0.1003418 0.6547852 -0.7490234
vn 0.1003418 0.6547852 -0.7490234
vn 0.1003418 0.6547852 0.7490234
vn 0.1003418 0.6547852 0.7490234
vn 0.1003418 0.6547852 0.7490234
vn 0.1003418 0.6547852 0.7490234
vn 0.1003418 0.6547852 -0.7490234
vn 0.1003418 0.6547852 -0.7490234
vn 0.1003418 0.6547852 -0.7490234
vn 0.1003418 0.6547852 -0.7490234
vn 0.1003418 0.6547852 0.7490234
vn 0.1003418 0.6547852 0.7490234
vn 0.1003418 0.6547852 0.7490234
vn 0.1003418 0.6547852 0.7490234
vn -0.6445313 0.7646484 -0.003921509
vn -0.6445313 0.7646484 -0.003921509
vn -0.6445313 0.7646484 -0.003921509
vn -0.6445313 0.7646484 -0.003921509
vn 1.192093E-07 0.4267578 -0.9042969
vn 1.192093E-07 0.4267578 -0.9042969
vn 1.192093E-07 0.4267578 -0.9042969
vn 1.192093E-07 0.4267578 -0.9042969
vn 1.192093E-07 0.4267578 -0.9042969
vn 1.192093E-07 0.4267578 -0.9042969
vn 0.6347656 0.7724609 -0.003921509
vn 0.6347656 0.7724609 -0.003921509
vn 0.6347656 0.7724609 -0.003921509
vn 0.6347656 0.7724609 -0.003921509
vn 0.06359863 0.4353027 -0.8979492
vn 0.06359863 0.4353027 -0.8979492
vn 0.06359863 0.4353027 -0.8979492
vn 0.06359863 0.4353027 -0.8979492
vn 0.06359863 0.4353027 -0.8979492
vn -0.6347656 0.7724609 0.003921509
vn -0.6347656 0.7724609 0.003921509
vn -0.6347656 0.7724609 0.003921509
vn -0.6347656 0.7724609 0.003921509
vn -0.6347656 0.7724609 -0.003921509
vn -0.6347656 0.7724609 -0.003921509
vn -0.6347656 0.7724609 -0.003921509
vn -0.6347656 0.7724609 -0.003921509
vn -0.6347656 0.7724609 -0.003921509
vn -0.6347656 0.7724609 -0.003921509
vn 0.6254883 0.7802734 0.003921509
vn 0.6254883 0.7802734 -0.003921509
vn 0.6254883 0.7802734 0.003921509
vn 0.6254883 0.7802734 -0.003921509
vn 0.6254883 0.7802734 -0.003921509
vn 0.6254883 0.7802734 -0.003921509
vn 0.6254883 0.7802734 -0.003921509
vn 0.6254883 0.7802734 -0.003921509
vn 0.6254883 0.7802734 -0.003921509
vn 0.6254883 0.7802734 -0.003921509
vn -0.6445313 0.7646484 -0.003921509
vn -0.6445313 0.7646484 -0.003921509
vn -0.6445313 0.7646484 -0.003921509
vn -0.6445313 0.7646484 -0.003921509
vn -1.192093E-07 0.4267578 0.9042969
vn -1.192093E-07 0.4267578 0.9042969
vn -1.192093E-07 0.4267578 0.9042969
vn -1.192093E-07 0.4267578 0.9042969
vn -1.192093E-07 0.4267578 0.9042969
vn -1.192093E-07 0.4267578 0.9042969
vn 0.6347656 0.7724609 -0.003921509
vn 0.6347656 0.7724609 -0.003921509
vn 0.6347656 0.7724609 -0.003921509
vn 0.6347656 0.7724609 -0.003921509
vn 0.06359863 0.4353027 0.8979492
vn 0.06359863 0.4353027 0.8979492
vn 0.06359863 0.4353027 0.8979492
vn 0.06359863 0.4353027 0.8979492
vn 0.06359863 0.4353027 0.8979492

vt 0.1629639 0.1365967
vt 0.8535156 0.8486328
vt 0.5400391 0.1365967
vt 0.1629639 0.8486328
vt 0.8535156 0.8486328
vt 0.1629639 0.1365967
vt 0.5400391 0.1365967
vt 0.1629639 0.8486328
vt 0.1629639 0.1365967
vt 0.8535156 0.8486328
vt 0.1629639 0.8486328
vt 0.5400391 0.1365967
vt 0.8535156 0.8486328
vt 0.1629639 0.1365967
vt 0.1629639 0.8486328
vt 0.5400391 0.1365967
vt 0.1629639 0.1365967
vt 0.8535156 0.8486328
vt 0.1629639 0.8486328
vt 0.5400391 0.1365967
vt 0.8535156 0.8486328
vt 0.1629639 0.1365967
vt 0.1629639 0.8486328
vt 0.5400391 0.1365967
vt -1.564453 -0.7407227
vt -0.6967773 0.4182129
vt -0.9584961 -0.7407227
vt -1.302734 0.4182129
vt 0.4938965 -0.5039063
vt 0.4868164 0.6630859
vt -0.1257324 -0.5039063
vt 0.4938965 0.6630859
vt 0.5009766 0.6630859
vt 1.125977 -0.5039063
vt -0.6967773 0.559082
vt -1.564453 1.740234
vt -0.9584961 1.740234
vt -1.302734 0.559082
vt 1.447266 -0.1672363
vt 0.4812012 1.503906
vt -0.4470215 -0.1672363
vt 0.4938965 1.503906
vt 0.5058594 1.503906
vt -0.5610352 0.375
vt -0.793457 -1.881836
vt -0.8657227 -1.881836
vt -0.4709473 0.375
vt 0.5004883 -1.881836
vt 0.5004883 0.375
vt 1.47168 0.375
vt 1.792969 -1.881836
vt 1.560547 0.375
vt 1.866211 -1.881836
vt -1.050781 1.555664
vt -0.6025391 -0.5546875
vt -0.7045898 -0.5556641
vt -0.9677734 1.555664
vt 0.5004883 1.555664
vt 0.5004883 -0.5546875
vt 1.602539 -0.5546875
vt 1.967773 1.555664
vt 2.050781 1.555664
vt 1.704102 -0.5556641
vt 2.564453 -0.7407227
vt 1.696289 0.4182129
vt 2.302734 0.4182129
vt 1.958008 -0.7407227
vt 0.4868164 0.6630859
vt 0.4938965 -0.5039063
vt -0.1257324 -0.5039063
vt 0.4938965 0.6630859
vt 0.5009766 0.6630859
vt 1.125977 -0.5039063
vt 1.696289 0.559082
vt 2.564453 1.740234
vt 2.302734 0.559082
vt 1.958008 1.740234
vt 1.447266 -0.1672363
vt 0.4938965 1.503906
vt 0.5058594 1.503906
vt 0.4812012 1.503906
vt -0.4470215 -0.1672363

g Building67_(2)_27533_241
usemtl Building67_(2)_27533_241
usemap Building67_(2)_27533_241
f 1/1/1 3/3/3 2/2/2
f 2/2/2 4/4/4 1/1/1
f 5/5/5 7/7/7 6/6/6
f 6/6/6 8/8/8 5/5/5
f 9/9/9 11/11/11 10/10/10
f 10/10/10 12/12/12 9/9/9
f 13/13/13 15/15/15 14/14/14
f 14/14/14 16/16/16 13/13/13
f 17/17/17 19/19/19 18/18/18
f 18/18/18 20/20/20 17/17/17
f 21/21/21 23/23/23 22/22/22
f 22/22/22 24/24/24 21/21/21
f 25/25/25 27/27/27 26/26/26
f 26/26/26 28/28/28 25/25/25
f 29/29/29 31/31/31 30/30/30
f 30/30/30 32/32/32 29/29/29
f 29/29/29 32/32/32 33/33/33
f 33/33/33 34/34/34 29/29/29
f 35/35/35 37/37/37 36/36/36
f 36/36/36 38/38/38 35/35/35
f 39/39/39 41/41/41 40/40/40
f 39/39/39 40/40/40 42/42/42
f 39/39/39 42/42/42 43/43/43
f 44/44/44 46/46/46 45/45/45
f 45/45/45 47/47/47 44/44/44
f 47/47/47 45/45/45 48/48/48
f 48/48/48 49/49/49 47/47/47
f 50/50/50 49/49/49 48/48/48
f 48/48/48 51/51/51 50/50/50
f 52/52/52 50/50/50 51/51/51
f 51/51/51 53/53/53 52/52/52
f 54/54/54 56/56/56 55/55/55
f 55/55/55 57/57/57 54/54/54
f 58/58/58 57/57/57 55/55/55
f 55/55/55 59/59/59 58/58/58
f 58/58/58 59/59/59 60/60/60
f 60/60/60 61/61/61 58/58/58
f 62/62/62 61/61/61 60/60/60
f 60/60/60 63/63/63 62/62/62
f 64/64/64 66/66/66 65/65/65
f 65/65/65 67/67/67 64/64/64
f 68/68/68 70/70/70 69/69/69
f 69/69/69 71/71/71 68/68/68
f 72/72/72 71/71/71 69/69/69
f 69/69/69 73/73/73 72/72/72
f 74/74/74 76/76/76 75/75/75
f 75/75/75 77/77/77 74/74/74
f 78/78/78 80/80/80 79/79/79
f 78/78/78 79/79/79 81/81/81
f 78/78/78 81/81/81 82/82/82
