#Building32_(1)_27641_196.obj

v 4.794128 -3.013758 -8.327881
v 4.794128 -10.18248 -8.612549
v 4.794128 -10.18248 -8.327881
v 4.794128 -3.013758 -8.612549
v 4.481812 -10.18248 -8.327881
v 4.481812 -3.011219 -8.612549
v 4.481812 -3.011219 -8.327881
v 4.481812 -10.18248 -8.612549
v 1.863647 -3.013758 -8.327881
v 1.863647 -10.18248 -8.612549
v 1.863647 -10.18248 -8.327881
v 1.863647 -3.013758 -8.612549
v 1.551392 -10.18248 -8.327881
v 1.551392 -3.011219 -8.612549
v 1.551392 -3.011219 -8.327881
v 1.551392 -10.18248 -8.612549
v -3.699585 -3.013758 -8.327881
v -3.699585 -10.18248 -8.612549
v -3.699585 -10.18248 -8.327881
v -3.699585 -3.013758 -8.612549
v -4.011841 -10.18248 -8.327881
v -4.011841 -3.011219 -8.612549
v -4.011841 -3.011219 -8.327881
v -4.011841 -10.18248 -8.612549
v -6.630005 -3.015661 -8.327881
v -6.630005 -10.18248 -8.612549
v -6.630005 -10.18248 -8.327881
v -6.630005 -3.015661 -8.612549
v -6.942322 -10.18248 -8.327881
v -6.942322 -3.011219 -8.612549
v -6.942322 -3.011219 -8.327881
v -6.942322 -10.18248 -8.612549
v -0.9474487 -3.013758 -8.327881
v -0.9474487 -10.18248 -8.612549
v -0.9474487 -10.18248 -8.327881
v -0.9474487 -3.013758 -8.612549
v -1.259766 -10.18248 -8.327881
v -1.259766 -3.011219 -8.612549
v -1.259766 -3.011219 -8.327881
v -1.259766 -10.18248 -8.612549

vn 1 0.003921509 0
vn 1 0.003921509 0
vn 1 0.003921509 0
vn 1 0.003921509 0
vn -1 0.003921509 0
vn -1 0.003921509 0
vn -1 0.003921509 0
vn -1 0.003921509 0
vn 1 0.003921509 0
vn 1 0.003921509 0
vn 1 0.003921509 0
vn 1 0.003921509 0
vn -1 0.003921509 0
vn -1 0.003921509 0
vn -1 0.003921509 0
vn -1 0.003921509 0
vn 1 0.003921509 0
vn 1 0.003921509 0
vn 1 0.003921509 0
vn 1 0.003921509 0
vn -1 0.003921509 0
vn -1 0.003921509 0
vn -1 0.003921509 0
vn -1 0.003921509 0
vn 1 0.003921509 0
vn 1 0.003921509 0
vn 1 0.003921509 0
vn 1 0.003921509 0
vn -1 0.003921509 0
vn -1 0.003921509 0
vn -1 0.003921509 0
vn -1 0.003921509 0
vn 1 0.003921509 0
vn 1 0.003921509 0
vn 1 0.003921509 0
vn 1 0.003921509 0
vn -1 0.003921509 0
vn -1 0.003921509 0
vn -1 0.003921509 0
vn -1 0.003921509 0

vt -4.632813 2.109375
vt -4.632813 -4.375
vt -4.632813 -4.375
vt -4.632813 2.109375
vt -4.402344 -4.375
vt -4.402344 2.292969
vt -4.402344 2.292969
vt -4.402344 -4.375
vt -4.632813 2.109375
vt -4.632813 -4.375
vt -4.632813 -4.375
vt -4.632813 2.109375
vt -4.402344 -4.375
vt -4.402344 2.292969
vt -4.402344 2.292969
vt -4.402344 -4.375
vt -4.632813 2.109375
vt -4.632813 -4.375
vt -4.632813 -4.375
vt -4.632813 2.109375
vt -4.402344 -4.375
vt -4.402344 2.292969
vt -4.402344 2.292969
vt -4.402344 -4.375
vt -4.632813 2.109375
vt -4.632813 -4.375
vt -4.632813 -4.375
vt -4.632813 2.109375
vt -4.402344 -4.375
vt -4.402344 2.292969
vt -4.402344 2.292969
vt -4.402344 -4.375
vt -4.632813 2.109375
vt -4.632813 -4.375
vt -4.632813 -4.375
vt -4.632813 2.109375
vt -4.402344 -4.375
vt -4.402344 2.292969
vt -4.402344 2.292969
vt -4.402344 -4.375

g Building32_(1)_27641_196
usemtl Building32_(1)_27641_196
usemap Building32_(1)_27641_196
f 1/1/1 3/3/3 2/2/2
f 2/2/2 4/4/4 1/1/1
f 5/5/5 7/7/7 6/6/6
f 6/6/6 8/8/8 5/5/5
f 9/9/9 11/11/11 10/10/10
f 10/10/10 12/12/12 9/9/9
f 13/13/13 15/15/15 14/14/14
f 14/14/14 16/16/16 13/13/13
f 17/17/17 19/19/19 18/18/18
f 18/18/18 20/20/20 17/17/17
f 21/21/21 23/23/23 22/22/22
f 22/22/22 24/24/24 21/21/21
f 25/25/25 27/27/27 26/26/26
f 26/26/26 28/28/28 25/25/25
f 29/29/29 31/31/31 30/30/30
f 30/30/30 32/32/32 29/29/29
f 33/33/33 35/35/35 34/34/34
f 34/34/34 36/36/36 33/33/33
f 37/37/37 39/39/39 38/38/38
f 38/38/38 40/40/40 37/37/37
