#Building21_27465_86.obj

v 0.7602539 33.03542 6.761108
v -11.23328 -34.22595 6.761108
v -11.23328 33.03542 6.761108
v 0.7602539 -34.16637 6.761108
v 10.61115 22.34808 -0.9963379
v 0.2285767 -34.25689 2.931641
v 0.2285767 22.37901 2.931641
v 10.61115 -34.25116 -0.9963379
v 10.61115 22.34808 -6.588013
v 10.61115 -34.25116 -0.9963379
v 10.61115 22.34808 -0.9963379
v 10.61115 -34.23856 -6.588013
v 6.016296 23.21777 -6.761108
v 11.23334 -34.19845 -6.761108
v 11.23334 23.21777 -6.761108
v 6.016296 -34.31189 -6.761108
v -11.1405 37.54662 -6.761108
v 6.016296 -34.31189 -6.761108
v 6.016296 37.54662 -6.761108
v -11.1405 -34.3371 -6.761108
v -8.738831 32.37196 6.394409
v -8.738831 -34.46544 -0.6811523
v -8.738831 32.37196 -0.6811523
v -8.738831 -34.48262 6.394409
v -10.01306 34.81033 -0.6811523
v -10.01306 -34.31418 -6.588013
v -10.01306 34.81033 -6.588013
v -10.01306 -34.30616 -0.6811523

vn -0.003921509 0.003921509 1
vn -0.003921509 0.003921509 1
vn -0.003921509 0.003921509 1
vn -0.003921509 0.003921509 1
vn 0.1685791 0.003921509 0.9858398
vn 0.1685791 0.003921509 0.9858398
vn 0.1685791 0.003921509 0.9858398
vn 0.1685791 0.003921509 0.9858398
vn 1 0.003921509 0
vn 1 0.003921509 0
vn 1 0.003921509 0
vn 1 0.003921509 0
vn 0.003921509 0.003921509 -1
vn 0.003921509 0.003921509 -1
vn 0.003921509 0.003921509 -1
vn 0.003921509 0.003921509 -1
vn -0.003921509 0.003921509 -1
vn -0.003921509 0.003921509 -1
vn -0.003921509 0.003921509 -1
vn -0.003921509 0.003921509 -1
vn -1 0.003921509 0
vn -1 0.003921509 0
vn -1 0.003921509 0
vn -1 0.003921509 0
vn -1 0.003921509 0
vn -1 0.003921509 0
vn -1 0.003921509 0
vn -1 0.003921509 0

vt 0.597168 10.26563
vt -0.9345703 -9.617188
vt -0.9345703 10.26563
vt 0.597168 -9.59375
vt 1.855469 7.105469
vt 0.5292969 -9.625
vt 0.5292969 7.113281
vt 1.855469 -9.617188
vt 7.105469 -1.166016
vt -9.617188 0.3022461
vt 7.105469 0.3022461
vt -9.617188 -1.166016
vt -0.2685547 7.359375
vt -0.9345703 -9.601563
vt -0.9345703 7.359375
vt -0.2685547 -9.640625
vt 1.922852 11.59375
vt -0.2685547 -9.640625
vt -0.2685547 11.59375
vt 1.922852 -9.648438
vt -9.0625 2.244141
vt 10.6875 0.3845215
vt -9.0625 0.3845215
vt 10.6875 2.244141
vt -9.789063 0.3845215
vt 10.64063 -1.166016
vt -9.789063 -1.166016
vt 10.64063 0.3845215

g Building21_27465_86
usemtl Building21_27465_86
usemap Building21_27465_86
f 1/1/1 3/3/3 2/2/2
f 2/2/2 4/4/4 1/1/1
f 5/5/5 7/7/7 6/6/6
f 6/6/6 8/8/8 5/5/5
f 9/9/9 11/11/11 10/10/10
f 10/10/10 12/12/12 9/9/9
f 13/13/13 15/15/15 14/14/14
f 14/14/14 16/16/16 13/13/13
f 17/17/17 19/19/19 18/18/18
f 18/18/18 20/20/20 17/17/17
f 21/21/21 23/23/23 22/22/22
f 22/22/22 24/24/24 21/21/21
f 25/25/25 27/27/27 26/26/26
f 26/26/26 28/28/28 25/25/25
