#Building55_28003_93.obj

v -4.60022 -3.897074 2.935669
v -4.60022 -0.7586346 2.935669
v -4.60022 -0.7586346 5.174683
v -4.60022 -3.897074 5.174683
v -4.60022 -3.897074 7.413208
v -4.60022 -3.897074 5.174683
v -4.60022 -0.7586346 5.174683
v -4.60022 -0.7586346 7.413208
v -4.60022 -3.897074 -2.935669
v -4.60022 -3.897074 -5.174683
v -4.60022 -0.7586346 -5.174683
v -4.60022 -0.7586346 -2.935669
v -4.60022 -3.897074 -7.413208
v -4.60022 -0.7586346 -7.413208
v -4.60022 -0.7586346 -5.174683
v -4.60022 -3.897074 -5.174683

vn -1 0.003921509 0
vn -1 0.003921509 0
vn -1 0.003921509 0
vn -1 0.003921509 0
vn -1 0.003921509 0
vn -1 0.003921509 0
vn -1 0.003921509 0
vn -1 0.003921509 0
vn -1 0.003921509 0
vn -1 0.003921509 0
vn -1 0.003921509 0
vn -1 0.003921509 0
vn -1 0.003921509 0
vn -1 0.003921509 0
vn -1 0.003921509 0
vn -1 0.003921509 0

vt -0.0002171993 -0.0002171993
vt -0.0002171993 1
vt 0.7407227 1
vt 0.7407227 -0.0002171993
vt -0.0002171993 -0.0002171993
vt 0.7407227 -0.0002171993
vt 0.7407227 1
vt -0.0002171993 1
vt -0.0002171993 -0.0002171993
vt 0.7407227 -0.0002171993
vt 0.7407227 1
vt -0.0002171993 1
vt -0.0002171993 -0.0002171993
vt -0.0002171993 1
vt 0.7407227 1
vt 0.7407227 -0.0002171993

g Building55_28003_93
usemtl Building55_28003_93
usemap Building55_28003_93
f 1/1/1 3/3/3 2/2/2
f 1/1/1 4/4/4 3/3/3
f 5/5/5 7/7/7 6/6/6
f 5/5/5 8/8/8 7/7/7
f 9/9/9 11/11/11 10/10/10
f 9/9/9 12/12/12 11/11/11
f 13/13/13 15/15/15 14/14/14
f 13/13/13 16/16/16 15/15/15
