#Building31_28367_206.obj

v 12.71082 -3.571136 0.2194824
v 12.56049 -3.571136 -0.9136963
v 12.70557 -3.571136 -0.9142456
v 12.5658 -3.571136 0.2200317
v 12.70557 -3.571136 -0.9142456
v 12.56049 -1.912861 -0.9136963
v 12.70557 -1.912861 -0.9142456
v 12.56049 -3.571136 -0.9136963
v 12.70557 -1.912861 -0.9142456
v 12.5658 -1.912861 0.2200317
v 12.71082 -1.912861 0.2194824
v 12.56049 -1.912861 -0.9136963
v 12.71082 -1.912861 0.2194824
v 12.5658 -3.571136 0.2200317
v 12.71082 -3.571136 0.2194824
v 12.5658 -1.912861 0.2200317
v 7.804321 -3.571136 3.794678
v 9.01062 -3.571136 3.654846
v 9.011658 -3.571136 3.789917
v 7.803833 -3.571136 3.659058
v 9.011658 -3.571136 3.789917
v 9.01062 -1.912861 3.654846
v 9.011658 -1.912861 3.789917
v 9.01062 -3.571136 3.654846
v 9.011658 -1.912861 3.789917
v 7.803833 -1.912861 3.659058
v 7.804321 -1.912861 3.794678
v 9.01062 -1.912861 3.654846
v 7.804321 -1.912861 3.794678
v 7.803833 -3.571136 3.659058
v 7.804321 -3.571136 3.794678
v 7.803833 -1.912861 3.659058
v 11.38629 7.765057 -3.765625
v 10.97583 8.499847 -3.765076
v 10.97583 7.765057 -3.765076
v 11.38629 8.499847 -3.765625
v 10.97583 7.765057 -3.765076
v 10.97687 8.499847 -3.352478
v 10.97687 7.765057 -3.352478
v 10.97583 8.499847 -3.765076
v 10.97687 7.765057 -3.352478
v 11.38739 8.499847 -3.353027
v 11.38739 7.703037 -3.353027
v 10.97687 8.499847 -3.352478
v 11.38739 7.703037 -3.353027
v 11.38629 8.499847 -3.765625
v 11.38629 7.765057 -3.765625
v 11.38739 8.499847 -3.353027
v 11.42206 8.499847 -3.801331
v 10.94006 8.840965 -3.800842
v 10.94006 8.499847 -3.800842
v 11.42206 8.840965 -3.801331
v 10.94006 8.499847 -3.800842
v 10.94116 8.840965 -3.316223
v 10.94116 8.499847 -3.316223
v 10.94006 8.840965 -3.800842
v 10.94116 8.499847 -3.316223
v 11.4231 8.840965 -3.317261
v 11.4231 8.499847 -3.317261
v 10.94116 8.840965 -3.316223
v 11.4231 8.499847 -3.317261
v 11.42206 8.840965 -3.801331
v 11.42206 8.499847 -3.801331
v 11.4231 8.840965 -3.317261
v 11.45258 8.840965 -3.832336
v 10.90961 9.174198 -3.831299
v 10.90961 8.840965 -3.831299
v 11.45258 9.174198 -3.832336
v 10.90961 8.840965 -3.831299
v 10.91064 9.174198 -3.285706
v 10.91064 8.840965 -3.285706
v 10.90961 9.174198 -3.831299
v 10.91064 8.840965 -3.285706
v 11.45361 9.174198 -3.286804
v 11.45361 8.840965 -3.286804
v 10.91064 9.174198 -3.285706
v 11.45361 8.840965 -3.286804
v 11.45258 9.174198 -3.832336
v 11.45258 8.840965 -3.832336
v 11.45361 9.174198 -3.286804
v 11.39001 9.174198 -3.769287
v 10.97266 8.947662 -3.76825
v 10.97266 9.174198 -3.76825
v 11.39001 8.947662 -3.769287
v 10.97266 9.174198 -3.76825
v 10.97321 8.947662 -3.348816
v 10.97321 9.174198 -3.348816
v 10.97266 8.947662 -3.76825
v 10.97321 9.174198 -3.348816
v 11.3905 8.947662 -3.349304
v 11.3905 9.174198 -3.349304
v 10.97321 8.947662 -3.348816
v 11.3905 9.174198 -3.349304
v 11.39001 8.947662 -3.769287
v 11.39001 9.174198 -3.769287
v 11.3905 8.947662 -3.349304
v 10.97266 8.947662 -3.76825
v 11.3905 8.947662 -3.349304
v 10.97321 8.947662 -3.348816
v 11.39001 8.947662 -3.769287
v -12.71466 -3.571136 0.2636719
v -12.56799 -3.571136 -0.8700562
v -12.56958 -3.571136 0.2636719
v -12.71362 -3.571136 -0.8700562
v -12.71362 -3.571136 -0.8700562
v -12.56799 -1.912861 -0.8700562
v -12.56799 -3.571136 -0.8700562
v -12.71362 -1.912861 -0.8700562
v -12.71362 -1.912861 -0.8700562
v -12.56958 -1.912861 0.2636719
v -12.56799 -1.912861 -0.8700562
v -12.71466 -1.912861 0.2636719
v -12.71466 -1.912861 0.2636719
v -12.56958 -3.571136 0.2636719
v -12.56958 -1.912861 0.2636719
v -12.71466 -3.571136 0.2636719
v -7.795532 -3.571136 3.821472
v -9.002869 -3.571136 3.685852
v -7.795532 -3.571136 3.685852
v -9.002869 -3.571136 3.820923
v -9.002869 -3.571136 3.820923
v -9.002869 -1.912861 3.685852
v -9.002869 -3.571136 3.685852
v -9.002869 -1.912861 3.820923
v -9.002869 -1.912861 3.820923
v -7.795532 -1.912861 3.685852
v -9.002869 -1.912861 3.685852
v -7.795532 -1.912861 3.821472
v -7.795532 -1.912861 3.821472
v -7.795532 -3.571136 3.685852
v -7.795532 -1.912861 3.685852
v -7.795532 -3.571136 3.821472
v -11.40381 7.765057 -3.726196
v -10.99329 8.499847 -3.727234
v -11.40381 8.499847 -3.726196
v -10.99329 7.765057 -3.727234
v -10.99329 7.765057 -3.727234
v -10.9928 8.499847 -3.314636
v -10.99329 8.499847 -3.727234
v -10.9928 7.765057 -3.314636
v -10.9928 7.765057 -3.314636
v -11.40326 8.499847 -3.313599
v -10.9928 8.499847 -3.314636
v -11.40326 7.703037 -3.313599
v -11.40326 7.703037 -3.313599
v -11.40381 8.499847 -3.726196
v -11.40326 8.499847 -3.313599
v -11.40381 7.765057 -3.726196
v -11.43951 8.499847 -3.761902
v -10.95758 8.840965 -3.763
v -11.43951 8.840965 -3.761902
v -10.95758 8.499847 -3.763
v -10.95758 8.499847 -3.763
v -10.95703 8.840965 -3.278381
v -10.95758 8.840965 -3.763
v -10.95703 8.499847 -3.278381
v -10.95703 8.499847 -3.278381
v -11.43903 8.840965 -3.277832
v -10.95703 8.840965 -3.278381
v -11.43903 8.499847 -3.277832
v -11.43903 8.499847 -3.277832
v -11.43951 8.840965 -3.761902
v -11.43903 8.840965 -3.277832
v -11.43951 8.499847 -3.761902
v -11.47003 8.840965 -3.792419
v -10.92761 9.174198 -3.793457
v -11.47003 9.174198 -3.792419
v -10.92761 8.840965 -3.793457
v -10.92761 8.840965 -3.793457
v -10.92657 9.174198 -3.248413
v -10.92761 9.174198 -3.793457
v -10.92657 8.840965 -3.248413
v -10.92657 8.840965 -3.248413
v -11.46899 9.174198 -3.247375
v -10.92657 9.174198 -3.248413
v -11.46899 8.840965 -3.247375
v -11.46899 8.840965 -3.247375
v -11.47003 9.174198 -3.792419
v -11.46899 9.174198 -3.247375
v -11.47003 8.840965 -3.792419
v -11.40747 9.174198 -3.729858
v -10.99017 8.947662 -3.730408
v -11.40747 8.947662 -3.729858
v -10.99017 9.174198 -3.730408
v -10.99017 9.174198 -3.730408
v -10.98907 8.947662 -3.310974
v -10.99017 8.947662 -3.730408
v -10.98907 9.174198 -3.310974
v -10.98907 9.174198 -3.310974
v -11.40643 8.947662 -3.310425
v -10.98907 8.947662 -3.310974
v -11.40643 9.174198 -3.310425
v -11.40643 9.174198 -3.310425
v -11.40747 8.947662 -3.729858
v -11.40643 8.947662 -3.310425
v -11.40747 9.174198 -3.729858
v -10.99017 8.947662 -3.730408
v -11.40643 8.947662 -3.310425
v -11.40747 8.947662 -3.729858
v -10.98907 8.947662 -3.310974
v 10.94006 8.499847 -3.800842
v 11.38629 8.499847 -3.765625
v 11.42206 8.499847 -3.801331
v 10.97583 8.499847 -3.765076
v 11.38739 8.499847 -3.353027
v 10.94116 8.499847 -3.316223
v 11.4231 8.499847 -3.317261
v 10.97687 8.499847 -3.352478
v 10.90961 8.840965 -3.831299
v 11.42206 8.840965 -3.801331
v 11.45258 8.840965 -3.832336
v 10.94006 8.840965 -3.800842
v 11.4231 8.840965 -3.317261
v 10.91064 8.840965 -3.285706
v 11.45361 8.840965 -3.286804
v 10.94116 8.840965 -3.316223
v 10.97266 9.174198 -3.76825
v 11.45258 9.174198 -3.832336
v 11.39001 9.174198 -3.769287
v 10.90961 9.174198 -3.831299
v 11.45361 9.174198 -3.286804
v 10.97321 9.174198 -3.348816
v 11.3905 9.174198 -3.349304
v 10.91064 9.174198 -3.285706
v -11.40381 8.499847 -3.726196
v -10.95758 8.499847 -3.763
v -11.43951 8.499847 -3.761902
v -10.99329 8.499847 -3.727234
v -11.40326 8.499847 -3.313599
v -10.95703 8.499847 -3.278381
v -11.43903 8.499847 -3.277832
v -10.9928 8.499847 -3.314636
v -11.43951 8.840965 -3.761902
v -10.92761 8.840965 -3.793457
v -11.47003 8.840965 -3.792419
v -10.95758 8.840965 -3.763
v -11.43903 8.840965 -3.277832
v -10.92657 8.840965 -3.248413
v -11.46899 8.840965 -3.247375
v -10.95703 8.840965 -3.278381
v -11.47003 9.174198 -3.792419
v -10.99017 9.174198 -3.730408
v -11.40747 9.174198 -3.729858
v -10.92761 9.174198 -3.793457
v -11.46899 9.174198 -3.247375
v -10.98907 9.174198 -3.310974
v -11.40643 9.174198 -3.310425
v -10.92657 9.174198 -3.248413

vn -0.003921509 1 0
vn -0.003921509 1 0
vn -0.003921509 1 0
vn -0.003921509 1 0
vn 0.003921509 0.003921509 1
vn 0.003921509 0.003921509 1
vn 0.003921509 0.003921509 1
vn 0.003921509 0.003921509 1
vn -0.003921509 -1 0
vn -0.003921509 -1 0
vn -0.003921509 -1 0
vn -0.003921509 -1 0
vn -0.003921509 0.003921509 -1
vn -0.003921509 0.003921509 -1
vn -0.003921509 0.003921509 -1
vn -0.003921509 0.003921509 -1
vn -0.003921509 1 0
vn -0.003921509 1 0
vn -0.003921509 1 0
vn -0.003921509 1 0
vn -1 0.003921509 0
vn -1 0.003921509 0
vn -1 0.003921509 0
vn -1 0.003921509 0
vn -0.003921509 -1 0
vn -0.003921509 -1 0
vn -0.003921509 -1 0
vn -0.003921509 -1 0
vn 1 0.003921509 0
vn 1 0.003921509 0
vn 1 0.003921509 0
vn 1 0.003921509 0
vn -0.003921509 0.003921509 -1
vn -0.003921509 0.003921509 -1
vn -0.003921509 0.003921509 -1
vn -0.003921509 0.003921509 -1
vn -1 0.003921509 0
vn -1 0.003921509 0
vn -1 0.003921509 0
vn -1 0.003921509 0
vn 0.003921509 0.003921509 1
vn 0.003921509 0.003921509 1
vn 0.003921509 0.003921509 1
vn 0.003921509 0.003921509 1
vn 1 0.003921509 0
vn 1 0.003921509 0
vn 1 0.003921509 0
vn 1 0.003921509 0
vn -0.003921509 0.003921509 -1
vn -0.003921509 0.003921509 -1
vn -0.003921509 0.003921509 -1
vn -0.003921509 0.003921509 -1
vn -1 0.003921509 0
vn -1 0.003921509 0
vn -1 0.003921509 0
vn -1 0.003921509 0
vn 0.003921509 0.003921509 1
vn 0.003921509 0.003921509 1
vn 0.003921509 0.003921509 1
vn 0.003921509 0.003921509 1
vn 1 0.003921509 0
vn 1 0.003921509 0
vn 1 0.003921509 0
vn 1 0.003921509 0
vn -0.003921509 -0.003921509 -1
vn -0.003921509 -0.003921509 -1
vn -0.003921509 -0.003921509 -1
vn -0.003921509 -0.003921509 -1
vn -1 0.003921509 0
vn -1 0.003921509 0
vn -1 0.003921509 0
vn -1 0.003921509 0
vn 0.003921509 0.003921509 1
vn 0.003921509 0.003921509 1
vn 0.003921509 0.003921509 1
vn 0.003921509 0.003921509 1
vn 1 0.003921509 0
vn 1 0.003921509 0
vn 1 0.003921509 0
vn 1 0.003921509 0
vn 0.003921509 0.003921509 1
vn 0.003921509 0.003921509 1
vn 0.003921509 0.003921509 1
vn 0.003921509 0.003921509 1
vn 1 0.003921509 0
vn 1 0.003921509 0
vn 1 0.003921509 0
vn 1 0.003921509 0
vn -0.003921509 0.003921509 -1
vn -0.003921509 0.003921509 -1
vn -0.003921509 0.003921509 -1
vn -0.003921509 0.003921509 -1
vn -1 0.003921509 0
vn -1 0.003921509 0
vn -1 0.003921509 0
vn -1 0.003921509 0
vn -0.003921509 1 0
vn -0.003921509 1 0
vn -0.003921509 1 0
vn -0.003921509 1 0
vn -0.003921509 1 0
vn -0.003921509 1 0
vn -0.003921509 1 0
vn -0.003921509 1 0
vn -0.003921509 0.003921509 1
vn -0.003921509 0.003921509 1
vn -0.003921509 0.003921509 1
vn -0.003921509 0.003921509 1
vn -0.003921509 -1 0
vn -0.003921509 -1 0
vn -0.003921509 -1 0
vn -0.003921509 -1 0
vn 0.003921509 0.003921509 -1
vn 0.003921509 0.003921509 -1
vn 0.003921509 0.003921509 -1
vn 0.003921509 0.003921509 -1
vn -0.003921509 1 0
vn -0.003921509 1 0
vn -0.003921509 1 0
vn -0.003921509 1 0
vn 1 0.003921509 0
vn 1 0.003921509 0
vn 1 0.003921509 0
vn 1 0.003921509 0
vn -0.003921509 -1 0
vn -0.003921509 -1 0
vn -0.003921509 -1 0
vn -0.003921509 -1 0
vn -1 0.003921509 0
vn -1 0.003921509 0
vn -1 0.003921509 0
vn -1 0.003921509 0
vn -0.003921509 0.003921509 -1
vn -0.003921509 0.003921509 -1
vn -0.003921509 0.003921509 -1
vn -0.003921509 0.003921509 -1
vn 1 0.003921509 0
vn 1 0.003921509 0
vn 1 0.003921509 0
vn 1 0.003921509 0
vn 0.003921509 0.003921509 1
vn 0.003921509 0.003921509 1
vn 0.003921509 0.003921509 1
vn 0.003921509 0.003921509 1
vn -1 0.003921509 0
vn -1 0.003921509 0
vn -1 0.003921509 0
vn -1 0.003921509 0
vn -0.003921509 0.003921509 -1
vn -0.003921509 0.003921509 -1
vn -0.003921509 0.003921509 -1
vn -0.003921509 0.003921509 -1
vn 1 0.003921509 0
vn 1 0.003921509 0
vn 1 0.003921509 0
vn 1 0.003921509 0
vn 0.003921509 0.003921509 1
vn 0.003921509 0.003921509 1
vn 0.003921509 0.003921509 1
vn 0.003921509 0.003921509 1
vn -1 0.003921509 0
vn -1 0.003921509 0
vn -1 0.003921509 0
vn -1 0.003921509 0
vn -0.003921509 -0.003921509 -1
vn -0.003921509 -0.003921509 -1
vn -0.003921509 -0.003921509 -1
vn -0.003921509 -0.003921509 -1
vn 1 0.003921509 0
vn 1 0.003921509 0
vn 1 0.003921509 0
vn 1 0.003921509 0
vn 0.003921509 0.003921509 1
vn 0.003921509 0.003921509 1
vn 0.003921509 0.003921509 1
vn 0.003921509 0.003921509 1
vn -1 0.003921509 0
vn -1 0.003921509 0
vn -1 0.003921509 0
vn -1 0.003921509 0
vn 0.003921509 0.003921509 1
vn 0.003921509 0.003921509 1
vn 0.003921509 0.003921509 1
vn 0.003921509 0.003921509 1
vn -1 0.003921509 0
vn -1 0.003921509 0
vn -1 0.003921509 0
vn -1 0.003921509 0
vn -0.003921509 0.003921509 -1
vn -0.003921509 0.003921509 -1
vn -0.003921509 0.003921509 -1
vn -0.003921509 0.003921509 -1
vn 1 0.003921509 0
vn 1 0.003921509 0
vn 1 0.003921509 0
vn 1 0.003921509 0
vn -0.003921509 1 0
vn -0.003921509 1 0
vn -0.003921509 1 0
vn -0.003921509 1 0
vn -0.003921509 -1 0
vn -0.003921509 -1 0
vn -0.003921509 -1 0
vn -0.003921509 -1 0
vn -0.003921509 -1 0
vn -0.003921509 -1 0
vn -0.003921509 -1 0
vn -0.003921509 -1 0
vn -0.003921509 -1 0
vn -0.003921509 -1 0
vn -0.003921509 -1 0
vn -0.003921509 -1 0
vn -0.003921509 -1 0
vn -0.003921509 -1 0
vn -0.003921509 -1 0
vn -0.003921509 -1 0
vn -0.003921509 1 0
vn -0.003921509 1 0
vn -0.003921509 1 0
vn -0.003921509 1 0
vn -0.003921509 1 0
vn -0.003921509 1 0
vn -0.003921509 1 0
vn -0.003921509 1 0
vn -0.003921509 -1 0
vn -0.003921509 -1 0
vn -0.003921509 -1 0
vn -0.003921509 -1 0
vn -0.003921509 -1 0
vn -0.003921509 -1 0
vn -0.003921509 -1 0
vn -0.003921509 -1 0
vn -0.003921509 -1 0
vn -0.003921509 -1 0
vn -0.003921509 -1 0
vn -0.003921509 -1 0
vn -0.003921509 -1 0
vn -0.003921509 -1 0
vn -0.003921509 -1 0
vn -0.003921509 -1 0
vn -0.003921509 1 0
vn -0.003921509 1 0
vn -0.003921509 1 0
vn -0.003921509 1 0
vn -0.003921509 1 0
vn -0.003921509 1 0
vn -0.003921509 1 0
vn -0.003921509 1 0

vt -1.821289 -0.4938965
vt -1.681641 -1.419922
vt -1.818359 -1.420898
vt -1.683594 -0.4938965
vt 2.818359 -0.7636719
vt 2.681641 1.763672
vt 2.818359 1.763672
vt 2.681641 -0.7636719
vt 2.818359 -1.420898
vt 2.683594 -0.4938965
vt 2.820313 -0.4938965
vt 2.681641 -1.419922
vt -1.821289 1.763672
vt -1.683594 -0.7636719
vt -1.821289 -0.7636719
vt -1.683594 1.763672
vt 2.820313 2.419922
vt 1.680664 2.308594
vt 1.680664 2.417969
vt 2.820313 2.310547
vt 2.417969 -0.7636719
vt 2.308594 1.763672
vt 2.417969 1.763672
vt 2.308594 -0.7636719
vt -0.6801758 2.417969
vt -1.821289 2.310547
vt -1.821289 2.419922
vt -0.6801758 2.308594
vt -1.420898 1.763672
vt -1.30957 -0.7636719
vt -1.420898 -0.7636719
vt -1.30957 1.763672
vt 0.3164063 -0.1110229
vt 0.6835938 0.5561523
vt 0.6835938 -0.1110229
vt 0.3164063 0.5561523
vt 0.3164063 -0.1110229
vt 0.6835938 0.5561523
vt 0.6835938 -0.1110229
vt 0.3164063 0.5561523
vt 0.3164063 -0.1110229
vt 0.6835938 0.5561523
vt 0.6835938 -0.1672363
vt 0.3164063 0.5561523
vt 0.3164063 -0.1672363
vt 0.6835938 0.5561523
vt 0.6835938 -0.1110229
vt 0.3164063 0.5561523
vt 0.2841797 0.5561523
vt 0.7158203 0.8652344
vt 0.7158203 0.5561523
vt 0.2841797 0.8652344
vt 0.2841797 0.5561523
vt 0.7158203 0.8652344
vt 0.7158203 0.5561523
vt 0.2841797 0.8652344
vt 0.2841797 0.5561523
vt 0.7158203 0.8652344
vt 0.7158203 0.5561523
vt 0.2841797 0.8652344
vt 0.2841797 0.5561523
vt 0.7158203 0.8652344
vt 0.7158203 0.5561523
vt 0.2841797 0.8652344
vt 0.2570801 0.8652344
vt 0.7431641 1.166992
vt 0.7431641 0.8652344
vt 0.2570801 1.166992
vt 0.2570801 0.8652344
vt 0.7431641 1.166992
vt 0.7431641 0.8652344
vt 0.2570801 1.166992
vt 0.2570801 0.8652344
vt 0.7431641 1.166992
vt 0.7431641 0.8652344
vt 0.2570801 1.166992
vt 0.2570801 0.8652344
vt 0.7431641 1.166992
vt 0.7431641 0.8652344
vt 0.2570801 1.166992
vt 0.6865234 1.166992
vt 0.3132324 0.9614258
vt 0.3132324 1.166992
vt 0.6865234 0.9614258
vt 0.6865234 1.166992
vt 0.3132324 0.9614258
vt 0.3132324 1.166992
vt 0.6865234 0.9614258
vt 0.6865234 1.166992
vt 0.3132324 0.9614258
vt 0.3132324 1.166992
vt 0.6865234 0.9614258
vt 0.6865234 1.166992
vt 0.3132324 0.9614258
vt 0.3132324 1.166992
vt 0.6865234 0.9614258
vt 0.6865234 0.3132324
vt 0.3132324 0.6865234
vt 0.6865234 0.6865234
vt 0.3132324 0.3132324
vt -1.821289 -0.4938965
vt -1.681641 -1.419922
vt -1.683594 -0.4938965
vt -1.818359 -1.420898
vt 2.818359 -0.7636719
vt 2.681641 1.763672
vt 2.681641 -0.7636719
vt 2.818359 1.763672
vt 2.818359 -1.420898
vt 2.683594 -0.4938965
vt 2.681641 -1.419922
vt 2.820313 -0.4938965
vt -1.821289 1.763672
vt -1.683594 -0.7636719
vt -1.683594 1.763672
vt -1.821289 -0.7636719
vt 2.820313 2.419922
vt 1.680664 2.308594
vt 2.820313 2.310547
vt 1.680664 2.417969
vt 2.417969 -0.7636719
vt 2.308594 1.763672
vt 2.308594 -0.7636719
vt 2.417969 1.763672
vt -0.6801758 2.417969
vt -1.821289 2.310547
vt -0.6801758 2.308594
vt -1.821289 2.419922
vt -1.420898 1.763672
vt -1.30957 -0.7636719
vt -1.30957 1.763672
vt -1.420898 -0.7636719
vt 0.3164063 -0.1110229
vt 0.6835938 0.5561523
vt 0.3164063 0.5561523
vt 0.6835938 -0.1110229
vt 0.3164063 -0.1110229
vt 0.6835938 0.5561523
vt 0.3164063 0.5561523
vt 0.6835938 -0.1110229
vt 0.3164063 -0.1110229
vt 0.6835938 0.5561523
vt 0.3164063 0.5561523
vt 0.6835938 -0.1672363
vt 0.3164063 -0.1672363
vt 0.6835938 0.5561523
vt 0.3164063 0.5561523
vt 0.6835938 -0.1110229
vt 0.2841797 0.5561523
vt 0.7158203 0.8652344
vt 0.2841797 0.8652344
vt 0.7158203 0.5561523
vt 0.2841797 0.5561523
vt 0.7158203 0.8652344
vt 0.2841797 0.8652344
vt 0.7158203 0.5561523
vt 0.2841797 0.5561523
vt 0.7158203 0.8652344
vt 0.2841797 0.8652344
vt 0.7158203 0.5561523
vt 0.2841797 0.5561523
vt 0.7158203 0.8652344
vt 0.2841797 0.8652344
vt 0.7158203 0.5561523
vt 0.2570801 0.8652344
vt 0.7431641 1.166992
vt 0.2570801 1.166992
vt 0.7431641 0.8652344
vt 0.2570801 0.8652344
vt 0.7431641 1.166992
vt 0.2570801 1.166992
vt 0.7431641 0.8652344
vt 0.2570801 0.8652344
vt 0.7431641 1.166992
vt 0.2570801 1.166992
vt 0.7431641 0.8652344
vt 0.2570801 0.8652344
vt 0.7431641 1.166992
vt 0.2570801 1.166992
vt 0.7431641 0.8652344
vt 0.6865234 1.166992
vt 0.3132324 0.9614258
vt 0.6865234 0.9614258
vt 0.3132324 1.166992
vt 0.6865234 1.166992
vt 0.3132324 0.9614258
vt 0.6865234 0.9614258
vt 0.3132324 1.166992
vt 0.6865234 1.166992
vt 0.3132324 0.9614258
vt 0.6865234 0.9614258
vt 0.3132324 1.166992
vt 0.6865234 1.166992
vt 0.3132324 0.9614258
vt 0.6865234 0.9614258
vt 0.3132324 1.166992
vt 0.6865234 0.3132324
vt 0.3132324 0.6865234
vt 0.3132324 0.3132324
vt 0.6865234 0.6865234
vt 0.2841797 0.2841797
vt 0.6835938 0.3164063
vt 0.7158203 0.2841797
vt 0.3164063 0.3164063
vt 0.6835938 0.6835938
vt 0.2841797 0.7158203
vt 0.7158203 0.7158203
vt 0.3164063 0.6835938
vt 0.2570801 0.2570801
vt 0.7158203 0.2841797
vt 0.7431641 0.2570801
vt 0.2841797 0.2841797
vt 0.7158203 0.7158203
vt 0.2570801 0.7431641
vt 0.7431641 0.7431641
vt 0.2841797 0.7158203
vt 0.6865234 0.3132324
vt 0.2570801 0.2570801
vt 0.3132324 0.3132324
vt 0.7431641 0.2570801
vt 0.2570801 0.7431641
vt 0.6865234 0.6865234
vt 0.3132324 0.6865234
vt 0.7431641 0.7431641
vt 0.6835938 0.3164063
vt 0.2841797 0.2841797
vt 0.7158203 0.2841797
vt 0.3164063 0.3164063
vt 0.6835938 0.6835938
vt 0.2841797 0.7158203
vt 0.7158203 0.7158203
vt 0.3164063 0.6835938
vt 0.7158203 0.2841797
vt 0.2570801 0.2570801
vt 0.7431641 0.2570801
vt 0.2841797 0.2841797
vt 0.7158203 0.7158203
vt 0.2570801 0.7431641
vt 0.7431641 0.7431641
vt 0.2841797 0.7158203
vt 0.2570801 0.2570801
vt 0.6865234 0.3132324
vt 0.3132324 0.3132324
vt 0.7431641 0.2570801
vt 0.2570801 0.7431641
vt 0.6865234 0.6865234
vt 0.3132324 0.6865234
vt 0.7431641 0.7431641

g Building31_28367_206
usemtl Building31_28367_206
usemap Building31_28367_206
f 1/1/1 3/3/3 2/2/2
f 2/2/2 4/4/4 1/1/1
f 5/5/5 7/7/7 6/6/6
f 6/6/6 8/8/8 5/5/5
f 9/9/9 11/11/11 10/10/10
f 10/10/10 12/12/12 9/9/9
f 13/13/13 15/15/15 14/14/14
f 14/14/14 16/16/16 13/13/13
f 17/17/17 19/19/19 18/18/18
f 18/18/18 20/20/20 17/17/17
f 21/21/21 23/23/23 22/22/22
f 22/22/22 24/24/24 21/21/21
f 25/25/25 27/27/27 26/26/26
f 26/26/26 28/28/28 25/25/25
f 29/29/29 31/31/31 30/30/30
f 30/30/30 32/32/32 29/29/29
f 33/33/33 35/35/35 34/34/34
f 34/34/34 36/36/36 33/33/33
f 37/37/37 39/39/39 38/38/38
f 38/38/38 40/40/40 37/37/37
f 41/41/41 43/43/43 42/42/42
f 42/42/42 44/44/44 41/41/41
f 45/45/45 47/47/47 46/46/46
f 46/46/46 48/48/48 45/45/45
f 49/49/49 51/51/51 50/50/50
f 50/50/50 52/52/52 49/49/49
f 53/53/53 55/55/55 54/54/54
f 54/54/54 56/56/56 53/53/53
f 57/57/57 59/59/59 58/58/58
f 58/58/58 60/60/60 57/57/57
f 61/61/61 63/63/63 62/62/62
f 62/62/62 64/64/64 61/61/61
f 65/65/65 67/67/67 66/66/66
f 66/66/66 68/68/68 65/65/65
f 69/69/69 71/71/71 70/70/70
f 70/70/70 72/72/72 69/69/69
f 73/73/73 75/75/75 74/74/74
f 74/74/74 76/76/76 73/73/73
f 77/77/77 79/79/79 78/78/78
f 78/78/78 80/80/80 77/77/77
f 81/81/81 83/83/83 82/82/82
f 82/82/82 84/84/84 81/81/81
f 85/85/85 87/87/87 86/86/86
f 86/86/86 88/88/88 85/85/85
f 89/89/89 91/91/91 90/90/90
f 90/90/90 92/92/92 89/89/89
f 93/93/93 95/95/95 94/94/94
f 94/94/94 96/96/96 93/93/93
f 97/97/97 99/99/99 98/98/98
f 98/98/98 100/100/100 97/97/97
f 101/101/101 103/103/103 102/102/102
f 102/102/102 104/104/104 101/101/101
f 105/105/105 107/107/107 106/106/106
f 106/106/106 108/108/108 105/105/105
f 109/109/109 111/111/111 110/110/110
f 110/110/110 112/112/112 109/109/109
f 113/113/113 115/115/115 114/114/114
f 114/114/114 116/116/116 113/113/113
f 117/117/117 119/119/119 118/118/118
f 118/118/118 120/120/120 117/117/117
f 121/121/121 123/123/123 122/122/122
f 122/122/122 124/124/124 121/121/121
f 125/125/125 127/127/127 126/126/126
f 126/126/126 128/128/128 125/125/125
f 129/129/129 131/131/131 130/130/130
f 130/130/130 132/132/132 129/129/129
f 133/133/133 135/135/135 134/134/134
f 134/134/134 136/136/136 133/133/133
f 137/137/137 139/139/139 138/138/138
f 138/138/138 140/140/140 137/137/137
f 141/141/141 143/143/143 142/142/142
f 142/142/142 144/144/144 141/141/141
f 145/145/145 147/147/147 146/146/146
f 146/146/146 148/148/148 145/145/145
f 149/149/149 151/151/151 150/150/150
f 150/150/150 152/152/152 149/149/149
f 153/153/153 155/155/155 154/154/154
f 154/154/154 156/156/156 153/153/153
f 157/157/157 159/159/159 158/158/158
f 158/158/158 160/160/160 157/157/157
f 161/161/161 163/163/163 162/162/162
f 162/162/162 164/164/164 161/161/161
f 165/165/165 167/167/167 166/166/166
f 166/166/166 168/168/168 165/165/165
f 169/169/169 171/171/171 170/170/170
f 170/170/170 172/172/172 169/169/169
f 173/173/173 175/175/175 174/174/174
f 174/174/174 176/176/176 173/173/173
f 177/177/177 179/179/179 178/178/178
f 178/178/178 180/180/180 177/177/177
f 181/181/181 183/183/183 182/182/182
f 182/182/182 184/184/184 181/181/181
f 185/185/185 187/187/187 186/186/186
f 186/186/186 188/188/188 185/185/185
f 189/189/189 191/191/191 190/190/190
f 190/190/190 192/192/192 189/189/189
f 193/193/193 195/195/195 194/194/194
f 194/194/194 196/196/196 193/193/193
f 197/197/197 199/199/199 198/198/198
f 198/198/198 200/200/200 197/197/197
f 201/201/201 203/203/203 202/202/202
f 202/202/202 204/204/204 201/201/201
f 205/205/205 202/202/202 203/203/203
f 206/206/206 201/201/201 204/204/204
f 203/203/203 207/207/207 205/205/205
f 204/204/204 208/208/208 206/206/206
f 208/208/208 205/205/205 207/207/207
f 207/207/207 206/206/206 208/208/208
f 209/209/209 211/211/211 210/210/210
f 210/210/210 212/212/212 209/209/209
f 213/213/213 210/210/210 211/211/211
f 214/214/214 209/209/209 212/212/212
f 211/211/211 215/215/215 213/213/213
f 212/212/212 216/216/216 214/214/214
f 216/216/216 213/213/213 215/215/215
f 215/215/215 214/214/214 216/216/216
f 217/217/217 219/219/219 218/218/218
f 218/218/218 220/220/220 217/217/217
f 221/221/221 218/218/218 219/219/219
f 222/222/222 217/217/217 220/220/220
f 219/219/219 223/223/223 221/221/221
f 220/220/220 224/224/224 222/222/222
f 224/224/224 221/221/221 223/223/223
f 223/223/223 222/222/222 224/224/224
f 225/225/225 227/227/227 226/226/226
f 226/226/226 228/228/228 225/225/225
f 227/227/227 225/225/225 229/229/229
f 228/228/228 226/226/226 230/230/230
f 229/229/229 231/231/231 227/227/227
f 230/230/230 232/232/232 228/228/228
f 231/231/231 229/229/229 232/232/232
f 232/232/232 230/230/230 231/231/231
f 233/233/233 235/235/235 234/234/234
f 234/234/234 236/236/236 233/233/233
f 235/235/235 233/233/233 237/237/237
f 236/236/236 234/234/234 238/238/238
f 237/237/237 239/239/239 235/235/235
f 238/238/238 240/240/240 236/236/236
f 239/239/239 237/237/237 240/240/240
f 240/240/240 238/238/238 239/239/239
f 241/241/241 243/243/243 242/242/242
f 242/242/242 244/244/244 241/241/241
f 243/243/243 241/241/241 245/245/245
f 244/244/244 242/242/242 246/246/246
f 245/245/245 247/247/247 243/243/243
f 246/246/246 248/248/248 244/244/244
f 247/247/247 245/245/245 248/248/248
f 248/248/248 246/246/246 247/247/247
