#Building21_27465_85.obj

v 10.61115 -34.25116 -0.9963379
v 0.2285767 -35.96764 2.931641
v 0.2285767 -34.25689 2.931641
v 3.408325 -35.9665 1.728516
v 3.408325 -37.54662 1.728516
v 0.2285767 -37.54662 2.931641
v 7.133484 -35.96535 0.3190918
v 10.61115 -35.96535 -0.9963379
v 10.61115 -37.54662 -0.9963379
v 7.133484 -37.54662 0.3190918
v -1.165894 32.37196 -0.6811523
v 4.224182 22.37901 -0.6811523
v -1.165894 22.37901 -0.6811523
v 0.4692383 34.81033 -0.6811523
v -8.738831 32.37196 -0.6811523
v -10.01306 34.81033 -0.6811523
v -8.738831 -37.54662 -0.6811523
v -10.01306 -37.54662 -0.6811523
v -10.01306 -37.54662 -6.588013
v -10.01306 -34.30616 -0.6811523
v -10.01306 -37.54662 -0.6811523
v -10.01306 -34.31418 -6.588013
v -8.738831 -37.54662 6.394409
v -8.738831 -34.46544 -0.6811523
v -8.738831 -34.48262 6.394409
v -8.738831 -37.54662 -0.6811523
v -3.25708 -35.67201 6.761108
v -7.559753 -35.6892 6.761108
v -11.23328 -35.7041 6.761108
v -11.23328 -34.22595 6.761108
v 0.7602539 -34.16637 6.761108
v 0.7602539 -35.65712 6.761108
v 0.7602539 -37.51569 6.761108
v -3.25708 -37.526 6.761108
v -7.559753 -37.53746 6.761108
v -11.23328 -37.54662 6.761108
v -7.559753 -35.6892 6.761108
v 10.61115 -34.25116 -0.9963379
v 10.61115 -37.54662 -6.588013
v 10.61115 -37.54662 -0.9963379
v 10.61115 -34.23856 -6.588013
v 10.20667 -37.51569 -6.761108
v 6.016296 -34.31189 -6.761108
v 6.016296 -37.51569 -6.761108
v 11.23334 -34.19845 -6.761108
v 11.23334 -37.51569 -6.761108
v 6.016296 -34.31189 -6.761108
v -11.1405 -37.54662 -6.761108
v 6.016296 -37.51569 -6.761108
v -11.1405 -34.3371 -6.761108

vn 0.1685791 0.003921509 0.9858398
vn 0.1685791 0.003921509 0.9858398
vn 0.1685791 0.003921509 0.9858398
vn 0.1685791 0.003921509 0.9858398
vn 0.1685791 0.003921509 0.9858398
vn 0.1685791 0.003921509 0.9858398
vn 0.1685791 0.003921509 0.9858398
vn 0.1685791 0.003921509 0.9858398
vn 0.1685791 0.003921509 0.9858398
vn 0.1685791 0.003921509 0.9858398
vn -0.003921509 0.003921509 1
vn -0.003921509 0.003921509 1
vn -0.003921509 0.003921509 1
vn -0.003921509 0.003921509 1
vn -0.003921509 0.003921509 1
vn -0.003921509 0.003921509 1
vn -0.003921509 0.003921509 1
vn -0.003921509 0.003921509 1
vn -1 0.003921509 0
vn -1 0.003921509 0
vn -1 0.003921509 0
vn -1 0.003921509 0
vn -1 0.003921509 0
vn -1 0.003921509 0
vn -1 0.003921509 0
vn -1 0.003921509 0
vn -0.003921509 0.003921509 1
vn -0.003921509 0.003921509 1
vn -0.003921509 0.003921509 1
vn -0.003921509 0.003921509 1
vn -0.003921509 0.003921509 1
vn -0.003921509 0.003921509 1
vn -0.003921509 0.003921509 1
vn -0.003921509 0.003921509 1
vn -0.003921509 0.003921509 1
vn -0.003921509 0.003921509 1
vn -0.003921509 0.003921509 1
vn 1 0.003921509 0
vn 1 0.003921509 0
vn 1 0.003921509 0
vn 1 0.003921509 0
vn 0.003921509 0.003921509 -1
vn 0.003921509 0.003921509 -1
vn 0.003921509 0.003921509 -1
vn 0.003921509 0.003921509 -1
vn 0.003921509 0.003921509 -1
vn -0.003921509 0.003921509 -1
vn -0.003921509 0.003921509 -1
vn -0.003921509 0.003921509 -1
vn -0.003921509 0.003921509 -1

vt 5.433594 1.333008
vt 2.851563 0.6386719
vt 2.851563 1.330078
vt 3.642578 0.6386719
vt 3.642578 -0.0001434088
vt 2.851563 -0.0001434088
vt 4.570313 0.6391602
vt 5.433594 0.6401367
vt 5.433594 -0.0001434088
vt 4.570313 -0.0001434088
vt 2.503906 28.28125
vt 3.845703 24.23438
vt 2.503906 24.23438
vt 2.912109 29.26563
vt 0.6206055 28.28125
vt 0.3034668 29.26563
vt 0.6206055 -0.0001434088
vt 0.3034668 -0.0001434088
vt 0.4707031 -0.0001434088
vt 2.730469 1.65625
vt 2.730469 -0.0001434088
vt 0.4707031 1.651367
vt 5.433594 -0.0001434088
vt 2.730469 1.574219
vt 5.433594 1.56543
vt 2.730469 -0.0001434088
vt 1.984375 0.7583008
vt 0.9140625 0.7509766
vt -0.0001434088 0.7456055
vt -0.0001434088 1.342773
vt 2.984375 1.367188
vt 2.984375 0.7641602
vt 2.984375 0.01242828
vt 1.984375 0.008659363
vt 0.9140625 0.003629684
vt -0.0001434088 -0.0001434088
vt 0.9140625 0.7509766
vt 3.371094 1.683594
vt 5.507813 -0.0001434088
vt 3.371094 -0.0001434088
vt 5.507813 1.689453
vt 0.2558594 0.01242828
vt 1.297852 1.307617
vt 1.297852 0.01242828
vt -0.0001434088 1.354492
vt -0.0001434088 0.01242828
vt 1.297852 1.307617
vt 5.566406 -0.0001434088
vt 1.297852 0.01242828
vt 5.566406 1.297852

g Building21_27465_85
usemtl Building21_27465_85
usemap Building21_27465_85
f 1/1/1 3/3/3 2/2/2
f 1/1/1 2/2/2 4/4/4
f 5/5/5 4/4/4 2/2/2
f 2/2/2 6/6/6 5/5/5
f 7/7/7 1/1/1 4/4/4
f 7/7/7 8/8/8 1/1/1
f 9/9/9 8/8/8 7/7/7
f 7/7/7 10/10/10 9/9/9
f 11/11/11 13/13/13 12/12/12
f 11/11/11 12/12/12 14/14/14
f 11/11/11 14/14/14 15/15/15
f 14/14/14 16/16/16 15/15/15
f 16/16/16 17/17/17 15/15/15
f 16/16/16 18/18/18 17/17/17
f 19/19/19 21/21/21 20/20/20
f 20/20/20 22/22/22 19/19/19
f 23/23/23 25/25/25 24/24/24
f 24/24/24 26/26/26 23/23/23
f 27/27/27 29/29/29 28/28/28
f 27/27/27 30/30/30 29/29/29
f 27/27/27 31/31/31 30/30/30
f 27/27/27 32/32/32 31/31/31
f 33/33/33 32/32/32 27/27/27
f 27/27/27 34/34/34 33/33/33
f 29/29/29 36/36/36 35/35/35
f 35/35/35 37/37/37 29/29/29
f 38/38/38 40/40/40 39/39/39
f 39/39/39 41/41/41 38/38/38
f 42/42/42 44/44/44 43/43/43
f 42/42/42 43/43/43 45/45/45
f 42/42/42 45/45/45 46/46/46
f 47/47/47 49/49/49 48/48/48
f 48/48/48 50/50/50 47/47/47
