#Building14_27637_115.obj

v -6.07617 -22.70315 -13.45662
v -4.859638 -25.10251 -13.39376
v -4.859638 -22.70315 -13.39376
v -6.07617 -25.10251 -13.45662
v -8.431873 -22.70315 -13.47799
v -8.431873 -25.10251 -13.47799
v -4.859638 -25.10251 13.39376
v -6.07617 -22.70315 13.45652
v -4.859638 -22.70315 13.39376
v -6.07617 -25.10251 13.45652
v -8.431873 -22.70315 13.47799
v -8.431873 -25.10251 13.47799

vn 0.05099487 0.003137589 -0.9985352
vn 0.05099487 0.003137589 -0.9985352
vn 0.05099487 0.003137589 -0.9985352
vn 0.05099487 0.003137589 -0.9985352
vn 0.01176453 0.003137589 -1
vn 0.01176453 0.003137589 -1
vn 0.05099487 0.003137589 0.9985352
vn 0.05099487 0.003137589 0.9985352
vn 0.05099487 0.003137589 0.9985352
vn 0.05099487 0.003137589 0.9985352
vn 0.01176453 0.003137589 1
vn 0.01176453 0.003137589 1

vt 0.340332 1
vt -0.0001375675 -0.0001375675
vt -0.0001375675 1
vt 0.340332 -0.0001375675
vt 1 1
vt 1 -0.0001375675
vt -0.0001375675 -0.0001375675
vt 0.340332 1
vt -0.0001375675 1
vt 0.340332 -0.0001375675
vt 1 1
vt 1 -0.0001375675

g Building14_27637_115
usemtl Building14_27637_115
usemap Building14_27637_115
f 1/1/1 3/3/3 2/2/2
f 2/2/2 4/4/4 1/1/1
f 5/5/5 1/1/1 4/4/4
f 4/4/4 6/6/6 5/5/5
f 7/7/7 9/9/9 8/8/8
f 8/8/8 10/10/10 7/7/7
f 10/10/10 8/8/8 11/11/11
f 11/11/11 12/12/12 10/10/10
