#Building31_28367_220.obj

v 12.71716 7.841793 -1.94281
v 12.68719 7.836536 -1.888672
v 12.67981 7.836536 -1.94281
v 12.72504 7.842319 -1.888672
v 12.67981 7.836536 -1.94281
v 12.68719 7.828129 -1.888672
v 12.67981 7.827602 -1.94281
v 12.68719 7.836536 -1.888672
v 12.67035 7.827602 -0.9378662
v 12.68243 7.836536 -0.9914551
v 12.67456 7.836536 -0.9378662
v 12.68243 7.828129 -0.9914551
v 12.67456 7.836536 -0.9378662
v 12.72028 7.842319 -0.9914551
v 12.71191 7.841793 -0.9373169
v 12.68243 7.836536 -0.9914551
v 7.05957 7.836536 3.898743
v 7.117371 7.841793 3.927124
v 7.05957 7.842319 3.93396
v 7.117371 7.836536 3.891907
v 7.05957 7.828129 3.898743
v 7.117371 7.836536 3.891907
v 7.05957 7.836536 3.898743
v 7.117371 7.827602 3.891907
v 6.098206 7.836536 3.894531
v 6.040405 7.827602 3.883484
v 6.098206 7.828129 3.894531
v 6.040405 7.836536 3.887146
v 6.098206 7.842319 3.929749
v 6.040405 7.836536 3.887146
v 6.098206 7.836536 3.894531
v 6.040405 7.841793 3.922363
v -12.72833 7.841793 -1.898682
v -12.69836 7.836536 -1.845032
v -12.73566 7.842319 -1.844543
v -12.69098 7.836536 -1.89917
v -12.69098 7.836536 -1.89917
v -12.69836 7.828129 -1.845032
v -12.69836 7.836536 -1.845032
v -12.69098 7.827602 -1.89917
v -12.67786 7.827602 -0.8937378
v -12.69049 7.836536 -0.947876
v -12.69049 7.828129 -0.947876
v -12.68207 7.836536 -0.8937378
v -12.68207 7.836536 -0.8937378
v -12.72778 7.842319 -0.947876
v -12.69049 7.836536 -0.947876
v -12.71991 7.841793 -0.8937378
v -7.050232 7.836536 3.923401
v -7.108032 7.841793 3.951782
v -7.108582 7.836536 3.916626
v -7.050232 7.842319 3.958618
v -7.050232 7.828129 3.923401
v -7.108582 7.836536 3.916626
v -7.108582 7.827602 3.916626
v -7.050232 7.836536 3.923401
v -6.089417 7.836536 3.915527
v -6.031616 7.827602 3.90448
v -6.031616 7.836536 3.908203
v -6.089417 7.828129 3.915527
v -6.089417 7.842319 3.950745
v -6.031616 7.836536 3.908203
v -6.031067 7.841793 3.94342
v -6.089417 7.836536 3.915527

vn -0.1523438 0.9882813 0
vn -0.1523438 0.9882813 0
vn -0.1523438 0.9882813 0
vn -0.1523438 0.9882813 0
vn -0.9921875 0.003921509 0.124939
vn -0.9921875 0.003921509 0.124939
vn -0.9921875 0.003921509 0.124939
vn -0.9921875 0.003921509 0.124939
vn -0.9609375 0.2078857 -0.1835938
vn -0.9609375 0.2078857 -0.1835938
vn -0.9609375 0.2078857 -0.1835938
vn -0.9609375 0.2078857 -0.1835938
vn -0.1523438 0.9882813 0
vn -0.1523438 0.9882813 0
vn -0.1523438 0.9882813 0
vn -0.1523438 0.9882813 0
vn -0.01960754 0.9921875 -0.1234741
vn -0.01960754 0.9921875 -0.1234741
vn -0.01960754 0.9921875 -0.1234741
vn -0.01960754 0.9921875 -0.1234741
vn -0.1293945 0.003921509 -0.9916992
vn -0.1293945 0.003921509 -0.9916992
vn -0.1293945 0.003921509 -0.9916992
vn -0.1293945 0.003921509 -0.9916992
vn 0.1685791 0.2078857 -0.9633789
vn 0.1685791 0.2078857 -0.9633789
vn 0.1685791 0.2078857 -0.9633789
vn 0.1685791 0.2078857 -0.9633789
vn 0.01960754 0.9921875 -0.1234741
vn 0.01960754 0.9921875 -0.1234741
vn 0.01960754 0.9921875 -0.1234741
vn 0.01960754 0.9921875 -0.1234741
vn 0.1523438 0.9882813 0
vn 0.1523438 0.9882813 0
vn 0.1523438 0.9882813 0
vn 0.1523438 0.9882813 0
vn 0.9921875 0.003921509 0.124939
vn 0.9921875 0.003921509 0.124939
vn 0.9921875 0.003921509 0.124939
vn 0.9921875 0.003921509 0.124939
vn 0.9609375 0.2078857 -0.1835938
vn 0.9609375 0.2078857 -0.1835938
vn 0.9609375 0.2078857 -0.1835938
vn 0.9609375 0.2078857 -0.1835938
vn 0.1523438 0.9882813 0
vn 0.1523438 0.9882813 0
vn 0.1523438 0.9882813 0
vn 0.1523438 0.9882813 0
vn 0.01960754 0.9921875 -0.1234741
vn 0.01960754 0.9921875 -0.1234741
vn 0.01960754 0.9921875 -0.1234741
vn 0.01960754 0.9921875 -0.1234741
vn 0.121582 0.003921509 -0.9926758
vn 0.121582 0.003921509 -0.9926758
vn 0.121582 0.003921509 -0.9926758
vn 0.121582 0.003921509 -0.9926758
vn -0.1685791 0.2078857 -0.9633789
vn -0.1685791 0.2078857 -0.9633789
vn -0.1685791 0.2078857 -0.9633789
vn -0.1685791 0.2078857 -0.9633789
vn -0.01960754 0.9921875 -0.1234741
vn -0.01960754 0.9921875 -0.1234741
vn -0.01960754 0.9921875 -0.1234741
vn -0.01960754 0.9921875 -0.1234741

vt 0.4284668 0.175293
vt 0.4550781 0.1922607
vt 0.4445801 0.1662598
vt 0.439209 0.2012939
vt 0.1662598 3.310547
vt 0.1922607 3.306641
vt 0.1662598 3.306641
vt 0.1922607 3.310547
vt 0.6166992 3.306641
vt 0.5952148 3.310547
vt 0.6176758 3.310547
vt 0.5952148 3.306641
vt 0.7026367 0.6176758
vt 0.6694336 0.6044922
vt 0.6870117 0.6264648
vt 0.6855469 0.5952148
vt 0.4550781 0.1922607
vt 0.4284668 0.175293
vt 0.439209 0.2012939
vt 0.4445801 0.1662598
vt 0.1922607 3.306641
vt 0.1662598 3.310547
vt 0.1922607 3.310547
vt 0.1662598 3.306641
vt 0.5952148 3.310547
vt 0.6166992 3.306641
vt 0.5952148 3.306641
vt 0.6176758 3.310547
vt 0.6694336 0.6044922
vt 0.7026367 0.6176758
vt 0.6855469 0.5952148
vt 0.6870117 0.6264648
vt 0.4284668 0.175293
vt 0.4550781 0.1922607
vt 0.439209 0.2012939
vt 0.4445801 0.1662598
vt 0.1662598 3.310547
vt 0.1922607 3.306641
vt 0.1922607 3.310547
vt 0.1662598 3.306641
vt 0.6166992 3.306641
vt 0.5952148 3.310547
vt 0.5952148 3.306641
vt 0.6176758 3.310547
vt 0.7026367 0.6176758
vt 0.6694336 0.6044922
vt 0.6855469 0.5952148
vt 0.6870117 0.6264648
vt 0.4550781 0.1922607
vt 0.4284668 0.175293
vt 0.4445801 0.1662598
vt 0.439209 0.2012939
vt 0.1922607 3.306641
vt 0.1662598 3.310547
vt 0.1662598 3.306641
vt 0.1922607 3.310547
vt 0.5952148 3.310547
vt 0.6166992 3.306641
vt 0.6176758 3.310547
vt 0.5952148 3.306641
vt 0.6694336 0.6044922
vt 0.7026367 0.6176758
vt 0.6870117 0.6264648
vt 0.6855469 0.5952148

g Building31_28367_220
usemtl Building31_28367_220
usemap Building31_28367_220
f 1/1/1 3/3/3 2/2/2
f 2/2/2 4/4/4 1/1/1
f 5/5/5 7/7/7 6/6/6
f 6/6/6 8/8/8 5/5/5
f 9/9/9 11/11/11 10/10/10
f 10/10/10 12/12/12 9/9/9
f 13/13/13 15/15/15 14/14/14
f 14/14/14 16/16/16 13/13/13
f 17/17/17 19/19/19 18/18/18
f 18/18/18 20/20/20 17/17/17
f 21/21/21 23/23/23 22/22/22
f 22/22/22 24/24/24 21/21/21
f 25/25/25 27/27/27 26/26/26
f 26/26/26 28/28/28 25/25/25
f 29/29/29 31/31/31 30/30/30
f 30/30/30 32/32/32 29/29/29
f 33/33/33 35/35/35 34/34/34
f 34/34/34 36/36/36 33/33/33
f 37/37/37 39/39/39 38/38/38
f 38/38/38 40/40/40 37/37/37
f 41/41/41 43/43/43 42/42/42
f 42/42/42 44/44/44 41/41/41
f 45/45/45 47/47/47 46/46/46
f 46/46/46 48/48/48 45/45/45
f 49/49/49 51/51/51 50/50/50
f 50/50/50 52/52/52 49/49/49
f 53/53/53 55/55/55 54/54/54
f 54/54/54 56/56/56 53/53/53
f 57/57/57 59/59/59 58/58/58
f 58/58/58 60/60/60 57/57/57
f 61/61/61 63/63/63 62/62/62
f 62/62/62 64/64/64 61/61/61
