#Building71_(4)_27332_140.obj

v -3.571415 -3.896936 2.162887
v -1.435248 -0.7586079 4.30078
v -1.435248 -3.896936 4.30078
v -3.571415 -0.7586079 2.162887
v -3.571415 2.379721 2.162887
v -1.435248 2.379721 4.30078
v 5.012699 -3.896936 2.129656
v 7.168719 -0.7586079 -0.02463756
v 7.168719 -3.896936 -0.02463756
v 5.012699 -0.7586079 2.129656
v 2.856938 -3.896936 4.283863
v 5.012699 2.379721 2.129656
v 7.168719 2.379721 -0.02463756
v 2.856938 2.379721 4.283863
v 2.856938 -0.7586079 4.283863
v 0.7008322 -3.896936 6.438415
v 0.7008322 2.379721 6.438415
v 0.7008322 -0.7586079 6.438415
v 2.896299 -3.896936 -4.300165
v 0.760219 -0.7586079 -6.437799
v 0.760219 -3.896936 -6.437799
v 2.896299 -0.7586079 -4.300165
v 5.032552 -3.896936 -2.162531
v 2.896299 2.379721 -4.300165
v 0.760219 2.379721 -6.437799
v 5.032552 2.379721 -2.162531
v 5.032552 -0.7586079 -2.162531
v 7.168719 -3.896936 -0.02463756
v 7.168719 2.379721 -0.02463756
v 7.168719 -0.7586079 -0.02463756
v -1.395628 -3.896936 -4.283506
v -3.551648 -0.7586079 -2.12904
v -3.551648 -3.896936 -2.12904
v -1.395628 -0.7586079 -4.283506
v -1.395628 2.379721 -4.283506
v -3.551648 2.379721 -2.12904

vn -0.2912598 0.003921509 0.956543
vn -0.003829956 0.003921509 1
vn -0.003829956 0.003921509 1
vn -0.1879883 0.003921509 0.9819336
vn -0.003829956 0.003921509 1
vn -0.003829956 0.003921509 1
vn 1 0.003921509 -0.003829956
vn 1 0.003921509 -0.003829956
vn 1 0.003921509 -0.003829956
vn 1 0.003921509 -0.003829956
vn 1 0.003921509 -0.003829956
vn 1 0.003921509 -0.003829956
vn 1 0.003921509 -0.003829956
vn 1 0.003921509 -0.003829956
vn 1 0.003921509 -0.003829956
vn 1 0.003921509 -0.003829956
vn 1 0.003921509 -0.003829956
vn 1 0.003921509 -0.003829956
vn 0.003829956 0.003921509 -1
vn 0.003829956 0.003921509 -1
vn 0.003829956 0.003921509 -1
vn 0.003829956 0.003921509 -1
vn 0.003829956 0.003921509 -1
vn 0.003829956 0.003921509 -1
vn 0.003829956 0.003921509 -1
vn 0.003829956 0.003921509 -1
vn 0.003829956 0.003921509 -1
vn 0.003829956 0.003921509 -1
vn 0.003829956 0.003921509 -1
vn 0.003829956 0.003921509 -1
vn -1 0.003921509 0.003829956
vn -0.9848633 0.003921509 0.1744385
vn -0.9658203 0.003921509 0.2600098
vn -1 0.003921509 0.003829956
vn -1 0.003921509 0.003829956
vn -1 0.003921509 0.003829956

vt 0.333252 -5.960464E-08
vt 0.6665039 0.5004883
vt 0.6665039 -5.960464E-08
vt 0.333252 0.5004883
vt 0.333252 1
vt 0.6665039 1
vt 0.6665039 -5.960464E-08
vt 1 0.5004883
vt 1 -5.960464E-08
vt 0.6665039 0.5004883
vt 0.333252 -5.960464E-08
vt 0.6665039 1
vt 1 1
vt 0.333252 1
vt 0.333252 0.5004883
vt -5.960464E-08 -5.960464E-08
vt -5.960464E-08 1
vt -5.960464E-08 0.5004883
vt 0.6665039 -5.960464E-08
vt 1 0.5004883
vt 1 -5.960464E-08
vt 0.6665039 0.5004883
vt 0.333252 -5.960464E-08
vt 0.6665039 1
vt 1 1
vt 0.333252 1
vt 0.333252 0.5004883
vt -5.960464E-08 -5.960464E-08
vt -5.960464E-08 1
vt -5.960464E-08 0.5004883
vt 0.333252 -5.960464E-08
vt 0.6665039 0.5004883
vt 0.6665039 -5.960464E-08
vt 0.333252 0.5004883
vt 0.333252 1
vt 0.6665039 1

g Building71_(4)_27332_140
usemtl Building71_(4)_27332_140
usemap Building71_(4)_27332_140
f 1/1/1 3/3/3 2/2/2
f 1/1/1 2/2/2 4/4/4
f 2/2/2 5/5/5 4/4/4
f 2/2/2 6/6/6 5/5/5
f 7/7/7 9/9/9 8/8/8
f 7/7/7 8/8/8 10/10/10
f 11/11/11 7/7/7 10/10/10
f 8/8/8 12/12/12 10/10/10
f 8/8/8 13/13/13 12/12/12
f 10/10/10 12/12/12 14/14/14
f 11/11/11 10/10/10 15/15/15
f 10/10/10 14/14/14 15/15/15
f 16/16/16 11/11/11 15/15/15
f 15/15/15 14/14/14 17/17/17
f 16/16/16 15/15/15 18/18/18
f 15/15/15 17/17/17 18/18/18
f 19/19/19 21/21/21 20/20/20
f 19/19/19 20/20/20 22/22/22
f 23/23/23 19/19/19 22/22/22
f 20/20/20 24/24/24 22/22/22
f 20/20/20 25/25/25 24/24/24
f 22/22/22 24/24/24 26/26/26
f 23/23/23 22/22/22 27/27/27
f 22/22/22 26/26/26 27/27/27
f 28/28/28 23/23/23 27/27/27
f 27/27/27 26/26/26 29/29/29
f 28/28/28 27/27/27 30/30/30
f 27/27/27 29/29/29 30/30/30
f 31/31/31 33/33/33 32/32/32
f 31/31/31 32/32/32 34/34/34
f 32/32/32 35/35/35 34/34/34
f 32/32/32 36/36/36 35/35/35
