#Building22_26603_8.obj

v 15.38721 -0.7645531 9.814941
v 10.08197 -0.7614594 9.736816
v 8.324646 -0.760685 9.599121
v -8.236389 15.61621 -2.897217
v -8.224792 15.61621 2.898682
v -15.1272 15.62008 0.02160645
v 15.38721 -0.7645531 9.814941
v 16.96191 -0.7661018 -9.781738
v 16.9859 -0.7661018 9.729126
v 15.36322 -0.7645531 -9.86377
v 13.59119 -0.7637787 -9.889282
v 11.82227 -0.7622337 -9.859131
v 10.05798 -0.7614594 -9.773193
v 8.301453 -0.760685 -9.630859
v 6.552673 -0.7591362 -9.432739
v 4.813904 -0.7583656 -9.178955
v 3.085999 -0.7568169 -8.869385
v 1.36969 -0.7560425 -8.505737
v -0.3327026 -0.7552681 -8.087891
v -2.021179 -0.7537193 -7.615845
v -3.693359 -0.7529488 -7.090454
v -5.349304 -0.7521744 -6.511597
v -6.986694 -0.7506256 -5.879395
v -8.607056 -0.7498512 -5.193115
v 15.38721 -0.7645531 9.814941
v -10.20886 -0.7490768 -4.451782
v -8.607056 -0.7498512 -5.193115
v -11.79126 -0.7483063 -3.65625
v -13.35052 -0.7467575 -2.809692
v -14.88422 -0.7459831 -1.912842
v -16.39001 -0.7452087 -0.9680176
v -17.86646 -0.7444344 0.02319336
v -16.3877 -0.7452087 0.9881592
v -14.87952 -0.7459831 1.919067
v -13.34351 -0.7467575 2.810425
v -11.78198 -0.7483063 3.657715
v -10.198 -0.7490768 4.456299
v -8.593872 -0.7498512 5.200684
v -6.971985 -0.7506256 5.88562
v -5.333069 -0.7521744 6.513916
v -3.676331 -0.7529488 7.088013
v -2.001831 -0.7537193 7.609619
v -0.312561 -0.7552681 8.077759
v 15.38721 -0.7645531 9.814941
v 1.391357 -0.7560425 8.491699
v -0.312561 -0.7552681 8.077759
v 3.107666 -0.7575912 8.85083
v 4.836365 -0.7583656 9.15564
v 6.575867 -0.7591362 9.40564
v 8.324646 -0.760685 9.599121
v 15.38721 -0.7645531 9.814941
v 11.84625 -0.7630081 9.818848
v 10.08197 -0.7614594 9.736816
v 13.61523 -0.7637787 9.845093
v 15.41431 12.87383 9.821167
v 16.96967 12.87306 -9.787231
v 16.99445 12.87306 9.736816
v 15.38953 12.87383 -9.867676
v 13.62604 12.87538 -9.892456
v 11.85791 12.87616 -9.86145
v 10.09052 12.8777 -9.774048
v 8.327759 12.87848 -9.631592
v 6.575073 12.87925 -9.433594
v 4.836365 12.8808 -9.179688
v 3.88147 12.88157 -9.016479
v 2.93042 12.88157 -8.835327
v 1.983276 12.88235 -8.637329
v 1.040039 12.88312 -8.422974
v 0.1013794 12.88389 -8.191528
v -0.833374 12.88389 -7.94397
v -1.764282 12.88467 -7.679321
v -1.745667 12.88467 7.674561
v -0.8140259 12.88389 7.93689
v 0.121521 12.88389 8.182983
v 1.060913 12.88312 8.412109
v 2.004211 12.88235 8.624023
v 2.952087 12.88157 8.819092
v 3.903137 12.88157 8.997803
v 4.858765 12.8808 9.159546
v 6.598328 12.87925 9.408691
v 8.351746 12.87848 9.602173
v 10.1145 12.8777 9.740723
v 11.8819 12.87616 9.823486
v 13.65002 12.87538 9.849731
v -1.768127 16.9758 -5.230957
v -8.309143 16.97967 4.025269
v -8.319214 16.97967 -4.015381
v -1.754944 16.9758 5.224731
v 4.843323 18.33538 -7.038574
v -1.834656 18.33925 6.341309
v -1.850159 18.33925 -6.347534
v 4.861084 18.33461 7.016113
v 15.43134 19.80562 9.859863
v 17.19482 19.80484 -9.825073
v 17.21881 19.80484 9.773926
v 15.40656 19.80562 -9.907104
v 13.61597 19.80717 -9.931885
v 11.82538 19.80794 -9.900146
v 10.03632 19.80872 -9.811157
v 8.251953 19.81026 -9.665649
v 6.474487 19.81104 -9.463745
v 4.705566 19.81258 -9.205322
v 4.72876 19.81258 9.185059
v 6.497681 19.81104 9.439697
v 8.27594 19.81026 9.636963
v 10.0603 19.80872 9.777832
v 15.43134 19.80562 9.859863
v 11.84937 19.80794 9.862183
v 10.0603 19.80872 9.777832
v 13.64075 19.80639 9.889282
v 15.40967 6.056576 9.821167
v 16.96582 6.055027 -9.787231
v 16.98981 6.055027 9.736816
v 15.38568 6.056576 -9.867676
v 13.6214 6.05735 -9.892456
v 11.85327 6.058121 -9.86145
v 10.08588 6.059669 -9.774048
v 8.323914 6.060444 -9.631592
v 6.571228 6.061989 -9.433594
v 4.832458 6.062763 -9.179688
v 3.107666 6.063538 -8.871704
v 1.394409 6.065086 -8.508057
v -0.305603 6.065861 -8.090942
v -1.990967 6.066635 -7.619751
v -3.660889 6.06818 -7.095093
v -5.313721 6.068954 -6.51709
v -6.948792 6.069729 -5.886353
v -8.236389 6.070503 -5.341675
v -8.223267 6.070503 5.347046
v -6.934082 6.069729 5.894897
v -5.297485 6.068954 6.521606
v -3.643066 6.06818 7.094971
v -1.972412 6.066635 7.615845
v -0.2855225 6.065861 8.08313
v 1.415344 6.065086 8.496338
v 3.129333 6.063538 8.855469
v 4.854919 6.062763 9.159546
v 6.594421 6.061989 9.408691
v 8.3479 6.060444 9.602173
v 10.1106 6.059669 9.740723
v 11.87799 6.058121 9.823486
v 13.64618 6.05735 9.849731
v 14.47101 25.34454 -4.42395
v 9.376282 25.34764 4.355713
v 9.365417 25.34764 -4.417725
v 14.48187 25.34454 4.349609
v 16.05737 25.34377 -4.425415
v 15.15894 25.34377 4.348022
v 15.14813 25.34377 -4.424683
v 16.06818 25.34377 4.34729
v 16.05347 19.69186 -4.425415
v 16.06818 25.34377 4.34729
v 16.05737 25.34377 -4.425415
v 16.06433 19.69186 4.34729
v -1.768921 6.063538 -7.679321
v -1.745667 12.88467 7.674561
v -1.749573 6.063538 7.674561
v -1.764282 12.88467 -7.679321
v -8.241028 -0.7498512 -5.341675
v -8.223267 6.070503 5.347046
v -8.227112 -0.7498512 5.347046
v -8.236389 6.070503 -5.341675
v 4.847168 12.8808 -9.206055
v 4.874268 19.81181 9.185059
v 4.869629 12.8808 9.185059
v 4.851013 19.81258 -9.206055
v -8.23175 16.9224 0.05725098
v -9.835876 21.54282 -0.1223145
v -9.835876 21.54282 0.05957031
v -8.232544 16.9224 -0.1246338
v -9.664063 21.6024 0.05883789
v -8.06073 16.98199 -0.1246338
v -8.059937 16.98199 0.05725098
v -9.664856 21.6024 -0.1230469
v -8.232544 16.9224 -0.1246338
v -9.664856 21.6024 -0.1230469
v -9.835876 21.54282 -0.1223145
v -8.06073 16.98199 -0.1246338
v -9.664063 21.6024 0.05883789
v -8.23175 16.9224 0.05725098
v -9.835876 21.54282 0.05957031
v -8.059937 16.98199 0.05725098
v -3.026367 16.91931 0.05102539
v -4.630432 21.53973 -0.1292725
v -4.630432 21.53973 0.0526123
v -3.026367 16.91931 -0.1308594
v -4.458679 21.5993 0.0526123
v -2.854553 16.97889 -0.1315918
v -2.854553 16.97889 0.05029297
v -4.458679 21.5993 -0.1292725
v -3.026367 16.91931 -0.1308594
v -4.458679 21.5993 -0.1292725
v -4.630432 21.53973 -0.1292725
v -2.854553 16.97889 -0.1315918
v -4.458679 21.5993 0.0526123
v -3.026367 16.91931 0.05102539
v -4.630432 21.53973 0.0526123
v -2.854553 16.97889 0.05029297
v 1.705505 18.28199 0.0447998
v 0.5757446 21.53663 -0.135498
v 0.5757446 21.53663 0.04638672
v 1.705505 18.28199 -0.1369629
v 0.7475586 21.59621 0.04638672
v 1.877319 18.34157 -0.1369629
v 1.877319 18.34157 0.0447998
v 0.7475586 21.59621 -0.135498
v 1.877319 18.34157 -0.1369629
v 0.5757446 21.53663 -0.135498
v 1.705505 18.28199 -0.1369629
v 0.7475586 21.59621 -0.135498
v 0.5757446 21.53663 0.04638672
v 1.877319 18.34157 0.0447998
v 1.705505 18.28199 0.0447998
v 0.7475586 21.59621 0.04638672
v 6.418762 19.69651 0.03942871
v 5.781189 21.53276 -0.1416016
v 5.781189 21.53276 0.04016113
v 6.418762 19.69651 -0.1424561
v 5.952942 21.59235 0.03942871
v 6.590576 19.7561 -0.1431885
v 6.590576 19.7561 0.03869629
v 5.952942 21.59235 -0.1424561
v 6.590576 19.7561 -0.1431885
v 5.781189 21.53276 -0.1416016
v 6.418762 19.69651 -0.1424561
v 5.952942 21.59235 -0.1424561
v 5.781189 21.53276 0.04016113
v 6.590576 19.7561 0.03869629
v 6.418762 19.69651 0.03942871
v 5.952942 21.59235 0.03942871
v 10.16327 21.64496 9.927124
v 17.87891 21.64032 -0.02172852
v 17.88818 21.64032 7.693237
v -14.96777 21.66044 0.01855469
v -14.96545 21.66044 2.028931
v -13.24524 21.65889 3.912354
v 10.13928 21.64496 -9.952026
v 17.86963 21.64032 -7.737305
v -14.97009 21.66044 -1.991821
v -13.25458 21.65889 -3.879883

vn 0.003921509 1 0
vn 0.003921509 1 0
vn 0.003921509 1 0
vn 0.003921509 1 0
vn 0.003921509 1 0
vn 0.003921509 1 0
vn 0.003921509 1 0
vn 0.003921509 1 0
vn 0.003921509 1 0
vn 0.003921509 1 0
vn 0.003921509 1 0
vn 0.003921509 1 0
vn 0.003921509 1 0
vn 0.003921509 1 0
vn 0.003921509 1 0
vn 0.003921509 1 0
vn 0.003921509 1 0
vn 0.003921509 1 0
vn 0.003921509 1 0
vn 0.003921509 1 0
vn 0.003921509 1 0
vn 0.003921509 1 0
vn 0.003921509 1 0
vn 0.003921509 1 0
vn 0.003921509 1 0
vn 0.003921509 1 0
vn 0.003921509 1 0
vn 0.003921509 1 0
vn 0.003921509 1 0
vn 0.003921509 1 0
vn 0.003921509 1 0
vn 0.003921509 1 0
vn 0.003921509 1 0
vn 0.003921509 1 0
vn 0.003921509 1 0
vn 0.003921509 1 0
vn 0.003921509 1 0
vn 0.003921509 1 0
vn 0.003921509 1 0
vn 0.003921509 1 0
vn 0.003921509 1 0
vn 0.003921509 1 0
vn 0.003921509 1 0
vn 0.003921509 1 0
vn 0.003921509 1 0
vn 0.003921509 1 0
vn 0.003921509 1 0
vn 0.003921509 1 0
vn 0.003921509 1 0
vn 0.003921509 1 0
vn 0.003921509 1 0
vn 0.003921509 1 0
vn 0.003921509 1 0
vn 0.003921509 1 0
vn 0.003921509 1 0
vn 0.003921509 1 0
vn 0.003921509 1 0
vn 0.003921509 1 0
vn 0.003921509 1 0
vn 0.003921509 1 0
vn 0.003921509 1 0
vn 0.003921509 1 0
vn 0.003921509 1 0
vn 0.003921509 1 0
vn 0.003921509 1 0
vn 0.003921509 1 0
vn 0.003921509 1 0
vn 0.003921509 1 0
vn 0.003921509 1 0
vn 0.003921509 1 0
vn 0.003921509 1 0
vn 0.003921509 1 0
vn 0.003921509 1 0
vn 0.003921509 1 0
vn 0.003921509 1 0
vn 0.003921509 1 0
vn 0.003921509 1 0
vn 0.003921509 1 0
vn 0.003921509 1 0
vn 0.003921509 1 0
vn 0.003921509 1 0
vn 0.003921509 1 0
vn 0.003921509 1 0
vn 0.003921509 1 0
vn 0.003921509 1 0
vn 0.003921509 1 0
vn 0.003921509 1 0
vn 0.003921509 1 0
vn 0.003921509 1 0
vn 0.003921509 1 0
vn 0.003921509 1 0
vn 0.003921509 1 0
vn 0.003921509 1 0
vn 0.003921509 1 0
vn 0.003921509 1 0
vn 0.003921509 1 0
vn 0.003921509 1 0
vn 0.003921509 1 0
vn 0.003921509 1 0
vn 0.003921509 1 0
vn 0.003921509 1 0
vn 0.003921509 1 0
vn 0.003921509 1 0
vn 0.003921509 1 0
vn 0.003921509 1 0
vn 0.003921509 1 0
vn 0.003921509 1 0
vn 0.003921509 1 0
vn 0.003921509 1 0
vn 0.003921509 1 0
vn 0.003921509 1 0
vn 0.003921509 1 0
vn 0.003921509 1 0
vn 0.003921509 1 0
vn 0.003921509 1 0
vn 0.003921509 1 0
vn 0.003921509 1 0
vn 0.003921509 1 0
vn 0.003921509 1 0
vn 0.003921509 1 0
vn 0.003921509 1 0
vn 0.003921509 1 0
vn 0.003921509 1 0
vn 0.003921509 1 0
vn 0.003921509 1 0
vn 0.003921509 1 0
vn 0.003921509 1 0
vn 0.003921509 1 0
vn 0.003921509 1 0
vn 0.003921509 1 0
vn 0.003921509 1 0
vn 0.003921509 1 0
vn 0.003921509 1 0
vn 0.003921509 1 0
vn 0.003921509 1 0
vn 0.003921509 1 0
vn 0.003921509 1 0
vn 0.003921509 1 0
vn 0.003921509 1 0
vn 0.003921509 1 0
vn 0.003921509 1 0
vn 0.003921509 1 0
vn 0.003921509 1 0
vn 0.003921509 1 0
vn 0.003921509 1 0
vn 0.003921509 1 0
vn 0.003921509 1 0
vn 0.003921509 1 0
vn 0.003921509 1 0
vn 0.003921509 1 0
vn 1 -0.003921509 0
vn 1 -0.003921509 0
vn 1 -0.003921509 0
vn 1 -0.003921509 0
vn -1 0.003921509 0
vn -1 0.003921509 0
vn -1 0.003921509 0
vn -1 0.003921509 0
vn -1 0.003921509 0
vn -1 0.003921509 0
vn -1 0.003921509 0
vn -1 0.003921509 0
vn -1 0.003921509 0
vn -1 0.003921509 0
vn -1 0.003921509 0
vn -1 0.003921509 0
vn -0.9453125 -0.3254395 0.02908325
vn -0.9453125 -0.3254395 0.02908325
vn -0.9453125 -0.3254395 0.02908325
vn -0.9453125 -0.3254395 0.02908325
vn 0.9453125 0.3254395 -0.02908325
vn 0.9453125 0.3254395 -0.02908325
vn 0.9453125 0.3254395 -0.02908325
vn 0.9453125 0.3254395 -0.02908325
vn -0.003921509 0.003921509 -1
vn -0.003921509 0.003921509 -1
vn -0.003921509 0.003921509 -1
vn -0.003921509 0.003921509 -1
vn 0.003921509 -0.003921509 1
vn 0.003921509 -0.003921509 1
vn 0.003921509 -0.003921509 1
vn 0.003921509 -0.003921509 1
vn -0.9453125 -0.3254395 0.02908325
vn -0.9453125 -0.3254395 0.02908325
vn -0.9453125 -0.3254395 0.02908325
vn -0.9453125 -0.3254395 0.02908325
vn 0.9453125 0.3254395 -0.02908325
vn 0.9453125 0.3254395 -0.02908325
vn 0.9453125 0.3254395 -0.02908325
vn 0.9453125 0.3254395 -0.02908325
vn -0.003921509 0.003921509 -1
vn -0.003921509 -0.003921509 -1
vn -0.003921509 -0.003921509 -1
vn -0.003921509 0.003921509 -1
vn 0.003921509 0.003921509 1
vn 0.003921509 -0.003921509 1
vn 0.003921509 0.003921509 1
vn 0.003921509 -0.003921509 1
vn -0.9453125 -0.3254395 0.02908325
vn -0.9453125 -0.3254395 0.02908325
vn -0.9453125 -0.3254395 0.02908325
vn -0.9453125 -0.3254395 0.02908325
vn 0.9453125 0.3254395 -0.02908325
vn 0.9453125 0.3254395 -0.02908325
vn 0.9453125 0.3254395 -0.02908325
vn 0.9453125 0.3254395 -0.02908325
vn -0.003921509 0.003921509 -1
vn -0.003921509 0.003921509 -1
vn -0.003921509 0.003921509 -1
vn -0.003921509 0.003921509 -1
vn 0.003921509 0.003921509 1
vn 0.003921509 0.003921509 1
vn 0.003921509 0.003921509 1
vn 0.003921509 0.003921509 1
vn -0.9453125 -0.3254395 0.02908325
vn -0.9453125 -0.3254395 0.02908325
vn -0.9453125 -0.3254395 0.02908325
vn -0.9453125 -0.3254395 0.02908325
vn 0.9453125 0.3254395 -0.02908325
vn 0.9453125 0.3254395 -0.02908325
vn 0.9453125 0.3254395 -0.02908325
vn 0.9453125 0.3254395 -0.02908325
vn -0.003921509 0.003921509 -1
vn -0.003921509 0.003921509 -1
vn -0.003921509 0.003921509 -1
vn -0.003921509 0.003921509 -1
vn 0.003921509 -0.003921509 1
vn 0.003921509 -0.003921509 1
vn 0.003921509 -0.003921509 1
vn 0.003921509 -0.003921509 1
vn 0.003921509 1 0
vn 0.003921509 1 0
vn 0.003921509 1 0
vn 0.003921509 1 0
vn 0.003921509 1 0
vn 0.003921509 1 0
vn 0.003921509 1 0
vn 0.003921509 1 0
vn 0.003921509 1 0
vn 0.003921509 1 0

vt 0.4667969 0.5805664
vt 0.4680176 0.6464844
vt 0.4697266 0.668457
vt -4.746094 -2.179688
vt -4.746094 3.169922
vt -8.648438 0.5073242
vt 0.4667969 0.5805664
vt 0.7387695 0.559082
vt 0.4680176 0.559082
vt 0.7402344 0.5805664
vt 0.7407227 0.6030273
vt 0.7402344 0.625
vt 0.7387695 0.6464844
vt 0.7368164 0.668457
vt 0.734375 0.6894531
vt 0.730957 0.7114258
vt 0.7265625 0.7324219
vt 0.7211914 0.7539063
vt 0.7158203 0.7749023
vt 0.7089844 0.7963867
vt 0.7021484 0.8168945
vt 0.6938477 0.8374023
vt 0.6850586 0.8574219
vt 0.675293 0.8779297
vt 0.4667969 0.5805664
vt 0.6655273 0.8969727
vt 0.675293 0.8779297
vt 0.6542969 0.9169922
vt 0.6420898 0.9360352
vt 0.6298828 0.9550781
vt 0.6166992 0.9736328
vt 0.6030273 0.9921875
vt 0.5898438 0.9736328
vt 0.5771484 0.9550781
vt 0.5644531 0.9360352
vt 0.5527344 0.9169922
vt 0.5415039 0.8969727
vt 0.53125 0.8779297
vt 0.5214844 0.8574219
vt 0.5126953 0.8374023
vt 0.5048828 0.8168945
vt 0.4978027 0.7963867
vt 0.4909668 0.7749023
vt 0.4667969 0.5805664
vt 0.4853516 0.7539063
vt 0.4909668 0.7749023
vt 0.4804688 0.7324219
vt 0.4760742 0.7114258
vt 0.4724121 0.6894531
vt 0.4697266 0.668457
vt 0.4667969 0.5805664
vt 0.4667969 0.625
vt 0.4680176 0.6464844
vt 0.4660645 0.6030273
vt 0.4667969 0.5805664
vt 0.7387695 0.559082
vt 0.4680176 0.559082
vt 0.7402344 0.5805664
vt 0.7407227 0.6025391
vt 0.7402344 0.6240234
vt 0.7387695 0.6459961
vt 0.7368164 0.6679688
vt 0.734375 0.6894531
vt 0.730957 0.7114258
vt 0.7280273 0.7231445
vt 0.7255859 0.7353516
vt 0.7231445 0.7460938
vt 0.7202148 0.7583008
vt 0.7172852 0.7700195
vt 0.7138672 0.78125
vt 0.7104492 0.7929688
vt 0.496582 0.7929688
vt 0.4929199 0.78125
vt 0.4897461 0.7700195
vt 0.4865723 0.7583008
vt 0.4836426 0.7460938
vt 0.4804688 0.7353516
vt 0.4780273 0.7231445
vt 0.4760742 0.7114258
vt 0.4724121 0.6894531
vt 0.4697266 0.6679688
vt 0.4680176 0.6459961
vt 0.4667969 0.6240234
vt 0.4660645 0.6025391
vt -1.084961 -4.328125
vt -4.792969 4.210938
vt -4.792969 -3.212891
vt -1.084961 5.324219
vt 2.658203 -5.988281
vt -1.130859 6.355469
vt -1.130859 -5.359375
vt 2.658203 6.988281
vt 8.640625 9.625
vt 9.648438 -8.546875
vt 9.648438 9.546875
vt 8.640625 -8.625
vt 7.625 -8.648438
vt 6.609375 -8.625
vt 5.597656 -8.539063
vt 4.589844 -8.40625
vt 3.582031 -8.226563
vt 2.580078 -7.988281
vt 2.580078 8.992188
vt 3.582031 9.226563
vt 4.589844 9.414063
vt 5.597656 9.539063
vt 8.640625 9.625
vt 6.609375 9.625
vt 5.597656 9.539063
vt 7.625 9.648438
vt 0.4667969 0.5805664
vt 0.7387695 0.559082
vt 0.4680176 0.559082
vt 0.7402344 0.5805664
vt 0.7407227 0.6025391
vt 0.7402344 0.6240234
vt 0.7387695 0.6459961
vt 0.7368164 0.6679688
vt 0.734375 0.6894531
vt 0.730957 0.7114258
vt 0.7265625 0.7324219
vt 0.7211914 0.7539063
vt 0.7158203 0.7749023
vt 0.7089844 0.7954102
vt 0.7021484 0.815918
vt 0.6938477 0.8364258
vt 0.6850586 0.8574219
vt 0.6777344 0.8725586
vt 0.5288086 0.8725586
vt 0.5214844 0.8574219
vt 0.5126953 0.8364258
vt 0.5048828 0.815918
vt 0.4973145 0.7954102
vt 0.4909668 0.7749023
vt 0.4853516 0.7539063
vt 0.4804688 0.7324219
vt 0.4760742 0.7114258
vt 0.4724121 0.6894531
vt 0.4697266 0.6679688
vt 0.4680176 0.6459961
vt 0.4667969 0.6240234
vt 0.4660645 0.6025391
vt 0.6635742 0.5981445
vt 0.543457 0.6518555
vt 0.6635742 0.6518555
vt 0.543457 0.5981445
vt 0.6640625 0.578125
vt 0.543457 0.5893555
vt 0.6640625 0.5893555
vt 0.543457 0.578125
vt 0.8374023 0.4404297
vt 0.925293 0.4873047
vt 0.8374023 0.4873047
vt 0.925293 0.4404297
vt 0.267334 0.809082
vt 0.4318848 0.8725586
vt 0.4318848 0.809082
vt 0.267334 0.8725586
vt 0.2922363 0.7456055
vt 0.40625 0.809082
vt 0.40625 0.7456055
vt 0.2922363 0.809082
vt 8.992188 6.839844
vt -7.988281 9.648438
vt -7.988281 6.839844
vt 8.992188 9.648438
vt 0.6879883 0.7563477
vt 0.5263672 0.7587891
vt 0.5263672 0.7563477
vt 0.6879883 0.7587891
vt 0.5263672 0.7495117
vt 0.6879883 0.7470703
vt 0.6879883 0.7495117
vt 0.5263672 0.7470703
vt 0.5263672 0.734375
vt 0.6879883 0.7314453
vt 0.6879883 0.7338867
vt 0.5263672 0.7319336
vt 0.5263672 0.7202148
vt 0.6879883 0.7207031
vt 0.5263672 0.7226563
vt 0.6879883 0.7177734
vt 0.6879883 0.7514648
vt 0.5263672 0.7539063
vt 0.5263672 0.7514648
vt 0.6879883 0.7539063
vt 0.5351563 0.7631836
vt 0.6879883 0.7607422
vt 0.6879883 0.7631836
vt 0.5351563 0.7607422
vt 0.5263672 0.7392578
vt 0.6879883 0.7358398
vt 0.6879883 0.7387695
vt 0.5263672 0.7368164
vt 0.5263672 0.7265625
vt 0.6879883 0.7270508
vt 0.5263672 0.7290039
vt 0.6879883 0.7246094
vt 0.6879883 0.7817383
vt 0.5805664 0.7841797
vt 0.5805664 0.7817383
vt 0.6879883 0.7841797
vt 0.5742188 0.7792969
vt 0.6879883 0.7768555
vt 0.6879883 0.7792969
vt 0.5742188 0.7768555
vt 0.5742188 0.7661133
vt 0.6879883 0.7680664
vt 0.5742188 0.7685547
vt 0.6879883 0.765625
vt 0.5742188 0.7451172
vt 0.6879883 0.7407227
vt 0.6879883 0.7431641
vt 0.5737305 0.7421875
vt 0.6186523 0.7861328
vt 0.5546875 0.7885742
vt 0.5546875 0.7861328
vt 0.6186523 0.7885742
vt 0.6235352 0.7885742
vt 0.6879883 0.7861328
vt 0.6879883 0.7885742
vt 0.6235352 0.7861328
vt 0.5556641 0.7705078
vt 0.6201172 0.7724609
vt 0.5556641 0.7729492
vt 0.6201172 0.7700195
vt 0.6870117 0.7700195
vt 0.6240234 0.7753906
vt 0.6235352 0.7729492
vt 0.6879883 0.7724609
vt 2.40625 2.220703
vt 4.101563 0.5024414
vt 4.101563 1.835938
vt -3.099609 0.4978027
vt -3.099609 0.8461914
vt -2.722656 1.171875
vt 2.40625 -1.217773
vt 4.097656 -0.8325195
vt -3.099609 0.1503906
vt -2.724609 -0.175415

g Building22_26603_13
usemtl Building22_26603_13
usemap Building22_26603_13
f 1/1/1 3/3/3 2/2/2
f 4/4/4 6/6/6 5/5/5
f 7/7/7 9/9/9 8/8/8
f 7/7/7 8/8/8 10/10/10
f 7/7/7 10/10/10 11/11/11
f 7/7/7 11/11/11 12/12/12
f 7/7/7 12/12/12 13/13/13
f 7/7/7 13/13/13 14/14/14
f 7/7/7 14/14/14 15/15/15
f 7/7/7 15/15/15 16/16/16
f 7/7/7 16/16/16 17/17/17
f 7/7/7 17/17/17 18/18/18
f 7/7/7 18/18/18 19/19/19
f 7/7/7 19/19/19 20/20/20
f 7/7/7 20/20/20 21/21/21
f 7/7/7 21/21/21 22/22/22
f 7/7/7 22/22/22 23/23/23
f 7/7/7 23/23/23 24/24/24
f 25/25/25 27/27/27 26/26/26
f 25/25/25 26/26/26 28/28/28
f 25/25/25 28/28/28 29/29/29
f 25/25/25 29/29/29 30/30/30
f 25/25/25 30/30/30 31/31/31
f 25/25/25 31/31/31 32/32/32
f 25/25/25 32/32/32 33/33/33
f 25/25/25 33/33/33 34/34/34
f 25/25/25 34/34/34 35/35/35
f 25/25/25 35/35/35 36/36/36
f 25/25/25 36/36/36 37/37/37
f 25/25/25 37/37/37 38/38/38
f 25/25/25 38/38/38 39/39/39
f 25/25/25 39/39/39 40/40/40
f 25/25/25 40/40/40 41/41/41
f 25/25/25 41/41/41 42/42/42
f 25/25/25 42/42/42 43/43/43
f 44/44/44 46/46/46 45/45/45
f 44/44/44 45/45/45 47/47/47
f 44/44/44 47/47/47 48/48/48
f 44/44/44 48/48/48 49/49/49
f 44/44/44 49/49/49 50/50/50
f 51/51/51 53/53/53 52/52/52
f 51/51/51 52/52/52 54/54/54
f 55/55/55 57/57/57 56/56/56
f 55/55/55 56/56/56 58/58/58
f 55/55/55 58/58/58 59/59/59
f 55/55/55 59/59/59 60/60/60
f 55/55/55 60/60/60 61/61/61
f 55/55/55 61/61/61 62/62/62
f 55/55/55 62/62/62 63/63/63
f 55/55/55 63/63/63 64/64/64
f 55/55/55 64/64/64 65/65/65
f 55/55/55 65/65/65 66/66/66
f 55/55/55 66/66/66 67/67/67
f 55/55/55 67/67/67 68/68/68
f 55/55/55 68/68/68 69/69/69
f 55/55/55 69/69/69 70/70/70
f 55/55/55 70/70/70 71/71/71
f 55/55/55 71/71/71 72/72/72
f 55/55/55 72/72/72 73/73/73
f 55/55/55 73/73/73 74/74/74
f 55/55/55 74/74/74 75/75/75
f 55/55/55 75/75/75 76/76/76
f 55/55/55 76/76/76 77/77/77
f 55/55/55 77/77/77 78/78/78
f 55/55/55 78/78/78 79/79/79
f 55/55/55 79/79/79 80/80/80
f 55/55/55 80/80/80 81/81/81
f 55/55/55 81/81/81 82/82/82
f 55/55/55 82/82/82 83/83/83
f 55/55/55 83/83/83 84/84/84
f 85/85/85 87/87/87 86/86/86
f 86/86/86 88/88/88 85/85/85
f 89/89/89 91/91/91 90/90/90
f 90/90/90 92/92/92 89/89/89
f 93/93/93 95/95/95 94/94/94
f 93/93/93 94/94/94 96/96/96
f 93/93/93 96/96/96 97/97/97
f 93/93/93 97/97/97 98/98/98
f 93/93/93 98/98/98 99/99/99
f 93/93/93 99/99/99 100/100/100
f 93/93/93 100/100/100 101/101/101
f 93/93/93 101/101/101 102/102/102
f 93/93/93 102/102/102 103/103/103
f 93/93/93 103/103/103 104/104/104
f 93/93/93 104/104/104 105/105/105
f 93/93/93 105/105/105 106/106/106
f 107/107/107 109/109/109 108/108/108
f 107/107/107 108/108/108 110/110/110
f 111/111/111 113/113/113 112/112/112
f 111/111/111 112/112/112 114/114/114
f 111/111/111 114/114/114 115/115/115
f 111/111/111 115/115/115 116/116/116
f 111/111/111 116/116/116 117/117/117
f 111/111/111 117/117/117 118/118/118
f 111/111/111 118/118/118 119/119/119
f 111/111/111 119/119/119 120/120/120
f 111/111/111 120/120/120 121/121/121
f 111/111/111 121/121/121 122/122/122
f 111/111/111 122/122/122 123/123/123
f 111/111/111 123/123/123 124/124/124
f 111/111/111 124/124/124 125/125/125
f 111/111/111 125/125/125 126/126/126
f 111/111/111 126/126/126 127/127/127
f 111/111/111 127/127/127 128/128/128
f 111/111/111 128/128/128 129/129/129
f 111/111/111 129/129/129 130/130/130
f 111/111/111 130/130/130 131/131/131
f 111/111/111 131/131/131 132/132/132
f 111/111/111 132/132/132 133/133/133
f 111/111/111 133/133/133 134/134/134
f 111/111/111 134/134/134 135/135/135
f 111/111/111 135/135/135 136/136/136
f 111/111/111 136/136/136 137/137/137
f 111/111/111 137/137/137 138/138/138
f 111/111/111 138/138/138 139/139/139
f 111/111/111 139/139/139 140/140/140
f 111/111/111 140/140/140 141/141/141
f 111/111/111 141/141/141 142/142/142
f 143/143/143 145/145/145 144/144/144
f 144/144/144 146/146/146 143/143/143
f 147/147/147 149/149/149 148/148/148
f 148/148/148 150/150/150 147/147/147
f 151/151/151 153/153/153 152/152/152
f 152/152/152 154/154/154 151/151/151
f 155/155/155 157/157/157 156/156/156
f 156/156/156 158/158/158 155/155/155
f 159/159/159 161/161/161 160/160/160
f 160/160/160 162/162/162 159/159/159
f 163/163/163 165/165/165 164/164/164
f 164/164/164 166/166/166 163/163/163
f 167/167/167 169/169/169 168/168/168
f 168/168/168 170/170/170 167/167/167
f 171/171/171 173/173/173 172/172/172
f 172/172/172 174/174/174 171/171/171
f 175/175/175 177/177/177 176/176/176
f 176/176/176 178/178/178 175/175/175
f 179/179/179 181/181/181 180/180/180
f 180/180/180 182/182/182 179/179/179
f 183/183/183 185/185/185 184/184/184
f 184/184/184 186/186/186 183/183/183
f 187/187/187 189/189/189 188/188/188
f 188/188/188 190/190/190 187/187/187
f 191/191/191 193/193/193 192/192/192
f 192/192/192 194/194/194 191/191/191
f 195/195/195 197/197/197 196/196/196
f 196/196/196 198/198/198 195/195/195
f 199/199/199 201/201/201 200/200/200
f 200/200/200 202/202/202 199/199/199
f 203/203/203 205/205/205 204/204/204
f 204/204/204 206/206/206 203/203/203
f 207/207/207 209/209/209 208/208/208
f 208/208/208 210/210/210 207/207/207
f 211/211/211 213/213/213 212/212/212
f 212/212/212 214/214/214 211/211/211
f 215/215/215 217/217/217 216/216/216
f 216/216/216 218/218/218 215/215/215
f 219/219/219 221/221/221 220/220/220
f 220/220/220 222/222/222 219/219/219
f 223/223/223 225/225/225 224/224/224
f 224/224/224 226/226/226 223/223/223
f 227/227/227 229/229/229 228/228/228
f 228/228/228 230/230/230 227/227/227
f 231/231/231 233/233/233 232/232/232
f 231/231/231 232/232/232 234/234/234
f 231/231/231 234/234/234 235/235/235
f 231/231/231 235/235/235 236/236/236
f 237/237/237 234/234/234 232/232/232
f 237/237/237 232/232/232 238/238/238
f 237/237/237 239/239/239 234/234/234
f 237/237/237 240/240/240 239/239/239
