#Building71_27328_101.obj

v -1.435275 -3.896936 4.300818
v 0.7008052 -3.896936 6.438452
v 2.856911 -3.896936 4.2839
v 0.7207015 -3.896936 2.146309
v -3.571399 -3.896936 2.162968
v 5.012672 -3.896936 2.129694
v -1.415595 -3.896936 0.008631581
v -4.057275 -3.896936 -0.1493714
v -3.551675 -3.896936 -2.129003
v 2.876549 -3.896936 -0.007984107
v 7.168692 -3.896936 -0.0245998
v 5.032568 -3.896936 -2.16245
v 0.7404252 -3.896936 -2.145834
v -1.395698 -3.896936 -4.283512
v 2.896272 -3.896936 -4.300128
v 0.7601488 -3.896936 -6.437805

vn -0.002773285 -1 0.002773285
vn -0.002773285 -1 0.002773285
vn -0.002773285 -1 0.002773285
vn -0.002773285 -1 0.002773285
vn -0.002773285 -1 0.002773285
vn -0.002773285 -1 0.002773285
vn -0.002773285 -1 0.002773285
vn -0.002773285 -1 0.002773285
vn -0.002773285 -1 0.002773285
vn -0.002773285 -1 0.002773285
vn -0.002773285 -1 0.002773285
vn -0.002773285 -1 0.002773285
vn -0.002773285 -1 0.002773285
vn -0.002773285 -1 0.002773285
vn -0.002773285 -1 0.002773285
vn -0.002773285 -1 0.002773285

vt 0.333252 -5.960464E-08
vt -5.960464E-08 -5.960464E-08
vt -5.960464E-08 0.333252
vt 0.333252 0.333252
vt 0.6665039 -5.960464E-08
vt -5.960464E-08 0.6665039
vt 0.6665039 0.333252
vt 1 -5.960464E-08
vt 1 0.333252
vt 0.333252 0.6665039
vt -5.960464E-08 1
vt 0.333252 1
vt 0.6665039 0.6665039
vt 1 0.6665039
vt 0.6665039 1
vt 1 1

g Building71_27328_101
usemtl Building71_27328_101
usemap Building71_27328_101
f 1/1/1 3/3/3 2/2/2
f 1/1/1 4/4/4 3/3/3
f 5/5/5 4/4/4 1/1/1
f 4/4/4 6/6/6 3/3/3
f 5/5/5 7/7/7 4/4/4
f 8/8/8 7/7/7 5/5/5
f 8/8/8 9/9/9 7/7/7
f 4/4/4 10/10/10 6/6/6
f 7/7/7 10/10/10 4/4/4
f 10/10/10 11/11/11 6/6/6
f 10/10/10 12/12/12 11/11/11
f 9/9/9 13/13/13 7/7/7
f 7/7/7 13/13/13 10/10/10
f 13/13/13 12/12/12 10/10/10
f 9/9/9 14/14/14 13/13/13
f 13/13/13 15/15/15 12/12/12
f 14/14/14 15/15/15 13/13/13
f 14/14/14 16/16/16 15/15/15
