#Building71_27327_124.obj

v 0.7601318 -3.896936 -6.437836
v 0.7601318 -0.7586079 -6.437836
v -1.395691 -0.7586079 -4.283539
v -1.395691 -3.896936 -4.283539

vn -0.7099609 0.003921509 -0.7045898
vn -0.7099609 0.003921509 -0.7045898
vn -0.7099609 0.003921509 -0.7045898
vn -0.7099609 0.003921509 -0.7045898

vt -5.960464E-08 -5.960464E-08
vt -5.960464E-08 1
vt 1 1
vt 1 -5.960464E-08

g Building71_27327_124
usemtl Building71_27327_124
usemap Building71_27327_124
f 1/1/1 3/3/3 2/2/2
f 1/1/1 4/4/4 3/3/3
