#Building31_28367_214.obj

v 0.9851685 2.566849 7.875427
v 3.339844 5.023514 7.849182
v 3.339844 2.566849 7.849182
v 0.9851685 5.023514 7.875427
v 16.93512 1.77424 -5.000244
v 16.90723 4.230907 -7.47113
v 16.90723 1.77424 -7.47113
v 16.93512 4.230907 -5.000244
v -0.9627075 2.566849 7.878601
v -3.317383 5.023514 7.860718
v -0.9627075 5.023514 7.878601
v -3.317383 2.566849 7.860718
v -16.95679 1.77424 -4.941895
v -16.93732 4.230907 -7.412781
v -16.95679 4.230907 -4.941895
v -16.93732 1.77424 -7.412781

vn 0.01176453 -0.003921509 1
vn 0.01176453 -0.003921509 1
vn 0.01176453 -0.003921509 1
vn 0.01176453 -0.003921509 1
vn 1 0.003921509 0
vn 1 0.003921509 0
vn 1 0.003921509 0
vn 1 0.003921509 0
vn -0.01176453 -0.003921509 1
vn -0.01176453 -0.003921509 1
vn -0.01176453 -0.003921509 1
vn -0.01176453 -0.003921509 1
vn -1 0.003921509 0
vn -1 0.003921509 0
vn -1 0.003921509 0
vn -1 0.003921509 0

vt 0.0005254745 0.0005254745
vt 0.9995117 0.9995117
vt 0.9995117 0.0005254745
vt 0.0005254745 0.9995117
vt 0.0005254745 0.0005254745
vt 0.9995117 0.9995117
vt 0.9995117 0.0005254745
vt 0.0005254745 0.9995117
vt 0.0005254745 0.0005254745
vt 0.9995117 0.9995117
vt 0.0005254745 0.9995117
vt 0.9995117 0.0005254745
vt 0.0005254745 0.0005254745
vt 0.9995117 0.9995117
vt 0.0005254745 0.9995117
vt 0.9995117 0.0005254745

g Building31_28367_214
usemtl Building31_28367_214
usemap Building31_28367_214
f 1/1/1 3/3/3 2/2/2
f 2/2/2 4/4/4 1/1/1
f 5/5/5 7/7/7 6/6/6
f 6/6/6 8/8/8 5/5/5
f 9/9/9 11/11/11 10/10/10
f 10/10/10 12/12/12 9/9/9
f 13/13/13 15/15/15 14/14/14
f 14/14/14 16/16/16 13/13/13
