#Building23_28442_27.obj

v 2.146973 0.9743958 -9.205444
v -2.185425 0.9743958 -8.272095
v -2.185425 0.9743958 -9.205444
v 2.146973 0.9743958 -8.272095
v -4.821289 -33.20734 7.033691
v -2.359741 -31.74193 7.033691
v -2.347534 -33.20734 7.033691
v -4.821289 -31.7399 7.033691
v -4.821289 -29.11615 7.033691
v -2.302002 -29.35329 7.033691
v 3.260742 -31.70545 7.033691
v 4.809204 -33.20734 7.033691
v 3.270874 -33.20734 7.033691
v 4.741333 -31.69227 7.033691
v 4.809204 -29.11615 7.033691
v 3.264771 -29.3989 7.033691
v 9.917847 -33.20734 -1.925049
v 9.917847 -31.71457 -3.409668
v 9.917847 -33.20734 -3.409668
v 9.917847 -31.71457 -1.925049
v 9.917847 -31.71457 5.854004
v 9.917847 -33.20734 7.817993
v 9.917847 -31.71457 7.817993
v 9.917847 -33.20734 5.854004
v -5.139526 -29.11615 -9.45874
v 5.127441 -31.32541 -9.45874
v 5.127441 -29.11615 -9.45874
v 2.350586 -31.32541 -9.45874
v -1.713135 -31.32541 -9.45874
v -5.139526 -31.32541 -9.45874

vn -0.003921509 1 0
vn -0.003921509 1 0
vn -0.003921509 1 0
vn -0.003921509 1 0
vn -0.003921509 0.003921509 1
vn -0.003921509 0.003921509 1
vn -0.003921509 0.003921509 1
vn -0.003921509 0.003921509 1
vn -0.003921509 0.003921509 1
vn -0.003921509 0.003921509 1
vn -0.003921509 0.003921509 1
vn -0.003921509 0.003921509 1
vn -0.003921509 0.003921509 1
vn -0.003921509 0.003921509 1
vn -0.003921509 0.003921509 1
vn -0.003921509 0.003921509 1
vn 1 0.003921509 0
vn 1 0.003921509 0
vn 1 0.003921509 0
vn 1 0.003921509 0
vn 1 0.003921509 0
vn 1 0.003921509 0
vn 1 0.003921509 0
vn 1 0.003921509 0
vn -0.003921509 0.003921509 -1
vn -0.003921509 0.003921509 -1
vn -0.003921509 0.003921509 -1
vn -0.003921509 0.003921509 -1
vn -0.003921509 0.003921509 -1
vn -0.003921509 0.003921509 -1

vt 0.6850586 0.2474365
vt 0.7285156 0.2568359
vt 0.7285156 0.2474365
vt 0.6850586 0.2568359
vt -4.671875 -23.3125
vt -2.027344 -22.26563
vt -2.013672 -23.3125
vt -4.671875 -22.26563
vt -4.671875 -20.375
vt -1.964844 -20.54688
vt 4.007813 -22.23438
vt 5.671875 -23.3125
vt 4.019531 -23.3125
vt 5.597656 -22.23438
vt 5.671875 -20.375
vt 4.011719 -20.57813
vt 1.862305 -23.3125
vt 3.695313 -22.25
vt 3.695313 -23.3125
vt 1.862305 -22.25
vt -7.734375 -22.25
vt -10.15625 -23.3125
vt -10.15625 -22.25
vt -7.734375 -23.3125
vt 6.011719 -20.375
vt -5.011719 -21.96875
vt -5.011719 -20.375
vt -2.03125 -21.96875
vt 2.332031 -21.96875
vt 6.011719 -21.96875

g Building23_28442_27
usemtl Building23_28442_27
usemap Building23_28442_27
f 1/1/1 3/3/3 2/2/2
f 2/2/2 4/4/4 1/1/1
f 5/5/5 7/7/7 6/6/6
f 6/6/6 8/8/8 5/5/5
f 9/9/9 8/8/8 6/6/6
f 6/6/6 10/10/10 9/9/9
f 11/11/11 13/13/13 12/12/12
f 12/12/12 14/14/14 11/11/11
f 14/14/14 12/12/12 15/15/15
f 11/11/11 14/14/14 15/15/15
f 11/11/11 15/15/15 16/16/16
f 17/17/17 19/19/19 18/18/18
f 18/18/18 20/20/20 17/17/17
f 21/21/21 23/23/23 22/22/22
f 22/22/22 24/24/24 21/21/21
f 25/25/25 27/27/27 26/26/26
f 25/25/25 26/26/26 28/28/28
f 25/25/25 28/28/28 29/29/29
f 30/30/30 25/25/25 29/29/29
