#Building71_27328_108.obj

v -4.553467 -0.7586079 2.134699
v -5.039387 -0.7586079 -0.1775107
v -4.090292 2.379721 -0.1495872
v -3.604631 2.379721 2.162882
v -0.02990923 -0.7586079 7.168735
v -2.16599 -0.7586079 5.031101
v -1.458667 2.379721 4.32421
v 0.6774134 2.379721 6.461844
v -2.126197 -0.7586079 -5.014183
v 0.02990923 -0.7586079 -7.168735
v 0.7367138 2.379721 -6.461412
v -1.419306 2.379721 -4.306947
v -5.039387 -0.7586079 -0.1775107
v -4.533744 -0.7586079 -2.157272
v -3.584907 2.379721 -2.129262
v -4.090292 2.379721 -0.1495872
v -3.571399 2.379721 2.162968
v -3.604631 2.379721 2.162882
v -4.090292 2.379721 -0.1495872
v -4.057275 2.379721 -0.1493714
v -4.057275 2.379721 -0.1493714
v -4.090292 2.379721 -0.1495872
v -3.584907 2.379721 -2.129262
v -3.551675 2.379721 -2.129003
v -3.551675 2.379721 -2.129003
v -3.584907 2.379721 -2.129262
v -4.533744 -0.7586079 -2.157272
v -3.551675 -0.7586079 -2.129003
v -3.571399 -0.7586079 2.162968
v -4.553467 -0.7586079 2.134699
v -3.604631 2.379721 2.162882
v -3.571399 2.379721 2.162968
v 0.7008052 2.379721 6.438452
v 0.6774134 2.379721 6.461844
v -1.458667 2.379721 4.32421
v -1.435275 2.379721 4.300818
v -1.435275 2.379721 4.300818
v -1.458667 2.379721 4.32421
v -2.16599 -0.7586079 5.031101
v -1.435275 -0.7586079 4.300818
v 0.7008052 -0.7586079 6.438452
v -0.02990923 -0.7586079 7.168735
v 0.6774134 2.379721 6.461844
v 0.7008052 2.379721 6.438452
v -1.395698 2.379721 -4.283512
v -1.419306 2.379721 -4.306947
v 0.7367138 2.379721 -6.461412
v 0.7601488 2.379721 -6.437805
v 0.7601488 2.379721 -6.437805
v 0.7367138 2.379721 -6.461412
v 0.02990923 -0.7586079 -7.168735
v 0.7601488 -0.7586079 -6.437805
v -1.395698 -0.7586079 -4.283512
v -2.126197 -0.7586079 -5.014183
v -1.419306 2.379721 -4.306947
v -1.395698 2.379721 -4.283512

vn -0.5141602 0.2783203 0.8110352
vn -0.5141602 0.2783203 0.8110352
vn -0.5141602 0.2783203 0.8110352
vn -0.5141602 0.2783203 0.8110352
vn 0.004951477 0.302002 0.953125
vn 0.004951477 0.302002 0.953125
vn 0.004951477 0.302002 0.953125
vn 0.004951477 0.302002 0.953125
vn -0.953125 0.302002 -0.004951477
vn -0.953125 0.302002 -0.004951477
vn -0.953125 0.302002 -0.004951477
vn -0.953125 0.302002 -0.004951477
vn -0.8217773 0.286377 0.4924316
vn -0.8217773 0.286377 0.4924316
vn -0.8217773 0.286377 0.4924316
vn -0.8217773 0.286377 0.4924316
vn -0.002773285 1 0.002773285
vn -0.002773285 1 0.002773285
vn -0.002773285 1 0.002773285
vn -0.002773285 1 0.002773285
vn -0.002773285 1 0.002773285
vn -0.002773285 1 0.002773285
vn -0.002773285 1 0.002773285
vn -0.002773285 1 0.002773285
vn -0.6875 0.003921509 -0.7260742
vn -0.6875 0.003921509 -0.7260742
vn -0.6875 0.003921509 -0.7260742
vn -0.6875 0.003921509 -0.7260742
vn 0.6875 -0.003921509 0.7260742
vn 0.6875 -0.003921509 0.7260742
vn 0.6875 -0.003921509 0.7260742
vn 0.6875 -0.003921509 0.7260742
vn -0.002773285 1 0.002773285
vn -0.002773285 1 0.002773285
vn -0.002773285 1 0.002773285
vn -0.002773285 1 0.002773285
vn -1 0.003921509 0.003829956
vn -1 0.003921509 0.003829956
vn -1 0.003921509 0.003829956
vn -1 0.003921509 0.003829956
vn 1 0.003921509 -0.003829956
vn 1 0.003921509 -0.003829956
vn 1 0.003921509 -0.003829956
vn 1 0.003921509 -0.003829956
vn -0.002773285 1 0.002773285
vn -0.002773285 1 0.002773285
vn -0.002773285 1 0.002773285
vn -0.002773285 1 0.002773285
vn 0.003829956 0.003921509 -1
vn 0.003829956 0.003921509 -1
vn 0.003829956 0.003921509 -1
vn 0.003829956 0.003921509 -1
vn -0.003829956 0.003921509 1
vn -0.003829956 0.003921509 1
vn -0.003829956 0.003921509 1
vn -0.003829956 0.003921509 1

vt 0.333252 0.5004883
vt -5.960464E-08 0.5004883
vt -5.960464E-08 1
vt 0.333252 1
vt 1 0.5004883
vt 0.6665039 0.5004883
vt 0.6665039 1
vt 1 1
vt 0.333252 0.5004883
vt -5.960464E-08 0.5004883
vt -5.960464E-08 1
vt 0.333252 1
vt 1 0.5004883
vt 0.6665039 0.5004883
vt 0.6665039 1
vt 1 1
vt 0.333252 1
vt 0.333252 1
vt -5.960464E-08 1
vt -5.960464E-08 1
vt 1 1
vt 1 1
vt 0.6665039 1
vt 0.6665039 1
vt 0.6665039 1
vt 0.6665039 1
vt 0.6665039 0.5004883
vt 0.6665039 0.5004883
vt 0.333252 0.5004883
vt 0.333252 0.5004883
vt 0.333252 1
vt 0.333252 1
vt 1 1
vt 1 1
vt 0.6665039 1
vt 0.6665039 1
vt 0.6665039 1
vt 0.6665039 1
vt 0.6665039 0.5004883
vt 0.6665039 0.5004883
vt 1 0.5004883
vt 1 0.5004883
vt 1 1
vt 1 1
vt 0.333252 1
vt 0.333252 1
vt -5.960464E-08 1
vt -5.960464E-08 1
vt -5.960464E-08 1
vt -5.960464E-08 1
vt -5.960464E-08 0.5004883
vt -5.960464E-08 0.5004883
vt 0.333252 0.5004883
vt 0.333252 0.5004883
vt 0.333252 1
vt 0.333252 1

g Building71_27328_108
usemtl Building71_27328_108
usemap Building71_27328_108
f 1/1/1 3/3/3 2/2/2
f 1/1/1 4/4/4 3/3/3
f 5/5/5 7/7/7 6/6/6
f 5/5/5 8/8/8 7/7/7
f 9/9/9 11/11/11 10/10/10
f 9/9/9 12/12/12 11/11/11
f 13/13/13 15/15/15 14/14/14
f 13/13/13 16/16/16 15/15/15
f 17/17/17 19/19/19 18/18/18
f 17/17/17 20/20/20 19/19/19
f 21/21/21 23/23/23 22/22/22
f 21/21/21 24/24/24 23/23/23
f 25/25/25 27/27/27 26/26/26
f 25/25/25 28/28/28 27/27/27
f 29/29/29 31/31/31 30/30/30
f 29/29/29 32/32/32 31/31/31
f 33/33/33 35/35/35 34/34/34
f 33/33/33 36/36/36 35/35/35
f 37/37/37 39/39/39 38/38/38
f 37/37/37 40/40/40 39/39/39
f 41/41/41 43/43/43 42/42/42
f 41/41/41 44/44/44 43/43/43
f 45/45/45 47/47/47 46/46/46
f 45/45/45 48/48/48 47/47/47
f 49/49/49 51/51/51 50/50/50
f 49/49/49 52/52/52 51/51/51
f 53/53/53 55/55/55 54/54/54
f 53/53/53 56/56/56 55/55/55
