#Building31_28367_218.obj

v 12.69452 7.75034 -1.854004
v 12.69037 6.657612 -1.032471
v 12.69037 7.75034 -1.032471
v 12.69452 6.657612 -1.854004
v 6.142395 6.657612 3.901855
v 7.022217 7.75034 3.906067
v 7.022217 6.657612 3.906067
v 6.142395 7.75034 3.901855
v -12.70575 7.75034 -1.810364
v -12.69836 6.657612 -0.9888306
v -12.70575 6.657612 -1.810364
v -12.69836 7.75034 -0.9888306
v -6.133057 6.657612 3.923401
v -7.013428 7.75034 3.930237
v -6.133057 7.75034 3.923401
v -7.013428 6.657612 3.930237

vn 1 0.003921509 0
vn 1 0.003921509 0
vn 1 0.003921509 0
vn 1 0.003921509 0
vn -0.003921509 0.003921509 1
vn -0.003921509 0.003921509 1
vn -0.003921509 0.003921509 1
vn -0.003921509 0.003921509 1
vn -1 0.003921509 0
vn -1 0.003921509 0
vn -1 0.003921509 0
vn -1 0.003921509 0
vn 0.01176453 0.003921509 1
vn 0.01176453 0.003921509 1
vn 0.01176453 0.003921509 1
vn 0.01176453 0.003921509 1

vt -5.781651E-06 -5.781651E-06
vt 1 1
vt 1 -5.781651E-06
vt -5.781651E-06 1
vt 1 1
vt -5.781651E-06 -5.781651E-06
vt -5.781651E-06 1
vt 1 -5.781651E-06
vt -5.781651E-06 -5.781651E-06
vt 1 1
vt -5.781651E-06 1
vt 1 -5.781651E-06
vt 1 1
vt -5.781651E-06 -5.781651E-06
vt 1 -5.781651E-06
vt -5.781651E-06 1

g Building31_28367_218
usemtl Building31_28367_218
usemap Building31_28367_218
f 1/1/1 3/3/3 2/2/2
f 2/2/2 4/4/4 1/1/1
f 5/5/5 7/7/7 6/6/6
f 6/6/6 8/8/8 5/5/5
f 9/9/9 11/11/11 10/10/10
f 10/10/10 12/12/12 9/9/9
f 13/13/13 15/15/15 14/14/14
f 14/14/14 16/16/16 13/13/13
