#Building71_(5)_27330_118.obj

v -3.551759 -0.7586079 -2.129041
v -4.533839 -0.7586079 -2.157231
v -5.039422 -0.7586079 -0.1775371
v -4.057342 -0.7586079 -0.1493476
v -4.057342 -0.7586079 -0.1493476
v -5.039422 -0.7586079 -0.1775371
v -4.553501 -0.7586079 2.134687
v -3.571421 -0.7586079 2.162877
v -1.435297 -0.7586079 4.300741
v -2.165983 -0.7586079 5.031037
v -0.02989365 -0.7586079 7.168684
v 0.7008331 -0.7586079 6.438432
v 0.7601433 -0.7586079 -6.43787
v 0.02985358 -0.7586079 -7.168728
v -2.126208 -0.7586079 -5.014253
v -1.395697 -0.7586079 -4.283516

vn 0.002656937 -1 -0.002883911
vn 0.002656937 -1 -0.002883911
vn 0.002656937 -1 -0.002883911
vn 0.002656937 -1 -0.002883911
vn 0.002656937 -1 -0.002883911
vn 0.002656937 -1 -0.002883911
vn 0.002656937 -1 -0.002883911
vn 0.002656937 -1 -0.002883911
vn 0.002656937 -1 -0.002883911
vn 0.002656937 -1 -0.002883911
vn 0.002656937 -1 -0.002883911
vn 0.002656937 -1 -0.002883911
vn 0.002656937 -1 -0.002883911
vn 0.002656937 -1 -0.002883911
vn 0.002656937 -1 -0.002883911
vn 0.002656937 -1 -0.002883911

vt 0.6665039 0.5004883
vt 0.6665039 0.5004883
vt 1 0.5004883
vt 1 0.5004883
vt -5.960464E-08 0.5004883
vt -5.960464E-08 0.5004883
vt 0.333252 0.5004883
vt 0.333252 0.5004883
vt 0.6665039 0.5004883
vt 0.6665039 0.5004883
vt 1 0.5004883
vt 1 0.5004883
vt -5.960464E-08 0.5004883
vt -5.960464E-08 0.5004883
vt 0.333252 0.5004883
vt 0.333252 0.5004883

g Building71_(5)_27330_118
usemtl Building71_(5)_27330_118
usemap Building71_(5)_27330_118
f 1/1/1 3/3/3 2/2/2
f 1/1/1 4/4/4 3/3/3
f 5/5/5 7/7/7 6/6/6
f 5/5/5 8/8/8 7/7/7
f 9/9/9 11/11/11 10/10/10
f 9/9/9 12/12/12 11/11/11
f 13/13/13 15/15/15 14/14/14
f 13/13/13 16/16/16 15/15/15
