#Building14_27637_113.obj

v 11.7995 -25.10251 -8.224283
v 10.34778 -22.70315 -9.026285
v 10.34778 -25.10251 -9.026285
v 11.7995 -22.70315 -8.224283
v 10.34778 -25.10251 -9.026285
v 8.863913 -22.70315 -9.766336
v 8.863913 -25.10251 -9.766336
v 10.34778 -22.70315 -9.026285
v 8.863913 -25.10251 -9.766336
v 7.730897 -22.70315 -10.27964
v 7.730897 -25.10251 -10.27964
v 8.863913 -22.70315 -9.766336
v 11.7995 -25.10251 8.224283
v 10.34778 -22.70315 9.026285
v 11.7995 -22.70315 8.224283
v 10.34778 -25.10251 9.026285
v 10.34778 -25.10251 9.026285
v 8.863913 -22.70315 9.766336
v 10.34778 -22.70315 9.026285
v 8.863913 -25.10251 9.766336
v 8.863913 -25.10251 9.766336
v 7.730897 -22.70315 10.27964
v 8.863913 -22.70315 9.766336
v 7.730897 -25.10251 10.27964

vn 0.4824219 0.003137589 -0.8759766
vn 0.4824219 0.003137589 -0.8759766
vn 0.4824219 0.003137589 -0.8759766
vn 0.4824219 0.003137589 -0.8759766
vn 0.4431152 0.003137589 -0.8964844
vn 0.4431152 0.003137589 -0.8964844
vn 0.4431152 0.003137589 -0.8964844
vn 0.4431152 0.003137589 -0.8964844
vn 0.4118652 0.003137589 -0.9111328
vn 0.4118652 0.003137589 -0.9111328
vn 0.4118652 0.003137589 -0.9111328
vn 0.4118652 0.003137589 -0.9111328
vn 0.4824219 0.003137589 0.8759766
vn 0.4824219 0.003137589 0.8759766
vn 0.4824219 0.003137589 0.8759766
vn 0.4824219 0.003137589 0.8759766
vn 0.4431152 0.003137589 0.8964844
vn 0.4431152 0.003137589 0.8964844
vn 0.4431152 0.003137589 0.8964844
vn 0.4431152 0.003137589 0.8964844
vn 0.4118652 0.003137589 0.9111328
vn 0.4118652 0.003137589 0.9111328
vn 0.4118652 0.003137589 0.9111328
vn 0.4118652 0.003137589 0.9111328

vt -0.0001375675 -0.0001375675
vt 0.5004883 1
vt 0.5004883 -0.0001375675
vt -0.0001375675 1
vt -0.0001375675 -0.0001375675
vt 0.5004883 1
vt 0.5004883 -0.0001375675
vt -0.0001375675 1
vt -0.0001375675 -0.0001375675
vt 0.5004883 1
vt 0.5004883 -0.0001375675
vt -0.0001375675 1
vt -0.0001375675 -0.0001375675
vt 0.5004883 1
vt -0.0001375675 1
vt 0.5004883 -0.0001375675
vt -0.0001375675 -0.0001375675
vt 0.5004883 1
vt -0.0001375675 1
vt 0.5004883 -0.0001375675
vt -0.0001375675 -0.0001375675
vt 0.5004883 1
vt -0.0001375675 1
vt 0.5004883 -0.0001375675

g Building14_27637_113
usemtl Building14_27637_113
usemap Building14_27637_113
f 1/1/1 3/3/3 2/2/2
f 2/2/2 4/4/4 1/1/1
f 5/5/5 7/7/7 6/6/6
f 6/6/6 8/8/8 5/5/5
f 9/9/9 11/11/11 10/10/10
f 10/10/10 12/12/12 9/9/9
f 13/13/13 15/15/15 14/14/14
f 14/14/14 16/16/16 13/13/13
f 17/17/17 19/19/19 18/18/18
f 18/18/18 20/20/20 17/17/17
f 21/21/21 23/23/23 22/22/22
f 22/22/22 24/24/24 21/21/21
