#Building55_28004_76.obj

v 5.63324 -3.897074 13.4574
v 1.495361 -3.897074 13.4574
v 1.495361 -0.7586346 13.4574
v 5.63324 -0.7586346 13.4574
v 5.63324 -3.897074 -13.4574
v 5.63324 -0.7586346 -13.4574
v 1.495361 -0.7586346 -13.4574
v 1.495361 -3.897074 -13.4574

vn -0.003921509 0.003921509 1
vn -0.003921509 0.003921509 1
vn -0.003921509 0.003921509 1
vn -0.003921509 0.003921509 1
vn -0.003921509 0.003921509 -1
vn -0.003921509 0.003921509 -1
vn -0.003921509 0.003921509 -1
vn -0.003921509 0.003921509 -1

vt -0.0002171993 -0.0002171993
vt 1 -0.0002171993
vt 1 1
vt -0.0002171993 1
vt -0.0002171993 -0.0002171993
vt -0.0002171993 1
vt 1 1
vt 1 -0.0002171993

g Building55_28004_76
usemtl Building55_28004_76
usemap Building55_28004_76
f 1/1/1 3/3/3 2/2/2
f 1/1/1 4/4/4 3/3/3
f 5/5/5 7/7/7 6/6/6
f 5/5/5 8/8/8 7/7/7
