#Building32_27640_187.obj

v 6.977539 -2.34033 1.753845
v 6.977539 -2.705606 2.194031
v 6.977539 -2.34033 2.194031
v 6.977539 -2.705606 1.753845
v 7.332336 -0.3283024 -4.54248
v 7.332336 -0.8833542 -3.844299
v 7.332336 -0.5117321 -4.104492
v 7.332336 -1.325113 -3.844299
v 7.332336 -1.696735 -4.104492
v 7.332336 -1.880167 -4.54248
v 7.332336 -1.817329 -5.018799
v 7.332336 -1.528219 -5.382507
v 7.332336 -1.104235 -5.518311
v 7.332336 -0.6805649 -5.382507
v 7.332336 -0.3911381 -5.018799
v -1.225098 -3.762079 8.529053
v -1.557129 -4.049921 8.529053
v -1.43335 -3.857286 8.529053
v -1.557129 -4.279051 8.529053
v -1.43335 -4.471685 8.529053
v -1.225098 -4.566891 8.529053
v -0.998291 -4.534203 8.529053
v -0.8253174 -4.384094 8.529053
v -0.7608643 -4.164486 8.529053
v -0.8253174 -3.944876 8.529053
v -0.998291 -3.794767 8.529053

vn 1 0.003921509 0
vn 1 0.003921509 0
vn 1 0.003921509 0
vn 1 0.003921509 0
vn 1 0.003921509 0
vn 1 0.003921509 0
vn 1 0.003921509 0
vn 1 0.003921509 0
vn 1 0.003921509 0
vn 1 0.003921509 0
vn 1 0.003921509 0
vn 1 0.003921509 0
vn 1 0.003921509 0
vn 1 0.003921509 0
vn 1 0.003921509 0
vn 0.003921509 0.003921509 1
vn 0.003921509 0.003921509 1
vn 0.003921509 0.003921509 1
vn 0.003921509 0.003921509 1
vn 0.003921509 0.003921509 1
vn 0.003921509 0.003921509 1
vn 0.003921509 0.003921509 1
vn 0.003921509 0.003921509 1
vn 0.003921509 0.003921509 1
vn 0.003921509 0.003921509 1
vn 0.003921509 0.003921509 1

vt 0.9995117 0.0002601147
vt 0.0002601147 0.9995117
vt 0.9995117 0.9995117
vt 0.0002601147 0.0002601147
vt 2.78125 0.878418
vt 1.149414 2.78125
vt 2.242188 2.072266
vt -0.1494141 2.78125
vt -1.241211 2.072266
vt -1.780273 0.878418
vt -1.595703 -0.4199219
vt -0.7456055 -1.411133
vt 0.5 -1.780273
vt 1.746094 -1.411133
vt 2.595703 -0.4199219
vt 0.08673096 2.990234
vt -1.991211 1.208984
vt -1.21582 2.402344
vt -1.991211 -0.2087402
vt -1.21582 -1.401367
vt 0.08673096 -1.991211
vt 1.504883 -1.789063
vt 2.587891 -0.8603516
vt 2.990234 0.5
vt 2.587891 1.860352
vt 1.504883 2.789063

g Building32_27640_187
usemtl Building32_27640_187
usemap Building32_27640_187
f 1/1/1 3/3/3 2/2/2
f 2/2/2 4/4/4 1/1/1
f 5/5/5 7/7/7 6/6/6
f 5/5/5 6/6/6 8/8/8
f 5/5/5 8/8/8 9/9/9
f 5/5/5 9/9/9 10/10/10
f 5/5/5 10/10/10 11/11/11
f 5/5/5 11/11/11 12/12/12
f 5/5/5 12/12/12 13/13/13
f 5/5/5 13/13/13 14/14/14
f 5/5/5 14/14/14 15/15/15
f 16/16/16 18/18/18 17/17/17
f 16/16/16 17/17/17 19/19/19
f 16/16/16 19/19/19 20/20/20
f 16/16/16 20/20/20 21/21/21
f 16/16/16 21/21/21 22/22/22
f 16/16/16 22/22/22 23/23/23
f 16/16/16 23/23/23 24/24/24
f 16/16/16 24/24/24 25/25/25
f 16/16/16 25/25/25 26/26/26
