#Building71_(2)_27333_152.obj

v -1.415615 2.379721 0.00867339
v -1.415615 3.896927 0.00867339
v -3.571462 3.896927 2.162966
v -3.571462 2.379721 2.162966
v -3.571462 2.379721 2.162966
v -3.571462 3.896927 2.162966
v -1.435295 3.896927 4.30086
v -1.435295 2.379721 4.30086
v -1.435295 2.379721 4.30086
v -1.435295 3.896927 4.30086
v 0.700785 3.896927 6.438494
v 0.700785 2.379721 6.438494
v 0.700785 2.379721 6.438494
v 0.700785 3.896927 6.438494
v 2.856891 3.896927 4.283942
v 2.856891 2.379721 4.283942
v 2.856891 2.379721 4.283942
v 2.856891 3.896927 4.283942
v 5.012652 3.896927 2.129735
v 5.012652 2.379721 2.129735
v 5.012652 2.379721 2.129735
v 5.012652 3.896927 2.129735
v 7.168672 3.896927 -0.02455799
v 7.168672 2.379721 -0.02455799
v 7.168672 2.379721 -0.02455799
v 7.168672 3.896927 -0.02455799
v 5.032505 3.896927 -2.162451
v 5.032505 2.379721 -2.162451
v 5.032505 2.379721 -2.162451
v 5.032505 3.896927 -2.162451
v 2.896252 3.896927 -4.300086
v 2.896252 2.379721 -4.300086
v 2.896252 2.379721 -4.300086
v 2.896252 3.896927 -4.300086
v 0.7601718 3.896927 -6.43772
v 0.7601718 2.379721 -6.43772
v 0.7601718 2.379721 -6.43772
v 0.7601718 3.896927 -6.43772
v -1.395675 3.896927 -4.283427
v -1.395675 2.379721 -4.283427
v -1.395675 2.379721 -4.283427
v -1.395675 3.896927 -4.283427
v -3.551695 3.896927 -2.128961
v -3.551695 2.379721 -2.128961
v -3.551695 2.379721 -2.128961
v -3.551695 3.896927 -2.128961
v -1.415615 3.896927 0.00867339
v -1.415615 2.379721 0.00867339

vn -1 0.003921509 0.003829956
vn -1 0.003921509 0.003829956
vn -1 0.003921509 0.003829956
vn -1 0.003921509 0.003829956
vn -0.003829956 0.003921509 1
vn -0.003829956 0.003921509 1
vn -0.003829956 0.003921509 1
vn -0.003829956 0.003921509 1
vn -0.003829956 0.003921509 1
vn -0.003829956 0.003921509 1
vn -0.003829956 0.003921509 1
vn -0.003829956 0.003921509 1
vn 1 0.003921509 -0.003829956
vn 1 0.003921509 -0.003829956
vn 1 0.003921509 -0.003829956
vn 1 0.003921509 -0.003829956
vn 1 0.003921509 -0.003829956
vn 1 0.003921509 -0.003829956
vn 1 0.003921509 -0.003829956
vn 1 0.003921509 -0.003829956
vn 1 0.003921509 -0.003829956
vn 1 0.003921509 -0.003829956
vn 1 0.003921509 -0.003829956
vn 1 0.003921509 -0.003829956
vn 0.003829956 0.003921509 -1
vn 0.003829956 0.003921509 -1
vn 0.003829956 0.003921509 -1
vn 0.003829956 0.003921509 -1
vn 0.003829956 0.003921509 -1
vn 0.003829956 0.003921509 -1
vn 0.003829956 0.003921509 -1
vn 0.003829956 0.003921509 -1
vn 0.003829956 0.003921509 -1
vn 0.003829956 0.003921509 -1
vn 0.003829956 0.003921509 -1
vn 0.003829956 0.003921509 -1
vn -1 0.003921509 0.003829956
vn -1 0.003921509 0.003829956
vn -1 0.003921509 0.003829956
vn -1 0.003921509 0.003829956
vn -1 0.003921509 0.003829956
vn -1 0.003921509 0.003829956
vn -1 0.003921509 0.003829956
vn -1 0.003921509 0.003829956
vn -0.003829956 0.003921509 1
vn -0.003829956 0.003921509 1
vn -0.003829956 0.003921509 1
vn -0.003829956 0.003921509 1

vt -5.960464E-08 -5.960464E-08
vt -5.960464E-08 1
vt 1 1
vt 1 -5.960464E-08
vt -5.960464E-08 -5.960464E-08
vt -5.960464E-08 1
vt 1 1
vt 1 -5.960464E-08
vt -5.960464E-08 -5.960464E-08
vt -5.960464E-08 1
vt 1 1
vt 1 -5.960464E-08
vt -5.960464E-08 -5.960464E-08
vt -5.960464E-08 1
vt 1 1
vt 1 -5.960464E-08
vt -5.960464E-08 -5.960464E-08
vt -5.960464E-08 1
vt 1 1
vt 1 -5.960464E-08
vt -5.960464E-08 -5.960464E-08
vt -5.960464E-08 1
vt 1 1
vt 1 -5.960464E-08
vt -5.960464E-08 -5.960464E-08
vt -5.960464E-08 1
vt 1 1
vt 1 -5.960464E-08
vt -5.960464E-08 -5.960464E-08
vt -5.960464E-08 1
vt 1 1
vt 1 -5.960464E-08
vt -5.960464E-08 -5.960464E-08
vt -5.960464E-08 1
vt 1 1
vt 1 -5.960464E-08
vt -5.960464E-08 -5.960464E-08
vt -5.960464E-08 1
vt 1 1
vt 1 -5.960464E-08
vt -5.960464E-08 -5.960464E-08
vt -5.960464E-08 1
vt 1 1
vt 1 -5.960464E-08
vt -5.960464E-08 -5.960464E-08
vt -5.960464E-08 1
vt 1 1
vt 1 -5.960464E-08

g Building71_(2)_27333_152
usemtl Building71_(2)_27333_152
usemap Building71_(2)_27333_152
f 1/1/1 3/3/3 2/2/2
f 1/1/1 4/4/4 3/3/3
f 5/5/5 7/7/7 6/6/6
f 5/5/5 8/8/8 7/7/7
f 9/9/9 11/11/11 10/10/10
f 9/9/9 12/12/12 11/11/11
f 13/13/13 15/15/15 14/14/14
f 13/13/13 16/16/16 15/15/15
f 17/17/17 19/19/19 18/18/18
f 17/17/17 20/20/20 19/19/19
f 21/21/21 23/23/23 22/22/22
f 21/21/21 24/24/24 23/23/23
f 25/25/25 27/27/27 26/26/26
f 25/25/25 28/28/28 27/27/27
f 29/29/29 31/31/31 30/30/30
f 29/29/29 32/32/32 31/31/31
f 33/33/33 35/35/35 34/34/34
f 33/33/33 36/36/36 35/35/35
f 37/37/37 39/39/39 38/38/38
f 37/37/37 40/40/40 39/39/39
f 41/41/41 43/43/43 42/42/42
f 41/41/41 44/44/44 43/43/43
f 45/45/45 47/47/47 46/46/46
f 45/45/45 48/48/48 47/47/47
