#Building71_(4)_27332_137.obj

v -1.435248 -3.896936 4.30078
v 0.7008322 -3.896936 6.438415
v 2.856938 -3.896936 4.283863
v 0.7207717 -3.896936 2.146314
v -3.571415 -3.896936 2.162887
v 5.012699 -3.896936 2.129656
v -1.415568 -3.896936 0.008593816
v -4.057205 -3.896936 -0.149366
v -3.551648 -3.896936 -2.12904
v 2.876619 -3.896936 -0.007978712
v 7.168719 -3.896936 -0.02463756
v 5.032552 -3.896936 -2.162531
v 0.7404522 -3.896936 -2.145872
v -1.395628 -3.896936 -4.283506
v 2.896299 -3.896936 -4.300165
v 0.760219 -3.896936 -6.437799

vn -0.002773285 -1 0.002773285
vn -0.002773285 -1 0.002773285
vn -0.002773285 -1 0.002773285
vn -0.002773285 -1 0.002773285
vn -0.002773285 -1 0.002773285
vn -0.002773285 -1 0.002773285
vn -0.002773285 -1 0.002773285
vn -0.002773285 -1 0.002773285
vn -0.002773285 -1 0.002773285
vn -0.002773285 -1 0.002773285
vn -0.002773285 -1 0.002773285
vn -0.002773285 -1 0.002773285
vn -0.002773285 -1 0.002773285
vn -0.002773285 -1 0.002773285
vn -0.002773285 -1 0.002773285
vn -0.002773285 -1 0.002773285

vt 0.333252 -5.960464E-08
vt -5.960464E-08 -5.960464E-08
vt -5.960464E-08 0.333252
vt 0.333252 0.333252
vt 0.6665039 -5.960464E-08
vt -5.960464E-08 0.6665039
vt 0.6665039 0.333252
vt 1 -5.960464E-08
vt 1 0.333252
vt 0.333252 0.6665039
vt -5.960464E-08 1
vt 0.333252 1
vt 0.6665039 0.6665039
vt 1 0.6665039
vt 0.6665039 1
vt 1 1

g Building71_(4)_27332_137
usemtl Building71_(4)_27332_137
usemap Building71_(4)_27332_137
f 1/1/1 3/3/3 2/2/2
f 1/1/1 4/4/4 3/3/3
f 5/5/5 4/4/4 1/1/1
f 4/4/4 6/6/6 3/3/3
f 5/5/5 7/7/7 4/4/4
f 8/8/8 7/7/7 5/5/5
f 8/8/8 9/9/9 7/7/7
f 4/4/4 10/10/10 6/6/6
f 7/7/7 10/10/10 4/4/4
f 10/10/10 11/11/11 6/6/6
f 10/10/10 12/12/12 11/11/11
f 9/9/9 13/13/13 7/7/7
f 7/7/7 13/13/13 10/10/10
f 13/13/13 12/12/12 10/10/10
f 9/9/9 14/14/14 13/13/13
f 13/13/13 15/15/15 12/12/12
f 14/14/14 15/15/15 13/13/13
f 14/14/14 16/16/16 15/15/15
