#Building37_27467_58.obj

v 9.02948 -11.18577 -3.630615
v 9.02948 -16.69573 -3.630615
v 9.02948 -13.60854 -3.630615
v -9.02948 -11.18577 -3.630615
v -9.02948 -13.60854 -3.630615
v -9.02948 -16.69573 -3.630615
v 9.02948 -11.18577 3.753906
v 9.02948 -11.18577 -3.630615
v 9.02948 -13.60854 -3.630615
v 9.02948 -13.61007 -3.048706
v 9.02948 -13.62485 3.101685
v 9.02948 -13.62638 3.753906
v 9.02948 -14.86298 3.105774
v 9.02948 -16.69573 3.112427
v 9.02948 -16.69573 3.753906
v 9.02948 -16.69573 -3.054871
v 9.02948 -16.69573 -3.630615
v 9.02948 -14.85891 -3.05127
v 9.02948 -11.18577 -3.630615
v -0.0002441406 -16.69573 -3.630615
v 9.02948 -16.69573 -3.630615
v -0.0002441406 -11.18577 -3.630615
v -0.0002441406 -16.69573 4.276123
v 9.02948 -13.62638 3.753906
v 9.02948 -16.69573 3.753906
v 9.02948 -11.18577 3.753906
v -0.0002441406 -11.18577 4.276123
v -9.02948 -11.18577 3.753906
v -9.02948 -13.60854 -3.630615
v -9.02948 -11.18577 -3.630615
v -9.02948 -13.61007 -3.048706
v -9.02948 -16.69573 -3.054871
v -9.02948 -16.69573 -3.630615
v -9.02948 -14.85891 -3.05127
v -9.02948 -13.62485 3.101685
v -9.02948 -13.62638 3.753906
v -9.02948 -16.69573 3.753906
v -9.02948 -14.86298 3.105774
v -9.02948 -16.69573 3.112427
v -9.02948 -11.18577 -3.630615
v -0.0002441406 -16.69573 -3.630615
v -0.0002441406 -11.18577 -3.630615
v -9.02948 -16.69573 -3.630615
v -0.0002441406 -16.69573 4.276123
v -9.02948 -11.18577 3.753906
v -0.0002441406 -11.18577 4.276123
v -9.02948 -13.62638 3.753906
v -9.02948 -16.69573 3.753906

vn -0.003921509 0.003921509 -1
vn -0.003921509 0.003921509 -1
vn -0.003921509 0.003921509 -1
vn -0.003921509 0.003921509 -1
vn -0.003921509 0.003921509 -1
vn -0.003921509 0.003921509 -1
vn 1 0.003921509 0
vn 1 0.003921509 0
vn 1 0.003921509 0
vn 1 0.003921509 0
vn 1 0.003921509 0
vn 1 0.003921509 0
vn 1 0.003921509 0
vn 1 0.003921509 0
vn 1 0.003921509 0
vn 1 0.003921509 0
vn 1 0.003921509 0
vn 1 0.003921509 0
vn -0.003921509 0.003921509 -1
vn -0.003921509 0.003921509 -1
vn -0.003921509 0.003921509 -1
vn -0.003921509 0.003921509 -1
vn 0.06665039 0.003921509 0.9975586
vn 0.06665039 0.003921509 0.9975586
vn 0.06665039 0.003921509 0.9975586
vn 0.06665039 0.003921509 0.9975586
vn 0.06665039 0.003921509 0.9975586
vn -1 0.003921509 0
vn -1 0.003921509 0
vn -1 0.003921509 0
vn -1 0.003921509 0
vn -1 0.003921509 0
vn -1 0.003921509 0
vn -1 0.003921509 0
vn -1 0.003921509 0
vn -1 0.003921509 0
vn -1 0.003921509 0
vn -1 0.003921509 0
vn -1 0.003921509 0
vn -0.003921509 0.003921509 -1
vn -0.003921509 0.003921509 -1
vn -0.003921509 0.003921509 -1
vn -0.003921509 0.003921509 -1
vn -0.06665039 0.003921509 0.9975586
vn -0.06665039 0.003921509 0.9975586
vn -0.06665039 0.003921509 0.9975586
vn -0.06665039 0.003921509 0.9975586
vn -0.06665039 0.003921509 0.9975586

vt -1.146484 2.146484
vt -1.146484 -1.146484
vt -1.146484 0.6987305
vt -1.146484 2.146484
vt -1.146484 0.6987305
vt -1.146484 -1.146484
vt -0.9130859 2.146484
vt 2.146484 2.146484
vt 2.146484 0.6987305
vt 1.905273 0.6982422
vt -0.6435547 0.6889648
vt -0.9130859 0.6884766
vt -0.6450195 -0.05126953
vt -0.6479492 -1.146484
vt -0.9130859 -1.146484
vt 1.908203 -1.146484
vt 2.146484 -1.146484
vt 1.90625 -0.04840088
vt -1.146484 2.146484
vt 1.912109 -1.146484
vt -1.146484 -1.146484
vt 1.912109 2.146484
vt -0.9125977 -1.146484
vt 2.146484 0.6884766
vt 2.146484 -1.146484
vt 2.146484 2.146484
vt -0.9125977 2.146484
vt -0.9130859 2.146484
vt 2.146484 0.6987305
vt 2.146484 2.146484
vt 1.905273 0.6982422
vt 1.908203 -1.146484
vt 2.146484 -1.146484
vt 1.90625 -0.04840088
vt -0.6435547 0.6889648
vt -0.9130859 0.6884766
vt -0.9130859 -1.146484
vt -0.6450195 -0.05126953
vt -0.6479492 -1.146484
vt -1.146484 2.146484
vt 1.912109 -1.146484
vt 1.912109 2.146484
vt -1.146484 -1.146484
vt -0.9125977 -1.146484
vt 2.146484 2.146484
vt -0.9125977 2.146484
vt 2.146484 0.6884766
vt 2.146484 -1.146484

g Building37_27467_58
usemtl Building37_27467_58
usemap Building37_27467_58
f 1/1/1 3/3/3 2/2/2
f 4/4/4 6/6/6 5/5/5
f 7/7/7 9/9/9 8/8/8
f 7/7/7 10/10/10 9/9/9
f 7/7/7 11/11/11 10/10/10
f 7/7/7 12/12/12 11/11/11
f 11/11/11 12/12/12 13/13/13
f 12/12/12 14/14/14 13/13/13
f 12/12/12 15/15/15 14/14/14
f 16/16/16 9/9/9 10/10/10
f 16/16/16 17/17/17 9/9/9
f 16/16/16 10/10/10 18/18/18
f 19/19/19 21/21/21 20/20/20
f 19/19/19 20/20/20 22/22/22
f 23/23/23 25/25/25 24/24/24
f 23/23/23 24/24/24 26/26/26
f 23/23/23 26/26/26 27/27/27
f 28/28/28 30/30/30 29/29/29
f 28/28/28 29/29/29 31/31/31
f 32/32/32 31/31/31 29/29/29
f 32/32/32 29/29/29 33/33/33
f 32/32/32 34/34/34 31/31/31
f 28/28/28 31/31/31 35/35/35
f 28/28/28 35/35/35 36/36/36
f 35/35/35 37/37/37 36/36/36
f 35/35/35 38/38/38 37/37/37
f 38/38/38 39/39/39 37/37/37
f 40/40/40 42/42/42 41/41/41
f 40/40/40 41/41/41 43/43/43
f 44/44/44 46/46/46 45/45/45
f 44/44/44 45/45/45 47/47/47
f 44/44/44 47/47/47 48/48/48
