#Building71_(4)_27332_145.obj

v -3.551648 -0.7586079 -2.12904
v -4.53376 -0.7586079 -2.157352
v -5.039403 -0.7586079 -0.1775917
v -4.057205 -0.7586079 -0.149366
v -4.057205 -0.7586079 -0.149366
v -5.039403 -0.7586079 -0.1775917
v -4.553441 -0.7586079 2.134661
v -3.571415 -0.7586079 2.162887
v -1.435248 -0.7586079 4.30078
v -2.166006 -0.7586079 5.03102
v -0.0298391 -0.7586079 7.168741
v 0.7008322 -0.7586079 6.438415
v 0.760219 -0.7586079 -6.437799
v 0.02989304 -0.7586079 -7.168816
v -2.126213 -0.7586079 -5.014264
v -1.395628 -0.7586079 -4.283506

vn -0.002773285 -1 0.002773285
vn -0.002773285 -1 0.002773285
vn -0.002773285 -1 0.002773285
vn -0.002773285 -1 0.002773285
vn -0.002773285 -1 0.002773285
vn -0.002773285 -1 0.002773285
vn -0.002773285 -1 0.002773285
vn -0.002773285 -1 0.002773285
vn -0.002773285 -1 0.002773285
vn -0.002773285 -1 0.002773285
vn -0.002773285 -1 0.002773285
vn -0.002773285 -1 0.002773285
vn -0.002773285 -1 0.002773285
vn -0.002773285 -1 0.002773285
vn -0.002773285 -1 0.002773285
vn -0.002773285 -1 0.002773285

vt 0.6665039 0.5004883
vt 0.6665039 0.5004883
vt 1 0.5004883
vt 1 0.5004883
vt -5.960464E-08 0.5004883
vt -5.960464E-08 0.5004883
vt 0.333252 0.5004883
vt 0.333252 0.5004883
vt 0.6665039 0.5004883
vt 0.6665039 0.5004883
vt 1 0.5004883
vt 1 0.5004883
vt -5.960464E-08 0.5004883
vt -5.960464E-08 0.5004883
vt 0.333252 0.5004883
vt 0.333252 0.5004883

g Building71_(4)_27332_145
usemtl Building71_(4)_27332_145
usemap Building71_(4)_27332_145
f 1/1/1 3/3/3 2/2/2
f 1/1/1 4/4/4 3/3/3
f 5/5/5 7/7/7 6/6/6
f 5/5/5 8/8/8 7/7/7
f 9/9/9 11/11/11 10/10/10
f 9/9/9 12/12/12 11/11/11
f 13/13/13 15/15/15 14/14/14
f 13/13/13 16/16/16 15/15/15
