#Building22_26603_6.obj

v 13.55872 19.80717 8.120361
v 4.847168 -21.26586 7.922241
v 4.872681 19.81181 7.922974
v 13.53394 -21.27127 8.120361
v 15.14655 22.57663 -4.424683
v 14.48035 22.57663 4.349609
v 14.46948 22.57663 -4.42395
v 15.15741 22.57663 4.348022
v 14.46948 22.57663 -4.42395
v 14.48187 25.34454 4.349609
v 14.47101 25.34454 -4.42395
v 14.48035 22.57663 4.349609
v 13.53857 19.80717 -8.153687
v 4.82782 -21.26586 -7.934692
v 13.51385 -21.27127 -8.153687
v 4.8526 19.81258 -7.934692

vn -0.01960754 0.003921509 1
vn -0.01960754 0.003921509 1
vn -0.01960754 0.003921509 1
vn -0.01960754 0.003921509 1
vn 0.003921509 1 0
vn 0.003921509 1 0
vn 0.003921509 1 0
vn 0.003921509 1 0
vn 1 -0.003921509 0
vn 1 -0.003921509 0
vn 1 -0.003921509 0
vn 1 -0.003921509 0
vn -0.02745056 0.003921509 -0.9995117
vn -0.02745056 0.003921509 -0.9995117
vn -0.02745056 0.003921509 -0.9995117
vn -0.02745056 0.003921509 -0.9995117

vt 0.3391113 0.496582
vt 0.2425537 0.07684326
vt 0.2425537 0.496582
vt 0.3391113 0.07684326
vt 0.6645508 0.5893555
vt 0.5424805 0.5976563
vt 0.6645508 0.5976563
vt 0.5424805 0.5893555
vt 0.8374023 0.4648438
vt 0.925293 0.4873047
vt 0.8374023 0.4873047
vt 0.925293 0.4648438
vt 0.3391113 0.496582
vt 0.2425537 0.07684326
vt 0.3391113 0.07684326
vt 0.2425537 0.496582

g Building22_26603_11
usemtl Building22_26603_11
usemap Building22_26603_11
f 1/1/1 3/3/3 2/2/2
f 2/2/2 4/4/4 1/1/1
f 5/5/5 7/7/7 6/6/6
f 6/6/6 8/8/8 5/5/5
f 9/9/9 11/11/11 10/10/10
f 10/10/10 12/12/12 9/9/9
f 13/13/13 15/15/15 14/14/14
f 14/14/14 16/16/16 13/13/13
