#Building37_27467_59.obj

v 11.55872 16.68858 4.080505
v -0.0002441406 16.69215 -4.608398
v 11.55872 16.68858 -4.61145
v -0.0002441406 16.69215 4.609863
v -11.55872 16.68858 4.080505
v -0.0002441406 16.69215 -4.608398
v -0.0002441406 16.69215 4.609863
v -11.55872 16.68858 -4.61145

vn 0.003921509 1 0
vn 0.003921509 1 0
vn 0.003921509 1 0
vn 0.003921509 1 0
vn -0.003921509 1 0
vn -0.003921509 1 0
vn -0.003921509 1 0
vn -0.003921509 1 0

vt 1 0.0607605
vt 0.347168 1
vt 1 1
vt 0.347168 0.003606796
vt 1 0.0607605
vt 0.347168 1
vt 0.347168 0.003606796
vt 1 1

g Building37_27467_59
usemtl Building37_27467_59
usemap Building37_27467_59
f 1/1/1 3/3/3 2/2/2
f 2/2/2 4/4/4 1/1/1
f 5/5/5 7/7/7 6/6/6
f 6/6/6 8/8/8 5/5/5
