#Building71_27328_104.obj

v -3.571399 -3.896936 2.162968
v -1.435275 -0.7586079 4.300818
v -1.435275 -3.896936 4.300818
v -3.571399 -0.7586079 2.162968
v -3.571399 2.379721 2.162968
v -1.435275 2.379721 4.300818
v 5.012672 -3.896936 2.129694
v 7.168692 -0.7586079 -0.0245998
v 7.168692 -3.896936 -0.0245998
v 5.012672 -0.7586079 2.129694
v 2.856911 -3.896936 4.2839
v 5.012672 2.379721 2.129694
v 7.168692 2.379721 -0.0245998
v 2.856911 2.379721 4.2839
v 2.856911 -0.7586079 4.2839
v 0.7008052 -3.896936 6.438452
v 0.7008052 2.379721 6.438452
v 0.7008052 -0.7586079 6.438452
v 2.896272 -3.896936 -4.300128
v 0.7601488 -0.7586079 -6.437805
v 0.7601488 -3.896936 -6.437805
v 2.896272 -0.7586079 -4.300128
v 5.032568 -3.896936 -2.16245
v 2.896272 2.379721 -4.300128
v 0.7601488 2.379721 -6.437805
v 5.032568 2.379721 -2.16245
v 5.032568 -0.7586079 -2.16245
v 7.168692 -3.896936 -0.0245998
v 7.168692 2.379721 -0.0245998
v 7.168692 -0.7586079 -0.0245998
v -1.395698 -3.896936 -4.283512
v -3.551675 -0.7586079 -2.129003
v -3.551675 -3.896936 -2.129003
v -1.395698 -0.7586079 -4.283512
v -1.395698 2.379721 -4.283512
v -3.551675 2.379721 -2.129003

vn -0.2912598 0.003921509 0.956543
vn -0.003829956 0.003921509 1
vn -0.003829956 0.003921509 1
vn -0.1879883 0.003921509 0.9819336
vn -0.003829956 0.003921509 1
vn -0.003829956 0.003921509 1
vn 1 0.003921509 -0.003829956
vn 1 0.003921509 -0.003829956
vn 1 0.003921509 -0.003829956
vn 1 0.003921509 -0.003829956
vn 1 0.003921509 -0.003829956
vn 1 0.003921509 -0.003829956
vn 1 0.003921509 -0.003829956
vn 1 0.003921509 -0.003829956
vn 1 0.003921509 -0.003829956
vn 1 0.003921509 -0.003829956
vn 1 0.003921509 -0.003829956
vn 1 0.003921509 -0.003829956
vn 0.003829956 0.003921509 -1
vn 0.003829956 0.003921509 -1
vn 0.003829956 0.003921509 -1
vn 0.003829956 0.003921509 -1
vn 0.003829956 0.003921509 -1
vn 0.003829956 0.003921509 -1
vn 0.003829956 0.003921509 -1
vn 0.003829956 0.003921509 -1
vn 0.003829956 0.003921509 -1
vn 0.003829956 0.003921509 -1
vn 0.003829956 0.003921509 -1
vn 0.003829956 0.003921509 -1
vn -1 0.003921509 0.003829956
vn -0.9848633 0.003921509 0.1744385
vn -0.9658203 0.003921509 0.2600098
vn -1 0.003921509 0.003829956
vn -1 0.003921509 0.003829956
vn -1 0.003921509 0.003829956

vt 0.333252 -5.960464E-08
vt 0.6665039 0.5004883
vt 0.6665039 -5.960464E-08
vt 0.333252 0.5004883
vt 0.333252 1
vt 0.6665039 1
vt 0.6665039 -5.960464E-08
vt 1 0.5004883
vt 1 -5.960464E-08
vt 0.6665039 0.5004883
vt 0.333252 -5.960464E-08
vt 0.6665039 1
vt 1 1
vt 0.333252 1
vt 0.333252 0.5004883
vt -5.960464E-08 -5.960464E-08
vt -5.960464E-08 1
vt -5.960464E-08 0.5004883
vt 0.6665039 -5.960464E-08
vt 1 0.5004883
vt 1 -5.960464E-08
vt 0.6665039 0.5004883
vt 0.333252 -5.960464E-08
vt 0.6665039 1
vt 1 1
vt 0.333252 1
vt 0.333252 0.5004883
vt -5.960464E-08 -5.960464E-08
vt -5.960464E-08 1
vt -5.960464E-08 0.5004883
vt 0.333252 -5.960464E-08
vt 0.6665039 0.5004883
vt 0.6665039 -5.960464E-08
vt 0.333252 0.5004883
vt 0.333252 1
vt 0.6665039 1

g Building71_27328_104
usemtl Building71_27328_104
usemap Building71_27328_104
f 1/1/1 3/3/3 2/2/2
f 1/1/1 2/2/2 4/4/4
f 2/2/2 5/5/5 4/4/4
f 2/2/2 6/6/6 5/5/5
f 7/7/7 9/9/9 8/8/8
f 7/7/7 8/8/8 10/10/10
f 11/11/11 7/7/7 10/10/10
f 8/8/8 12/12/12 10/10/10
f 8/8/8 13/13/13 12/12/12
f 10/10/10 12/12/12 14/14/14
f 11/11/11 10/10/10 15/15/15
f 10/10/10 14/14/14 15/15/15
f 16/16/16 11/11/11 15/15/15
f 15/15/15 14/14/14 17/17/17
f 16/16/16 15/15/15 18/18/18
f 15/15/15 17/17/17 18/18/18
f 19/19/19 21/21/21 20/20/20
f 19/19/19 20/20/20 22/22/22
f 23/23/23 19/19/19 22/22/22
f 20/20/20 24/24/24 22/22/22
f 20/20/20 25/25/25 24/24/24
f 22/22/22 24/24/24 26/26/26
f 23/23/23 22/22/22 27/27/27
f 22/22/22 26/26/26 27/27/27
f 28/28/28 23/23/23 27/27/27
f 27/27/27 26/26/26 29/29/29
f 28/28/28 27/27/27 30/30/30
f 27/27/27 29/29/29 30/30/30
f 31/31/31 33/33/33 32/32/32
f 31/31/31 32/32/32 34/34/34
f 32/32/32 35/35/35 34/34/34
f 32/32/32 36/36/36 35/35/35
