#Building22_26603_12.obj

v -16.27161 -25.34306 0.9942627
v -14.78516 -24.57776 1.9198
v -14.78516 -25.34461 1.9198
v -16.27161 -24.58318 0.9942627

vn -0.5449219 0.003921509 0.8383789
vn -0.5292969 0.003921509 0.8481445
vn -0.5292969 0.003921509 0.8481445
vn -0.5449219 0.003921509 0.8383789

vt 2.539063 0.0002586842
vt 0.0002586842 1
vt 0.0002586842 0.0002586842
vt 2.539063 0.9912109

g Building22_26603_17
usemtl Building22_26603_17
usemap Building22_26603_17
f 1/1/1 3/3/3 2/2/2
f 2/2/2 4/4/4 1/1/1
