#Building71_(5)_27330_111.obj

v -4.057342 2.379721 -0.1493476
v -3.551759 2.379721 -2.129041
v -1.415629 2.379721 0.008650249
v -3.571421 2.379721 2.162877
v -1.435297 3.896927 4.300741
v 2.856853 3.896927 4.283913
v 0.7008331 3.896927 6.438432
v 0.7207642 3.896927 2.146266
v -3.571421 3.896927 2.162877
v 5.012646 3.896927 2.129687
v -1.415629 3.896927 0.008650249
v 2.876515 3.896927 -0.008004976
v 7.1687 3.896927 -0.02461532
v 5.032577 3.896927 -2.162479
v 0.7403917 3.896927 -2.145869
v -3.551759 3.896927 -2.129041
v 2.896274 3.896927 -4.300178
v -1.395697 3.896927 -4.283516
v 0.7601433 3.896927 -6.43787

vn 0.002656937 1 -0.002883911
vn 0.002656937 1 -0.002883911
vn 0.002656937 1 -0.002883911
vn 0.002656937 1 -0.002883911
vn 0.002656937 1 -0.002883911
vn 0.002656937 1 -0.002883911
vn 0.002656937 1 -0.002883911
vn 0.002656937 1 -0.002883911
vn 0.002656937 1 -0.002883911
vn 0.002656937 1 -0.002883911
vn 0.002656937 1 -0.002883911
vn 0.002656937 1 -0.002883911
vn 0.002656937 1 -0.002883911
vn 0.002656937 1 -0.002883911
vn 0.002656937 1 -0.002883911
vn 0.002656937 1 -0.002883911
vn 0.002656937 1 -0.002883911
vn 0.002656937 1 -0.002883911
vn 0.002656937 1 -0.002883911

vt -5.960464E-08 -5.960464E-08
vt -5.960464E-08 1
vt 1 1
vt 1 -5.960464E-08
vt 0.6665039 -5.960464E-08
vt 1 0.333252
vt 1 -5.960464E-08
vt 0.6665039 0.333252
vt 0.333252 -5.960464E-08
vt 1 0.6665039
vt 0.333252 0.333252
vt 0.6665039 0.6665039
vt 1 1
vt 0.6665039 1
vt 0.333252 0.6665039
vt -5.960464E-08 0.333252
vt 0.333252 1
vt -5.960464E-08 0.6665039
vt -5.960464E-08 1

g Building71_(5)_27330_111
usemtl Building71_(5)_27330_111
usemap Building71_(5)_27330_111
f 1/1/1 3/3/3 2/2/2
f 1/1/1 4/4/4 3/3/3
f 5/5/5 7/7/7 6/6/6
f 5/5/5 6/6/6 8/8/8
f 9/9/9 5/5/5 8/8/8
f 8/8/8 6/6/6 10/10/10
f 9/9/9 8/8/8 11/11/11
f 8/8/8 10/10/10 12/12/12
f 11/11/11 8/8/8 12/12/12
f 12/12/12 10/10/10 13/13/13
f 12/12/12 13/13/13 14/14/14
f 11/11/11 12/12/12 15/15/15
f 15/15/15 12/12/12 14/14/14
f 16/16/16 11/11/11 15/15/15
f 15/15/15 14/14/14 17/17/17
f 16/16/16 15/15/15 18/18/18
f 18/18/18 15/15/15 17/17/17
f 18/18/18 17/17/17 19/19/19
