#Building21_27465_84.obj

v -11.23328 -37.54662 6.394409
v 0.7602539 33.03542 6.394409
v -11.23328 33.03542 6.394409
v 0.7602539 -37.51569 6.394409
v 0.4692383 33.41927 -6.341675
v 6.016296 -37.51569 -6.341675
v 0.4692383 -37.51569 -6.341675
v 6.016296 37.29797 -6.341675
v -9.363281 33.41927 -6.341675
v -11.1405 37.29797 -6.341675
v -9.363281 -37.54662 -6.341675
v -11.1405 -37.54662 -6.341675
v 0.2285767 -37.54662 6.394409
v 0.2285767 22.37901 2.931641
v 0.2285767 -37.54662 2.931641
v 0.2285767 22.37901 6.394409
v 11.23334 23.21777 -6.761108
v 11.23334 -37.51569 -6.394409
v 11.23334 23.21777 -6.394409
v 11.23334 -37.51569 -6.761108
v -11.1405 -37.54662 -6.341675
v -11.1405 37.54662 -6.761108
v -11.1405 37.29797 -6.341675
v -11.1405 -37.54662 -6.761108
v -11.23328 -34.2271 6.394409
v -11.23328 -37.54662 6.761108
v -11.23328 -37.54662 6.394409
v -11.23328 -34.22595 6.761108
v -11.23328 33.03542 6.761108
v -11.23328 33.03542 6.394409
v -1.165894 22.37901 -0.6811523
v 0.2285767 22.37901 6.394409
v -1.165894 22.37901 6.394409
v 0.2285767 22.37901 2.931641
v 4.224182 22.37901 -0.6811523
v 10.61115 22.34808 -0.9963379
v 4.224182 22.36298 -6.588013
v 10.61115 22.34808 -6.588013

vn -0.003921509 0.003921509 -1
vn -0.003921509 0.003921509 -1
vn -0.003921509 0.003921509 -1
vn -0.003921509 0.003921509 -1
vn -0.003921509 0.003921509 1
vn -0.003921509 0.003921509 1
vn -0.003921509 0.003921509 1
vn -0.003921509 0.003921509 1
vn -0.003921509 0.003921509 1
vn -0.003921509 0.003921509 1
vn -0.003921509 0.003921509 1
vn -0.003921509 0.003921509 1
vn 1 0.003921509 0
vn 1 0.003921509 0
vn 1 0.003921509 0
vn 0.9453125 0.3254395 -0.02908325
vn 1 0.003921509 0
vn 1 0.003921509 0
vn 1 0.003921509 0
vn 1 0.003921509 0
vn -1 0.003921509 0
vn -1 0.003921509 0
vn -1 0.003921509 0
vn -1 0.003921509 0
vn -1 0.003921509 0
vn -1 0.003921509 0
vn -1 0.003921509 0
vn -1 0.003921509 0
vn -1 0.003921509 0
vn -1 0.003921509 0
vn 0.003921509 1 0
vn 0.003921509 1 0
vn 0.003921509 1 0
vn 0.003921509 1 0
vn 0.003921509 1 0
vn 0.003921509 1 0
vn -0.003921509 1 0
vn 0.003921509 1 0

vt 1.982422 -7.164063
vt 0.3996582 7.246094
vt 1.982422 7.246094
vt 0.3996582 -7.160156
vt 1.166992 11.65625
vt 2.388672 -11.9375
vt 1.166992 -11.9375
vt 2.388672 12.94531
vt -0.9975586 11.65625
vt -1.388672 12.94531
vt -0.9975586 -11.94531
vt -1.388672 -11.94531
vt -7.164063 1.901367
vt 5.070313 1.142578
vt -7.164063 1.142578
vt 5.070313 1.901367
vt 5.238281 -0.9824219
vt -7.160156 -0.9018555
vt 5.238281 -0.9018555
vt -7.160156 -0.9824219
vt 8.164063 -0.8896484
vt -7.164063 -0.9824219
vt -7.113281 -0.8896484
vt 8.164063 -0.9824219
vt 7.503906 1.901367
vt 8.164063 1.982422
vt 8.164063 1.901367
vt 7.488281 1.982422
vt -6.242188 1.982422
vt -6.242188 1.901367
vt 0.6538086 0.3505859
vt 0.4694824 1.901367
vt 0.6538086 1.901367
vt 0.4694824 1.142578
vt -0.05737305 0.3505859
vt -0.8999023 0.2814941
vt -0.05737305 -0.9438477
vt -0.8999023 -0.9438477

g Building21_27465_84
usemtl Building21_27465_84
usemap Building21_27465_84
f 1/1/1 3/3/3 2/2/2
f 2/2/2 4/4/4 1/1/1
f 5/5/5 7/7/7 6/6/6
f 5/5/5 6/6/6 8/8/8
f 5/5/5 8/8/8 9/9/9
f 8/8/8 10/10/10 9/9/9
f 10/10/10 11/11/11 9/9/9
f 10/10/10 12/12/12 11/11/11
f 13/13/13 15/15/15 14/14/14
f 14/14/14 16/16/16 13/13/13
f 17/17/17 19/19/19 18/18/18
f 18/18/18 20/20/20 17/17/17
f 21/21/21 23/23/23 22/22/22
f 22/22/22 24/24/24 21/21/21
f 25/25/25 27/27/27 26/26/26
f 26/26/26 28/28/28 25/25/25
f 25/25/25 28/28/28 29/29/29
f 29/29/29 30/30/30 25/25/25
f 31/31/31 33/33/33 32/32/32
f 31/31/31 32/32/32 34/34/34
f 31/31/31 34/34/34 35/35/35
f 34/34/34 36/36/36 35/35/35
f 36/36/36 37/37/37 35/35/35
f 36/36/36 38/38/38 37/37/37
