#Building71_(2)_27333_154.obj

v -3.551695 -0.7586079 -2.128961
v -4.533807 -0.7586079 -2.157273
v -5.039451 -0.7586079 -0.1775121
v -4.057252 -0.7586079 -0.1492864
v -4.057252 -0.7586079 -0.1492864
v -5.039451 -0.7586079 -0.1775121
v -4.553488 -0.7586079 2.134741
v -3.571462 -0.7586079 2.162966
v -1.435295 -0.7586079 4.30086
v -2.166053 -0.7586079 5.031099
v -0.0298863 -0.7586079 7.16882
v 0.700785 -0.7586079 6.438494
v 0.7601718 -0.7586079 -6.43772
v 0.02984584 -0.7586079 -7.168736
v -2.12626 -0.7586079 -5.014184
v -1.395675 -0.7586079 -4.283427

vn -0.002773285 -1 0.002773285
vn -0.002773285 -1 0.002773285
vn -0.002773285 -1 0.002773285
vn -0.002773285 -1 0.002773285
vn -0.002773285 -1 0.002773285
vn -0.002773285 -1 0.002773285
vn -0.002773285 -1 0.002773285
vn -0.002773285 -1 0.002773285
vn -0.002773285 -1 0.002773285
vn -0.002773285 -1 0.002773285
vn -0.002773285 -1 0.002773285
vn -0.002773285 -1 0.002773285
vn -0.002773285 -1 0.002773285
vn -0.002773285 -1 0.002773285
vn -0.002773285 -1 0.002773285
vn -0.002773285 -1 0.002773285

vt 0.6665039 0.5004883
vt 0.6665039 0.5004883
vt 1 0.5004883
vt 1 0.5004883
vt -5.960464E-08 0.5004883
vt -5.960464E-08 0.5004883
vt 0.333252 0.5004883
vt 0.333252 0.5004883
vt 0.6665039 0.5004883
vt 0.6665039 0.5004883
vt 1 0.5004883
vt 1 0.5004883
vt -5.960464E-08 0.5004883
vt -5.960464E-08 0.5004883
vt 0.333252 0.5004883
vt 0.333252 0.5004883

g Building71_(2)_27333_154
usemtl Building71_(2)_27333_154
usemap Building71_(2)_27333_154
f 1/1/1 3/3/3 2/2/2
f 1/1/1 4/4/4 3/3/3
f 5/5/5 7/7/7 6/6/6
f 5/5/5 8/8/8 7/7/7
f 9/9/9 11/11/11 10/10/10
f 9/9/9 12/12/12 11/11/11
f 13/13/13 15/15/15 14/14/14
f 13/13/13 16/16/16 15/15/15
