#Building63_28122_25.obj

v 14.10284 5.036652 6.974243
v -14.10284 5.036652 -6.974243
v 14.10284 5.036652 -6.974243
v -14.10284 5.036652 6.974243
v -14.10284 -2.367367 -6.974243
v 14.10284 5.036652 -6.974243
v -14.10284 5.036652 -6.974243
v 14.10284 -2.367367 -6.974243

vn -0.003921509 1 0
vn -0.003921509 1 0
vn -0.003921509 1 0
vn -0.003921509 1 0
vn -0.003921509 0.003921509 -1
vn -0.003921509 0.003921509 -1
vn -0.003921509 0.003921509 -1
vn -0.003921509 0.003921509 -1

vt -0.7114258 -1.791992
vt 1.710938 2.792969
vt 1.710938 -1.791992
vt -0.7114258 2.792969
vt -0.0001467466 1
vt 8.710938 3.773438
vt -0.0001467466 3.773438
vt 8.710938 1

g Building63_28122_25
usemtl Building63_28122_25
usemap Building63_28122_25
f 1/1/1 3/3/3 2/2/2
f 2/2/2 4/4/4 1/1/1
f 5/5/5 7/7/7 6/6/6
f 6/6/6 8/8/8 5/5/5
