#Building22_26603_16.obj

v -14.78979 -24.38431 -1.883423
v -13.27856 -25.34538 -2.761719
v -13.27777 -24.38586 -2.761719
v -14.78979 -25.34461 -1.883423

vn -0.5136719 0.003921509 -0.8579102
vn -0.4902344 0.003921509 -0.871582
vn -0.4902344 0.003921509 -0.871582
vn -0.5136719 0.003921509 -0.8579102

vt 0.0002586842 1.006836
vt 1.259766 -0.1324463
vt 1.259766 1.006836
vt 0.0002586842 -0.1324463

g Building22_26603_16
usemtl Building22_26603_16
usemap Building22_26603_16
f 1/1/1 3/3/3 2/2/2
f 2/2/2 4/4/4 1/1/1
