#Building71_(2)_27333_153.obj

v -4.553488 -0.7586079 2.134741
v -5.039451 -0.7586079 -0.1775121
v -4.090312 2.379721 -0.1495454
v -3.604608 2.379721 2.162966
v -0.0298863 -0.7586079 7.16882
v -2.166053 -0.7586079 5.031099
v -1.458687 2.379721 4.324252
v 0.6773931 2.379721 6.461886
v -2.12626 -0.7586079 -5.014184
v 0.02984584 -0.7586079 -7.168736
v 0.7366936 2.379721 -6.461371
v -1.419326 2.379721 -4.306905
v -5.039451 -0.7586079 -0.1775121
v -4.533807 -0.7586079 -2.157273
v -3.584927 2.379721 -2.12922
v -4.090312 2.379721 -0.1495454
v -3.571462 2.379721 2.162966
v -3.604608 2.379721 2.162966
v -4.090312 2.379721 -0.1495454
v -4.057252 2.379721 -0.1492864
v -4.057252 2.379721 -0.1492864
v -4.090312 2.379721 -0.1495454
v -3.584927 2.379721 -2.12922
v -3.551695 2.379721 -2.128961
v -3.551695 2.379721 -2.128961
v -3.584927 2.379721 -2.12922
v -4.533807 -0.7586079 -2.157273
v -3.551695 -0.7586079 -2.128961
v -3.571462 -0.7586079 2.162966
v -4.553488 -0.7586079 2.134741
v -3.604608 2.379721 2.162966
v -3.571462 2.379721 2.162966
v 0.700785 2.379721 6.438494
v 0.6773931 2.379721 6.461886
v -1.458687 2.379721 4.324252
v -1.435295 2.379721 4.30086
v -1.435295 2.379721 4.30086
v -1.458687 2.379721 4.324252
v -2.166053 -0.7586079 5.031099
v -1.435295 -0.7586079 4.30086
v 0.700785 -0.7586079 6.438494
v -0.0298863 -0.7586079 7.16882
v 0.6773931 2.379721 6.461886
v 0.700785 2.379721 6.438494
v -1.395675 2.379721 -4.283427
v -1.419326 2.379721 -4.306905
v 0.7366936 2.379721 -6.461371
v 0.7601718 2.379721 -6.43772
v 0.7601718 2.379721 -6.43772
v 0.7366936 2.379721 -6.461371
v 0.02984584 -0.7586079 -7.168736
v 0.7601718 -0.7586079 -6.43772
v -1.395675 -0.7586079 -4.283427
v -2.12626 -0.7586079 -5.014184
v -1.419326 2.379721 -4.306905
v -1.395675 2.379721 -4.283427

vn -0.5141602 0.2783203 0.8110352
vn -0.5141602 0.2783203 0.8110352
vn -0.5141602 0.2783203 0.8110352
vn -0.5141602 0.2783203 0.8110352
vn 0.004951477 0.302002 0.953125
vn 0.004951477 0.302002 0.953125
vn 0.004951477 0.302002 0.953125
vn 0.004951477 0.302002 0.953125
vn -0.953125 0.302002 -0.004951477
vn -0.953125 0.302002 -0.004951477
vn -0.953125 0.302002 -0.004951477
vn -0.953125 0.302002 -0.004951477
vn -0.8217773 0.286377 0.4924316
vn -0.8217773 0.286377 0.4924316
vn -0.8217773 0.286377 0.4924316
vn -0.8217773 0.286377 0.4924316
vn -0.002773285 1 0.002773285
vn -0.002773285 1 0.002773285
vn -0.002773285 1 0.002773285
vn -0.002773285 1 0.002773285
vn -0.002773285 1 0.002773285
vn -0.002773285 1 0.002773285
vn -0.002773285 1 0.002773285
vn -0.002773285 1 0.002773285
vn -0.6875 0.003921509 -0.7260742
vn -0.6875 0.003921509 -0.7260742
vn -0.6875 0.003921509 -0.7260742
vn -0.6875 0.003921509 -0.7260742
vn 0.6875 -0.003921509 0.7260742
vn 0.6875 -0.003921509 0.7260742
vn 0.6875 -0.003921509 0.7260742
vn 0.6875 -0.003921509 0.7260742
vn -0.002773285 1 0.002773285
vn -0.002773285 1 0.002773285
vn -0.002773285 1 0.002773285
vn -0.002773285 1 0.002773285
vn -1 0.003921509 0.003829956
vn -1 0.003921509 0.003829956
vn -1 0.003921509 0.003829956
vn -1 0.003921509 0.003829956
vn 1 0.003921509 -0.003829956
vn 1 0.003921509 -0.003829956
vn 1 0.003921509 -0.003829956
vn 1 0.003921509 -0.003829956
vn -0.002773285 1 0.002773285
vn -0.002773285 1 0.002773285
vn -0.002773285 1 0.002773285
vn -0.002773285 1 0.002773285
vn 0.003829956 0.003921509 -1
vn 0.003829956 0.003921509 -1
vn 0.003829956 0.003921509 -1
vn 0.003829956 0.003921509 -1
vn -0.003829956 0.003921509 1
vn -0.003829956 0.003921509 1
vn -0.003829956 0.003921509 1
vn -0.003829956 0.003921509 1

vt 0.333252 0.5004883
vt -5.960464E-08 0.5004883
vt -5.960464E-08 1
vt 0.333252 1
vt 1 0.5004883
vt 0.6665039 0.5004883
vt 0.6665039 1
vt 1 1
vt 0.333252 0.5004883
vt -5.960464E-08 0.5004883
vt -5.960464E-08 1
vt 0.333252 1
vt 1 0.5004883
vt 0.6665039 0.5004883
vt 0.6665039 1
vt 1 1
vt 0.333252 1
vt 0.333252 1
vt -5.960464E-08 1
vt -5.960464E-08 1
vt 1 1
vt 1 1
vt 0.6665039 1
vt 0.6665039 1
vt 0.6665039 1
vt 0.6665039 1
vt 0.6665039 0.5004883
vt 0.6665039 0.5004883
vt 0.333252 0.5004883
vt 0.333252 0.5004883
vt 0.333252 1
vt 0.333252 1
vt 1 1
vt 1 1
vt 0.6665039 1
vt 0.6665039 1
vt 0.6665039 1
vt 0.6665039 1
vt 0.6665039 0.5004883
vt 0.6665039 0.5004883
vt 1 0.5004883
vt 1 0.5004883
vt 1 1
vt 1 1
vt 0.333252 1
vt 0.333252 1
vt -5.960464E-08 1
vt -5.960464E-08 1
vt -5.960464E-08 1
vt -5.960464E-08 1
vt -5.960464E-08 0.5004883
vt -5.960464E-08 0.5004883
vt 0.333252 0.5004883
vt 0.333252 0.5004883
vt 0.333252 1
vt 0.333252 1

g Building71_(2)_27333_153
usemtl Building71_(2)_27333_153
usemap Building71_(2)_27333_153
f 1/1/1 3/3/3 2/2/2
f 1/1/1 4/4/4 3/3/3
f 5/5/5 7/7/7 6/6/6
f 5/5/5 8/8/8 7/7/7
f 9/9/9 11/11/11 10/10/10
f 9/9/9 12/12/12 11/11/11
f 13/13/13 15/15/15 14/14/14
f 13/13/13 16/16/16 15/15/15
f 17/17/17 19/19/19 18/18/18
f 17/17/17 20/20/20 19/19/19
f 21/21/21 23/23/23 22/22/22
f 21/21/21 24/24/24 23/23/23
f 25/25/25 27/27/27 26/26/26
f 25/25/25 28/28/28 27/27/27
f 29/29/29 31/31/31 30/30/30
f 29/29/29 32/32/32 31/31/31
f 33/33/33 35/35/35 34/34/34
f 33/33/33 36/36/36 35/35/35
f 37/37/37 39/39/39 38/38/38
f 37/37/37 40/40/40 39/39/39
f 41/41/41 43/43/43 42/42/42
f 41/41/41 44/44/44 43/43/43
f 45/45/45 47/47/47 46/46/46
f 45/45/45 48/48/48 47/47/47
f 49/49/49 51/51/51 50/50/50
f 49/49/49 52/52/52 51/51/51
f 53/53/53 55/55/55 54/54/54
f 53/53/53 56/56/56 55/55/55
