#Building21_27465_87.obj

v 11.23334 23.21777 -6.394409
v 6.016296 21.57463 -6.394409
v 6.016296 23.21777 -6.394409
v 10.20667 21.57463 -6.394409
v 10.20667 -37.51569 -6.394409
v 11.23334 -37.51569 -6.394409
v 6.016296 37.29797 3.170044
v -11.1405 37.54662 3.170044
v 6.016296 37.54662 3.170044
v -11.1405 37.29797 3.170044
v 11.23334 -37.51569 -6.761108
v 10.20667 -37.51569 -6.394409
v 11.23334 -37.51569 -6.394409
v 10.20667 -37.51569 -6.761108
v 6.016296 37.29797 -6.341675
v 6.016296 -37.51569 -6.761108
v 6.016296 -37.51569 -6.341675
v 6.016296 37.54662 -6.761108
v 6.016296 37.29797 3.170044
v 6.016296 37.54662 3.170044
v 0.7602539 33.03542 6.761108
v 0.7602539 -37.51569 6.394409
v 0.7602539 -37.51569 6.761108
v 0.7602539 33.03542 6.394409
v -11.1405 37.29797 -6.341675
v -11.1405 37.54662 3.170044
v -11.1405 37.29797 3.170044
v -11.1405 37.54662 -6.761108
v -11.23328 33.03542 6.761108
v 0.7602539 33.03542 6.394409
v 0.7602539 33.03542 6.761108
v -11.23328 33.03542 6.394409
v 11.23334 23.21777 -6.761108
v 6.016296 23.21777 -6.394409
v 6.016296 23.21777 -6.761108
v 11.23334 23.21777 -6.394409

vn -0.003921509 0.003921509 1
vn -0.003921509 0.003921509 1
vn -0.003921509 0.003921509 1
vn -0.003921509 0.003921509 1
vn -0.003921509 0.003921509 1
vn -0.003921509 0.003921509 1
vn -0.003921509 0.003921509 1
vn -0.003921509 0.003921509 1
vn -0.003921509 0.003921509 1
vn -0.003921509 0.003921509 1
vn -0.003921509 -1 0
vn -0.003921509 -1 0
vn -0.003921509 -1 0
vn -0.003921509 -1 0
vn 1 0.003921509 0
vn 1 0.003921509 0
vn 1 0.003921509 0
vn 1 0.003921509 0
vn 1 0.003921509 0
vn -1 0.003921509 0
vn 1 0.003921509 0
vn 1 0.003921509 0
vn 1 0.003921509 0
vn 1 0.003921509 0
vn -1 0.003921509 0
vn -1 0.003921509 0
vn -1 0.003921509 0
vn -0.003921509 -1 0
vn -0.003921509 1 0
vn -0.003921509 1 0
vn -0.003921509 1 0
vn -0.003921509 1 0
vn -0.003921509 1 0
vn -0.003921509 1 0
vn -0.003921509 1 0
vn -0.003921509 1 0

vt 0.6186523 0.6220703
vt 0.5644531 0.6054688
vt 0.5644531 0.6220703
vt 0.6079102 0.6054688
vt 0.6079102 0.003000259
vt 0.6186523 0.003000259
vt 0.5644531 0.765625
vt 0.3864746 0.7680664
vt 0.5644531 0.7680664
vt 0.3864746 0.765625
vt 0.7509766 0.003000259
vt 0.7485352 0.003000259
vt 0.7485352 0.003000259
vt 0.7509766 0.003000259
vt 0.7255859 0.765625
vt 0.7280273 0.003000259
vt 0.7255859 0.003000259
vt 0.7280273 0.7680664
vt 0.6630859 0.765625
vt 0.6630859 0.7680664
vt 0.6391602 0.722168
vt 0.6416016 0.003000259
vt 0.6391602 0.003000259
vt 0.6416016 0.722168
vt 0.01809692 0.765625
vt 0.08728027 0.7680664
vt 0.08728027 0.765625
vt 0.01494598 0.7680664
vt 0.01368713 0.9882813
vt 0.3828125 0.9819336
vt 0.3828125 0.9882813
vt 0.01368713 0.9819336
vt 0.7041016 0.7734375
vt 0.5439453 0.7788086
vt 0.5439453 0.7734375
vt 0.7041016 0.7788086

g Building21_27465_87
usemtl Building21_27465_87
usemap Building21_27465_87
f 1/1/1 3/3/3 2/2/2
f 1/1/1 2/2/2 4/4/4
f 1/1/1 4/4/4 5/5/5
f 1/1/1 5/5/5 6/6/6
f 7/7/7 9/9/9 8/8/8
f 8/8/8 10/10/10 7/7/7
f 11/11/11 13/13/13 12/12/12
f 12/12/12 14/14/14 11/11/11
f 15/15/15 17/17/17 16/16/16
f 16/16/16 18/18/18 15/15/15
f 19/19/19 15/15/15 18/18/18
f 18/18/18 20/20/20 19/19/19
f 21/21/21 23/23/23 22/22/22
f 22/22/22 24/24/24 21/21/21
f 25/25/25 27/27/27 26/26/26
f 26/26/26 28/28/28 25/25/25
f 29/29/29 31/31/31 30/30/30
f 30/30/30 32/32/32 29/29/29
f 33/33/33 35/35/35 34/34/34
f 34/34/34 36/36/36 33/33/33
