#Building14_27637_116.obj

v 9.351126 19.56681 -0.78715
v 9.353415 19.56681 0.000406901
v 9.351889 19.56681 0.000406901
v 9.353415 19.56681 -1.507263
v 9.353415 19.56681 -1.507263
v 9.353415 -19.87785 0.000406901
v 9.353415 19.56681 0.000406901
v 9.353415 -19.87785 -1.507263
v -9.660664 -19.87785 -4.835103
v -10.72857 19.56681 -4.835103
v -9.660664 19.56681 -4.835103
v -10.72857 -19.87785 -4.835103
v -10.72857 -19.87785 -4.835103
v -10.73086 19.56681 -6.344299
v -10.72857 19.56681 -4.835103
v -10.7301 -19.87785 -6.344299
v -10.7301 -19.87785 -6.344299
v -9.823831 19.56681 -6.344299
v -10.73086 19.56681 -6.344299
v -9.823068 -19.87785 -6.344299
v 9.305146 -10.10344 -4.556986
v 11.17211 -10.10344 -3.389486
v 10.249 -10.10344 -3.991699
v 11.17211 -10.10344 -1.370137
v 9.305146 -10.10344 -1.401571
v 5.143057 -10.10344 -6.476033
v 7.372366 -10.10344 -5.585835
v 4.272798 -10.10344 -4.419861
v -10.82282 -10.10344 -8.383585
v -10.82282 -10.10344 -6.327413
v 3.279196 -10.10344 -7.223002
v 1.162497 -10.10344 -7.821248
v -0.9901618 -10.10344 -8.269449
v -3.171202 -10.10344 -8.565165
v -5.367552 -10.10344 -8.706868
v -7.566191 -10.10344 -8.693848
v -9.759489 -10.10344 -8.525289
v 4.257488 -14.10314 -6.384887
v 4.974499 -14.10314 -4.900208
v 4.974499 -14.10314 -6.114501
v 4.257488 -14.10314 -5.170695
v 2.80653 -14.10314 -6.871337
v 2.80653 -14.10314 -5.657145
v 1.333345 -14.10314 -7.285766
v 1.333345 -14.10314 -6.07076
v -0.1597277 -14.10314 -7.625936
v -0.1597277 -14.10314 -6.410929
v -1.668924 -14.10314 -7.891744
v -1.668924 -14.10314 -6.676737
v -3.188038 -14.10314 -8.081766
v -3.188038 -14.10314 -6.867574
v -4.715595 -14.10314 -8.196716
v -4.715595 -14.10314 -6.982421
v -6.248544 -14.10314 -8.235779
v -6.248544 -14.10314 -7.021484
v -7.788359 -14.10314 -8.198242
v -7.788359 -14.10314 -6.983947
v -9.325886 -14.10314 -8.085632
v -9.325886 -14.10314 -6.871337
v -10.74617 -14.10314 -7.896321
v -10.74617 -14.10314 -6.682128
v -9.660664 19.56681 -0.000406901
v -9.660664 -19.87785 -4.835103
v -9.660664 19.56681 -4.835103
v -9.660664 -19.87785 -0.000406901
v 9.351126 19.56681 0.78715
v 9.353415 19.56681 0.000406901
v 9.353415 19.56681 1.507263
v 9.351889 19.56681 0.000406901
v 9.353415 19.56681 1.507263
v 9.353415 -19.87785 0.000406901
v 9.353415 -19.87785 1.507263
v 9.353415 19.56681 0.000406901
v -9.660664 -19.87785 4.835103
v -10.72857 19.56681 4.835103
v -10.72857 -19.87785 4.835103
v -9.661427 19.56681 4.835103
v -10.72857 -19.87785 4.835103
v -10.73086 19.56681 6.344299
v -10.7301 -19.87785 6.344299
v -10.72857 19.56681 4.835103
v -10.7301 -19.87785 6.344299
v -9.823831 19.56681 6.344299
v -9.823068 -19.87785 6.344299
v -10.73086 19.56681 6.344299
v 9.305146 -10.10344 4.556986
v 10.249 -10.10344 3.991699
v 11.17211 -10.10344 3.390299
v 11.17211 -10.10344 1.37085
v 9.305146 -10.10344 1.401571
v 5.143057 -10.10344 6.476033
v 7.372366 -10.10344 5.585835
v 4.272798 -10.10344 4.419861
v -10.82282 -10.10344 8.383585
v -10.82282 -10.10344 6.327413
v 3.279196 -10.10344 7.223002
v 1.162497 -10.10344 7.821248
v -0.9901618 -10.10344 8.269449
v -3.171202 -10.10344 8.565165
v -5.367552 -10.10344 8.706868
v -7.566191 -10.10344 8.693848
v -9.759489 -10.10344 8.525289
v 4.974499 -14.10314 4.900208
v 4.257488 -14.10314 6.384887
v 4.974499 -14.10314 6.114501
v 4.257488 -14.10314 5.170695
v 2.80653 -14.10314 6.871337
v 2.80653 -14.10314 5.657145
v 1.333345 -14.10314 7.285766
v 1.333345 -14.10314 6.07076
v -0.1597277 -14.10314 7.625936
v -0.1597277 -14.10314 6.410929
v -1.668924 -14.10314 7.891744
v -1.668924 -14.10314 6.676737
v -3.188038 -14.10314 8.081766
v -3.188038 -14.10314 6.867472
v -4.715595 -14.10314 8.196614
v -4.715595 -14.10314 6.982421
v -6.248544 -14.10314 8.235779
v -6.248544 -14.10314 7.021484
v -7.788359 -14.10314 8.198242
v -7.788359 -14.10314 6.983947
v -9.325886 -14.10314 8.08553
v -9.325886 -14.10314 6.871337
v -10.74617 -14.10314 7.896321
v -10.74617 -14.10314 6.682128
v -9.660664 19.56681 -0.000406901
v -9.660664 -19.87785 4.835103
v -9.660664 -19.87785 -0.000406901
v -9.661427 19.56681 4.835103

vn -0.004901886 1 0
vn -0.004901886 1 0
vn -0.004901886 1 0
vn -0.004901886 1 0
vn 1 0.003137589 0
vn 1 0.003137589 0
vn 1 0.003137589 0
vn 1 0.003137589 0
vn -0.003921509 0.003137589 1
vn -0.003921509 0.003137589 1
vn -0.003921509 0.003137589 1
vn -0.003921509 0.003137589 1
vn -1 -0.003137589 0
vn -1 -0.003137589 0
vn -1 -0.003137589 0
vn -1 -0.003137589 0
vn 0.003921509 0.003137589 -1
vn 0.003921509 0.003137589 -1
vn 0.003921509 0.003137589 -1
vn 0.003921509 0.003137589 -1
vn -0.004901886 -1 0
vn -0.004901886 -1 0
vn -0.004901886 -1 0
vn -0.004901886 -1 0
vn -0.004901886 -1 0
vn -0.004901886 -1 0
vn -0.004901886 -1 0
vn -0.004901886 -1 0
vn -0.004901886 -1 0
vn -0.004901886 -1 0
vn -0.004901886 -1 0
vn -0.004901886 -1 0
vn -0.004901886 -1 0
vn -0.004901886 -1 0
vn -0.004901886 -1 0
vn -0.004901886 -1 0
vn -0.004901886 -1 0
vn -0.004901886 -1 0
vn -0.004901886 -1 0
vn -0.004901886 -1 0
vn -0.004901886 -1 0
vn -0.004901886 -1 0
vn -0.004901886 -1 0
vn -0.004901886 -1 0
vn -0.004901886 -1 0
vn -0.004901886 -1 0
vn -0.004901886 -1 0
vn -0.004901886 -1 0
vn -0.004901886 -1 0
vn -0.004901886 -1 0
vn -0.004901886 -1 0
vn -0.004901886 -1 0
vn -0.004901886 -1 0
vn -0.004901886 -1 0
vn -0.004901886 -1 0
vn -0.004901886 -1 0
vn -0.004901886 -1 0
vn -0.004901886 -1 0
vn -0.004901886 -1 0
vn -0.004901886 -1 0
vn -0.004901886 -1 0
vn -1 -0.003137589 0
vn -1 -0.003137589 0
vn -1 -0.003137589 0
vn -1 -0.003137589 0
vn -0.004901886 1 0
vn -0.004901886 1 0
vn -0.004901886 1 0
vn -0.004901886 1 0
vn 1 0.003137589 0
vn 1 0.003137589 0
vn 1 0.003137589 0
vn 1 0.003137589 0
vn 0.003921509 0.003137589 -1
vn 0.003921509 0.003137589 -1
vn 0.003921509 0.003137589 -1
vn 0.003921509 0.003137589 -1
vn -1 -0.003137589 0
vn -1 -0.003137589 0
vn -1 -0.003137589 0
vn -1 -0.003137589 0
vn -0.003921509 0.003137589 1
vn -0.003921509 0.003137589 1
vn -0.003921509 0.003137589 1
vn -0.003921509 0.003137589 1
vn -0.004901886 -1 0
vn -0.004901886 -1 0
vn -0.004901886 -1 0
vn -0.004901886 -1 0
vn -0.004901886 -1 0
vn -0.004901886 -1 0
vn -0.004901886 -1 0
vn -0.004901886 -1 0
vn -0.004901886 -1 0
vn -0.004901886 -1 0
vn -0.004901886 -1 0
vn -0.004901886 -1 0
vn -0.004901886 -1 0
vn -0.004901886 -1 0
vn -0.004901886 -1 0
vn -0.004901886 -1 0
vn -0.004901886 -1 0
vn -0.004901886 -1 0
vn -0.004901886 -1 0
vn -0.004901886 -1 0
vn -0.004901886 -1 0
vn -0.004901886 -1 0
vn -0.004901886 -1 0
vn -0.004901886 -1 0
vn -0.004901886 -1 0
vn -0.004901886 -1 0
vn -0.004901886 -1 0
vn -0.004901886 -1 0
vn -0.004901886 -1 0
vn -0.004901886 -1 0
vn -0.004901886 -1 0
vn -0.004901886 -1 0
vn -0.004901886 -1 0
vn -0.004901886 -1 0
vn -0.004901886 -1 0
vn -0.004901886 -1 0
vn -0.004901886 -1 0
vn -0.004901886 -1 0
vn -0.004901886 -1 0
vn -0.004901886 -1 0
vn -0.004901886 -1 0
vn -1 -0.003137589 0
vn -1 -0.003137589 0
vn -1 -0.003137589 0
vn -1 -0.003137589 0

vt -6.074219 2.353516
vt -6.074219 3.478516
vt -6.074219 3.478516
vt -6.074219 1.323242
vt -0.3234863 14.67969
vt -2.478516 -13.67969
vt -2.478516 14.67969
vt -0.3234863 -13.67969
vt -5.375 -13.67969
vt -6.074219 14.67969
vt -5.375 14.67969
vt -6.074219 -13.67969
vt -3.4375 -13.67969
vt -5.597656 14.67969
vt -3.4375 14.67969
vt -5.597656 -13.67969
vt 7.074219 -13.67969
vt 6.480469 14.67969
vt 7.074219 14.67969
vt 6.480469 -13.67969
vt -7.515625 1.003906
vt -9.15625 2.226563
vt -8.34375 1.595703
vt -9.15625 4.339844
vt -7.515625 4.308594
vt -3.861328 -1.004883
vt -5.820313 -0.07293701
vt -3.097656 1.147461
vt 10.15625 -3.001953
vt 10.15625 -0.8496094
vt -2.226563 -1.786133
vt -0.3674316 -2.414063
vt 1.522461 -2.882813
vt 3.4375 -3.191406
vt 5.367188 -3.339844
vt 7.296875 -3.326172
vt 9.21875 -3.150391
vt -3.083984 -0.909668
vt -3.714844 0.6450195
vt -3.714844 -0.6264648
vt -3.083984 0.3615723
vt -1.810547 -1.418945
vt -1.810547 -0.1470947
vt -0.5170898 -1.852539
vt -0.5170898 -0.5810547
vt 0.793457 -2.208984
vt 0.793457 -0.9365234
vt 2.119141 -2.486328
vt 2.119141 -1.214844
vt 3.453125 -2.685547
vt 3.453125 -1.414063
vt 4.792969 -2.806641
vt 4.792969 -1.53418
vt 6.140625 -2.847656
vt 6.140625 -1.576172
vt 7.492188 -2.808594
vt 7.492188 -1.536133
vt 8.84375 -2.689453
vt 8.84375 -1.418945
vt 10.08594 -2.492188
vt 10.08594 -1.220703
vt 3.478516 14.67969
vt -3.4375 -13.67969
vt -3.4375 14.67969
vt 3.478516 -13.67969
vt -6.074219 2.353516
vt -6.074219 3.478516
vt -6.074219 1.323242
vt -6.074219 3.478516
vt -0.3234863 14.67969
vt -2.478516 -13.67969
vt -0.3234863 -13.67969
vt -2.478516 14.67969
vt -5.375 -13.67969
vt -6.074219 14.67969
vt -6.074219 -13.67969
vt -5.375 14.67969
vt -3.4375 -13.67969
vt -5.597656 14.67969
vt -5.597656 -13.67969
vt -3.4375 14.67969
vt 7.074219 -13.67969
vt 6.480469 14.67969
vt 6.480469 -13.67969
vt 7.074219 14.67969
vt -7.515625 1.003906
vt -8.34375 1.595703
vt -9.15625 2.226563
vt -9.15625 4.339844
vt -7.515625 4.308594
vt -3.861328 -1.004883
vt -5.820313 -0.07293701
vt -3.097656 1.147461
vt 10.15625 -3.001953
vt 10.15625 -0.8496094
vt -2.226563 -1.786133
vt -0.3674316 -2.414063
vt 1.522461 -2.882813
vt 3.4375 -3.191406
vt 5.367188 -3.339844
vt 7.296875 -3.326172
vt 9.21875 -3.150391
vt -3.714844 0.6450195
vt -3.083984 -0.909668
vt -3.714844 -0.6264648
vt -3.083984 0.3615723
vt -1.810547 -1.418945
vt -1.810547 -0.1470947
vt -0.5170898 -1.852539
vt -0.5170898 -0.5810547
vt 0.793457 -2.208984
vt 0.793457 -0.9365234
vt 2.119141 -2.486328
vt 2.119141 -1.214844
vt 3.453125 -2.685547
vt 3.453125 -1.414063
vt 4.792969 -2.806641
vt 4.792969 -1.53418
vt 6.140625 -2.847656
vt 6.140625 -1.576172
vt 7.492188 -2.808594
vt 7.492188 -1.536133
vt 8.84375 -2.689453
vt 8.84375 -1.418945
vt 10.08594 -2.492188
vt 10.08594 -1.220703
vt 3.478516 14.67969
vt -3.4375 -13.67969
vt 3.478516 -13.67969
vt -3.4375 14.67969

g Building14_27637_116
usemtl Building14_27637_116
usemap Building14_27637_116
f 1/1/1 3/3/3 2/2/2
f 2/2/2 4/4/4 1/1/1
f 5/5/5 7/7/7 6/6/6
f 6/6/6 8/8/8 5/5/5
f 9/9/9 11/11/11 10/10/10
f 10/10/10 12/12/12 9/9/9
f 13/13/13 15/15/15 14/14/14
f 14/14/14 16/16/16 13/13/13
f 17/17/17 19/19/19 18/18/18
f 18/18/18 20/20/20 17/17/17
f 21/21/21 23/23/23 22/22/22
f 21/21/21 22/22/22 24/24/24
f 21/21/21 24/24/24 25/25/25
f 26/26/26 21/21/21 25/25/25
f 26/26/26 27/27/27 21/21/21
f 26/26/26 25/25/25 28/28/28
f 29/29/29 26/26/26 28/28/28
f 29/29/29 28/28/28 30/30/30
f 29/29/29 31/31/31 26/26/26
f 29/29/29 32/32/32 31/31/31
f 29/29/29 33/33/33 32/32/32
f 29/29/29 34/34/34 33/33/33
f 29/29/29 35/35/35 34/34/34
f 29/29/29 36/36/36 35/35/35
f 29/29/29 37/37/37 36/36/36
f 38/38/38 40/40/40 39/39/39
f 39/39/39 41/41/41 38/38/38
f 42/42/42 38/38/38 41/41/41
f 41/41/41 43/43/43 42/42/42
f 44/44/44 42/42/42 43/43/43
f 43/43/43 45/45/45 44/44/44
f 46/46/46 44/44/44 45/45/45
f 45/45/45 47/47/47 46/46/46
f 48/48/48 46/46/46 47/47/47
f 47/47/47 49/49/49 48/48/48
f 50/50/50 48/48/48 49/49/49
f 49/49/49 51/51/51 50/50/50
f 52/52/52 50/50/50 51/51/51
f 51/51/51 53/53/53 52/52/52
f 54/54/54 52/52/52 53/53/53
f 53/53/53 55/55/55 54/54/54
f 56/56/56 54/54/54 55/55/55
f 55/55/55 57/57/57 56/56/56
f 58/58/58 56/56/56 57/57/57
f 57/57/57 59/59/59 58/58/58
f 60/60/60 58/58/58 59/59/59
f 59/59/59 61/61/61 60/60/60
f 62/62/62 64/64/64 63/63/63
f 63/63/63 65/65/65 62/62/62
f 66/66/66 68/68/68 67/67/67
f 67/67/67 69/69/69 66/66/66
f 70/70/70 72/72/72 71/71/71
f 71/71/71 73/73/73 70/70/70
f 74/74/74 76/76/76 75/75/75
f 75/75/75 77/77/77 74/74/74
f 78/78/78 80/80/80 79/79/79
f 79/79/79 81/81/81 78/78/78
f 82/82/82 84/84/84 83/83/83
f 83/83/83 85/85/85 82/82/82
f 86/86/86 88/88/88 87/87/87
f 86/86/86 89/89/89 88/88/88
f 86/86/86 90/90/90 89/89/89
f 91/91/91 90/90/90 86/86/86
f 91/91/91 86/86/86 92/92/92
f 91/91/91 93/93/93 90/90/90
f 94/94/94 93/93/93 91/91/91
f 94/94/94 95/95/95 93/93/93
f 94/94/94 91/91/91 96/96/96
f 94/94/94 96/96/96 97/97/97
f 94/94/94 97/97/97 98/98/98
f 94/94/94 98/98/98 99/99/99
f 94/94/94 99/99/99 100/100/100
f 94/94/94 100/100/100 101/101/101
f 94/94/94 101/101/101 102/102/102
f 103/103/103 105/105/105 104/104/104
f 104/104/104 106/106/106 103/103/103
f 106/106/106 104/104/104 107/107/107
f 107/107/107 108/108/108 106/106/106
f 108/108/108 107/107/107 109/109/109
f 109/109/109 110/110/110 108/108/108
f 110/110/110 109/109/109 111/111/111
f 111/111/111 112/112/112 110/110/110
f 112/112/112 111/111/111 113/113/113
f 113/113/113 114/114/114 112/112/112
f 114/114/114 113/113/113 115/115/115
f 115/115/115 116/116/116 114/114/114
f 116/116/116 115/115/115 117/117/117
f 117/117/117 118/118/118 116/116/116
f 118/118/118 117/117/117 119/119/119
f 119/119/119 120/120/120 118/118/118
f 120/120/120 119/119/119 121/121/121
f 121/121/121 122/122/122 120/120/120
f 122/122/122 121/121/121 123/123/123
f 123/123/123 124/124/124 122/122/122
f 124/124/124 123/123/123 125/125/125
f 125/125/125 126/126/126 124/124/124
f 127/127/127 129/129/129 128/128/128
f 128/128/128 130/130/130 127/127/127
