#Building71_27327_119.obj

v -1.435242 -3.896936 4.300751
v 0.7008667 -3.896936 6.438385
v 2.856873 -3.896936 4.283905
v 0.7207642 -3.896936 2.146271
v -3.571411 -3.896936 2.162872
v 5.012695 -3.896936 2.129608
v -1.415588 -3.896936 0.008636475
v -4.057312 -3.896936 -0.1493225
v -3.551697 -3.896936 -2.129059
v 2.876587 -3.896936 -0.008026123
v 7.168701 -3.896936 -0.02462769
v 5.032593 -3.896936 -2.162506
v 0.7404785 -3.896936 -2.145905
v -1.395691 -3.896936 -4.283539
v 2.89624 -3.896936 -4.30014
v 0.7601318 -3.896936 -6.437836

vn -0.003921509 -1 0
vn -0.003921509 -1 0
vn -0.003921509 -1 0
vn -0.003921509 -1 0
vn -0.003921509 -1 0
vn -0.003921509 -1 0
vn -0.003921509 -1 0
vn -0.003921509 -1 0
vn -0.003921509 -1 0
vn -0.003921509 -1 0
vn -0.003921509 -1 0
vn -0.003921509 -1 0
vn -0.003921509 -1 0
vn -0.003921509 -1 0
vn -0.003921509 -1 0
vn -0.003921509 -1 0

vt 0.333252 -5.960464E-08
vt -5.960464E-08 -5.960464E-08
vt -5.960464E-08 0.333252
vt 0.333252 0.333252
vt 0.6665039 -5.960464E-08
vt -5.960464E-08 0.6665039
vt 0.6665039 0.333252
vt 1 -5.960464E-08
vt 1 0.333252
vt 0.333252 0.6665039
vt -5.960464E-08 1
vt 0.333252 1
vt 0.6665039 0.6665039
vt 1 0.6665039
vt 0.6665039 1
vt 1 1

g Building71_27327_119
usemtl Building71_27327_119
usemap Building71_27327_119
f 1/1/1 3/3/3 2/2/2
f 1/1/1 4/4/4 3/3/3
f 5/5/5 4/4/4 1/1/1
f 4/4/4 6/6/6 3/3/3
f 5/5/5 7/7/7 4/4/4
f 8/8/8 7/7/7 5/5/5
f 8/8/8 9/9/9 7/7/7
f 4/4/4 10/10/10 6/6/6
f 7/7/7 10/10/10 4/4/4
f 10/10/10 11/11/11 6/6/6
f 10/10/10 12/12/12 11/11/11
f 9/9/9 13/13/13 7/7/7
f 7/7/7 13/13/13 10/10/10
f 13/13/13 12/12/12 10/10/10
f 9/9/9 14/14/14 13/13/13
f 13/13/13 15/15/15 12/12/12
f 14/14/14 15/15/15 13/13/13
f 14/14/14 16/16/16 15/15/15
