#Building22_26603_18.obj

v 17.03235 -24.43461 -9.696655
v 15.28046 -25.36318 -9.7771
v 17.03082 -25.36395 -9.696655
v 15.28046 -24.41758 -9.7771

vn 0.04315186 -0.003921509 -0.9990234
vn 0.02745056 -0.003921509 -0.9995117
vn 0.04315186 -0.003921509 -0.9990234
vn 0.02745056 -0.003921509 -0.9995117

vt 1.990234 0.9760742
vt 0.9946289 0.0002586842
vt 1.989258 0.0002586842
vt 0.9946289 0.9921875

g Building22_26603_18
usemtl Building22_26603_18
usemap Building22_26603_18
f 1/1/1 3/3/3 2/2/2
f 2/2/2 4/4/4 1/1/1
