#Building71_(2)_27333_149.obj

v -3.571462 -3.896936 2.162966
v -1.435295 -0.7586079 4.30086
v -1.435295 -3.896936 4.30086
v -3.571462 -0.7586079 2.162966
v -3.571462 2.379721 2.162966
v -1.435295 2.379721 4.30086
v 5.012652 -3.896936 2.129735
v 7.168672 -0.7586079 -0.02455799
v 7.168672 -3.896936 -0.02455799
v 5.012652 -0.7586079 2.129735
v 2.856891 -3.896936 4.283942
v 5.012652 2.379721 2.129735
v 7.168672 2.379721 -0.02455799
v 2.856891 2.379721 4.283942
v 2.856891 -0.7586079 4.283942
v 0.700785 -3.896936 6.438494
v 0.700785 2.379721 6.438494
v 0.700785 -0.7586079 6.438494
v 2.896252 -3.896936 -4.300086
v 0.7601718 -0.7586079 -6.43772
v 0.7601718 -3.896936 -6.43772
v 2.896252 -0.7586079 -4.300086
v 5.032505 -3.896936 -2.162451
v 2.896252 2.379721 -4.300086
v 0.7601718 2.379721 -6.43772
v 5.032505 2.379721 -2.162451
v 5.032505 -0.7586079 -2.162451
v 7.168672 -3.896936 -0.02455799
v 7.168672 2.379721 -0.02455799
v 7.168672 -0.7586079 -0.02455799
v -1.395675 -3.896936 -4.283427
v -3.551695 -0.7586079 -2.128961
v -3.551695 -3.896936 -2.128961
v -1.395675 -0.7586079 -4.283427
v -1.395675 2.379721 -4.283427
v -3.551695 2.379721 -2.128961

vn -0.2912598 0.003921509 0.956543
vn -0.003829956 0.003921509 1
vn -0.003829956 0.003921509 1
vn -0.1879883 0.003921509 0.9819336
vn -0.003829956 0.003921509 1
vn -0.003829956 0.003921509 1
vn 1 0.003921509 -0.003829956
vn 1 0.003921509 -0.003829956
vn 1 0.003921509 -0.003829956
vn 1 0.003921509 -0.003829956
vn 1 0.003921509 -0.003829956
vn 1 0.003921509 -0.003829956
vn 1 0.003921509 -0.003829956
vn 1 0.003921509 -0.003829956
vn 1 0.003921509 -0.003829956
vn 1 0.003921509 -0.003829956
vn 1 0.003921509 -0.003829956
vn 1 0.003921509 -0.003829956
vn 0.003829956 0.003921509 -1
vn 0.003829956 0.003921509 -1
vn 0.003829956 0.003921509 -1
vn 0.003829956 0.003921509 -1
vn 0.003829956 0.003921509 -1
vn 0.003829956 0.003921509 -1
vn 0.003829956 0.003921509 -1
vn 0.003829956 0.003921509 -1
vn 0.003829956 0.003921509 -1
vn 0.003829956 0.003921509 -1
vn 0.003829956 0.003921509 -1
vn 0.003829956 0.003921509 -1
vn -1 0.003921509 0.003829956
vn -0.9848633 0.003921509 0.1744385
vn -0.9658203 0.003921509 0.2600098
vn -1 0.003921509 0.003829956
vn -1 0.003921509 0.003829956
vn -1 0.003921509 0.003829956

vt 0.333252 -5.960464E-08
vt 0.6665039 0.5004883
vt 0.6665039 -5.960464E-08
vt 0.333252 0.5004883
vt 0.333252 1
vt 0.6665039 1
vt 0.6665039 -5.960464E-08
vt 1 0.5004883
vt 1 -5.960464E-08
vt 0.6665039 0.5004883
vt 0.333252 -5.960464E-08
vt 0.6665039 1
vt 1 1
vt 0.333252 1
vt 0.333252 0.5004883
vt -5.960464E-08 -5.960464E-08
vt -5.960464E-08 1
vt -5.960464E-08 0.5004883
vt 0.6665039 -5.960464E-08
vt 1 0.5004883
vt 1 -5.960464E-08
vt 0.6665039 0.5004883
vt 0.333252 -5.960464E-08
vt 0.6665039 1
vt 1 1
vt 0.333252 1
vt 0.333252 0.5004883
vt -5.960464E-08 -5.960464E-08
vt -5.960464E-08 1
vt -5.960464E-08 0.5004883
vt 0.333252 -5.960464E-08
vt 0.6665039 0.5004883
vt 0.6665039 -5.960464E-08
vt 0.333252 0.5004883
vt 0.333252 1
vt 0.6665039 1

g Building71_(2)_27333_149
usemtl Building71_(2)_27333_149
usemap Building71_(2)_27333_149
f 1/1/1 3/3/3 2/2/2
f 1/1/1 2/2/2 4/4/4
f 2/2/2 5/5/5 4/4/4
f 2/2/2 6/6/6 5/5/5
f 7/7/7 9/9/9 8/8/8
f 7/7/7 8/8/8 10/10/10
f 11/11/11 7/7/7 10/10/10
f 8/8/8 12/12/12 10/10/10
f 8/8/8 13/13/13 12/12/12
f 10/10/10 12/12/12 14/14/14
f 11/11/11 10/10/10 15/15/15
f 10/10/10 14/14/14 15/15/15
f 16/16/16 11/11/11 15/15/15
f 15/15/15 14/14/14 17/17/17
f 16/16/16 15/15/15 18/18/18
f 15/15/15 17/17/17 18/18/18
f 19/19/19 21/21/21 20/20/20
f 19/19/19 20/20/20 22/22/22
f 23/23/23 19/19/19 22/22/22
f 20/20/20 24/24/24 22/22/22
f 20/20/20 25/25/25 24/24/24
f 22/22/22 24/24/24 26/26/26
f 23/23/23 22/22/22 27/27/27
f 22/22/22 26/26/26 27/27/27
f 28/28/28 23/23/23 27/27/27
f 27/27/27 26/26/26 29/29/29
f 28/28/28 27/27/27 30/30/30
f 27/27/27 29/29/29 30/30/30
f 31/31/31 33/33/33 32/32/32
f 31/31/31 32/32/32 34/34/34
f 32/32/32 35/35/35 34/34/34
f 32/32/32 36/36/36 35/35/35
