#Building14_27637_118.obj

v 14.90599 -25.10251 0.000406901
v 14.90136 -22.70315 -3.957214
v 14.90136 -25.10251 -3.957926
v 14.90599 -22.70315 0.000406901
v 14.90599 -25.10251 0.000406901
v 14.90136 -22.70315 3.957214
v 14.90599 -22.70315 0.000406901
v 14.90136 -25.10251 3.957926

vn 1 0.003137589 0
vn 1 0.003137589 0
vn 1 0.003137589 0
vn 1 0.003137589 0
vn 1 0.003137589 0
vn 1 0.003137589 0
vn 1 0.003137589 0
vn 1 0.003137589 0

vt 0.7387695 -0.0001375675
vt 2.25 1.089844
vt 2.25 -0.0001375675
vt 0.7387695 1.089844
vt 0.7387695 -0.0001375675
vt 2.25 1.089844
vt 0.7387695 1.089844
vt 2.25 -0.0001375675

g Building14_27637_118
usemtl Building14_27637_118
usemap Building14_27637_118
f 1/1/1 3/3/3 2/2/2
f 2/2/2 4/4/4 1/1/1
f 5/5/5 7/7/7 6/6/6
f 6/6/6 8/8/8 5/5/5
