#Building22_26603_7.obj

v 15.14813 25.34377 -4.424683
v 15.15741 22.57663 4.348022
v 15.14655 22.57663 -4.424683
v 15.15894 25.34377 4.348022
v 9.365417 25.34764 -4.417725
v 9.373169 19.69574 4.355713
v 9.362366 19.69574 -4.417725
v 9.376282 25.34764 4.355713
v 15.14813 25.34377 -4.424683
v 16.05347 19.69186 -4.425415
v 16.05737 25.34377 -4.425415
v 15.14655 22.57663 -4.424683
v 14.46948 22.57663 -4.42395
v 9.365417 25.34764 -4.417725
v 14.47101 25.34454 -4.42395
v 9.362366 19.69574 -4.417725
v 9.376282 25.34764 4.355713
v 16.06433 19.69186 4.34729
v 9.373169 19.69574 4.355713
v 14.48035 22.57663 4.349609
v 14.48187 25.34454 4.349609
v 15.15741 22.57663 4.348022
v 15.15894 25.34377 4.348022
v 16.06818 25.34377 4.34729
v -8.572998 -21.25735 0.01074219
v -10.1593 -21.25657 4.404541
v -8.566833 -21.25735 5.134155
v -10.16473 -21.25657 0.0123291
v -11.72784 -21.25502 3.625244
v -10.17017 -21.25657 -4.379761
v -8.579163 -21.25735 -5.113403
v -11.73633 -21.25502 -3.59668
v -11.73248 -21.25502 0.01464844
v -13.27002 -21.25889 2.793457
v -13.27698 -21.25889 -2.760986
v -13.27386 -21.25889 0.01623535
v -1.998718 -21.26121 0.002319336
v -3.659302 -21.26044 7.009155
v -1.989441 -21.26121 7.533813
v -3.667847 -21.26044 0.004638672
v -4.41687 -21.25967 6.748413
v -4.425415 -21.25967 0.005371094
v -4.433899 -21.25967 -6.737549
v -3.676331 -21.26044 -6.999878
v -2.007996 -21.26121 -7.529175
v 13.54401 -21.27127 -0.01708984
v 11.80603 -21.26973 9.741455
v 13.5564 -21.27127 9.768555
v 11.79364 -21.26973 -0.01477051
v 10.05798 -21.26895 9.654053
v 11.78204 -21.26973 -9.770874
v 13.53162 -21.27127 -9.80188
v 10.034 -21.26895 -9.679565
v 10.04559 -21.26895 -0.01245117
v 9.293457 -21.26818 9.595947
v 9.26947 -21.26818 -9.61853
v 9.28186 -21.26818 -0.01159668
v 4.660706 -21.26586 -0.005493164
v 3.103027 -21.26431 8.770264
v 4.672302 -21.26586 9.048096
v 3.092163 -21.26431 -0.00390625
v 2.131897 -21.26431 8.567627
v 2.121033 -21.26431 -0.002319336
v 2.110229 -21.26431 -8.572266
v 3.08136 -21.26431 -8.778076
v 4.649841 -21.26586 -9.059814

vn -1 0.003921509 0
vn -1 0.003921509 0
vn -1 0.003921509 0
vn -1 0.003921509 0
vn -1 0.003921509 0
vn -1 0.003921509 0
vn -1 0.003921509 0
vn -1 0.003921509 0
vn -0.003921509 0.003921509 -1
vn -0.003921509 0.003921509 -1
vn -0.003921509 0.003921509 -1
vn -0.003921509 0.003921509 -1
vn -0.003921509 0.003921509 -1
vn -0.003921509 0.003921509 -1
vn -0.003921509 0.003921509 -1
vn -0.003921509 0.003921509 -1
vn 0.003921509 -0.003921509 1
vn 0.003921509 -0.003921509 1
vn 0.003921509 -0.003921509 1
vn 0.003921509 -0.003921509 1
vn 0.003921509 -0.003921509 1
vn 0.003921509 -0.003921509 1
vn 0.003921509 -0.003921509 1
vn 0.003921509 -0.003921509 1
vn -0.003921509 -1 0
vn -0.003921509 -1 0
vn -0.003921509 -1 0
vn -0.003921509 -1 0
vn 0.003921509 -1 0
vn -0.003921509 -1 0
vn -0.003921509 -1 0
vn 0.003921509 -1 0
vn 0.003921509 -1 0
vn 0.003921509 -1 0
vn 0.003921509 -1 0
vn 0.003921509 -1 0
vn -0.003921509 -1 0
vn -0.003921509 -1 0
vn -0.003921509 -1 0
vn -0.003921509 -1 0
vn -0.003921509 -1 0
vn -0.003921509 -1 0
vn -0.003921509 -1 0
vn -0.003921509 -1 0
vn -0.003921509 -1 0
vn -0.003921509 -1 0
vn -0.003921509 -1 0
vn -0.003921509 -1 0
vn -0.003921509 -1 0
vn -0.003921509 -1 0
vn -0.003921509 -1 0
vn -0.003921509 -1 0
vn -0.003921509 -1 0
vn -0.003921509 -1 0
vn -0.003921509 -1 0
vn -0.003921509 -1 0
vn -0.003921509 -1 0
vn -0.003921509 -1 0
vn -0.003921509 -1 0
vn -0.003921509 -1 0
vn -0.003921509 -1 0
vn -0.003921509 -1 0
vn -0.003921509 -1 0
vn -0.003921509 -1 0
vn -0.003921509 -1 0
vn -0.003921509 -1 0

vt 3.951172 3.951172
vt -2.951172 0.5712891
vt 3.951172 0.5712891
vt -2.951172 3.951172
vt 3.951172 3.951172
vt -2.951172 -2.951172
vt 3.951172 -2.951172
vt -2.951172 3.951172
vt 3.013672 3.951172
vt 3.951172 -2.951172
vt 3.951172 3.951172
vt 3.013672 0.5712891
vt 2.314453 0.5712891
vt -2.951172 3.951172
vt 2.314453 3.951172
vt -2.951172 -2.951172
vt 3.951172 3.951172
vt -2.951172 -2.951172
vt 3.951172 -2.951172
vt -1.31543 0.5712891
vt -1.31543 3.951172
vt -2.013672 0.5712891
vt -2.013672 3.951172
vt -2.951172 3.951172
vt 13.75 0.5004883
vt 16.17188 9.65625
vt 13.75 11.1875
vt 16.17188 0.5004883
vt 18.5625 8.03125
vt 16.17188 -8.65625
vt 13.75 -10.1875
vt 18.5625 -7.03125
vt 18.5625 0.5004883
vt 20.90625 6.292969
vt 20.90625 -5.292969
vt 20.90625 0.5004883
vt 3.748047 0.5004883
vt 6.289063 15.10938
vt 3.748047 16.20313
vt 6.289063 0.5004883
vt 7.441406 14.5625
vt 7.441406 0.5004883
vt 7.441406 -13.5625
vt 6.289063 -14.10938
vt 3.748047 -15.20313
vt -19.90625 0.5004883
vt -17.25 20.84375
vt -19.90625 20.90625
vt -17.25 0.5004883
vt -14.58594 20.65625
vt -17.25 -19.84375
vt -19.90625 -19.90625
vt -14.58594 -19.65625
vt -14.58594 0.5004883
vt -13.42188 20.53125
vt -13.42188 -19.53125
vt -13.42188 0.5004883
vt -6.386719 0.5004883
vt -4 18.79688
vt -6.386719 19.375
vt -4 0.5004883
vt -2.523438 18.375
vt -2.523438 0.5004883
vt -2.523438 -17.375
vt -4 -17.79688
vt -6.386719 -18.375

g Building22_26603_12
usemtl Building22_26603_12
usemap Building22_26603_12
f 1/1/1 3/3/3 2/2/2
f 2/2/2 4/4/4 1/1/1
f 5/5/5 7/7/7 6/6/6
f 6/6/6 8/8/8 5/5/5
f 9/9/9 11/11/11 10/10/10
f 12/12/12 9/9/9 10/10/10
f 13/13/13 12/12/12 10/10/10
f 13/13/13 10/10/10 14/14/14
f 13/13/13 14/14/14 15/15/15
f 10/10/10 16/16/16 14/14/14
f 17/17/17 19/19/19 18/18/18
f 17/17/17 18/18/18 20/20/20
f 17/17/17 20/20/20 21/21/21
f 18/18/18 22/22/22 20/20/20
f 18/18/18 23/23/23 22/22/22
f 18/18/18 24/24/24 23/23/23
f 25/25/25 27/27/27 26/26/26
f 26/26/26 28/28/28 25/25/25
f 28/28/28 26/26/26 29/29/29
f 25/25/25 28/28/28 30/30/30
f 30/30/30 31/31/31 25/25/25
f 32/32/32 30/30/30 28/28/28
f 29/29/29 33/33/33 28/28/28
f 28/28/28 33/33/33 32/32/32
f 33/33/33 29/29/29 34/34/34
f 35/35/35 32/32/32 33/33/33
f 34/34/34 36/36/36 33/33/33
f 33/33/33 36/36/36 35/35/35
f 37/37/37 39/39/39 38/38/38
f 38/38/38 40/40/40 37/37/37
f 40/40/40 38/38/38 41/41/41
f 41/41/41 42/42/42 40/40/40
f 40/40/40 42/42/42 43/43/43
f 43/43/43 44/44/44 40/40/40
f 37/37/37 40/40/40 44/44/44
f 44/44/44 45/45/45 37/37/37
f 46/46/46 48/48/48 47/47/47
f 47/47/47 49/49/49 46/46/46
f 49/49/49 47/47/47 50/50/50
f 46/46/46 49/49/49 51/51/51
f 51/51/51 52/52/52 46/46/46
f 53/53/53 51/51/51 49/49/49
f 50/50/50 54/54/54 49/49/49
f 49/49/49 54/54/54 53/53/53
f 54/54/54 50/50/50 55/55/55
f 56/56/56 53/53/53 54/54/54
f 55/55/55 57/57/57 54/54/54
f 54/54/54 57/57/57 56/56/56
f 58/58/58 60/60/60 59/59/59
f 59/59/59 61/61/61 58/58/58
f 61/61/61 59/59/59 62/62/62
f 62/62/62 63/63/63 61/61/61
f 61/61/61 63/63/63 64/64/64
f 64/64/64 65/65/65 61/61/61
f 58/58/58 61/61/61 65/65/65
f 65/65/65 66/66/66 58/58/58
