#Building71_27327_126.obj

v -4.553467 -0.7586079 2.134674
v -5.039368 -0.7586079 -0.1775818
v -4.090332 2.379721 -0.1495667
v -3.604614 2.379721 2.162872
v -0.02984619 -0.7586079 7.168671
v -2.165955 -0.7586079 5.031036
v -1.458679 2.379721 4.324188
v 0.6774292 2.379721 6.461823
v -2.12616 -0.7586079 -5.014252
v 0.02984619 -0.7586079 -7.168732
v 0.7367554 2.379721 -6.461456
v -1.419312 2.379721 -4.306976
v -5.039368 -0.7586079 -0.1775818
v -4.533752 -0.7586079 -2.157257
v -3.584961 2.379721 -2.129242
v -4.090332 2.379721 -0.1495667
v -3.571411 2.379721 2.162872
v -3.604614 2.379721 2.162872
v -4.090332 2.379721 -0.1495667
v -4.057312 2.379721 -0.1493225
v -4.057312 2.379721 -0.1493225
v -4.090332 2.379721 -0.1495667
v -3.584961 2.379721 -2.129242
v -3.551697 2.379721 -2.129059
v -3.551697 2.379721 -2.129059
v -3.584961 2.379721 -2.129242
v -4.533752 -0.7586079 -2.157257
v -3.551697 -0.7586079 -2.129059
v -3.571411 -0.7586079 2.162872
v -4.553467 -0.7586079 2.134674
v -3.604614 2.379721 2.162872
v -3.571411 2.379721 2.162872
v 0.7008667 2.379721 6.438385
v 0.6774292 2.379721 6.461823
v -1.458679 2.379721 4.324188
v -1.435242 2.379721 4.300751
v -1.435242 2.379721 4.300751
v -1.458679 2.379721 4.324188
v -2.165955 -0.7586079 5.031036
v -1.435242 -0.7586079 4.300751
v 0.7008667 -0.7586079 6.438385
v -0.02984619 -0.7586079 7.168671
v 0.6774292 2.379721 6.461823
v 0.7008667 2.379721 6.438385
v -1.395691 2.379721 -4.283539
v -1.419312 2.379721 -4.306976
v 0.7367554 2.379721 -6.461456
v 0.7601318 2.379721 -6.437836
v 0.7601318 2.379721 -6.437836
v 0.7367554 2.379721 -6.461456
v 0.02984619 -0.7586079 -7.168732
v 0.7601318 -0.7586079 -6.437836
v -1.395691 -0.7586079 -4.283539
v -2.12616 -0.7586079 -5.014252
v -1.419312 2.379721 -4.306976
v -1.395691 2.379721 -4.283539

vn -0.9370117 0.2783203 0.2098389
vn -0.9370117 0.2783203 0.2098389
vn -0.9370117 0.2783203 0.2098389
vn -0.9370117 0.2783203 0.2098389
vn -0.6704102 0.302002 0.6777344
vn -0.6704102 0.302002 0.6777344
vn -0.6704102 0.302002 0.6777344
vn -0.6704102 0.302002 0.6777344
vn -0.6704102 0.302002 -0.6777344
vn -0.6704102 0.302002 -0.6777344
vn -0.6704102 0.302002 -0.6777344
vn -0.6704102 0.302002 -0.6777344
vn -0.9291992 0.286377 -0.2329102
vn -0.9291992 0.286377 -0.2329102
vn -0.9291992 0.286377 -0.2329102
vn -0.9291992 0.286377 -0.2329102
vn -0.003921509 1 0
vn -0.003921509 1 0
vn -0.003921509 1 0
vn -0.003921509 1 0
vn -0.003921509 1 0
vn -0.003921509 1 0
vn -0.003921509 1 0
vn -0.003921509 1 0
vn 0.02745056 0.003921509 -0.9995117
vn 0.02745056 0.003921509 -0.9995117
vn 0.02745056 0.003921509 -0.9995117
vn 0.02745056 0.003921509 -0.9995117
vn -0.02745056 -0.003921509 0.9995117
vn -0.02745056 -0.003921509 0.9995117
vn -0.02745056 -0.003921509 0.9995117
vn -0.02745056 -0.003921509 0.9995117
vn -0.003921509 1 0
vn -0.003921509 1 0
vn -0.003921509 1 0
vn -0.003921509 1 0
vn -0.7099609 0.003921509 -0.7045898
vn -0.7099609 0.003921509 -0.7045898
vn -0.7099609 0.003921509 -0.7045898
vn -0.7099609 0.003921509 -0.7045898
vn 0.7099609 0.003921509 0.7045898
vn 0.7099609 0.003921509 0.7045898
vn 0.7099609 0.003921509 0.7045898
vn 0.7099609 0.003921509 0.7045898
vn -0.003921509 1 0
vn -0.003921509 1 0
vn -0.003921509 1 0
vn -0.003921509 1 0
vn 0.7099609 0.003921509 -0.7045898
vn 0.7099609 0.003921509 -0.7045898
vn 0.7099609 0.003921509 -0.7045898
vn 0.7099609 0.003921509 -0.7045898
vn -0.7099609 0.003921509 0.7045898
vn -0.7099609 0.003921509 0.7045898
vn -0.7099609 0.003921509 0.7045898
vn -0.7099609 0.003921509 0.7045898

vt 0.333252 0.5004883
vt -5.960464E-08 0.5004883
vt -5.960464E-08 1
vt 0.333252 1
vt 1 0.5004883
vt 0.6665039 0.5004883
vt 0.6665039 1
vt 1 1
vt 0.333252 0.5004883
vt -5.960464E-08 0.5004883
vt -5.960464E-08 1
vt 0.333252 1
vt 1 0.5004883
vt 0.6665039 0.5004883
vt 0.6665039 1
vt 1 1
vt 0.333252 1
vt 0.333252 1
vt -5.960464E-08 1
vt -5.960464E-08 1
vt 1 1
vt 1 1
vt 0.6665039 1
vt 0.6665039 1
vt 0.6665039 1
vt 0.6665039 1
vt 0.6665039 0.5004883
vt 0.6665039 0.5004883
vt 0.333252 0.5004883
vt 0.333252 0.5004883
vt 0.333252 1
vt 0.333252 1
vt 1 1
vt 1 1
vt 0.6665039 1
vt 0.6665039 1
vt 0.6665039 1
vt 0.6665039 1
vt 0.6665039 0.5004883
vt 0.6665039 0.5004883
vt 1 0.5004883
vt 1 0.5004883
vt 1 1
vt 1 1
vt 0.333252 1
vt 0.333252 1
vt -5.960464E-08 1
vt -5.960464E-08 1
vt -5.960464E-08 1
vt -5.960464E-08 1
vt -5.960464E-08 0.5004883
vt -5.960464E-08 0.5004883
vt 0.333252 0.5004883
vt 0.333252 0.5004883
vt 0.333252 1
vt 0.333252 1

g Building71_27327_126
usemtl Building71_27327_126
usemap Building71_27327_126
f 1/1/1 3/3/3 2/2/2
f 1/1/1 4/4/4 3/3/3
f 5/5/5 7/7/7 6/6/6
f 5/5/5 8/8/8 7/7/7
f 9/9/9 11/11/11 10/10/10
f 9/9/9 12/12/12 11/11/11
f 13/13/13 15/15/15 14/14/14
f 13/13/13 16/16/16 15/15/15
f 17/17/17 19/19/19 18/18/18
f 17/17/17 20/20/20 19/19/19
f 21/21/21 23/23/23 22/22/22
f 21/21/21 24/24/24 23/23/23
f 25/25/25 27/27/27 26/26/26
f 25/25/25 28/28/28 27/27/27
f 29/29/29 31/31/31 30/30/30
f 29/29/29 32/32/32 31/31/31
f 33/33/33 35/35/35 34/34/34
f 33/33/33 36/36/36 35/35/35
f 37/37/37 39/39/39 38/38/38
f 37/37/37 40/40/40 39/39/39
f 41/41/41 43/43/43 42/42/42
f 41/41/41 44/44/44 43/43/43
f 45/45/45 47/47/47 46/46/46
f 45/45/45 48/48/48 47/47/47
f 49/49/49 51/51/51 50/50/50
f 49/49/49 52/52/52 51/51/51
f 53/53/53 55/55/55 54/54/54
f 53/53/53 56/56/56 55/55/55
