#Building14_27637_114.obj

v 7.730897 -25.10251 -10.27964
v 4.102713 -22.70315 -11.63096
v 4.102713 -25.10251 -11.63177
v 7.730897 -22.70315 -10.27964
v 7.730897 -25.10251 10.27964
v 4.102713 -22.70315 11.63096
v 7.730897 -22.70315 10.27964
v 4.102713 -25.10251 11.63177

vn 0.3491211 0.003137589 -0.9370117
vn 0.3491211 0.003137589 -0.9370117
vn 0.3491211 0.003137589 -0.9370117
vn 0.3491211 0.003137589 -0.9370117
vn 0.3491211 0.003137589 0.9370117
vn 0.3491211 0.003137589 0.9370117
vn 0.3491211 0.003137589 0.9370117
vn 0.3491211 0.003137589 0.9370117

vt -0.0001375675 -0.0001375675
vt 1 1
vt 1 -0.0001375675
vt -0.0001375675 1
vt -0.0001375675 -0.0001375675
vt 1 1
vt -0.0001375675 1
vt 1 -0.0001375675

g Building14_27637_114
usemtl Building14_27637_114
usemap Building14_27637_114
f 1/1/1 3/3/3 2/2/2
f 2/2/2 4/4/4 1/1/1
f 5/5/5 7/7/7 6/6/6
f 6/6/6 8/8/8 5/5/5
