#Building31_28367_204.obj

v 12.5658 -3.571136 0.2200317
v 12.56049 -1.912861 -0.9136963
v 12.56049 -3.571136 -0.9136963
v 12.5658 -1.912861 0.2200317
v 7.803833 -3.571136 3.659058
v 9.01062 -1.912861 3.654846
v 9.01062 -3.571136 3.654846
v 7.803833 -1.912861 3.659058
v -12.56958 -3.571136 0.2636719
v -12.56799 -1.912861 -0.8700562
v -12.56958 -1.912861 0.2636719
v -12.56799 -3.571136 -0.8700562
v -7.795532 -3.571136 3.685852
v -9.002869 -1.912861 3.685852
v -7.795532 -1.912861 3.685852
v -9.002869 -3.571136 3.685852

vn 1 0.003921509 0
vn 1 0.003921509 0
vn 1 0.003921509 0
vn 1 0.003921509 0
vn 0.003921509 0.003921509 1
vn 0.003921509 0.003921509 1
vn 0.003921509 0.003921509 1
vn 0.003921509 0.003921509 1
vn -1 0.003921509 0
vn -1 0.003921509 0
vn -1 0.003921509 0
vn -1 0.003921509 0
vn -0.003921509 0.003921509 1
vn -0.003921509 0.003921509 1
vn -0.003921509 0.003921509 1
vn -0.003921509 0.003921509 1

vt -5.781651E-06 -5.781651E-06
vt 1 1
vt 1 -5.781651E-06
vt -5.781651E-06 1
vt -5.781651E-06 -5.781651E-06
vt 1 1
vt 1 -5.781651E-06
vt -5.781651E-06 1
vt -5.781651E-06 -5.781651E-06
vt 1 1
vt -5.781651E-06 1
vt 1 -5.781651E-06
vt -5.781651E-06 -5.781651E-06
vt 1 1
vt -5.781651E-06 1
vt 1 -5.781651E-06

g Building31_28367_204
usemtl Building31_28367_204
usemap Building31_28367_204
f 1/1/1 3/3/3 2/2/2
f 2/2/2 4/4/4 1/1/1
f 5/5/5 7/7/7 6/6/6
f 6/6/6 8/8/8 5/5/5
f 9/9/9 11/11/11 10/10/10
f 10/10/10 12/12/12 9/9/9
f 13/13/13 15/15/15 14/14/14
f 14/14/14 16/16/16 13/13/13
