#Debris_Trash_06_27722_201.obj

v 0.5708897 4.7828E-05 -0.9115239
v -0.09019714 4.456173E-05 -1.07177
v 0.3203776 3.15081E-05 -1.322112
v 0.1602016 3.320366E-05 -0.6610548
v 0.8212857 2.685331E-05 -0.5009308
v -0.5008852 2.993739E-05 -0.8213005
v 0.4105977 1.222898E-05 -0.2504616
v 0.9458198 1.869089E-05 -0.1546026
v -0.2504653 0.05522144 -0.4106212
v -0.8632263 2.070474E-05 -0.5400392
v 0.5352516 3.05727E-05 0.09586199
v 0.9856459 5.217046E-05 0.2140485
v 0.7857637 4.689261E-05 0.5064496
v -3.827344E-05 0.1782418 6.309509E-05
v -0.6175965 3.969323E-05 -0.1866329
v -1.128881 1.762713E-05 -0.3780667
v -0.9870818 3.877007E-05 0.03871229
v 0.2505496 0.08922397 0.4106743
v 0.5009403 2.907263E-05 0.8213055
v -0.4106071 0.1782555 0.2505275
v -0.8212306 3.215671E-05 0.5009358
v -0.1600956 0.1782736 0.6611151
v 0.09036778 5.354095E-05 1.071769
v -0.5707191 5.027468E-05 0.9115233
v -0.3203224 2.750192E-05 1.322117

vn 0.3200684 0.9428711 0.09350586
vn 0.3288574 0.9399414 0.09368896
vn 0.3200684 0.9428711 0.09350586
vn 0.3583984 0.9335938 0.004646301
vn 0.3200684 0.9428711 0.09350586
vn 0.2885742 0.953125 0.09289551
vn 0.423584 0.9057617 0.01081848
vn 0.3200684 0.9428711 0.09350586
vn 0.2919922 0.9555664 -0.04025269
vn 0.279541 0.9555664 0.09265137
vn 0.4506836 0.8876953 0.09503174
vn 0.3200684 0.9428711 0.09350586
vn 0.4162598 0.9042969 0.0947876
vn 0.4108887 0.9116211 -0.004932404
vn 0.185791 0.9824219 0.0006651878
vn 0.3200684 0.9428711 0.09350586
vn 0.1760254 0.984375 0.01748657
vn 0.5009766 0.8486328 0.1693115
vn 0.4909668 0.8500977 0.1907959
vn 0.1605225 0.9848633 0.0617981
vn 0.03359985 0.9946289 0.09783936
vn 0.3032227 0.9169922 0.2587891
vn 0.3764648 0.871582 0.3134766
vn 0.1263428 0.9418945 0.3110352
vn 0.2398682 0.9111328 0.3354492

vt 0.7495117 0
vt 1 0.2502441
vt 1 0
vt 0.7495117 0.2502441
vt 0.5004883 0
vt 1 0.5004883
vt 0.5004883 0.2502441
vt 0.2502441 0
vt 0.7495117 0.5004883
vt 1 0.7495117
vt 0.2502441 0.2502441
vt 0 0
vt 0 0.2502441
vt 0.5004883 0.5004883
vt 0.7495117 0.7495117
vt 1 1
vt 0.7495117 1
vt 0.2502441 0.5004883
vt 0 0.5004883
vt 0.5004883 0.7495117
vt 0.5004883 1
vt 0.2502441 0.7495117
vt 0 0.7495117
vt 0.2502441 1
vt 0 1

g Debris_Trash_06_27722_201
usemtl Debris_Trash_06_27722_201
usemap Debris_Trash_06_27722_201
f 1/1/1 3/3/3 2/2/2
f 1/1/1 2/2/2 4/4/4
f 5/5/5 1/1/1 4/4/4
f 4/4/4 2/2/2 6/6/6
f 5/5/5 4/4/4 7/7/7
f 8/8/8 5/5/5 7/7/7
f 4/4/4 6/6/6 9/9/9
f 7/7/7 4/4/4 9/9/9
f 9/9/9 6/6/6 10/10/10
f 8/8/8 7/7/7 11/11/11
f 12/12/12 8/8/8 11/11/11
f 12/12/12 11/11/11 13/13/13
f 7/7/7 9/9/9 14/14/14
f 11/11/11 7/7/7 14/14/14
f 9/9/9 10/10/10 15/15/15
f 14/14/14 9/9/9 15/15/15
f 15/15/15 10/10/10 16/16/16
f 15/15/15 16/16/16 17/17/17
f 13/13/13 11/11/11 18/18/18
f 11/11/11 14/14/14 18/18/18
f 13/13/13 18/18/18 19/19/19
f 14/14/14 15/15/15 20/20/20
f 20/20/20 15/15/15 17/17/17
f 18/18/18 14/14/14 20/20/20
f 20/20/20 17/17/17 21/21/21
f 19/19/19 18/18/18 22/22/22
f 18/18/18 20/20/20 22/22/22
f 22/22/22 20/20/20 21/21/21
f 19/19/19 22/22/22 23/23/23
f 22/22/22 21/21/21 24/24/24
f 23/23/23 22/22/22 24/24/24
f 23/23/23 24/24/24 25/25/25
