#Debris_Trash_03_28022_200.obj

v 0.4330168 5.882902E-06 -0.3082664
v 0.1614911 3.297907E-06 -0.5063447
v 0.396294 -3.650426E-06 -0.5430661
v 0.1980978 -2.446335E-05 -0.2715395
v 0.4696244 -6.867524E-06 -0.07333997
v -0.07331239 1.204431E-05 -0.4696235
v 0.2348206 -1.493003E-05 -0.03673975
v 0.4610274 -5.717233E-06 0.108297
v -0.03666414 0.02730724 -0.2348104
v -0.2918797 1.588428E-05 -0.4097639
v 0.2262224 -1.018359E-05 0.1448969
v 0.4094405 -1.215662E-05 0.2840642
v 0.2629455 1.615864E-05 0.3798177
v 6.585658E-06 0.08806808 -7.559897E-05
v -0.2466747 -1.463606E-05 -0.2020864
v -0.4438443 4.789522E-06 -0.3860153
v -0.4579199 1.963252E-06 -0.1689659
v 0.03666471 0.0440653 0.2348129
v 0.07334536 -2.081541E-05 0.4695862
v -0.2347945 0.08806963 0.0366463
v -0.4695908 -3.701646E-06 0.07330284
v -0.1980735 0.08808456 0.2714455
v -0.1614581 -1.2069E-05 0.5063074
v -0.4329838 -1.4654E-05 0.3082291
v -0.3962611 -5.120672E-06 0.5430289

vn 0.3200684 0.9428711 0.09350586
vn 0.3417969 0.9350586 0.09387207
vn 0.3200684 0.9428711 0.09350586
vn 0.3825684 0.9233398 0.02345276
vn 0.3200684 0.9428711 0.09350586
vn 0.3112793 0.9458008 0.09332275
vn 0.4367676 0.8984375 0.04055786
vn 0.3200684 0.9428711 0.09350586
vn 0.3449707 0.9379883 -0.03955078
vn 0.2851563 0.9541016 0.09283447
vn 0.4472656 0.8891602 0.09503174
vn 0.3200684 0.9428711 0.09350586
vn 0.4040527 0.9067383 0.1223145
vn 0.4460449 0.8950195 -0.00343132
vn 0.230835 0.972168 -0.04309082
vn 0.3200684 0.9428711 0.09350586
vn 0.2036133 0.9790039 -0.01876831
vn 0.4672852 0.8554688 0.2225342
vn 0.4353027 0.8632813 0.2556152
vn 0.1850586 0.9829102 0.006072998
vn 0.03781128 0.9956055 0.0847168
vn 0.2478027 0.9379883 0.2426758
vn 0.291748 0.9003906 0.3225098
vn 0.06604004 0.972168 0.2241211
vn 0.1572266 0.9448242 0.2875977

vt 0.7495117 0
vt 1 0.2502441
vt 1 0
vt 0.7495117 0.2502441
vt 0.5004883 0
vt 1 0.5004883
vt 0.5004883 0.2502441
vt 0.2502441 0
vt 0.7495117 0.5004883
vt 1 0.7495117
vt 0.2502441 0.2502441
vt 0 0
vt 0 0.2502441
vt 0.5004883 0.5004883
vt 0.7495117 0.7495117
vt 1 1
vt 0.7495117 1
vt 0.2502441 0.5004883
vt 0 0.5004883
vt 0.5004883 0.7495117
vt 0.5004883 1
vt 0.2502441 0.7495117
vt 0 0.7495117
vt 0.2502441 1
vt 0 1

g Debris_Trash_03_28022_200
usemtl Debris_Trash_03_28022_200
usemap Debris_Trash_03_28022_200
f 1/1/1 3/3/3 2/2/2
f 1/1/1 2/2/2 4/4/4
f 5/5/5 1/1/1 4/4/4
f 4/4/4 2/2/2 6/6/6
f 5/5/5 4/4/4 7/7/7
f 8/8/8 5/5/5 7/7/7
f 4/4/4 6/6/6 9/9/9
f 7/7/7 4/4/4 9/9/9
f 9/9/9 6/6/6 10/10/10
f 8/8/8 7/7/7 11/11/11
f 12/12/12 8/8/8 11/11/11
f 12/12/12 11/11/11 13/13/13
f 7/7/7 9/9/9 14/14/14
f 11/11/11 7/7/7 14/14/14
f 9/9/9 10/10/10 15/15/15
f 14/14/14 9/9/9 15/15/15
f 15/15/15 10/10/10 16/16/16
f 15/15/15 16/16/16 17/17/17
f 13/13/13 11/11/11 18/18/18
f 11/11/11 14/14/14 18/18/18
f 13/13/13 18/18/18 19/19/19
f 14/14/14 15/15/15 20/20/20
f 20/20/20 15/15/15 17/17/17
f 18/18/18 14/14/14 20/20/20
f 20/20/20 17/17/17 21/21/21
f 19/19/19 18/18/18 22/22/22
f 18/18/18 20/20/20 22/22/22
f 22/22/22 20/20/20 21/21/21
f 19/19/19 22/22/22 23/23/23
f 22/22/22 21/21/21 24/24/24
f 23/23/23 22/22/22 24/24/24
f 23/23/23 24/24/24 25/25/25
