#EarthPile_A_Alpha_02_28446_14.obj

v 3.143837 -6.991161E-05 -2.306633
v 3.506537 -6.991161E-05 -1.19398
v 2.062337 0.1011563 -1.894967
v 2.566913 -6.991161E-05 -3.262144
v 0.7714276 0.1011563 -3.093035
v 1.815103 -6.991161E-05 -3.995248
v 0.9395739 -6.991161E-05 -4.456017
v -0.5808256 0.1011563 -3.163457
v 8.691799E-05 -6.991161E-05 -4.613297
v -0.9395376 -6.991161E-05 -4.456017
v -1.815067 -6.991161E-05 -3.995248
v -1.282913 -6.991161E-05 -2.823864
v -2.566877 -6.991161E-05 -3.262144
v -0.2884094 0.2691155 -2.12879
v 0.1894148 0.4786063 -1.494993
v 0.9179109 0.3130412 -1.825577
v 1.505976 0.2474343 -1.020263
v 1.746538 0.06849308 -0.0001074554
v 3.630257 -6.991161E-05 -0.0001074554
v 3.506537 -6.991161E-05 1.193903
v -1.814379 0.1011563 -2.30567
v -3.1438 -6.991161E-05 -2.306633
v -0.8565992 0.2219512 -1.885408
v 0.7492145 0.4715669 -1.116131
v -2.222125 0.1011563 -1.630404
v -3.506501 -6.991161E-05 -1.19398
v -0.856049 0.4225737 -1.179607
v 1.098917 0.3735794 -0.4568187
v 0.2652009 0.5799733 -0.5055089
v -0.1456398 0.5789879 -0.5681597
v -1.202382 0.3540096 -0.8821702
v -2.478505 -6.991161E-05 -0.844002
v -2.505533 0.0389278 0.582318
v -3.630221 -6.991161E-05 -0.0001074554
v -3.506501 -6.991161E-05 1.193903
v -1.561919 0.214208 -0.5318484
v -0.4782874 0.5688516 0.09802941
v -1.372454 0.358656 -0.0001074554
v 8.691799E-05 0.5894068 -0.0001074554
v 0.4707588 0.5016963 0.1140532
v -1.067934 0.4683293 0.5874071
v -2.022069 0.1011563 1.961461
v -3.1438 -6.991161E-05 2.306556
v -2.566877 -6.991161E-05 3.262067
v -0.2744488 0.565613 0.5002737
v -0.8432575 0.4393271 1.088476
v -0.9596876 0.08876669 2.993858
v -1.815067 -6.991161E-05 3.99517
v -0.9395376 -6.991161E-05 4.455939
v 0.3312215 0.553506 0.454747
v -0.1281719 0.4197573 1.456197
v -1.166896 0.2955829 1.582599
v 8.691799E-05 0.02386363 3.260691
v 8.691799E-05 -6.991161E-05 4.61322
v -0.02171363 0.2353262 2.173346
v 0.6354665 0.324022 1.688645
v 1.00305 0.09031513 2.971095
v 0.9395739 -6.991161E-05 4.455939
v 1.815103 -6.991161E-05 3.99517
v 2.566913 -6.991161E-05 3.262067
v 1.814416 0.1011563 2.305593
v 3.143837 -6.991161E-05 2.306556
v 1.142862 0.2874174 1.452277
v 2.287907 0.02259673 1.428482
v 1.518492 0.08214959 0.9816051
v 1.087776 0.2088588 0.4909895
v 1.162875 0.1930898 -0.0001074554

vn 0.08032227 0.9941406 -0.07409668
vn 0.08007813 0.996582 0
vn 0.102478 0.9941406 -0.03799438
vn 0.05807495 0.9985352 0
vn 0.04153442 0.9941406 -0.1010742
vn 0.04705811 0.9990234 0
vn 0.01939392 0.9995117 -0.02294922
vn -0.04705811 0.9941406 -0.09863281
vn 0.002782822 0.9995117 -0.02992249
vn -0.02490234 0.9995117 -0.01681519
vn -0.03044128 0.9995117 0
vn -0.06921387 0.9941406 -0.08459473
vn -0.02490234 0.9995117 -0.01681519
vn -0.09136963 0.9775391 -0.1906738
vn -0.01383209 0.9829102 -0.1834717
vn 0.1689453 0.9716797 -0.1641846
vn 0.1799316 0.9829102 0.03796387
vn 0.1079712 0.9941406 0.01669312
vn 0.03601074 0.9995117 0
vn 0.0304718 0.9995117 0
vn -0.06365967 0.9882813 -0.1373291
vn -0.08026123 0.9941406 -0.07415771
vn -0.08581543 0.9663086 -0.2425537
vn 0.2076416 0.9716797 -0.111145
vn -0.1356201 0.9882813 -0.06719971
vn -0.04150391 0.9990234 0
vn -0.1467285 0.9775391 -0.1522217
vn 0.3129883 0.9443359 0.1031494
vn 0.1357422 0.9882813 -0.06713867
vn -0.102417 0.9882813 -0.1115112
vn -0.2575684 0.9663086 0
vn -0.1134644 0.9936523 0
vn -0.1467285 0.9882813 -0.03729248
vn -0.03598022 0.9995117 0
vn -0.05807495 0.9985352 0
vn -0.2519531 0.9663086 -0.05236816
vn -0.1689453 0.9829102 -0.07293701
vn -0.2575684 0.9609375 -0.1029053
vn 0.04153442 0.9990234 0
vn 0.3178711 0.9482422 0
vn -0.2408447 0.9663086 0.09057617
vn -0.1245728 0.9882813 0.08599854
vn -0.08026123 0.9941406 0.07415771
vn -0.05255127 0.9985352 0
vn -0.03044128 0.9941406 0.1049805
vn -0.1744385 0.9775391 0.1194458
vn -0.02490234 0.9941406 0.1063843
vn -0.04150391 0.9990234 0
vn 0.002782822 0.9995117 0.02992249
vn 0.1523438 0.9829102 0.1031494
vn -0.008293152 0.9775391 0.2113037
vn -0.09692383 0.9775391 0.1878662
vn -0.008293152 0.9941406 0.1089478
vn -0.008293152 0.9995117 0.02888489
vn -0.008293152 0.9829102 0.1837158
vn 0.07476807 0.9829102 0.1680908
vn 0.02493286 0.9941406 0.1063843
vn 0.01939392 0.9995117 0.02294922
vn 0.04153442 0.9990234 0
vn 0.05807495 0.9985352 0
vn 0.102478 0.9941406 0.03799438
vn 0.05258179 0.9985352 0
vn 0.2131348 0.9770508 0
vn 0.0690918 0.9975586 0
vn 0.19104 0.9775391 -0.09051514
vn 0.4125977 0.9111328 0
vn 0.307373 0.9384766 0.1564941

vt 0.9550781 1.795898
vt 0.9931641 1.667969
vt 0.8134766 1.751953
vt 0.8901367 1.916016
vt 0.6176758 1.895508
vt 0.7758789 2.003906
vt 0.6425781 2.039063
vt 0.4116211 1.904297
vt 0.5 2.041016
vt 0.3571777 2.033203
vt 0.2154541 2.005859
vt 0.2963867 1.875
vt 0.07537842 1.947266
vt 0.4560547 1.780273
vt 0.5288086 1.704102
vt 0.6396484 1.744141
vt 0.7285156 1.647461
vt 0.765625 1.525391
vt 1.017578 1.525391
vt 1.012695 1.374023
vt 0.2043457 1.824219
vt -0.01211548 1.833008
vt 0.361084 1.762695
vt 0.6137695 1.65918
vt 0.1420898 1.744141
vt -0.03031921 1.679688
vt 0.3681641 1.668945
vt 0.6669922 1.580078
vt 0.5400391 1.585938
vt 0.4780273 1.59375
vt 0.3134766 1.635742
vt 0.1148071 1.637695
vt 0.1188354 1.456055
vt -0.02931213 1.525391
vt -0.02172852 1.382813
vt 0.2553711 1.598633
vt 0.4272461 1.513672
vt 0.2912598 1.525391
vt 0.5 1.525391
vt 0.5712891 1.511719
vt 0.3378906 1.455078
vt 0.184082 1.282227
vt 0.01316833 1.241211
vt 0.1011353 1.126953
vt 0.458252 1.46582
vt 0.3718262 1.395508
vt 0.3500977 1.163086
vt 0.2154541 1.039063
vt 0.3571777 0.9985352
vt 0.550293 1.470703
vt 0.4804688 1.351563
vt 0.3227539 1.335938
vt 0.5 1.135742
vt 0.5 0.9936523
vt 0.496582 1.265625
vt 0.6064453 1.313477
vt 0.6870117 1.137695
vt 0.6601563 0.9897461
vt 0.8447266 0.9960938
vt 0.9589844 1.083984
vt 0.8242188 1.204102
vt 0.9951172 1.232422
vt 0.6879883 1.337891
vt 0.871582 1.339844
vt 0.7446289 1.394531
vt 0.6655273 1.466797
vt 0.6767578 1.525391

g EarthPile_A_Alpha_02_28446_14
usemtl EarthPile_A_Alpha_02_28446_14
usemap EarthPile_A_Alpha_02_28446_14
f 1/1/1 3/3/3 2/2/2
f 4/4/4 3/3/3 1/1/1
f 4/4/4 5/5/5 3/3/3
f 6/6/6 5/5/5 4/4/4
f 7/7/7 5/5/5 6/6/6
f 7/7/7 8/8/8 5/5/5
f 9/9/9 8/8/8 7/7/7
f 10/10/10 8/8/8 9/9/9
f 8/8/8 10/10/10 11/11/11
f 12/12/12 8/8/8 11/11/11
f 12/12/12 11/11/11 13/13/13
f 8/8/8 14/14/14 5/5/5
f 14/14/14 8/8/8 12/12/12
f 5/5/5 14/14/14 15/15/15
f 5/5/5 16/16/16 3/3/3
f 5/5/5 15/15/15 16/16/16
f 3/3/3 17/17/17 2/2/2
f 3/3/3 16/16/16 17/17/17
f 2/2/2 17/17/17 18/18/18
f 19/19/19 2/2/2 18/18/18
f 19/19/19 18/18/18 20/20/20
f 21/21/21 12/12/12 13/13/13
f 21/21/21 13/13/13 22/22/22
f 23/23/23 14/14/14 12/12/12
f 15/15/15 14/14/14 23/23/23
f 23/23/23 12/12/12 21/21/21
f 16/16/16 24/24/24 17/17/17
f 16/16/16 15/15/15 24/24/24
f 25/25/25 21/21/21 22/22/22
f 26/26/26 25/25/25 22/22/22
f 27/27/27 23/23/23 21/21/21
f 27/27/27 15/15/15 23/23/23
f 27/27/27 21/21/21 25/25/25
f 17/17/17 24/24/24 28/28/28
f 17/17/17 28/28/28 18/18/18
f 15/15/15 29/29/29 24/24/24
f 24/24/24 29/29/29 28/28/28
f 30/30/30 15/15/15 27/27/27
f 15/15/15 30/30/30 29/29/29
f 31/31/31 27/27/27 25/25/25
f 30/30/30 27/27/27 31/31/31
f 32/32/32 25/25/25 26/26/26
f 26/26/26 33/33/33 32/32/32
f 34/34/34 33/33/33 26/26/26
f 35/35/35 33/33/33 34/34/34
f 25/25/25 36/36/36 31/31/31
f 32/32/32 36/36/36 25/25/25
f 31/31/31 37/37/37 30/30/30
f 36/36/36 37/37/37 31/31/31
f 32/32/32 38/38/38 36/36/36
f 33/33/33 38/38/38 32/32/32
f 38/38/38 37/37/37 36/36/36
f 29/29/29 30/30/30 39/39/39
f 30/30/30 37/37/37 39/39/39
f 28/28/28 29/29/29 40/40/40
f 40/40/40 29/29/29 39/39/39
f 41/41/41 37/37/37 38/38/38
f 33/33/33 41/41/41 38/38/38
f 35/35/35 42/42/42 33/33/33
f 43/43/43 42/42/42 35/35/35
f 44/44/44 42/42/42 43/43/43
f 37/37/37 45/45/45 39/39/39
f 41/41/41 45/45/45 37/37/37
f 33/33/33 46/46/46 41/41/41
f 42/42/42 46/46/46 33/33/33
f 46/46/46 45/45/45 41/41/41
f 44/44/44 47/47/47 42/42/42
f 48/48/48 47/47/47 44/44/44
f 49/49/49 47/47/47 48/48/48
f 45/45/45 50/50/50 39/39/39
f 50/50/50 40/40/40 39/39/39
f 51/51/51 45/45/45 46/46/46
f 51/51/51 50/50/50 45/45/45
f 42/42/42 52/52/52 46/46/46
f 47/47/47 52/52/52 42/42/42
f 52/52/52 51/51/51 46/46/46
f 49/49/49 53/53/53 47/47/47
f 54/54/54 53/53/53 49/49/49
f 47/47/47 55/55/55 52/52/52
f 55/55/55 51/51/51 52/52/52
f 53/53/53 55/55/55 47/47/47
f 55/55/55 56/56/56 51/51/51
f 56/56/56 50/50/50 51/51/51
f 53/53/53 56/56/56 55/55/55
f 54/54/54 57/57/57 53/53/53
f 57/57/57 56/56/56 53/53/53
f 58/58/58 57/57/57 54/54/54
f 57/57/57 58/58/58 59/59/59
f 57/57/57 59/59/59 60/60/60
f 61/61/61 57/57/57 60/60/60
f 56/56/56 57/57/57 61/61/61
f 61/61/61 60/60/60 62/62/62
f 50/50/50 56/56/56 63/63/63
f 63/63/63 56/56/56 61/61/61
f 63/63/63 40/40/40 50/50/50
f 64/64/64 61/61/61 62/62/62
f 63/63/63 61/61/61 64/64/64
f 20/20/20 64/64/64 62/62/62
f 20/20/20 18/18/18 64/64/64
f 65/65/65 63/63/63 64/64/64
f 64/64/64 18/18/18 65/65/65
f 66/66/66 40/40/40 63/63/63
f 65/65/65 66/66/66 63/63/63
f 18/18/18 67/67/67 65/65/65
f 65/65/65 67/67/67 66/66/66
f 67/67/67 40/40/40 66/66/66
f 18/18/18 28/28/28 67/67/67
f 28/28/28 40/40/40 67/67/67
