#EarthPile_A_Alpha_03_28347_13.obj

v -1.39308 -3.962418E-05 -2.234705
v -0.7801891 -3.962418E-05 -2.348247
v -1.174112 0.08883889 -1.482208
v -1.911136 -3.962418E-05 -1.968834
v -0.3129558 0.1010845 -1.643064
v -0.114 -3.962418E-05 -2.301757
v 0.8532706 -3.962418E-05 -1.938506
v -1.62484 0.02381977 -1.108847
v -2.298938 -3.962418E-05 -1.56886
v 0.5362342 0.03883022 -1.406559
v 1.749913 -3.962418E-05 -1.286278
v -1.811073 0.09041848 -0.5255278
v -2.530079 -3.962418E-05 -1.061876
v -2.588741 -3.962418E-05 -0.4825456
v -2.471073 -3.962418E-05 0.1295204
v -1.746566 0.1010845 0.09162728
v -2.184984 -3.962418E-05 0.7329211
v -1.050736 0.3240297 -0.2678411
v -1.076044 0.2353887 -0.7495164
v -0.4056597 0.2953521 -1.101145
v -1.456213 0.02160727 0.6302453
v -1.750004 -3.962418E-05 1.286325
v -0.5546187 0.08109673 1.396703
v -1.195706 -3.962418E-05 1.752114
v -0.1921931 -3.962418E-05 2.209376
v -0.2667414 0.4393735 -0.776131
v -0.6835652 0.4197811 -0.5569564
v -1.097982 0.2883997 0.05758541
v -0.3295297 0.5485557 0.0272572
v -0.1592516 0.5656196 -0.3024332
v -0.9437277 0.1190973 0.3420929
v 0.2625926 0.1010845 1.639604
v 0.7800978 -3.962418E-05 2.348294
v 1.286462 0.1010845 1.424556
v 1.392989 -3.962418E-05 2.234752
v 1.911044 -3.962418E-05 1.968882
v 0.05710344 0.4687625 -0.7151307
v -0.6710488 0.06023964 0.7370474
v 1.767175 0.1010845 0.7966723
v 2.298847 -3.962418E-05 1.568907
v 2.529988 -3.962418E-05 1.061924
v 2.58865 -3.962418E-05 0.482593
v 1.829688 -3.962418E-05 0.3411301
v 2.470982 -3.962418E-05 -0.129473
v 1.154834 0.2692812 0.5868506
v 0.6807919 0.479349 0.6005361
v 1.746406 0.1010845 -0.09157988
v 2.184892 -3.962418E-05 -0.7328737
v 1.221611 0.2219579 0.227726
v 1.544286 0.1010845 -0.5179629
v 0.8690881 0.4227834 -0.01097973
v 0.6088569 0.3132069 1.063574
v 0.05373364 0.2591686 1.0862
v 1.236809 -3.962418E-05 -0.9092038
v 0.4548088 0.3561052 -0.6665093
v 0.7756277 0.2167441 -0.5701604
v 0.1065501 0.5692537 -0.2654341
v 0.8341522 0.354604 -0.2797386
v 0.3310202 0.5790504 0.1230558
v -0.0001144179 0.5893995 -4.506593E-05
v 0.198979 0.5893995 0.2938154
v -0.2324932 0.4884344 0.1780042
v 0.3114203 0.4719228 0.7407611
v -0.05251827 0.5417613 0.3279948
v -0.2604832 0.1777958 0.9759595
v -0.3830339 0.1930438 0.5611988

vn -0.0375061 0.9931641 -0.1113892
vn -0.02131653 0.9931641 -0.1156006
vn -0.1130981 0.987793 -0.1082764
vn -0.05911255 0.9980469 0
vn 0.04345703 0.9716797 -0.2331543
vn 0.03805542 0.987793 -0.1518555
vn 0.04885864 0.9985352 -0.02606201
vn -0.1130981 0.987793 -0.1082764
vn -0.03210449 0.9985352 -0.04510498
vn 0.1352539 0.9716797 -0.1948242
vn 0.03805542 0.9985352 -0.04022217
vn -0.1671143 0.9824219 -0.08502197
vn -0.1022949 0.9931641 -0.05789185
vn -0.1130981 0.9931641 0.03204346
vn -0.1291504 0.9916992 0
vn -0.1778564 0.9824219 0.0592041
vn -0.05911255 0.9931641 0.1016235
vn -0.2912598 0.9550781 -0.05117798
vn -0.2426758 0.949707 -0.1971436
vn -0.1508789 0.9443359 -0.2919922
vn -0.06988525 0.9931641 0.09448242
vn -0.05911255 0.9980469 0
vn -0.08612061 0.9931641 0.08001709
vn -0.06988525 0.9931641 0.09448242
vn -0.04830933 0.987793 0.1489258
vn 0.0002732277 0.9335938 -0.3581543
vn -0.2641602 0.9443359 -0.1953125
vn -0.2318115 0.9282227 0.2907715
vn -0.2587891 0.9443359 0.2023926
vn -0.1346436 0.9824219 -0.1303711
vn -0.1239014 0.8959961 0.4267578
vn -0.01593018 0.9770508 0.2132568
vn 0.01107025 0.9931641 0.1170044
vn 0.1028442 0.9824219 0.1567383
vn 0.03805542 0.9931641 0.1112061
vn 0.0758667 0.9931641 0.08978271
vn 0.1298828 0.9174805 -0.3759766
vn -0.1346436 0.987793 0.07983398
vn 0.1568604 0.987793 0
vn 0.09204102 0.9931641 0.07312012
vn 0.1190186 0.9926758 0
vn 0.05963135 0.9980469 0
vn 0.1568604 0.987793 0
vn 0.08111572 0.996582 0
vn 0.345459 0.9384766 0
vn 0.2756348 0.949707 0.147583
vn 0.2270508 0.9716797 0.06860352
vn 0.1298828 0.987793 -0.08746338
vn 0.3781738 0.9228516 0.0725708
vn 0.1568604 0.9716797 -0.1778564
vn 0.3295898 0.9443359 0
vn 0.05426025 0.9282227 0.3679199
vn -0.1671143 0.9282227 0.3322754
vn 0.09747314 0.9824219 -0.1601563
vn 0.3295898 0.9013672 -0.28125
vn 0.2756348 0.9121094 -0.3034668
vn 0.2000732 0.9604492 -0.192627
vn 0.2270508 0.9067383 -0.3554688
vn 0.2270508 0.9716797 -0.06860352
vn -0.06982422 0.9975586 0
vn 0.005672455 0.987793 0.1564941
vn -0.3669434 0.8417969 0.395752
vn -0.07531738 0.9282227 0.3642578
vn -0.3398438 0.8959961 0.2861328
vn -0.3452148 0.9228516 0.1705322
vn -0.4423828 0.8256836 0.3498535

vt 0.2154541 1.039063
vt 0.1011353 1.126953
vt 0.3493652 1.164063
vt 0.3571777 0.9985352
vt 0.184082 1.282227
vt 0.01316833 1.241211
vt -0.02526855 1.449219
vt 0.5 1.135742
vt 0.5 0.9936523
vt 0.1188354 1.456055
vt -0.03031921 1.679688
vt 0.6870117 1.137695
vt 0.6601563 0.9897461
vt 0.8447266 0.9960938
vt 0.9589844 1.083984
vt 0.8242188 1.204102
vt 0.9951172 1.232422
vt 0.6064453 1.313477
vt 0.496582 1.265625
vt 0.3227539 1.335938
vt 0.8720703 1.342773
vt 1.012695 1.374023
vt 0.8813477 1.59082
vt 1.017578 1.525391
vt 0.9726563 1.738281
vt 0.3723145 1.395508
vt 0.4804688 1.351563
vt 0.6875 1.337891
vt 0.5541992 1.474609
vt 0.458252 1.46582
vt 0.7250977 1.395508
vt 0.8134766 1.751953
vt 0.8901367 1.916016
vt 0.6176758 1.895508
vt 0.7758789 2.003906
vt 0.6425781 2.039063
vt 0.3378906 1.455078
vt 0.7568359 1.498047
vt 0.4121094 1.904297
vt 0.5 2.041016
vt 0.3571777 2.033203
vt 0.2154541 2.005859
vt 0.2963867 1.875
vt 0.07537842 1.947266
vt 0.4567871 1.780273
vt 0.5288086 1.704102
vt 0.2043457 1.824219
vt -0.01211548 1.833008
vt 0.361084 1.762695
vt 0.1420898 1.744141
vt 0.3686523 1.668945
vt 0.6391602 1.744141
vt 0.7255859 1.655273
vt 0.1148071 1.637695
vt 0.2897949 1.525391
vt 0.2568359 1.597656
vt 0.4272461 1.513672
vt 0.3139648 1.635742
vt 0.4780273 1.59375
vt 0.5 1.525391
vt 0.5341797 1.59082
vt 0.5722656 1.507813
vt 0.6132813 1.65918
vt 0.578125 1.553711
vt 0.7480469 1.591797
vt 0.6767578 1.525391

g EarthPile_A_Alpha_03_28347_13
usemtl EarthPile_A_Alpha_03_28347_13
usemap EarthPile_A_Alpha_03_28347_13
f 1/1/1 3/3/3 2/2/2
f 4/4/4 3/3/3 1/1/1
f 2/2/2 3/3/3 5/5/5
f 2/2/2 5/5/5 6/6/6
f 6/6/6 5/5/5 7/7/7
f 4/4/4 8/8/8 3/3/3
f 9/9/9 8/8/8 4/4/4
f 7/7/7 5/5/5 10/10/10
f 7/7/7 10/10/10 11/11/11
f 9/9/9 12/12/12 8/8/8
f 13/13/13 12/12/12 9/9/9
f 12/12/12 13/13/13 14/14/14
f 12/12/12 14/14/14 15/15/15
f 16/16/16 12/12/12 15/15/15
f 16/16/16 15/15/15 17/17/17
f 12/12/12 18/18/18 8/8/8
f 18/18/18 12/12/12 16/16/16
f 8/8/8 19/19/19 3/3/3
f 8/8/8 18/18/18 19/19/19
f 3/3/3 20/20/20 5/5/5
f 3/3/3 19/19/19 20/20/20
f 21/21/21 16/16/16 17/17/17
f 22/22/22 21/21/21 17/17/17
f 22/22/22 23/23/23 21/21/21
f 24/24/24 23/23/23 22/22/22
f 25/25/25 23/23/23 24/24/24
f 5/5/5 20/20/20 26/26/26
f 5/5/5 26/26/26 10/10/10
f 19/19/19 27/27/27 20/20/20
f 19/19/19 18/18/18 27/27/27
f 20/20/20 27/27/27 26/26/26
f 28/28/28 18/18/18 16/16/16
f 28/28/28 16/16/16 21/21/21
f 18/18/18 29/29/29 27/27/27
f 29/29/29 18/18/18 28/28/28
f 27/27/27 30/30/30 26/26/26
f 27/27/27 29/29/29 30/30/30
f 31/31/31 28/28/28 21/21/21
f 31/31/31 29/29/29 28/28/28
f 25/25/25 32/32/32 23/23/23
f 33/33/33 32/32/32 25/25/25
f 33/33/33 34/34/34 32/32/32
f 35/35/35 34/34/34 33/33/33
f 36/36/36 34/34/34 35/35/35
f 26/26/26 30/30/30 37/37/37
f 10/10/10 26/26/26 37/37/37
f 38/38/38 31/31/31 21/21/21
f 23/23/23 38/38/38 21/21/21
f 36/36/36 39/39/39 34/34/34
f 40/40/40 39/39/39 36/36/36
f 41/41/41 39/39/39 40/40/40
f 39/39/39 41/41/41 42/42/42
f 43/43/43 39/39/39 42/42/42
f 43/43/43 42/42/42 44/44/44
f 39/39/39 45/45/45 34/34/34
f 45/45/45 39/39/39 43/43/43
f 34/34/34 45/45/45 46/46/46
f 47/47/47 43/43/43 44/44/44
f 47/47/47 44/44/44 48/48/48
f 49/49/49 45/45/45 43/43/43
f 46/46/46 45/45/45 49/49/49
f 49/49/49 43/43/43 47/47/47
f 50/50/50 47/47/47 48/48/48
f 11/11/11 50/50/50 48/48/48
f 51/51/51 49/49/49 47/47/47
f 51/51/51 46/46/46 49/49/49
f 51/51/51 47/47/47 50/50/50
f 34/34/34 46/46/46 52/52/52
f 34/34/34 52/52/52 32/32/32
f 32/32/32 52/52/52 53/53/53
f 32/32/32 53/53/53 23/23/23
f 54/54/54 50/50/50 11/11/11
f 11/11/11 10/10/10 54/54/54
f 10/10/10 55/55/55 54/54/54
f 10/10/10 37/37/37 55/55/55
f 54/54/54 56/56/56 50/50/50
f 54/54/54 55/55/55 56/56/56
f 37/37/37 57/57/57 55/55/55
f 55/55/55 57/57/57 56/56/56
f 37/37/37 30/30/30 57/57/57
f 50/50/50 56/56/56 58/58/58
f 56/56/56 57/57/57 58/58/58
f 58/58/58 51/51/51 50/50/50
f 59/59/59 51/51/51 58/58/58
f 58/58/58 57/57/57 59/59/59
f 59/59/59 46/46/46 51/51/51
f 57/57/57 30/30/30 60/60/60
f 59/59/59 57/57/57 60/60/60
f 30/30/30 29/29/29 60/60/60
f 46/46/46 59/59/59 61/61/61
f 61/61/61 59/59/59 60/60/60
f 29/29/29 62/62/62 60/60/60
f 31/31/31 62/62/62 29/29/29
f 46/46/46 61/61/61 63/63/63
f 52/52/52 46/46/46 63/63/63
f 52/52/52 63/63/63 53/53/53
f 64/64/64 61/61/61 60/60/60
f 63/63/63 61/61/61 64/64/64
f 53/53/53 63/63/63 64/64/64
f 62/62/62 64/64/64 60/60/60
f 53/53/53 64/64/64 65/65/65
f 65/65/65 64/64/64 62/62/62
f 23/23/23 53/53/53 65/65/65
f 23/23/23 65/65/65 38/38/38
f 62/62/62 31/31/31 66/66/66
f 38/38/38 66/66/66 31/31/31
f 66/66/66 65/65/65 62/62/62
f 65/65/65 66/66/66 38/38/38
