#EarthPile_B_Alpha_02_27976_119.obj

v 2.001332 3.129639E-05 -0.5561148
v 2.051191 3.129639E-05 -0.1123326
v 1.354192 0.02093889 -0.5246862
v 1.815167 3.129639E-05 -0.9620039
v 1.505146 3.129639E-05 -1.302354
v 1.449785 3.129639E-05 -0.07939103
v 1.961238 3.129639E-05 0.3391521
v 1.02966 0.06550817 -0.9413725
v 1.092723 3.129639E-05 -1.55392
v 0.6056836 3.129639E-05 -1.699578
v 1.38624 0.06550817 0.2397085
v 1.737662 3.129639E-05 0.7674607
v 0.6375936 0.2755244 -0.3209164
v 0.2248273 0.0571202 -1.212745
v 0.07745004 3.129639E-05 -1.729425
v 1.228134 0.06550817 0.5424405
v 1.395661 3.129639E-05 1.143503
v 0.9148802 0.1383092 -0.05016316
v 0.2604509 0.3659159 -0.07774052
v 0.7862775 0.2165572 0.1359324
v 0.5094724 0.1940839 -0.7351269
v -0.3223185 0.01542966 -1.160203
v -0.4560102 3.129639E-05 -1.641535
v 0.9864712 3.129639E-05 0.8081734
v 0.95855 3.129639E-05 1.441558
v 0.605271 0.2789673 0.2672859
v 0.6774811 0.06550817 1.018889
v 0.456037 3.129639E-05 1.641477
v 0.412986 0.303005 -0.4546769
v -0.2029312 0.1524568 -0.7766649
v -0.07274684 0.2718312 -0.5378904
v -0.4975482 0.217809 -0.4926387
v 0.1241459 0.3697972 -0.2146645
v -0.2278265 0.358466 -0.1107508
v -0.8731779 0.05987429 -0.8855301
v -0.9585233 3.129639E-05 -1.441616
v -1.395635 3.129639E-05 -1.143561
v 1.337352E-05 0.3816903 -2.877044E-05
v -0.7380419 0.2002186 -0.3260055
v -1.172678 0.06431864 -0.4723511
v -1.737635 3.129639E-05 -0.7675182
v -0.2763791 0.3172149 0.008705204
v -0.246326 0.356463 0.1271984
v -0.648364 0.1350544 -0.007387316
v 0.142164 0.3747423 0.1711434
v -1.436485 0.004099558 0.01296903
v -1.961211 3.129639E-05 -0.3392096
v -2.051164 3.129639E-05 0.1122063
v -2.001305 3.129639E-05 0.5560572
v -0.9549472 0.03846595 0.1688052
v -0.8720775 0.1098282 0.4621842
v -1.815072 3.129639E-05 0.9619464
v -1.505119 3.129639E-05 1.302296
v -0.6410055 0.1250385 0.1780893
v -1.063812 0.06550817 0.9204084
v -1.092696 3.129639E-05 1.553862
v -0.600224 0.2179971 0.5193333
v -0.6385984 0.06550817 1.138276
v -0.6056569 3.129639E-05 1.69952
v -0.260768 0.296432 0.5656853
v 0.1568123 0.06550817 1.187517
v -0.0774233 3.129639E-05 1.729367
v -0.07948644 0.3793113 0.2270546
v -0.02577592 0.3184034 0.5771701
v 0.3528798 0.1755554 0.7198021
v 0.2899539 0.2894839 0.4531064
v 0.6586377 0.1437561 0.5396209

vn 0.03164673 0.9995117 0
vn 0.01124573 1 0
vn 0.1845703 0.9829102 0
vn 0.02656555 0.9995117 0
vn 0.07250977 0.9946289 -0.07049561
vn 0.1490479 0.9887695 0
vn 0.06726074 0.9975586 0
vn 0.1337891 0.9848633 -0.1119995
vn 0.04190063 0.9946289 -0.09210205
vn 0.02145386 0.9946289 -0.09887695
vn 0.1695557 0.9848633 -0.04119873
vn 0.0980835 0.9946289 0.02479553
vn 0.2717285 0.9589844 -0.07910156
vn -0.01428986 0.9848633 -0.1739502
vn -0.02450562 0.9946289 -0.09814453
vn 0.1134033 0.9794922 0.1662598
vn 0.01635742 1 0
vn 0.2819824 0.9589844 0.02458191
vn 0.2052002 0.9785156 0
vn 0.3022461 0.9487305 -0.09033203
vn 0.07250977 0.9541016 -0.2907715
vn -0.02961731 0.9848633 -0.1719971
vn 0.006137848 1 -0.00248909
vn 0.09295654 0.9848633 0.1477051
vn 0.06231689 0.9946289 0.07965088
vn 0.2410889 0.9589844 0.1481934
vn 0.1337891 0.9848633 0.1119995
vn 0.03677368 0.9897461 0.1379395
vn 0.0980835 0.9589844 -0.2653809
vn -0.08068848 0.9438477 -0.3205566
vn -0.07556152 0.9384766 -0.3364258
vn -0.1470947 0.9541016 -0.2612305
vn -0.009185791 0.9794922 -0.2010498
vn -0.1879883 0.9746094 -0.1230469
vn -0.08581543 0.9848633 -0.1519775
vn -0.05004883 0.9946289 -0.08789063
vn -0.07556152 0.9946289 -0.06726074
vn -0.03469849 0.9995117 0
vn -0.300293 0.9541016 0
vn -0.1469727 0.9892578 0
vn -0.07556152 0.9946289 -0.06726074
vn -0.3718262 0.9282227 0
vn -0.3054199 0.9487305 -0.07940674
vn -0.3513184 0.918457 0.1826172
vn 0.1337891 0.9848633 0.1119995
vn -0.06015015 0.9980469 0
vn -0.004074097 1 -0.005218506
vn -0.009185791 1 0
vn -0.0703125 0.9975586 0
vn -0.1419678 0.9897461 -0.01457977
vn -0.1981201 0.9746094 -0.105835
vn -0.08581543 0.9946289 0.05358887
vn -0.07556152 0.9946289 0.06726074
vn -0.4433594 0.8774414 -0.1834717
vn -0.1011353 0.9897461 0.100708
vn -0.05004883 0.9946289 0.08789063
vn -0.2695313 0.9541016 0.1309814
vn -0.05514526 0.9794922 0.1934814
vn -0.01428986 0.9946289 0.1001587
vn -0.1828613 0.9589844 0.2160645
vn 0.02656555 0.9746094 0.2230225
vn 0.001031876 0.9946289 0.1011353
vn -0.07049561 0.9897461 0.1240845
vn 0.03677368 0.9438477 0.3283691
vn 0.1950684 0.9438477 0.2668457
vn 0.2053223 0.9384766 0.2768555
vn 0.1899414 0.9384766 0.2875977

vt -0.02931213 1.525391
vt -0.03031921 1.679688
vt 0.1158447 1.479492
vt -0.02172852 1.382813
vt 0.01316833 1.241211
vt 0.1148071 1.637695
vt -0.01211548 1.833008
vt 0.1608887 1.3125
vt 0.1011353 1.126953
vt 0.2154541 1.039063
vt 0.1420898 1.744141
vt 0.07537842 1.947266
vt 0.3139648 1.480469
vt 0.3525391 1.163086
vt 0.3571777 0.9985352
vt 0.2043457 1.824219
vt 0.2154541 2.005859
vt 0.2548828 1.598633
vt 0.4277344 1.523438
vt 0.3039551 1.642578
vt 0.3171387 1.339844
vt 0.5 1.135742
vt 0.5 0.9936523
vt 0.2963867 1.875
vt 0.3571777 2.033203
vt 0.3625488 1.664063
vt 0.3989258 1.902344
vt 0.5 2.041016
vt 0.3620605 1.419922
vt 0.496582 1.265625
vt 0.4804688 1.351563
vt 0.6005859 1.320313
vt 0.453125 1.469727
vt 0.550293 1.470703
vt 0.6972656 1.138672
vt 0.6601563 0.9897461
vt 0.8447266 0.9960938
vt 0.5 1.525391
vt 0.6777344 1.348633
vt 0.809082 1.236328
vt 0.9589844 1.083984
vt 0.5712891 1.504883
vt 0.5717773 1.543945
vt 0.6655273 1.466797
vt 0.4758301 1.591797
vt 0.8813477 1.394531
vt 0.9951172 1.232422
vt 1.012695 1.374023
vt 1.017578 1.525391
vt 0.7563477 1.495117
vt 0.7558594 1.594727
vt 0.9931641 1.667969
vt 0.9550781 1.795898
vt 0.6767578 1.525391
vt 0.8378906 1.720703
vt 0.8901367 1.916016
vt 0.690918 1.635742
vt 0.7446289 1.825195
vt 0.7758789 2.003906
vt 0.6069336 1.679688
vt 0.5439453 1.910156
vt 0.6425781 2.039063
vt 0.5366211 1.589844
vt 0.5478516 1.704102
vt 0.4606934 1.78125
vt 0.458252 1.692383
vt 0.361084 1.762695

g EarthPile_B_Alpha_02_27976_119
usemtl EarthPile_B_Alpha_02_27976_119
usemap EarthPile_B_Alpha_02_27976_119
f 1/1/1 3/3/3 2/2/2
f 4/4/4 3/3/3 1/1/1
f 3/3/3 4/4/4 5/5/5
f 2/2/2 3/3/3 6/6/6
f 2/2/2 6/6/6 7/7/7
f 8/8/8 3/3/3 5/5/5
f 8/8/8 5/5/5 9/9/9
f 8/8/8 9/9/9 10/10/10
f 7/7/7 6/6/6 11/11/11
f 7/7/7 11/11/11 12/12/12
f 3/3/3 13/13/13 6/6/6
f 13/13/13 3/3/3 8/8/8
f 14/14/14 8/8/8 10/10/10
f 15/15/15 14/14/14 10/10/10
f 12/12/12 11/11/11 16/16/16
f 12/12/12 16/16/16 17/17/17
f 6/6/6 18/18/18 11/11/11
f 6/6/6 13/13/13 18/18/18
f 13/13/13 19/19/19 18/18/18
f 11/11/11 18/18/18 20/20/20
f 11/11/11 20/20/20 16/16/16
f 18/18/18 19/19/19 20/20/20
f 21/21/21 13/13/13 8/8/8
f 21/21/21 8/8/8 14/14/14
f 15/15/15 22/22/22 14/14/14
f 23/23/23 22/22/22 15/15/15
f 17/17/17 16/16/16 24/24/24
f 17/17/17 24/24/24 25/25/25
f 16/16/16 20/20/20 26/26/26
f 20/20/20 19/19/19 26/26/26
f 16/16/16 26/26/26 24/24/24
f 25/25/25 24/24/24 27/27/27
f 25/25/25 27/27/27 28/28/28
f 19/19/19 13/13/13 29/29/29
f 29/29/29 13/13/13 21/21/21
f 14/14/14 30/30/30 21/21/21
f 22/22/22 30/30/30 14/14/14
f 21/21/21 31/31/31 29/29/29
f 30/30/30 31/31/31 21/21/21
f 22/22/22 32/32/32 30/30/30
f 30/30/30 32/32/32 31/31/31
f 31/31/31 33/33/33 29/29/29
f 33/33/33 19/19/19 29/29/29
f 31/31/31 34/34/34 33/33/33
f 32/32/32 34/34/34 31/31/31
f 35/35/35 32/32/32 22/22/22
f 23/23/23 35/35/35 22/22/22
f 36/36/36 35/35/35 23/23/23
f 37/37/37 35/35/35 36/36/36
f 19/19/19 33/33/33 38/38/38
f 33/33/33 34/34/34 38/38/38
f 39/39/39 34/34/34 32/32/32
f 35/35/35 39/39/39 32/32/32
f 37/37/37 40/40/40 35/35/35
f 40/40/40 39/39/39 35/35/35
f 41/41/41 40/40/40 37/37/37
f 39/39/39 42/42/42 34/34/34
f 34/34/34 42/42/42 38/38/38
f 42/42/42 43/43/43 38/38/38
f 44/44/44 42/42/42 39/39/39
f 40/40/40 44/44/44 39/39/39
f 44/44/44 43/43/43 42/42/42
f 45/45/45 19/19/19 38/38/38
f 26/26/26 19/19/19 45/45/45
f 41/41/41 46/46/46 40/40/40
f 47/47/47 46/46/46 41/41/41
f 48/48/48 46/46/46 47/47/47
f 48/48/48 49/49/49 46/46/46
f 46/46/46 50/50/50 40/40/40
f 50/50/50 44/44/44 40/40/40
f 49/49/49 50/50/50 46/46/46
f 49/49/49 51/51/51 50/50/50
f 52/52/52 51/51/51 49/49/49
f 51/51/51 52/52/52 53/53/53
f 50/50/50 54/54/54 44/44/44
f 54/54/54 50/50/50 51/51/51
f 54/54/54 43/43/43 44/44/44
f 43/43/43 54/54/54 51/51/51
f 55/55/55 51/51/51 53/53/53
f 55/55/55 53/53/53 56/56/56
f 57/57/57 51/51/51 55/55/55
f 43/43/43 51/51/51 57/57/57
f 58/58/58 55/55/55 56/56/56
f 57/57/57 55/55/55 58/58/58
f 58/58/58 56/56/56 59/59/59
f 43/43/43 57/57/57 60/60/60
f 60/60/60 57/57/57 58/58/58
f 59/59/59 61/61/61 58/58/58
f 62/62/62 61/61/61 59/59/59
f 28/28/28 61/61/61 62/62/62
f 28/28/28 27/27/27 61/61/61
f 63/63/63 43/43/43 60/60/60
f 43/43/43 63/63/63 38/38/38
f 63/63/63 45/45/45 38/38/38
f 58/58/58 64/64/64 60/60/60
f 63/63/63 60/60/60 64/64/64
f 61/61/61 64/64/64 58/58/58
f 64/64/64 45/45/45 63/63/63
f 27/27/27 65/65/65 61/61/61
f 61/61/61 65/65/65 64/64/64
f 66/66/66 45/45/45 64/64/64
f 65/65/65 66/66/66 64/64/64
f 26/26/26 45/45/45 66/66/66
f 27/27/27 67/67/67 65/65/65
f 67/67/67 66/66/66 65/65/65
f 67/67/67 26/26/26 66/66/66
f 24/24/24 67/67/67 27/27/27
f 24/24/24 26/26/26 67/67/67
