#Fence_08_(1)_24919_269.obj

v 0.1379104 0.5004427 -0.09826727
v 0.1309882 2.004805 -0.0479763
v 0.1411798 2.017663 -0.04736597
v 0.1379104 0.5004427 -0.09826727
v 0.1309882 2.004805 -0.0479763
v 0.1411798 2.017663 -0.04736597
v 0.1515479 2.008354 -0.04773217
v 0.1589103 0.5005708 -0.09912176
v 0.1484081 0.5003485 -0.09118719
v 0.1411798 2.017663 -0.04736597
v 0.1379104 0.5004427 -0.09826727
v -0.1873696 0.6790047 -7.982789
v -0.1662475 0.6791369 -7.983521
v -0.1737341 2.186773 -7.923343
v -0.1841022 2.196082 -7.92261
v -0.1942938 2.183222 -7.922732
v 0.1379104 0.5004427 -0.09826727
v 0.00794603 2.04941 -2.162356
v 0.1309882 2.004805 -0.0479763
v -0.07803598 0.5450841 -2.222535
v -0.02479067 0.589724 -4.490357
v -0.1149741 2.094013 -4.435061
v -0.1942938 2.183222 -7.922732
v -0.1873696 0.6790047 -7.982789
v 0.1515479 2.008354 -0.04773217
v -0.05703601 0.5452122 -2.223267
v 0.1589103 0.5005708 -0.09912176
v 0.02862784 2.052957 -2.162356
v -0.00366859 0.5898542 -4.49109
v -0.09429222 2.097563 -4.435672
v -0.1662475 0.6791369 -7.983521
v -0.1737341 2.186773 -7.923343
v 0.01825971 2.062269 -2.162356
v 0.1411798 2.017663 -0.04736597
v 0.1309882 2.004805 -0.0479763
v 0.00794603 2.04941 -2.162356
v -0.1046604 2.106874 -4.434817
v -0.1149741 2.094013 -4.435061
v -0.1841022 2.196082 -7.92261
v -0.1942938 2.183222 -7.922732
v 0.02862784 2.052957 -2.162356
v 0.1515479 2.008354 -0.04773217
v 0.1411798 2.017663 -0.04736597
v 0.01825971 2.062269 -2.162356
v -0.09429222 2.097563 -4.435672
v -0.1046604 2.106874 -4.434817
v -0.1737341 2.186773 -7.923343
v -0.1841022 2.196082 -7.92261
v 0.1515479 2.008354 -0.04773217
v 0.1589103 0.5005708 -0.09912176
v 0.1379104 0.5004427 -0.09826727
v 0.1411798 2.017663 -0.04736597
v -0.006173854 -1.393875 0.05542178
v -0.00258691 2.559166 0.177853
v -0.1239542 2.557929 0.2213101
v -0.1275411 -1.395111 0.09887882
v -0.1275411 -1.395111 0.09887882
v -0.1239542 2.557929 0.2213101
v -0.1202258 2.553934 0.3502163
v -0.1238128 -1.399106 0.2277851
v -0.1238128 -1.399106 0.2277851
v -0.1202258 2.553934 0.3502163
v 0.003548373 2.552701 0.3864712
v -3.857142E-05 -1.400339 0.2639179
v -3.857142E-05 -1.400339 0.2639179
v 0.003548373 2.552701 0.3864712
v 0.07635492 2.555933 0.2799038
v 0.07276798 -1.397108 0.1574726
v 0.07276798 -1.397108 0.1574726
v 0.07635492 2.555933 0.2799038
v -0.00258691 2.559166 0.177853
v -0.006173854 -1.393875 0.05542178
v 0.07276798 -1.397108 0.1574726
v -0.006173854 -1.393875 0.05542178
v -0.1275411 -1.395111 0.09887882
v -0.1238128 -1.399106 0.2277851
v -3.857142E-05 -1.400339 0.2639179
v -0.1239542 2.557929 0.2213101
v -0.00258691 2.559166 0.177853
v 0.07635492 2.555933 0.2799038
v -0.1202258 2.553934 0.3502163
v 0.003548373 2.552701 0.3864712

vn -0.9985352 -0.0390625 0.03720093
vn -0.9985352 -0.0390625 0.03720093
vn -0.9985352 -0.0390625 0.03720093
vn -0.9985352 -0.03915405 0.03720093
vn -0.9985352 -0.03915405 0.03720093
vn -0.9985352 -0.03915405 0.03720093
vn -0.9985352 -0.0390625 0.03720093
vn -0.9985352 -0.0390625 0.03720093
vn -0.9985352 -0.0390625 0.03720093
vn -0.9985352 -0.0390625 0.03720093
vn -0.9985352 -0.0390625 0.03720093
vn 0.9985352 0.03915405 -0.03720093
vn 0.9985352 0.03915405 -0.03720093
vn 0.9985352 0.03915405 -0.03720093
vn 0.9985352 0.03915405 -0.03720093
vn 0.9985352 0.03915405 -0.03720093
vn -0.1494141 0.00610733 -0.9887695
vn -0.07043457 -0.008956909 -0.9975586
vn -0.1494141 0.00610733 -0.9887695
vn -0.05255127 0.02557373 -0.9985352
vn -0.03781128 -0.02714539 -0.9990234
vn -0.07897949 -0.06298828 -0.9951172
vn -0.05221558 -0.04830933 -0.9975586
vn -0.05221558 -0.04830933 -0.9975586
vn 0.1494141 -0.005844116 0.9887695
vn 0.05249023 -0.02526855 0.9985352
vn 0.1494141 -0.005844116 0.9887695
vn 0.07037354 0.009216309 0.9975586
vn 0.03778076 0.02738953 0.9990234
vn 0.07897949 0.06323242 0.9946289
vn 0.05218506 0.04855347 0.9975586
vn 0.05218506 0.04855347 0.9975586
vn -0.109314 0.6083984 -0.7861328
vn -0.109314 0.6083984 -0.7861328
vn -0.109314 0.6083984 -0.7861328
vn -0.109314 0.6083984 -0.7861328
vn -0.08074951 0.6098633 -0.7880859
vn -0.08074951 0.6098633 -0.7880859
vn -0.05212402 0.6113281 -0.7895508
vn -0.05212402 0.6113281 -0.7895508
vn 0.04315186 0.7539063 0.6552734
vn 0.04315186 0.7539063 0.6552734
vn 0.04315186 0.7539063 0.6552734
vn 0.04315186 0.7539063 0.6552734
vn 0.01864624 0.7539063 0.6567383
vn 0.01864624 0.7539063 0.6567383
vn -0.005889893 0.7529297 0.6582031
vn -0.005889893 0.7529297 0.6582031
vn -0.9985352 -0.03915405 0.03720093
vn -0.9985352 -0.03915405 0.03720093
vn -0.9985352 -0.03915405 0.03720093
vn -0.9985352 -0.03915405 0.03720093
vn 0.940918 0.02471924 -0.3371582
vn 0.940918 0.02471924 -0.3371582
vn 0.940918 0.02471924 -0.3371582
vn 0.940918 0.02471924 -0.3371582
vn -0.02937317 -0.01405334 -0.9995117
vn -0.02937317 -0.01405334 -0.9995117
vn -0.02937317 -0.01405334 -0.9995117
vn -0.02937317 -0.01405334 -0.9995117
vn -0.9594727 -0.03341675 -0.2805176
vn -0.9594727 -0.03341675 -0.2805176
vn -0.9594727 -0.03341675 -0.2805176
vn -0.9594727 -0.03341675 -0.2805176
vn -0.5634766 -0.006591797 0.8261719
vn -0.5634766 -0.006591797 0.8261719
vn -0.5634766 -0.006591797 0.8261719
vn -0.5634766 -0.006591797 0.8261719
vn 0.6108398 0.02932739 0.7910156
vn 0.6108398 0.02932739 0.7910156
vn 0.6108398 0.02932739 0.7910156
vn 0.6108398 0.02932739 0.7910156
vn 0.03096008 -0.9995117 0.01314545
vn 0.03096008 -0.9995117 0.01314545
vn 0.03096008 -0.9995117 0.01314545
vn 0.03096008 -0.9995117 0.01314545
vn 0.03096008 -0.9995117 0.01314545
vn -0.03096008 0.9995117 -0.01314545
vn -0.03096008 0.9995117 -0.01314545
vn -0.03096008 0.9995117 -0.01314545
vn -0.03096008 0.9995117 -0.01314545
vn -0.03096008 0.9995117 -0.01314545

vt 0.08563232 0.5039063
vt 0.007865906 0.5039063
vt 0.007091522 0.5073242
vt 0.08563232 0.5039063
vt 0.007865906 0.5039063
vt 0.007091522 0.5073242
vt 0.007656097 0.5107422
vt 0.08563232 0.5107422
vt 0.08563232 0.5073242
vt 0.007091522 0.5073242
vt 0.08563232 0.5039063
vt 0.08563232 0.5039063
vt 0.08563232 0.5107422
vt 0.007656097 0.5107422
vt 0.007091522 0.5073242
vt 0.007865906 0.5039063
vt 0.5092773 0.2349854
vt 0.5703125 0.5673828
vt 0.5097656 0.5673828
vt 0.5703125 0.2349854
vt 0.6308594 0.2347412
vt 0.6308594 0.5673828
vt 0.7524414 0.5673828
vt 0.7524414 0.2346191
vt 0.5097656 0.5708008
vt 0.5703125 0.2349854
vt 0.5092773 0.2349854
vt 0.5703125 0.5708008
vt 0.6308594 0.2347412
vt 0.6308594 0.5708008
vt 0.7524414 0.2346191
vt 0.7524414 0.5708008
vt 0.5703125 0.5693359
vt 0.5097656 0.5693359
vt 0.5097656 0.5673828
vt 0.5703125 0.5673828
vt 0.6308594 0.5688477
vt 0.6308594 0.5673828
vt 0.7524414 0.5688477
vt 0.7524414 0.5673828
vt 0.5703125 0.5708008
vt 0.5097656 0.5708008
vt 0.5097656 0.5693359
vt 0.5703125 0.5693359
vt 0.6308594 0.5708008
vt 0.6308594 0.5688477
vt 0.7524414 0.5703125
vt 0.7524414 0.5688477
vt 0.007656097 0.5107422
vt 0.08563232 0.5107422
vt 0.08563232 0.5039063
vt 0.007091522 0.5073242
vt 0.4858398 0.7802734
vt 0.2198486 0.7802734
vt 0.2198486 0.8129883
vt 0.4858398 0.8129883
vt 0.4858398 0.6508789
vt 0.2198486 0.6508789
vt 0.2198486 0.6831055
vt 0.4858398 0.6831055
vt 0.4858398 0.6831055
vt 0.2198486 0.6831055
vt 0.2198486 0.7158203
vt 0.4858398 0.7158203
vt 0.4858398 0.7158203
vt 0.2198486 0.7158203
vt 0.2198486 0.7480469
vt 0.4858398 0.7480469
vt 0.4858398 0.7480469
vt 0.2198486 0.7480469
vt 0.2198486 0.7802734
vt 0.4858398 0.7802734
vt 0.5351563 0.7314453
vt 0.5214844 0.6552734
vt 0.4987793 0.6845703
vt 0.4987793 0.7783203
vt 0.5214844 0.8076172
vt 0.4987793 0.7783203
vt 0.5214844 0.8076172
vt 0.5351563 0.7314453
vt 0.4987793 0.6845703
vt 0.5214844 0.6552734

g Fence_08_(1)_24919_269
usemtl Fence_08_(1)_24919_269
usemap Fence_08_(1)_24919_269
f 1/1/1 3/3/3 2/2/2
f 4/4/4 6/6/6 5/5/5
f 7/7/7 9/9/9 8/8/8
f 9/9/9 7/7/7 10/10/10
f 9/9/9 10/10/10 11/11/11
f 12/12/12 14/14/14 13/13/13
f 14/14/14 12/12/12 15/15/15
f 15/15/15 12/12/12 16/16/16
f 17/17/17 19/19/19 18/18/18
f 17/17/17 18/18/18 20/20/20
f 20/20/20 18/18/18 21/21/21
f 21/21/21 18/18/18 22/22/22
f 21/21/21 22/22/22 23/23/23
f 21/21/21 23/23/23 24/24/24
f 25/25/25 27/27/27 26/26/26
f 25/25/25 26/26/26 28/28/28
f 28/28/28 26/26/26 29/29/29
f 28/28/28 29/29/29 30/30/30
f 30/30/30 29/29/29 31/31/31
f 30/30/30 31/31/31 32/32/32
f 33/33/33 35/35/35 34/34/34
f 33/33/33 36/36/36 35/35/35
f 37/37/37 36/36/36 33/33/33
f 37/37/37 38/38/38 36/36/36
f 39/39/39 38/38/38 37/37/37
f 39/39/39 40/40/40 38/38/38
f 41/41/41 43/43/43 42/42/42
f 41/41/41 44/44/44 43/43/43
f 45/45/45 44/44/44 41/41/41
f 45/45/45 46/46/46 44/44/44
f 47/47/47 46/46/46 45/45/45
f 47/47/47 48/48/48 46/46/46
f 49/49/49 51/51/51 50/50/50
f 51/51/51 49/49/49 52/52/52
f 53/53/53 55/55/55 54/54/54
f 53/53/53 56/56/56 55/55/55
f 57/57/57 59/59/59 58/58/58
f 57/57/57 60/60/60 59/59/59
f 61/61/61 63/63/63 62/62/62
f 61/61/61 64/64/64 63/63/63
f 65/65/65 67/67/67 66/66/66
f 65/65/65 68/68/68 67/67/67
f 69/69/69 71/71/71 70/70/70
f 69/69/69 72/72/72 71/71/71
f 73/73/73 75/75/75 74/74/74
f 75/75/75 73/73/73 76/76/76
f 76/76/76 73/73/73 77/77/77
f 78/78/78 80/80/80 79/79/79
f 80/80/80 78/78/78 81/81/81
f 80/80/80 81/81/81 82/82/82
