#Fence_02_24972_283.obj

v -0.330567 2.264674 -8.160425
v -0.3094488 2.264789 -8.16213
v -0.3146978 3.555887 -8.135424
v -0.3250738 3.565209 -8.134376
v -0.3353277 3.552347 -8.133757
v 0.03967283 2.172982 -0.2924332
v -0.1455081 2.21883 -4.671192
v 0.001952804 3.506505 -4.63096
v 0.03491209 3.46066 -0.259288
v 0.05554197 3.464202 -0.2614438
v 0.02258269 3.510046 -4.632015
v -0.12439 2.218946 -4.672898
v 0.06079099 2.173104 -0.2942606
v 0.01220671 3.519368 -4.631578
v 0.04516599 3.473521 -0.2602735
v 0.03491209 3.46066 -0.259288
v 0.001952804 3.506505 -4.63096
v 0.02258269 3.510046 -4.632015
v 0.05554197 3.464202 -0.2614438
v 0.04516599 3.473521 -0.2602735
v 0.01220671 3.519368 -4.631578
v 0.05554197 3.464202 -0.2614438
v 0.06079099 2.173104 -0.2942606
v 0.03967283 2.172982 -0.2924332
v 0.04516599 3.473521 -0.2602735
v 0.03491209 3.46066 -0.259288
v 0.009155259 0.5247248 -0.201589
v 0.04577635 2.027591 -0.2055217
v 0.02978514 0.5242772 -0.2029543
v 0.02526854 2.034755 -0.2042081
v 0.03564451 2.042269 -0.2049554
v -0.08337403 -0.001649045 -0.09845197
v -0.06677248 3.952439 -0.1786635
v -0.1861572 3.953929 -0.129834
v -0.2027588 -0.0001567188 -0.04962237
v -0.2027588 -0.0001567188 -0.04962237
v -0.1861572 3.953929 -0.129834
v -0.1766357 3.956502 -0.001276384
v -0.1932373 0.002409796 0.07905716
v -0.1932373 0.002409796 0.07905716
v -0.1766357 3.956502 -0.001276384
v -0.05126953 3.9566 0.02940155
v -0.06787109 0.002511807 0.1096131
v -0.06787109 0.002511807 0.1096131
v -0.05126953 3.9566 0.02940155
v 0.01660155 3.954086 -0.0802116
v 0 0 0
v 0 0 0
v 0.01660155 3.954086 -0.0802116
v -0.06677248 3.952439 -0.1786635
v -0.08337403 -0.001649045 -0.09845197
v 0 0 0
v -0.08337403 -0.001649045 -0.09845197
v -0.2027588 -0.0001567188 -0.04962237
v -0.1932373 0.002409796 0.07905716
v -0.06787109 0.002511807 0.1096131
v -0.1861572 3.953929 -0.129834
v -0.06677248 3.952439 -0.1786635
v 0.01660155 3.954086 -0.0802116
v -0.1766357 3.956502 -0.001276384
v -0.05126953 3.9566 0.02940155
v -0.2670904 2.02295 -8.061412
v -0.3038335 0.5200833 -8.05748
v -0.2832037 0.5196356 -8.058845
v -0.2877203 2.030115 -8.060099
v -0.2773443 2.037622 -8.060724
v 0.02978514 0.5242772 -0.2029543
v 0.04577635 2.027591 -0.2055217
v -0.2670904 2.02295 -8.061412
v -0.2832037 0.5196356 -8.058845
v 0.03564451 2.042269 -0.2049554
v -0.2773443 2.037622 -8.060724
v -0.2670904 2.02295 -8.061412
v 0.04577635 2.027591 -0.2055217
v 0.02526854 2.034755 -0.2042081
v -0.2877203 2.030115 -8.060099
v -0.2773443 2.037622 -8.060724
v 0.03564451 2.042269 -0.2049554
v 0.009155259 0.5247248 -0.201589
v -0.3038335 0.5200833 -8.05748
v -0.2877203 2.030115 -8.060099
v 0.02526854 2.034755 -0.2042081
v 0.02258269 3.510046 -4.632015
v -0.3146978 3.555887 -8.135424
v -0.3094488 2.264789 -8.16213
v -0.12439 2.218946 -4.672898
v -0.3146978 3.555887 -8.135424
v 0.02258269 3.510046 -4.632015
v 0.01220671 3.519368 -4.631578
v -0.3250738 3.565209 -8.134376
v -0.3250738 3.565209 -8.134376
v 0.01220671 3.519368 -4.631578
v 0.001952804 3.506505 -4.63096
v -0.3353277 3.552347 -8.133757
v -0.1455081 2.21883 -4.671192
v -0.330567 2.264674 -8.160425
v -0.3353277 3.552347 -8.133757
v 0.001952804 3.506505 -4.63096

vn -0.08190918 -0.02642822 -0.9960938
vn -0.08190918 -0.02642822 -0.9960938
vn -0.08190918 -0.02642822 -0.9960938
vn -0.08190918 -0.02642822 -0.9960938
vn -0.08190918 -0.02642822 -0.9960938
vn -0.9970703 0.05654907 0.04675293
vn -0.9970703 0.05654907 0.04675293
vn -0.9970703 0.05654907 0.04675293
vn -0.9970703 0.05654907 0.04675293
vn 0.9975586 -0.05599976 -0.04678345
vn 0.9975586 -0.05599976 -0.04678345
vn 0.9975586 -0.05599976 -0.04678345
vn 0.9975586 -0.05599976 -0.04678345
vn -0.7817383 0.6240234 -0.005126953
vn -0.7817383 0.6240234 -0.005126953
vn -0.7817383 0.6240234 -0.005126953
vn -0.7817383 0.6240234 -0.005126953
vn 0.6704102 0.7412109 -0.02947998
vn 0.6704102 0.7412109 -0.02947998
vn 0.6704102 0.7412109 -0.02947998
vn 0.6704102 0.7412109 -0.02947998
vn 0.08190918 0.02642822 0.9960938
vn 0.08190918 0.02642822 0.9960938
vn 0.08190918 0.02642822 0.9960938
vn 0.08190918 0.02642822 0.9960938
vn 0.08190918 0.02642822 0.9960938
vn 0.06433105 0.04779053 0.996582
vn 0.06427002 0.04776001 0.996582
vn 0.06433105 0.04779053 0.996582
vn 0.06427002 0.04776001 0.996582
vn 0.06420898 0.04776001 0.996582
vn 0.2376709 -0.06616211 -0.9692383
vn 0.2376709 -0.06616211 -0.9692383
vn -0.8505859 -0.0317688 -0.5253906
vn -0.8505859 -0.0317688 -0.5253906
vn -0.8505859 -0.0317688 -0.5253906
vn -0.8505859 -0.0317688 -0.5253906
vn -0.7631836 0.04653931 0.6445313
vn -0.7631836 0.04653931 0.6445313
vn -0.7631836 0.04653931 0.6445313
vn -0.7631836 0.04653931 0.6445313
vn 0.3786621 0.06051636 0.9233398
vn 0.3786621 0.06051636 0.9233398
vn 0.3786621 0.06051636 0.9233398
vn 0.3786621 0.06051636 0.9233398
vn 0.9970703 -0.009140015 -0.07366943
vn 0.9970703 -0.009140015 -0.07366943
vn 0.9970703 -0.009140015 -0.07366943
vn 0.9970703 -0.009140015 -0.07366943
vn 0.2376709 -0.06616211 -0.9692383
vn 0.2376709 -0.06616211 -0.9692383
vn -0.004188538 -0.9975586 0.06713867
vn -0.004188538 -0.9975586 0.06713867
vn -0.004188538 -0.9975586 0.06713867
vn -0.004188538 -0.9975586 0.06713867
vn -0.004188538 -0.9975586 0.06713867
vn 0.004188538 0.9975586 -0.06707764
vn 0.004188538 0.9975586 -0.06707764
vn 0.004188538 0.9975586 -0.06707764
vn 0.004188538 0.9975586 -0.06707764
vn 0.004188538 0.9975586 -0.06707764
vn -0.0645752 -0.0475769 -0.996582
vn -0.06463623 -0.04779053 -0.996582
vn -0.06463623 -0.04779053 -0.996582
vn -0.0645752 -0.0475769 -0.996582
vn -0.06445313 -0.04736328 -0.996582
vn 0.9975586 -0.01402283 -0.06878662
vn 0.9975586 -0.01402283 -0.06878662
vn 0.9975586 -0.01402283 -0.06878662
vn 0.9975586 -0.01402283 -0.06878662
vn 0.8198242 0.5664063 -0.08422852
vn 0.8198242 0.5664063 -0.08422852
vn 0.8198242 0.5664063 -0.08422852
vn 0.8198242 0.5664063 -0.08422852
vn -0.5839844 0.8120117 0.001719475
vn -0.5839844 0.8120117 0.001719475
vn -0.5839844 0.8120117 0.001719475
vn -0.5839844 0.8120117 0.001719475
vn -0.9975586 0.01402283 0.06878662
vn -0.9975586 0.01402283 0.06878662
vn -0.9975586 0.01402283 0.06878662
vn -0.9975586 0.01402283 0.06878662
vn 0.9916992 -0.0574646 -0.1135254
vn 0.9916992 -0.0574646 -0.1135254
vn 0.9916992 -0.0574646 -0.1135254
vn 0.9916992 -0.0574646 -0.1135254
vn 0.6630859 0.7392578 -0.1189575
vn 0.6630859 0.7392578 -0.1189575
vn 0.6630859 0.7392578 -0.1189575
vn 0.6630859 0.7392578 -0.1189575
vn -0.7729492 0.6264648 0.09918213
vn -0.7729492 0.6264648 0.09918213
vn -0.7729492 0.6264648 0.09918213
vn -0.7729492 0.6264648 0.09918213
vn -0.9916992 0.05804443 0.1135254
vn -0.9916992 0.05804443 0.1135254
vn -0.9916992 0.05804443 0.1135254
vn -0.9916992 0.05804443 0.1135254

vt 0.08563232 0.5039063
vt 0.08563232 0.5107422
vt 0.007656097 0.5107422
vt 0.007091522 0.5073242
vt 0.007865906 0.5039063
vt 0.2556152 0.3491211
vt 0.3823242 0.3491211
vt 0.3823242 0.6264648
vt 0.2558594 0.6269531
vt 0.2558594 0.6323242
vt 0.3823242 0.6323242
vt 0.3823242 0.3491211
vt 0.2556152 0.3491211
vt 0.3823242 0.6293945
vt 0.2558594 0.6293945
vt 0.2558594 0.6269531
vt 0.3823242 0.6264648
vt 0.3823242 0.6323242
vt 0.2558594 0.6323242
vt 0.2558594 0.6293945
vt 0.3823242 0.6293945
vt 0.007656097 0.5107422
vt 0.08563232 0.5107422
vt 0.08563232 0.5039063
vt 0.007091522 0.5073242
vt 0.007865906 0.5039063
vt 0.002258301 0.002243042
vt 0.002342224 0.3381348
vt 0.002258301 0.002243042
vt 0.002342224 0.3347168
vt 0.002342224 0.3364258
vt 0.269043 0.7802734
vt 0.003164291 0.7802734
vt 0.003164291 0.8129883
vt 0.269043 0.8129883
vt 0.269043 0.6508789
vt 0.003164291 0.6508789
vt 0.003164291 0.6831055
vt 0.269043 0.6831055
vt 0.269043 0.6831055
vt 0.003164291 0.6831055
vt 0.003164291 0.7158203
vt 0.269043 0.7158203
vt 0.269043 0.7158203
vt 0.003164291 0.7158203
vt 0.003164291 0.7480469
vt 0.269043 0.7480469
vt 0.269043 0.7480469
vt 0.003164291 0.7480469
vt 0.003164291 0.7802734
vt 0.269043 0.7802734
vt 0.5351563 0.7314453
vt 0.5214844 0.6552734
vt 0.4987793 0.6845703
vt 0.4987793 0.7783203
vt 0.5214844 0.8076172
vt 0.4987793 0.7783203
vt 0.5214844 0.8076172
vt 0.5351563 0.7314453
vt 0.4987793 0.6845703
vt 0.5214844 0.6552734
vt 0.2548828 0.3378906
vt 0.2546387 0.001841545
vt 0.2546387 0.001841545
vt 0.2548828 0.3344727
vt 0.2548828 0.3361816
vt 0.002258301 0.002243042
vt 0.002342224 0.3381348
vt 0.2548828 0.3378906
vt 0.2546387 0.001841545
vt 0.002342224 0.3364258
vt 0.2548828 0.3361816
vt 0.2548828 0.3378906
vt 0.002342224 0.3381348
vt 0.002342224 0.3347168
vt 0.2548828 0.3344727
vt 0.2548828 0.3361816
vt 0.002342224 0.3364258
vt 0.002258301 0.002243042
vt 0.2546387 0.001841545
vt 0.2548828 0.3344727
vt 0.002342224 0.3347168
vt 0.3823242 0.6323242
vt 0.5087891 0.6318359
vt 0.5087891 0.348877
vt 0.3823242 0.3491211
vt 0.5087891 0.6318359
vt 0.3823242 0.6323242
vt 0.3823242 0.6293945
vt 0.5087891 0.6293945
vt 0.5087891 0.6293945
vt 0.3823242 0.6293945
vt 0.3823242 0.6264648
vt 0.5087891 0.6264648
vt 0.3823242 0.3491211
vt 0.5087891 0.348877
vt 0.5087891 0.6264648
vt 0.3823242 0.6264648

g Fence_02_24972_283
usemtl Fence_02_24972_283
usemap Fence_02_24972_283
f 1/1/1 3/3/3 2/2/2
f 3/3/3 1/1/1 4/4/4
f 4/4/4 1/1/1 5/5/5
f 6/6/6 8/8/8 7/7/7
f 6/6/6 9/9/9 8/8/8
f 10/10/10 12/12/12 11/11/11
f 10/10/10 13/13/13 12/12/12
f 14/14/14 16/16/16 15/15/15
f 14/14/14 17/17/17 16/16/16
f 18/18/18 20/20/20 19/19/19
f 18/18/18 21/21/21 20/20/20
f 22/22/22 24/24/24 23/23/23
f 24/24/24 22/22/22 25/25/25
f 24/24/24 25/25/25 26/26/26
f 27/27/27 29/29/29 28/28/28
f 27/27/27 28/28/28 30/30/30
f 31/31/31 30/30/30 28/28/28
f 32/32/32 34/34/34 33/33/33
f 32/32/32 35/35/35 34/34/34
f 36/36/36 38/38/38 37/37/37
f 36/36/36 39/39/39 38/38/38
f 40/40/40 42/42/42 41/41/41
f 40/40/40 43/43/43 42/42/42
f 44/44/44 46/46/46 45/45/45
f 44/44/44 47/47/47 46/46/46
f 48/48/48 50/50/50 49/49/49
f 48/48/48 51/51/51 50/50/50
f 52/52/52 54/54/54 53/53/53
f 54/54/54 52/52/52 55/55/55
f 55/55/55 52/52/52 56/56/56
f 57/57/57 59/59/59 58/58/58
f 59/59/59 57/57/57 60/60/60
f 59/59/59 60/60/60 61/61/61
f 62/62/62 64/64/64 63/63/63
f 62/62/62 63/63/63 65/65/65
f 62/62/62 65/65/65 66/66/66
f 67/67/67 69/69/69 68/68/68
f 67/67/67 70/70/70 69/69/69
f 71/71/71 73/73/73 72/72/72
f 71/71/71 74/74/74 73/73/73
f 75/75/75 77/77/77 76/76/76
f 75/75/75 78/78/78 77/77/77
f 79/79/79 81/81/81 80/80/80
f 79/79/79 82/82/82 81/81/81
f 83/83/83 85/85/85 84/84/84
f 83/83/83 86/86/86 85/85/85
f 87/87/87 89/89/89 88/88/88
f 87/87/87 90/90/90 89/89/89
f 91/91/91 93/93/93 92/92/92
f 91/91/91 94/94/94 93/93/93
f 95/95/95 97/97/97 96/96/96
f 95/95/95 98/98/98 97/97/97
