#Gate_01_25216_287.obj

v -1.253502 4.110477 -0.02089337
v -1.098107 5.02161 -1.097304
v -1.178467 5.061781 -1.074904
v -1.333861 4.150647 0.001506733
v -1.333861 4.150647 0.001506733
v -1.178467 5.061781 -1.074904
v -1.160587 5.12981 -1.014735
v -1.315981 4.218681 0.06167562
v -1.315981 4.218681 0.06167562
v -1.160587 5.12981 -1.014735
v -1.069279 5.131689 -0.9999687
v -1.224673 4.22056 0.07644161
v -1.224673 4.22056 0.07644161
v -1.069279 5.131689 -0.9999687
v -1.030606 5.064816 -1.050997
v -1.186 4.153686 0.02541357
v -1.186 4.153686 0.02541357
v -1.030606 5.064816 -1.050997
v -1.098107 5.02161 -1.097304
v -1.253502 4.110477 -0.02089337
v -1.224673 4.22056 0.07644161
v -1.186 4.153686 0.02541357
v -1.315981 4.218681 0.06167562
v -1.333861 4.150647 0.001506733
v -1.253502 4.110477 -0.02089337
v -1.030606 5.064816 -1.050997
v -1.069279 5.131689 -0.9999687
v -1.098107 5.02161 -1.097304
v -1.178467 5.061781 -1.074904
v -1.160587 5.12981 -1.014735
v -1.08525 0.04307217 -0.3309791
v -1.081332 5.377302 -0.2085319
v -1.202574 5.376069 -0.1647362
v -1.206592 0.04183853 -0.2871834
v -1.206592 0.04183853 -0.2871834
v -1.202574 5.376069 -0.1647362
v -1.198456 5.372071 -0.03586026
v -1.202373 0.03784255 -0.1583074
v -1.202373 0.03784255 -0.1583074
v -1.198456 5.372071 -0.03586026
v -1.074602 5.370837 0
v -1.07852 0.03660734 -0.1224472
v -1.07852 0.03660734 -0.1224472
v -1.074602 5.370837 0
v -1.002179 5.374071 -0.1066767
v -1.006096 0.03984054 -0.2291239
v -1.006096 0.03984054 -0.2291239
v -1.002179 5.374071 -0.1066767
v -1.081332 5.377302 -0.2085319
v -1.08525 0.04307217 -0.3309791
v -1.002179 5.374071 -0.1066767
v -1.074602 5.370837 0
v -1.081332 5.377302 -0.2085319
v -1.202574 5.376069 -0.1647362
v -1.198456 5.372071 -0.03586026
v -0.05153029 -0.03503312 -0.1129046
v -0.9650126 1.714303 -0.238767
v -1.078018 1.656978 -0.2148602
v -0.1646357 -0.09235805 -0.08909816
v -0.1646357 -0.09235805 -0.08909816
v -1.078018 1.656978 -0.2148602
v -1.0964 1.656583 -0.08718964
v -0.1829174 -0.09275357 0.03857237
v -0.1829174 -0.09275357 0.03857237
v -1.0964 1.656583 -0.08718964
v -0.994645 1.713663 -0.03214364
v -0.08126316 -0.03567191 0.09361836
v -0.08126316 -0.03567191 0.09361836
v -0.994645 1.713663 -0.03214364
v -0.9134823 1.749336 -0.125762
v 0 0 0
v 0 0 0
v -0.9134823 1.749336 -0.125762
v -0.9650126 1.714303 -0.238767
v -0.05153029 -0.03503312 -0.1129046
v -0.08126316 -0.03567191 0.09361836
v 0 0 0
v -0.1829174 -0.09275357 0.03857237
v -0.1646357 -0.09235805 -0.08909816
v -0.05153029 -0.03503312 -0.1129046
v -0.9134823 1.749336 -0.125762
v -0.994645 1.713663 -0.03214364
v -0.9650126 1.714303 -0.238767
v -1.078018 1.656978 -0.2148602
v -1.0964 1.656583 -0.08718964
v -1.348928 0.04307217 -6.132706
v -1.345011 5.101609 -6.010259
v -1.466353 5.100374 -5.966463
v -1.470271 0.04183853 -6.088911
v -1.470271 0.04183853 -6.088911
v -1.466353 5.100374 -5.966463
v -1.462235 5.096378 -5.837587
v -1.466152 0.03784255 -5.960034
v -1.466152 0.03784255 -5.960034
v -1.462235 5.096378 -5.837587
v -1.338281 5.095143 -5.801727
v -1.342198 0.03660734 -5.924174
v -1.342198 0.03660734 -5.924174
v -1.338281 5.095143 -5.801727
v -1.265857 5.098376 -5.908404
v -1.269775 0.03984054 -6.030851
v -1.269775 0.03984054 -6.030851
v -1.265857 5.098376 -5.908404
v -1.345011 5.101609 -6.010259
v -1.348928 0.04307217 -6.132706
v -1.265857 5.098376 -5.908404
v -1.338281 5.095143 -5.801727
v -1.345011 5.101609 -6.010259
v -1.466353 5.100374 -5.966463
v -1.462235 5.096378 -5.837587
v -0.3681452 -0.2336598 -6.393773
v -1.247676 1.515676 -6.116735
v -1.339687 1.458351 -6.046823
v -0.4601564 -0.2909847 -6.32376
v -0.4601564 -0.2909847 -6.32376
v -1.339687 1.458351 -6.046823
v -1.301617 1.457956 -5.923572
v -0.4220863 -0.2913803 -6.200509
v -0.4220863 -0.2913803 -6.200509
v -1.301617 1.457956 -5.923572
v -1.186101 1.515038 -5.917344
v -0.3066705 -0.2342986 -6.194281
v -0.3066705 -0.2342986 -6.194281
v -1.186101 1.515038 -5.917344
v -1.152752 1.55071 -6.036677
v -0.273221 -0.1986267 -6.313715
v -0.273221 -0.1986267 -6.313715
v -1.152752 1.55071 -6.036677
v -1.247676 1.515676 -6.116735
v -0.3681452 -0.2336598 -6.393773
v -0.3066705 -0.2342986 -6.194281
v -0.273221 -0.1986267 -6.313715
v -0.4220863 -0.2913803 -6.200509
v -0.4601564 -0.2909847 -6.32376
v -0.3681452 -0.2336598 -6.393773
v -1.152752 1.55071 -6.036677
v -1.186101 1.515038 -5.917344
v -1.247676 1.515676 -6.116735
v -1.339687 1.458351 -6.046823
v -1.301617 1.457956 -5.923572
v -1.1635 4.914935 -6.113822
v -1.273592 5.079071 0.2281194
v -1.363996 5.045575 0.230028
v -1.253904 4.881443 -6.111913
v -1.253904 4.881443 -6.111913
v -1.363996 5.045575 0.230028
v -1.359877 4.949278 0.2290235
v -1.249785 4.785148 -6.112817
v -1.249785 4.785148 -6.112817
v -1.359877 4.949278 0.2290235
v -1.266962 4.923272 0.2266127
v -1.15687 4.759133 -6.115328
v -1.15687 4.759133 -6.115328
v -1.266962 4.923272 0.2266127
v -1.213724 5.003471 0.22601
v -1.103632 4.83935 -6.115931
v -1.103632 4.83935 -6.115931
v -1.213724 5.003471 0.22601
v -1.273592 5.079071 0.2281194
v -1.1635 4.914935 -6.113822
v -1.15687 4.759133 -6.115328
v -1.103632 4.83935 -6.115931
v -1.249785 4.785148 -6.112817
v -1.253904 4.881443 -6.111913
v -1.1635 4.914935 -6.113822
v -1.213724 5.003471 0.22601
v -1.266962 4.923272 0.2266127
v -1.273592 5.079071 0.2281194
v -1.363996 5.045575 0.230028
v -1.359877 4.949278 0.2290235
v -1.214829 3.925146 -5.982836
v -1.335569 4.913059 -4.965691
v -1.260031 4.953195 -5.000948
v -1.139291 3.965278 -6.018194
v -1.139291 3.965278 -6.018194
v -1.260031 4.953195 -5.000948
v -1.287454 5.015942 -5.063227
v -1.166614 4.02803 -6.080472
v -1.166614 4.02803 -6.080472
v -1.287454 5.015942 -5.063227
v -1.379967 5.014591 -5.066441
v -1.259127 4.026679 -6.083587
v -1.259127 4.026679 -6.083587
v -1.379967 5.014591 -5.066441
v -1.4097 4.951005 -5.006172
v -1.28886 3.963092 -6.023317
v -1.28886 3.963092 -6.023317
v -1.4097 4.951005 -5.006172
v -1.335569 4.913059 -4.965691
v -1.214829 3.925146 -5.982836
v -1.259127 4.026679 -6.083587
v -1.28886 3.963092 -6.023317
v -1.166614 4.02803 -6.080472
v -1.139291 3.965278 -6.018194
v -1.214829 3.925146 -5.982836
v -1.4097 4.951005 -5.006172
v -1.379967 5.014591 -5.066441
v -1.335569 4.913059 -4.965691
v -1.260031 4.953195 -5.000948
v -1.287454 5.015942 -5.063227

vn 0.1179199 -0.7661133 -0.6313477
vn 0.1179199 -0.7661133 -0.6313477
vn -0.9023438 -0.2561035 -0.3469238
vn -0.9023438 -0.2561035 -0.3469238
vn -0.9023438 -0.2561035 -0.3469238
vn -0.9023438 -0.2561035 -0.3469238
vn -0.675293 0.6079102 0.4172363
vn -0.675293 0.6079102 0.4172363
vn -0.675293 0.6079102 0.4172363
vn -0.675293 0.6079102 0.4172363
vn 0.4846191 0.6318359 0.6049805
vn 0.4846191 0.6318359 0.6049805
vn 0.4846191 0.6318359 0.6049805
vn 0.4846191 0.6318359 0.6049805
vn 0.9750977 -0.2175293 -0.04333496
vn 0.9750977 -0.2175293 -0.04333496
vn 0.9750977 -0.2175293 -0.04333496
vn 0.9750977 -0.2175293 -0.04333496
vn 0.1179199 -0.7661133 -0.6313477
vn 0.1179199 -0.7661133 -0.6313477
vn -0.1095581 -0.6420898 0.7587891
vn -0.1095581 -0.6420898 0.7587891
vn -0.1095581 -0.6420898 0.7587891
vn -0.1094971 -0.6420898 0.7587891
vn -0.1095581 -0.6420898 0.7587891
vn 0.1096191 0.6420898 -0.7587891
vn 0.1095581 0.6420898 -0.7587891
vn 0.1095581 0.6420898 -0.7587891
vn 0.1094971 0.6420898 -0.7587891
vn 0.1095581 0.6420898 -0.7587891
vn 0.2783203 0.02183533 -0.9604492
vn 0.2783203 0.02183533 -0.9604492
vn -0.8276367 0.0134964 -0.5610352
vn -0.8276367 0.0134964 -0.5610352
vn -0.8276367 0.0134964 -0.5610352
vn -0.8276367 0.0134964 -0.5610352
vn -0.7895508 -0.0134964 0.6132813
vn -0.7895508 -0.0134964 0.6132813
vn -0.7895508 -0.0134964 0.6132813
vn -0.7895508 -0.0134964 0.6132813
vn 0.3393555 -0.02183533 0.9404297
vn 0.3393555 -0.02183533 0.9404297
vn 0.3393555 -0.02183533 0.9404297
vn 0.3393555 -0.02183533 0.9404297
vn 0.9995117 0 -0.03213501
vn 0.9995117 0 -0.03213501
vn 0.9995117 0 -0.03213501
vn 0.9995117 0 -0.03213501
vn 0.2783203 0.02183533 -0.9604492
vn 0.2783203 0.02183533 -0.9604492
vn 0.0009965897 0.9995117 0.03096008
vn 0.0009965897 0.9995117 0.03096008
vn 0.0009994507 0.9995117 0.03096008
vn 0.0009975433 0.9995117 0.03096008
vn 0.000992775 0.9995117 0.03097534
vn 0.4057617 0.1469727 -0.9018555
vn 0.4057617 0.1469727 -0.9018555
vn -0.6245117 -0.3754883 -0.6845703
vn -0.6245117 -0.3754883 -0.6845703
vn -0.6245117 -0.3754883 -0.6845703
vn -0.6245117 -0.3754883 -0.6845703
vn -0.7919922 -0.3789063 0.4790039
vn -0.7919922 -0.3789063 0.4790039
vn -0.7919922 -0.3789063 0.4790039
vn -0.7919922 -0.3789063 0.4790039
vn 0.1352539 0.1412354 0.9804688
vn 0.1352539 0.1412354 0.9804688
vn 0.1352539 0.1412354 0.9804688
vn 0.1352539 0.1412354 0.9804688
vn 0.8754883 0.4663086 0.1271973
vn 0.8754883 0.4663086 0.1271973
vn 0.8754883 0.4663086 0.1271973
vn 0.8754883 0.4663086 0.1271973
vn 0.4057617 0.1469727 -0.9018555
vn 0.4057617 0.1469727 -0.9018555
vn 0.4619141 -0.8847656 0.06359863
vn 0.4619141 -0.8847656 0.06359863
vn 0.4619141 -0.8847656 0.06359863
vn 0.4619141 -0.8847656 0.06359863
vn 0.4619141 -0.8847656 0.06359863
vn -0.4619141 0.8847656 -0.06359863
vn -0.4619141 0.8847656 -0.06359863
vn -0.4619141 0.8847656 -0.06359863
vn -0.4619141 0.8847656 -0.06359863
vn -0.4619141 0.8847656 -0.06359863
vn 0.2783203 0.02302551 -0.9604492
vn 0.2783203 0.02302551 -0.9604492
vn -0.8276367 0.01422882 -0.5615234
vn -0.8276367 0.01422882 -0.5615234
vn -0.8276367 0.01422882 -0.5615234
vn -0.8276367 0.01422882 -0.5615234
vn -0.7895508 -0.01422882 0.6132813
vn -0.7895508 -0.01422882 0.6132813
vn -0.7895508 -0.01422882 0.6132813
vn -0.7895508 -0.01422882 0.6132813
vn 0.3395996 -0.02302551 0.9404297
vn 0.3395996 -0.02302551 0.9404297
vn 0.3395996 -0.02302551 0.9404297
vn 0.3395996 -0.02302551 0.9404297
vn 0.9995117 0 -0.03219604
vn 0.9995117 0 -0.03219604
vn 0.9995117 0 -0.03219604
vn 0.9995117 0 -0.03219604
vn 0.2783203 0.02302551 -0.9604492
vn 0.2783203 0.02302551 -0.9604492
vn 0.000998497 0.9995117 0.03096008
vn 0.0009965897 0.9995117 0.03096008
vn 0.000998497 0.9995117 0.03096008
vn 0.000995636 0.9995117 0.03096008
vn 0.000992775 0.9995117 0.03096008
vn -0.01905823 0.1469727 -0.9887695
vn -0.01905823 0.1469727 -0.9887695
vn -0.8574219 -0.3754883 -0.3518066
vn -0.8574219 -0.3754883 -0.3518066
vn -0.8574219 -0.3754883 -0.3518066
vn -0.8574219 -0.3754883 -0.3518066
vn -0.5107422 -0.3791504 0.7714844
vn -0.5107422 -0.3791504 0.7714844
vn -0.5107422 -0.3791504 0.7714844
vn -0.5107422 -0.3791504 0.7714844
vn 0.5415039 0.1412354 0.8286133
vn 0.5415039 0.1412354 0.8286133
vn 0.5415039 0.1412354 0.8286133
vn 0.5415039 0.1412354 0.8286133
vn 0.8457031 0.4663086 -0.2595215
vn 0.8457031 0.4663086 -0.2595215
vn 0.8457031 0.4663086 -0.2595215
vn 0.8457031 0.4663086 -0.2595215
vn -0.01905823 0.1469727 -0.9887695
vn -0.01905823 0.1469727 -0.9887695
vn 0.4448242 -0.8847656 -0.1400146
vn 0.4448242 -0.8847656 -0.1400146
vn 0.4448242 -0.8847656 -0.1400146
vn 0.4448242 -0.8847656 -0.1400146
vn 0.4448242 -0.8847656 -0.1400146
vn -0.4448242 0.8847656 0.1400146
vn -0.4448242 0.8847656 0.1400146
vn -0.4448242 0.8847656 0.1400146
vn -0.4448242 0.8847656 0.1400146
vn -0.4448242 0.8847656 0.1400146
vn 0.269043 0.9628906 -0.02024841
vn 0.269043 0.9628906 -0.02024841
vn -0.8325195 0.5532227 -0.02876282
vn -0.8325195 0.5532227 -0.02876282
vn -0.8325195 0.5532227 -0.02876282
vn -0.8325195 0.5532227 -0.02876282
vn -0.7836914 -0.6210938 0.002475739
vn -0.7836914 -0.6210938 0.002475739
vn -0.7836914 -0.6210938 0.002475739
vn -0.7836914 -0.6210938 0.002475739
vn 0.3483887 -0.9370117 0.0302887
vn 0.3483887 -0.9370117 0.0302887
vn 0.3483887 -0.9370117 0.0302887
vn 0.3483887 -0.9370117 0.0302887
vn 0.9990234 0.04220581 0.01625061
vn 0.9990234 0.04220581 0.01625061
vn 0.9990234 0.04220581 0.01625061
vn 0.9990234 0.04220581 0.01625061
vn 0.269043 0.9628906 -0.02024841
vn 0.269043 0.9628906 -0.02024841
vn -0.02378845 0.00856781 -0.9995117
vn -0.02384949 0.008583069 -0.9995117
vn -0.02381897 0.008598328 -0.9995117
vn -0.02388 0.008590698 -0.9995117
vn -0.02389526 0.008560181 -0.9995117
vn 0.02374268 -0.008575439 0.9995117
vn 0.02375793 -0.008598328 0.9995117
vn 0.02378845 -0.008575439 0.9995117
vn 0.02377319 -0.008605957 0.9995117
vn 0.02368164 -0.008636475 0.9995117
vn -0.01348877 -0.7182617 0.6958008
vn -0.01348877 -0.7182617 0.6958008
vn 0.9433594 -0.1748047 0.2817383
vn 0.9433594 -0.1748047 0.2817383
vn 0.9433594 -0.1748047 0.2817383
vn 0.9433594 -0.1748047 0.2817383
vn 0.5966797 0.6098633 -0.5214844
vn 0.5966797 0.6098633 -0.5214844
vn 0.5966797 0.6098633 -0.5214844
vn 0.5966797 0.6098633 -0.5214844
vn -0.574707 0.5517578 -0.6040039
vn -0.574707 0.5517578 -0.6040039
vn -0.574707 0.5517578 -0.6040039
vn -0.574707 0.5517578 -0.6040039
vn -0.9516602 -0.2687988 0.1480713
vn -0.9516602 -0.2687988 0.1480713
vn -0.9516602 -0.2687988 0.1480713
vn -0.9516602 -0.2687988 0.1480713
vn -0.01348877 -0.7182617 0.6958008
vn -0.01348877 -0.7182617 0.6958008
vn 0.03482056 -0.6962891 -0.7167969
vn 0.03485107 -0.6962891 -0.7167969
vn 0.03482056 -0.6962891 -0.7167969
vn 0.03488159 -0.6962891 -0.7167969
vn 0.03488159 -0.6962891 -0.7167969
vn -0.03488159 0.6962891 0.7167969
vn -0.03491211 0.6962891 0.7167969
vn -0.03491211 0.6962891 0.7167969
vn -0.03491211 0.6962891 0.7167969
vn -0.03488159 0.6962891 0.7167969

vt 0.4858398 0.7802734
vt 0.3527832 0.7802734
vt 0.3527832 0.8129883
vt 0.4858398 0.8129883
vt 0.4858398 0.6508789
vt 0.3527832 0.6508789
vt 0.3527832 0.6831055
vt 0.4858398 0.6831055
vt 0.4858398 0.6831055
vt 0.3527832 0.6831055
vt 0.3527832 0.7158203
vt 0.4858398 0.7158203
vt 0.4858398 0.7158203
vt 0.3527832 0.7158203
vt 0.3527832 0.7480469
vt 0.4858398 0.7480469
vt 0.4858398 0.7480469
vt 0.3527832 0.7480469
vt 0.3527832 0.7802734
vt 0.4858398 0.7802734
vt 0.5214844 0.8076172
vt 0.5351563 0.7314453
vt 0.4987793 0.7783203
vt 0.4987793 0.6845703
vt 0.5214844 0.6552734
vt 0.5351563 0.7314453
vt 0.5214844 0.6552734
vt 0.5214844 0.8076172
vt 0.4987793 0.7783203
vt 0.4987793 0.6845703
vt 0.4858398 0.7802734
vt 0.1269531 0.784668
vt 0.1269531 0.8120117
vt 0.4858398 0.8129883
vt 0.4858398 0.6508789
vt 0.1269531 0.640625
vt 0.1269531 0.6748047
vt 0.4858398 0.6831055
vt 0.4858398 0.6831055
vt 0.1269531 0.6748047
vt 0.1269531 0.71875
vt 0.4858398 0.7158203
vt 0.4858398 0.7158203
vt 0.1269531 0.71875
vt 0.1269531 0.7578125
vt 0.4858398 0.7480469
vt 0.4858398 0.7480469
vt 0.1269531 0.7578125
vt 0.1269531 0.784668
vt 0.4858398 0.7802734
vt 0.534668 0.7275391
vt 0.5209961 0.6513672
vt 0.5209961 0.8032227
vt 0.4985352 0.7744141
vt 0.4985352 0.6801758
vt 0.4858398 0.7802734
vt 0.3527832 0.7802734
vt 0.3527832 0.8129883
vt 0.4858398 0.8129883
vt 0.4858398 0.6508789
vt 0.3527832 0.6508789
vt 0.3527832 0.6831055
vt 0.4858398 0.6831055
vt 0.4858398 0.6831055
vt 0.3527832 0.6831055
vt 0.3527832 0.7158203
vt 0.4858398 0.7158203
vt 0.4858398 0.7158203
vt 0.3527832 0.7158203
vt 0.3527832 0.7480469
vt 0.4858398 0.7480469
vt 0.4858398 0.7480469
vt 0.3527832 0.7480469
vt 0.3527832 0.7802734
vt 0.4858398 0.7802734
vt 0.5209961 0.8037109
vt 0.534668 0.7275391
vt 0.4985352 0.7744141
vt 0.4985352 0.6801758
vt 0.5209961 0.6513672
vt 0.534668 0.7275391
vt 0.5209961 0.6513672
vt 0.5209961 0.8037109
vt 0.4985352 0.7744141
vt 0.4985352 0.6801758
vt 0.4858398 0.7802734
vt 0.1455078 0.7836914
vt 0.1455078 0.8115234
vt 0.4858398 0.8129883
vt 0.4858398 0.6508789
vt 0.1455078 0.6420898
vt 0.1455078 0.6757813
vt 0.4858398 0.6831055
vt 0.4858398 0.6831055
vt 0.1455078 0.6757813
vt 0.1455078 0.7182617
vt 0.4858398 0.7158203
vt 0.4858398 0.7158203
vt 0.1455078 0.7182617
vt 0.1455078 0.7573242
vt 0.4858398 0.7480469
vt 0.4858398 0.7480469
vt 0.1455078 0.7573242
vt 0.1455078 0.7836914
vt 0.4858398 0.7802734
vt 0.534668 0.7275391
vt 0.5209961 0.6513672
vt 0.5209961 0.8037109
vt 0.4985352 0.7744141
vt 0.4985352 0.6801758
vt 0.4858398 0.7802734
vt 0.3527832 0.7802734
vt 0.3527832 0.8129883
vt 0.4858398 0.8129883
vt 0.4858398 0.6508789
vt 0.3527832 0.6508789
vt 0.3527832 0.6831055
vt 0.4858398 0.6831055
vt 0.4858398 0.6831055
vt 0.3527832 0.6831055
vt 0.3527832 0.7158203
vt 0.4858398 0.7158203
vt 0.4858398 0.7158203
vt 0.3527832 0.7158203
vt 0.3527832 0.7480469
vt 0.4858398 0.7480469
vt 0.4858398 0.7480469
vt 0.3527832 0.7480469
vt 0.3527832 0.7802734
vt 0.4858398 0.7802734
vt 0.5209961 0.8037109
vt 0.534668 0.7275391
vt 0.4985352 0.7744141
vt 0.4985352 0.6801758
vt 0.5209961 0.6513672
vt 0.534668 0.7275391
vt 0.5209961 0.6513672
vt 0.5209961 0.8037109
vt 0.4985352 0.7744141
vt 0.4985352 0.6801758
vt 0.4782715 0.7646484
vt 0.05181885 0.7988281
vt 0.05169678 0.8217773
vt 0.4782715 0.7944336
vt 0.4782715 0.6660156
vt 0.05169678 0.6337891
vt 0.05184937 0.6601563
vt 0.4782715 0.7011719
vt 0.4782715 0.7011719
vt 0.05184937 0.6601563
vt 0.05203247 0.7060547
vt 0.4785156 0.7294922
vt 0.4785156 0.7294922
vt 0.05203247 0.7060547
vt 0.05203247 0.7607422
vt 0.4785156 0.7431641
vt 0.4785156 0.7431641
vt 0.05203247 0.7607422
vt 0.05181885 0.7988281
vt 0.4782715 0.7646484
vt 0.5200195 0.7841797
vt 0.5302734 0.7275391
vt 0.503418 0.7626953
vt 0.503418 0.6923828
vt 0.5200195 0.6704102
vt 0.5302734 0.7275391
vt 0.5200195 0.6704102
vt 0.5200195 0.7841797
vt 0.503418 0.7626953
vt 0.503418 0.6923828
vt 0.4858398 0.7802734
vt 0.3527832 0.7802734
vt 0.3527832 0.8129883
vt 0.4858398 0.8129883
vt 0.4858398 0.6508789
vt 0.3527832 0.6508789
vt 0.3527832 0.6831055
vt 0.4858398 0.6831055
vt 0.4858398 0.6831055
vt 0.3527832 0.6831055
vt 0.3527832 0.7158203
vt 0.4858398 0.7158203
vt 0.4858398 0.7158203
vt 0.3527832 0.7158203
vt 0.3527832 0.7480469
vt 0.4858398 0.7480469
vt 0.4858398 0.7480469
vt 0.3527832 0.7480469
vt 0.3527832 0.7802734
vt 0.4858398 0.7802734
vt 0.5214844 0.8076172
vt 0.5351563 0.7314453
vt 0.4987793 0.7783203
vt 0.4987793 0.6845703
vt 0.5214844 0.6552734
vt 0.5351563 0.7314453
vt 0.5214844 0.6552734
vt 0.5214844 0.8076172
vt 0.4987793 0.7783203
vt 0.4987793 0.6845703

g Gate_01_25216_287
usemtl Gate_01_25216_287
usemap Gate_01_25216_287
f 1/1/1 3/3/3 2/2/2
f 1/1/1 4/4/4 3/3/3
f 5/5/5 7/7/7 6/6/6
f 5/5/5 8/8/8 7/7/7
f 9/9/9 11/11/11 10/10/10
f 9/9/9 12/12/12 11/11/11
f 13/13/13 15/15/15 14/14/14
f 13/13/13 16/16/16 15/15/15
f 17/17/17 19/19/19 18/18/18
f 17/17/17 20/20/20 19/19/19
f 21/21/21 23/23/23 22/22/22
f 23/23/23 24/24/24 22/22/22
f 24/24/24 25/25/25 22/22/22
f 26/26/26 28/28/28 27/27/27
f 28/28/28 29/29/29 27/27/27
f 29/29/29 30/30/30 27/27/27
f 31/31/31 33/33/33 32/32/32
f 31/31/31 34/34/34 33/33/33
f 35/35/35 37/37/37 36/36/36
f 35/35/35 38/38/38 37/37/37
f 39/39/39 41/41/41 40/40/40
f 39/39/39 42/42/42 41/41/41
f 43/43/43 45/45/45 44/44/44
f 43/43/43 46/46/46 45/45/45
f 47/47/47 49/49/49 48/48/48
f 47/47/47 50/50/50 49/49/49
f 51/51/51 53/53/53 52/52/52
f 53/53/53 54/54/54 52/52/52
f 54/54/54 55/55/55 52/52/52
f 56/56/56 58/58/58 57/57/57
f 56/56/56 59/59/59 58/58/58
f 60/60/60 62/62/62 61/61/61
f 60/60/60 63/63/63 62/62/62
f 64/64/64 66/66/66 65/65/65
f 64/64/64 67/67/67 66/66/66
f 68/68/68 70/70/70 69/69/69
f 68/68/68 71/71/71 70/70/70
f 72/72/72 74/74/74 73/73/73
f 72/72/72 75/75/75 74/74/74
f 76/76/76 78/78/78 77/77/77
f 78/78/78 79/79/79 77/77/77
f 79/79/79 80/80/80 77/77/77
f 81/81/81 83/83/83 82/82/82
f 83/83/83 84/84/84 82/82/82
f 84/84/84 85/85/85 82/82/82
f 86/86/86 88/88/88 87/87/87
f 86/86/86 89/89/89 88/88/88
f 90/90/90 92/92/92 91/91/91
f 90/90/90 93/93/93 92/92/92
f 94/94/94 96/96/96 95/95/95
f 94/94/94 97/97/97 96/96/96
f 98/98/98 100/100/100 99/99/99
f 98/98/98 101/101/101 100/100/100
f 102/102/102 104/104/104 103/103/103
f 102/102/102 105/105/105 104/104/104
f 106/106/106 108/108/108 107/107/107
f 108/108/108 109/109/109 107/107/107
f 109/109/109 110/110/110 107/107/107
f 111/111/111 113/113/113 112/112/112
f 111/111/111 114/114/114 113/113/113
f 115/115/115 117/117/117 116/116/116
f 115/115/115 118/118/118 117/117/117
f 119/119/119 121/121/121 120/120/120
f 119/119/119 122/122/122 121/121/121
f 123/123/123 125/125/125 124/124/124
f 123/123/123 126/126/126 125/125/125
f 127/127/127 129/129/129 128/128/128
f 127/127/127 130/130/130 129/129/129
f 131/131/131 133/133/133 132/132/132
f 133/133/133 134/134/134 132/132/132
f 134/134/134 135/135/135 132/132/132
f 136/136/136 138/138/138 137/137/137
f 138/138/138 139/139/139 137/137/137
f 139/139/139 140/140/140 137/137/137
f 141/141/141 143/143/143 142/142/142
f 141/141/141 144/144/144 143/143/143
f 145/145/145 147/147/147 146/146/146
f 145/145/145 148/148/148 147/147/147
f 149/149/149 151/151/151 150/150/150
f 149/149/149 152/152/152 151/151/151
f 153/153/153 155/155/155 154/154/154
f 153/153/153 156/156/156 155/155/155
f 157/157/157 159/159/159 158/158/158
f 157/157/157 160/160/160 159/159/159
f 161/161/161 163/163/163 162/162/162
f 163/163/163 164/164/164 162/162/162
f 164/164/164 165/165/165 162/162/162
f 166/166/166 168/168/168 167/167/167
f 168/168/168 169/169/169 167/167/167
f 169/169/169 170/170/170 167/167/167
f 171/171/171 173/173/173 172/172/172
f 171/171/171 174/174/174 173/173/173
f 175/175/175 177/177/177 176/176/176
f 175/175/175 178/178/178 177/177/177
f 179/179/179 181/181/181 180/180/180
f 179/179/179 182/182/182 181/181/181
f 183/183/183 185/185/185 184/184/184
f 183/183/183 186/186/186 185/185/185
f 187/187/187 189/189/189 188/188/188
f 187/187/187 190/190/190 189/189/189
f 191/191/191 193/193/193 192/192/192
f 193/193/193 194/194/194 192/192/192
f 194/194/194 195/195/195 192/192/192
f 196/196/196 198/198/198 197/197/197
f 198/198/198 199/199/199 197/197/197
f 199/199/199 200/200/200 197/197/197
