#Gate_door_01_25215_267.obj

v -0.05513356 1.71766 -5.349466
v -0.0428788 1.709471 -5.35037
v 0.02914307 1.5611 -2.382005
v -0.05513356 1.71766 -5.349466
v 0.02914307 1.5611 -2.382005
v 0.01678785 1.569308 -2.381603
v -0.05041246 0.4344115 -2.994844
v -0.02861505 0.4344115 -2.995045
v -0.02881595 1.74807 -3.001875
v -0.04117117 1.756237 -3.001875
v -0.05011112 1.745089 -3.001775
v -0.05041246 0.4344115 -2.994844
v -0.05011112 1.745089 -3.001775
v -0.04016668 1.76032 -0.09227268
v -0.04046802 0.4496421 -0.08544216
v -0.01887151 1.763299 -0.09237313
v -0.02881595 1.74807 -3.001875
v -0.02861505 0.4344115 -2.995045
v -0.01867061 0.4496421 -0.0855426
v -0.04016668 1.76032 -0.09227268
v -0.05011112 1.745089 -3.001775
v -0.04117117 1.756237 -3.001875
v -0.03122672 1.771468 -0.09237313
v -0.03122672 1.771468 -0.09237313
v -0.04117117 1.756237 -3.001875
v -0.02881595 1.74807 -3.001875
v -0.01887151 1.763299 -0.09237313
v -0.01887151 1.763299 -0.09237313
v -0.01867061 0.4496421 -0.0855426
v -0.04046802 0.4496421 -0.08544216
v -0.03122672 1.771468 -0.09237313
v -0.04016668 1.76032 -0.09227268
v 0.01678785 1.569308 -2.381603
v 0.02914307 1.5611 -2.382005
v 0.02391972 0.2490598 -2.447297
v 0.00212231 0.2491163 -2.446694
v 0.007747449 1.558177 -2.381503
v 0.00212231 0.2491163 -2.446694
v -0.0697991 0.3974903 -5.41506
v -0.06417397 1.70655 -5.349868
v 0.007747449 1.558177 -2.381503
v -0.0428788 1.709471 -5.35037
v -0.04810214 0.3974322 -5.415662
v 0.02391972 0.2490598 -2.447297
v 0.02914307 1.5611 -2.382005
v -0.06417397 1.70655 -5.349868
v -0.05513356 1.71766 -5.349466
v 0.01678785 1.569308 -2.381603
v 0.007747449 1.558177 -2.381503
v -0.04810214 0.3974322 -5.415662
v -0.0428788 1.709471 -5.35037
v -0.05513356 1.71766 -5.349466
v -0.0697991 0.3974903 -5.41506
v -0.06417397 1.70655 -5.349868
v -0.07120539 1.759026 -5.407124
v -0.04940797 1.759039 -5.407325
v -0.04960888 3.067558 -5.291005
v -0.06196409 3.075688 -5.290202
v -0.07100449 3.064576 -5.291105
v -0.07120539 1.759026 -5.407124
v -0.07100449 3.064576 -5.291105
v -0.05754434 2.716138 -1.369983
v -0.05774523 1.410588 -1.486001
v -0.03624917 2.71912 -1.369782
v -0.04960888 3.067558 -5.291005
v -0.04940797 1.759039 -5.407325
v -0.03594782 1.410601 -1.486102
v -0.05754434 2.716138 -1.369983
v -0.07100449 3.064576 -5.291105
v -0.06196409 3.075688 -5.290202
v -0.04850394 2.72725 -1.369079
v -0.04850394 2.72725 -1.369079
v -0.06196409 3.075688 -5.290202
v -0.04960888 3.067558 -5.291005
v -0.03624917 2.71912 -1.369782
v -0.03624917 2.71912 -1.369782
v -0.03594782 1.410601 -1.486102
v -0.05774523 1.410588 -1.486001
v -0.04850394 2.72725 -1.369079
v -0.05754434 2.716138 -1.369983
v -0.1040522 1.37464 -3.827364
v -0.08567003 1.37463 -3.827465
v -0.08587093 2.686243 -3.901094
v -0.09491133 2.694403 -3.901495
v -0.1038513 2.683275 -3.900792
v -0.1040522 1.37464 -3.827364
v -0.1038513 2.683275 -3.900792
v -0.1052576 2.903648 0.02977272
v -0.1054585 1.595011 0.1032009
v -0.08727721 2.906616 0.02947138
v -0.08587093 2.686243 -3.901094
v -0.08567003 1.37463 -3.827465
v -0.08697587 1.595003 0.103
v -0.1052576 2.903648 0.02977272
v -0.1038513 2.683275 -3.900792
v -0.09491133 2.694403 -3.901495
v -0.09621716 2.914776 0.02906958
v -0.09621716 2.914776 0.02906958
v -0.09491133 2.694403 -3.901495
v -0.08587093 2.686243 -3.901094
v -0.08727721 2.906616 0.02947138
v -0.08727721 2.906616 0.02947138
v -0.08697587 1.595003 0.103
v -0.1054585 1.595011 0.1032009
v -0.09621716 2.914776 0.02906958
v -0.1052576 2.903648 0.02977272
v -0.1180146 2.612156 -5.494213
v -0.1619107 2.671102 0.1345409
v -0.2415667 2.641247 0.1368512
v -0.1976705 2.582307 -5.491903
v -0.1976705 2.582307 -5.491903
v -0.2415667 2.641247 0.1368512
v -0.2376492 2.55625 0.1346414
v -0.1938535 2.497308 -5.494112
v -0.1938535 2.497308 -5.494112
v -0.2376492 2.55625 0.1346414
v -0.1556829 2.53358 0.1310252
v -0.1117867 2.474635 -5.497729
v -0.1117867 2.474635 -5.497729
v -0.1556829 2.53358 0.1310252
v -0.1087733 2.604549 0.1309248
v -0.06497756 2.545618 -5.497829
v -0.06497756 2.545618 -5.497829
v -0.1087733 2.604549 0.1309248
v -0.1619107 2.671102 0.1345409
v -0.1180146 2.612156 -5.494213
v -0.1117867 2.474635 -5.497729
v -0.06497756 2.545618 -5.497829
v -0.1938535 2.497308 -5.494112
v -0.1976705 2.582307 -5.491903
v -0.1180146 2.612156 -5.494213
v -0.1087733 2.604549 0.1309248
v -0.1556829 2.53358 0.1310252
v -0.1619107 2.671102 0.1345409
v -0.2415667 2.641247 0.1368512
v -0.2376492 2.55625 0.1346414
v -0.1144989 0.7631541 -5.509079
v -0.1105814 0.6733873 0.06603477
v -0.1903378 0.6437094 0.06774241
v -0.1942553 0.7334793 -5.507372
v -0.1942553 0.7334793 -5.507372
v -0.1903378 0.6437094 0.06774241
v -0.1867216 0.5587924 0.06322221
v -0.1906391 0.6485623 -5.511892
v -0.1906391 0.6485623 -5.511892
v -0.1867216 0.5587924 0.06322221
v -0.1047553 0.5359983 0.05870201
v -0.1086728 0.625762 -5.516412
v -0.1086728 0.625762 -5.516412
v -0.1047553 0.5359983 0.05870201
v -0.05774523 0.6068085 0.06040964
v -0.06156229 0.6965879 -5.514705
v -0.06156229 0.6965879 -5.514705
v -0.05774523 0.6068085 0.06040964
v -0.1105814 0.6733873 0.06603477
v -0.1144989 0.7631541 -5.509079
v -0.1086728 0.625762 -5.516412
v -0.06156229 0.6965879 -5.514705
v -0.1906391 0.6485623 -5.511892
v -0.1942553 0.7334793 -5.507372
v -0.1144989 0.7631541 -5.509079
v -0.05774523 0.6068085 0.06040964
v -0.1047553 0.5359983 0.05870201
v -0.1105814 0.6733873 0.06603477
v -0.1903378 0.6437094 0.06774241
v -0.1867216 0.5587924 0.06322221
v -0.100436 2.729316 -5.544538
v -0.09963243 3.383958 0.1072188
v -0.1538748 3.365338 0.1154556
v -0.1544775 2.710687 -5.536301
v -0.1544775 2.710687 -5.536301
v -0.1538748 3.365338 0.1154556
v -0.1511627 3.309813 0.1315275
v -0.1518659 2.655212 -5.520229
v -0.1518659 2.655212 -5.520229
v -0.1511627 3.309813 0.1315275
v -0.09541357 3.294177 0.1332351
v -0.09611671 2.6395 -5.518522
v -0.09611671 2.6395 -5.518522
v -0.09541357 3.294177 0.1332351
v -0.06357127 3.339933 0.1182682
v -0.06427442 2.685343 -5.533589
v -0.06427442 2.685343 -5.533589
v -0.06357127 3.339933 0.1182682
v -0.09963243 3.383958 0.1072188
v -0.100436 2.729316 -5.544538
v -0.09611671 2.6395 -5.518522
v -0.06427442 2.685343 -5.533589
v -0.1518659 2.655212 -5.520229
v -0.1544775 2.710687 -5.536301
v -0.100436 2.729316 -5.544538
v -0.06357127 3.339933 0.1182682
v -0.09541357 3.294177 0.1332351
v -0.09963243 3.383958 0.1072188
v -0.1538748 3.365338 0.1154556
v -0.1511627 3.309813 0.1315275
v 0.01608471 0.003010228 -0.08504036
v 0.01939952 3.683674 0.01731706
v -0.08195342 3.682525 0.05388046
v -0.08526824 0.001859775 -0.04847696
v -0.08526824 0.001859775 -0.04847696
v -0.08195342 3.682525 0.05388046
v -0.07853816 3.678804 0.1615617
v -0.08185297 -0.001859973 0.05920425
v -0.08185297 -0.001859973 0.05920425
v -0.07853816 3.678804 0.1615617
v 0.02502466 3.677654 0.1915959
v 0.02170985 -0.003010427 0.08923846
v 0.02170985 -0.003010427 0.08923846
v 0.02502466 3.677654 0.1915959
v 0.08559535 3.680664 0.1023973
v 0.08228053 -9.94646E-08 3.98529E-05
v 0.08228053 -9.94646E-08 3.98529E-05
v 0.08559535 3.680664 0.1023973
v 0.01939952 3.683674 0.01731706
v 0.01608471 0.003010228 -0.08504036
v 0.08228053 -9.94646E-08 3.98529E-05
v 0.01608471 0.003010228 -0.08504036
v -0.08526824 0.001859775 -0.04847696
v -0.08185297 -0.001859973 0.05920425
v 0.02170985 -0.003010427 0.08923846
v -0.08195342 3.682525 0.05388046
v 0.01939952 3.683674 0.01731706
v 0.08559535 3.680664 0.1023973
v -0.07853816 3.678804 0.1615617
v 0.02502466 3.677654 0.1915959

vn 0.5556641 0.8310547 0.02806091
vn 0.5556641 0.8310547 0.02806091
vn 0.5556641 0.8310547 0.02806091
vn 0.5556641 0.8310547 0.02806091
vn 0.5556641 0.8310547 0.02806091
vn 0.5556641 0.8310547 0.02806091
vn -0.006336212 -0.005237579 -1
vn -0.006336212 -0.005237579 -1
vn -0.006336212 -0.005237579 -1
vn -0.006336212 -0.005237579 -1
vn -0.006336212 -0.005237579 -1
vn -1 0.0001972914 0.003414154
vn -1 0.0001972914 0.003414154
vn -1 0.0001972914 0.003414154
vn -1 0.0001972914 0.003414154
vn 1 0.0001623631 -0.003416061
vn 1 0.0001623631 -0.003416061
vn 1 0.0001623631 -0.003416061
vn 1 0.0001623631 -0.003416061
vn -0.7783203 0.6274414 -0.0006270409
vn -0.7783203 0.6274414 -0.0006270409
vn -0.7783203 0.6274414 -0.0006270409
vn -0.7783203 0.6274414 -0.0006270409
vn 0.5522461 0.8334961 -0.006248474
vn 0.5522461 0.8334961 -0.006248474
vn 0.5522461 0.8334961 -0.006248474
vn 0.5522461 0.8334961 -0.006248474
vn 0.006481171 0.005237579 1
vn 0.006481171 0.005237579 1
vn 0.006481171 0.005237579 1
vn 0.006481171 0.005237579 1
vn 0.006481171 0.005237579 1
vn 0.03089905 -0.04968262 0.9980469
vn 0.03089905 -0.04968262 0.9980469
vn 0.03089905 -0.04968262 0.9980469
vn 0.03089905 -0.04968262 0.9980469
vn 0.03089905 -0.04968262 0.9980469
vn -0.9995117 0.003093719 0.0243988
vn -0.9995117 0.003093719 0.0243988
vn -0.9995117 0.003093719 0.0243988
vn -0.9995117 0.003093719 0.0243988
vn 0.9995117 -0.002738953 -0.02438354
vn 0.9995117 -0.002738953 -0.02438354
vn 0.9995117 -0.002738953 -0.02438354
vn 0.9995117 -0.002738953 -0.02438354
vn -0.7758789 0.6289063 0.05023193
vn -0.7758789 0.6289063 0.05023193
vn -0.7758789 0.6289063 0.05023193
vn -0.7758789 0.6289063 0.05023193
vn -0.02983093 0.04986572 -0.9985352
vn -0.02983093 0.04986572 -0.9985352
vn -0.02983093 0.04986572 -0.9985352
vn -0.02983093 0.04986572 -0.9985352
vn -0.02983093 0.04986572 -0.9985352
vn -0.006771088 0.08850098 -0.9960938
vn -0.006771088 0.08850098 -0.9960938
vn -0.006771088 0.08850098 -0.9960938
vn -0.006771088 0.08850098 -0.9960938
vn -0.006771088 0.08850098 -0.9960938
vn -1 -0.0001238585 0.003417969
vn -1 -0.0001238585 0.003417969
vn -1 -0.0001238585 0.003417969
vn -1 -0.0001238585 0.003417969
vn 1 0.0004799366 -0.003385544
vn 1 0.0004799366 -0.003385544
vn 1 0.0004799366 -0.003385544
vn 1 0.0004799366 -0.003385544
vn -0.7783203 0.625 0.05819702
vn -0.7783203 0.625 0.05819702
vn -0.7783203 0.625 0.05819702
vn -0.7783203 0.625 0.05819702
vn 0.5527344 0.8305664 0.07189941
vn 0.5527344 0.8305664 0.07189941
vn 0.5527344 0.8305664 0.07189941
vn 0.5527344 0.8305664 0.07189941
vn 0.006660461 -0.08850098 0.9960938
vn 0.006660461 -0.08850098 0.9960938
vn 0.006660461 -0.08850098 0.9960938
vn 0.006660461 -0.08850098 0.9960938
vn 0.006660461 -0.08850098 0.9960938
vn -0.007591248 -0.05603027 -0.9985352
vn -0.007591248 -0.05603027 -0.9985352
vn -0.007591248 -0.05603027 -0.9985352
vn -0.007591248 -0.05603027 -0.9985352
vn -0.007591248 -0.05603027 -0.9985352
vn -1 0.0001606941 -0.0003528595
vn -1 0.0001606941 -0.0003528595
vn -1 0.0001606941 -0.0003528595
vn -1 0.0001606941 -0.0003528595
vn 1 0.0002024174 0.0003318787
vn 1 0.0002024174 0.0003318787
vn 1 0.0002024174 0.0003318787
vn 1 0.0002024174 0.0003318787
vn -0.7783203 0.6269531 -0.03540039
vn -0.7783203 0.6269531 -0.03540039
vn -0.7783203 0.6269531 -0.03540039
vn -0.7783203 0.6269531 -0.03540039
vn 0.6728516 0.7387695 -0.04119873
vn 0.6728516 0.7387695 -0.04119873
vn 0.6728516 0.7387695 -0.04119873
vn 0.6728516 0.7387695 -0.04119873
vn 0.007369995 0.05603027 0.9985352
vn 0.007369995 0.05603027 0.9985352
vn 0.007369995 0.05603027 0.9985352
vn 0.007369995 0.05603027 0.9985352
vn 0.007369995 0.05603027 0.9985352
vn 0.2661133 0.9638672 -0.008018494
vn 0.2661133 0.9638672 -0.008018494
vn -0.8344727 0.5507813 -0.01226807
vn -0.8344727 0.5507813 -0.01226807
vn -0.8344727 0.5507813 -0.01226807
vn -0.8344727 0.5507813 -0.01226807
vn -0.7817383 -0.6235352 0.0004386902
vn -0.7817383 -0.6235352 0.0004386902
vn -0.7817383 -0.6235352 0.0004386902
vn -0.7817383 -0.6235352 0.0004386902
vn 0.3513184 -0.9360352 0.01254272
vn 0.3513184 -0.9360352 0.01254272
vn 0.3513184 -0.9360352 0.01254272
vn 0.3513184 -0.9360352 0.01254272
vn 0.9990234 0.04507446 0.007312775
vn 0.9990234 0.04507446 0.007312775
vn 0.9990234 0.04507446 0.007312775
vn 0.9990234 0.04507446 0.007312775
vn 0.2661133 0.9638672 -0.008018494
vn 0.2661133 0.9638672 -0.008018494
vn -0.03775024 0.02398682 -0.9990234
vn -0.03775024 0.02397156 -0.9990234
vn -0.03775024 0.02400208 -0.9990234
vn -0.03775024 0.02397156 -0.9990234
vn -0.03778076 0.02391052 -0.9990234
vn 0.03778076 -0.0239563 0.9990234
vn 0.03781128 -0.02400208 0.9990234
vn 0.03781128 -0.0239563 0.9990234
vn 0.0378418 -0.02401733 0.9990234
vn 0.0378418 -0.02407837 0.9990234
vn 0.2687988 0.9628906 0.01531982
vn 0.2687988 0.9628906 0.01531982
vn -0.8330078 0.5532227 0.009483337
vn -0.8330078 0.5532227 0.009483337
vn -0.8330078 0.5532227 0.009483337
vn -0.8330078 0.5532227 0.009483337
vn -0.7836914 -0.621582 -0.009460449
vn -0.7836914 -0.621582 -0.009460449
vn -0.7836914 -0.621582 -0.009460449
vn -0.7836914 -0.621582 -0.009460449
vn 0.348877 -0.9370117 -0.01532745
vn 0.348877 -0.9370117 -0.01532745
vn 0.348877 -0.9370117 -0.01532745
vn 0.348877 -0.9370117 -0.01532745
vn 0.9990234 0.04226685 -1.174212E-05
vn 0.9990234 0.04226685 -1.174212E-05
vn 0.9990234 0.04226685 -1.174212E-05
vn 0.9990234 0.04226685 -1.174212E-05
vn 0.2687988 0.9628906 0.01531982
vn 0.2687988 0.9628906 0.01531982
vn -0.04046631 0.05126953 -0.9980469
vn -0.04052734 0.05133057 -0.9980469
vn -0.04052734 0.05133057 -0.9980469
vn -0.04055786 0.0513916 -0.9980469
vn -0.04055786 0.0513916 -0.9980469
vn 0.0406189 -0.05133057 0.9980469
vn 0.04046631 -0.05136108 0.9980469
vn 0.0406189 -0.05133057 0.9980469
vn 0.04040527 -0.0513916 0.9980469
vn 0.04013062 -0.05145264 0.9980469
vn 0.2712402 0.9560547 -0.1107788
vn 0.2712402 0.9560547 -0.1107788
vn -0.8310547 0.5522461 -0.06390381
vn -0.8310547 0.5522461 -0.06390381
vn -0.8310547 0.5522461 -0.06390381
vn -0.8310547 0.5522461 -0.06390381
vn -0.7832031 -0.6176758 0.07159424
vn -0.7832031 -0.6176758 0.07159424
vn -0.7832031 -0.6176758 0.07159424
vn -0.7832031 -0.6176758 0.07159424
vn 0.3439941 -0.9326172 0.1079712
vn 0.3439941 -0.9326172 0.1079712
vn 0.3439941 -0.9326172 0.1079712
vn 0.3439941 -0.9326172 0.1079712
vn 0.9990234 0.04156494 -0.004932404
vn 0.9990234 0.04156494 -0.004932404
vn 0.9990234 0.04156494 -0.004932404
vn 0.9990234 0.04156494 -0.004932404
vn 0.2712402 0.9560547 -0.1107788
vn 0.2712402 0.9560547 -0.1107788
vn -0.04910278 -0.2802734 -0.9584961
vn -0.0491333 -0.2802734 -0.9584961
vn -0.04910278 -0.2800293 -0.9584961
vn -0.04916382 -0.2802734 -0.9584961
vn -0.04919434 -0.2802734 -0.9584961
vn 0.04937744 0.2800293 0.9584961
vn 0.04919434 0.2800293 0.9584961
vn 0.04916382 0.2800293 0.9584961
vn 0.04910278 0.2800293 0.9584961
vn 0.04928589 0.2802734 0.9584961
vn 0.2783203 0.02644348 -0.9599609
vn 0.2783203 0.02644348 -0.9599609
vn -0.8276367 0.01634216 -0.5610352
vn -0.8276367 0.01634216 -0.5610352
vn -0.8276367 0.01634216 -0.5610352
vn -0.8276367 0.01634216 -0.5610352
vn -0.7895508 -0.01634216 0.6132813
vn -0.7895508 -0.01634216 0.6132813
vn -0.7895508 -0.01634216 0.6132813
vn -0.7895508 -0.01634216 0.6132813
vn 0.3393555 -0.02644348 0.9404297
vn 0.3393555 -0.02644348 0.9404297
vn 0.3393555 -0.02644348 0.9404297
vn 0.3393555 -0.02644348 0.9404297
vn 0.9995117 0 -0.03216553
vn 0.9995117 0 -0.03216553
vn 0.9995117 0 -0.03216553
vn 0.9995117 0 -0.03216553
vn 0.2783203 0.02644348 -0.9599609
vn 0.2783203 0.02644348 -0.9599609
vn -0.001111984 -0.9995117 -0.03448486
vn -0.001111984 -0.9995117 -0.03448486
vn -0.001111984 -0.9995117 -0.03448486
vn -0.001111984 -0.9995117 -0.03448486
vn -0.001111984 -0.9995117 -0.03448486
vn 0.001109123 0.9995117 0.03448486
vn 0.001109123 0.9995117 0.03448486
vn 0.001109123 0.9995117 0.03448486
vn 0.001109123 0.9995117 0.03448486
vn 0.001109123 0.9995117 0.03448486

vt 0.5092773 0.6459961
vt 0.5092773 0.6445313
vt 0.6948242 0.6401367
vt 0.5092773 0.6459961
vt 0.6948242 0.6401367
vt 0.6948242 0.6386719
vt 0.08569336 0.5024414
vt 0.08569336 0.5092773
vt 0.007713318 0.5097656
vt 0.007236481 0.5058594
vt 0.007904053 0.5029297
vt 0.4394531 0.05718994
vt 0.4394531 0.3969727
vt 0.2573242 0.3972168
vt 0.2570801 0.0574646
vt 0.2573242 0.4006348
vt 0.4394531 0.4003906
vt 0.4394531 0.05718994
vt 0.2570801 0.0574646
vt 0.2573242 0.3972168
vt 0.4394531 0.3969727
vt 0.4394531 0.3986816
vt 0.2573242 0.3989258
vt 0.2573242 0.3989258
vt 0.4394531 0.3986816
vt 0.4394531 0.4003906
vt 0.2573242 0.4006348
vt 0.007656097 0.5107422
vt 0.08563232 0.5107422
vt 0.08563232 0.5039063
vt 0.007091522 0.5073242
vt 0.007865906 0.5039063
vt 0.007236481 0.5058594
vt 0.007713318 0.5097656
vt 0.08569336 0.5092773
vt 0.08569336 0.5024414
vt 0.007904053 0.5029297
vt 0.6948242 0.2902832
vt 0.5087891 0.2905273
vt 0.5092773 0.6313477
vt 0.6948242 0.6367188
vt 0.5092773 0.640625
vt 0.5087891 0.2905273
vt 0.6948242 0.2902832
vt 0.6948242 0.6401367
vt 0.5092773 0.6313477
vt 0.5092773 0.6459961
vt 0.6948242 0.6386719
vt 0.6948242 0.6367188
vt 0.08557129 0.5253906
vt 0.007591248 0.5258789
vt 0.007110596 0.5219727
vt 0.08557129 0.5185547
vt 0.007778168 0.519043
vt 0.08563232 0.5039063
vt 0.08563232 0.5107422
vt 0.007656097 0.5107422
vt 0.007091522 0.5073242
vt 0.007865906 0.5039063
vt 0.7553711 0.1699219
vt 0.7553711 0.5063477
vt 0.5087891 0.5068359
vt 0.5087891 0.1702881
vt 0.5087891 0.5102539
vt 0.7553711 0.5097656
vt 0.7553711 0.1699219
vt 0.5087891 0.1702881
vt 0.5087891 0.5068359
vt 0.7553711 0.5063477
vt 0.7553711 0.5078125
vt 0.5087891 0.5083008
vt 0.5087891 0.5083008
vt 0.7553711 0.5078125
vt 0.7553711 0.5097656
vt 0.5087891 0.5102539
vt 0.007656097 0.5107422
vt 0.08563232 0.5107422
vt 0.08563232 0.5039063
vt 0.007091522 0.5073242
vt 0.007865906 0.5039063
vt 0.08563232 0.5039063
vt 0.08563232 0.5107422
vt 0.007656097 0.5107422
vt 0.007091522 0.5073242
vt 0.007865906 0.5039063
vt 0.5087891 0.001438141
vt 0.5087891 0.3339844
vt 0.2556152 0.3344727
vt 0.2556152 0.001840591
vt 0.2556152 0.3378906
vt 0.5087891 0.3374023
vt 0.5087891 0.001438141
vt 0.2556152 0.001840591
vt 0.2556152 0.3344727
vt 0.5087891 0.3339844
vt 0.5087891 0.3356934
vt 0.2556152 0.3361816
vt 0.2556152 0.3361816
vt 0.5087891 0.3356934
vt 0.5087891 0.3374023
vt 0.2556152 0.3378906
vt 0.007656097 0.5107422
vt 0.08563232 0.5107422
vt 0.08563232 0.5039063
vt 0.007091522 0.5073242
vt 0.007865906 0.5039063
vt 0.04342651 0.6826172
vt 0.4780273 0.6728516
vt 0.4782715 0.6547852
vt 0.04351807 0.6591797
vt 0.04354858 0.7944336
vt 0.4782715 0.8056641
vt 0.4780273 0.7841797
vt 0.04342651 0.7666016
vt 0.04342651 0.7666016
vt 0.4780273 0.7841797
vt 0.4780273 0.7475586
vt 0.04321289 0.7338867
vt 0.04321289 0.7338867
vt 0.4780273 0.7475586
vt 0.4780273 0.7036133
vt 0.04321289 0.7075195
vt 0.04321289 0.7075195
vt 0.4780273 0.7036133
vt 0.4780273 0.6728516
vt 0.04342651 0.6826172
vt 0.5205078 0.7861328
vt 0.53125 0.7294922
vt 0.5039063 0.7646484
vt 0.5039063 0.6943359
vt 0.5205078 0.6733398
vt 0.5302734 0.7275391
vt 0.5200195 0.6704102
vt 0.5200195 0.7841797
vt 0.503418 0.7626953
vt 0.503418 0.6923828
vt 0.4350586 0.7685547
vt 0.008460999 0.7866211
vt 0.008361816 0.8051758
vt 0.4348145 0.8017578
vt 0.4348145 0.6586914
vt 0.008361816 0.6499023
vt 0.008476257 0.671875
vt 0.4350586 0.6977539
vt 0.4350586 0.6977539
vt 0.008476257 0.671875
vt 0.008628845 0.7094727
vt 0.4353027 0.7294922
vt 0.4353027 0.7294922
vt 0.008628845 0.7094727
vt 0.008628845 0.7548828
vt 0.4353027 0.7446289
vt 0.4353027 0.7446289
vt 0.008628845 0.7548828
vt 0.008460999 0.7866211
vt 0.4350586 0.7685547
vt 0.5200195 0.7841797
vt 0.5302734 0.7275391
vt 0.503418 0.7626953
vt 0.503418 0.6923828
vt 0.5200195 0.6704102
vt 0.5302734 0.7275391
vt 0.5200195 0.6704102
vt 0.5200195 0.7841797
vt 0.503418 0.7626953
vt 0.503418 0.6923828
vt 0.4780273 0.7583008
vt 0.05148315 0.7685547
vt 0.0513916 0.78125
vt 0.4777832 0.7827148
vt 0.4777832 0.6777344
vt 0.0513916 0.6757813
vt 0.05151367 0.6904297
vt 0.4780273 0.706543
vt 0.4780273 0.706543
vt 0.05151367 0.6904297
vt 0.05166626 0.7163086
vt 0.4782715 0.7294922
vt 0.4782715 0.7294922
vt 0.05166626 0.7163086
vt 0.05163574 0.7470703
vt 0.4782715 0.7407227
vt 0.4782715 0.7407227
vt 0.05163574 0.7470703
vt 0.05148315 0.7685547
vt 0.4780273 0.7583008
vt 0.5200195 0.7841797
vt 0.5302734 0.7275391
vt 0.503418 0.7626953
vt 0.503418 0.6923828
vt 0.5200195 0.6704102
vt 0.5302734 0.7275391
vt 0.5200195 0.6704102
vt 0.5200195 0.7841797
vt 0.503418 0.7626953
vt 0.503418 0.6923828
vt 0.2805176 0.7802734
vt 0.0146637 0.7802734
vt 0.0146637 0.8129883
vt 0.2805176 0.8129883
vt 0.2805176 0.6508789
vt 0.0146637 0.6508789
vt 0.0146637 0.6831055
vt 0.2805176 0.6831055
vt 0.2805176 0.6831055
vt 0.0146637 0.6831055
vt 0.0146637 0.7158203
vt 0.2805176 0.7158203
vt 0.2805176 0.7158203
vt 0.0146637 0.7158203
vt 0.0146637 0.7480469
vt 0.2805176 0.7480469
vt 0.2805176 0.7480469
vt 0.0146637 0.7480469
vt 0.0146637 0.7802734
vt 0.2805176 0.7802734
vt 0.5351563 0.7314453
vt 0.5214844 0.6552734
vt 0.4987793 0.6845703
vt 0.4987793 0.7783203
vt 0.5214844 0.8076172
vt 0.4987793 0.7783203
vt 0.5214844 0.8076172
vt 0.5351563 0.7314453
vt 0.4987793 0.6845703
vt 0.5214844 0.6552734

g Gate_door_01_25215_267
usemtl Gate_door_01_25215_267
usemap Gate_door_01_25215_267
f 1/1/1 3/3/3 2/2/2
f 4/4/4 6/6/6 5/5/5
f 7/7/7 9/9/9 8/8/8
f 9/9/9 7/7/7 10/10/10
f 10/10/10 7/7/7 11/11/11
f 12/12/12 14/14/14 13/13/13
f 12/12/12 15/15/15 14/14/14
f 16/16/16 18/18/18 17/17/17
f 16/16/16 19/19/19 18/18/18
f 20/20/20 22/22/22 21/21/21
f 20/20/20 23/23/23 22/22/22
f 24/24/24 26/26/26 25/25/25
f 24/24/24 27/27/27 26/26/26
f 28/28/28 30/30/30 29/29/29
f 30/30/30 28/28/28 31/31/31
f 30/30/30 31/31/31 32/32/32
f 33/33/33 35/35/35 34/34/34
f 35/35/35 33/33/33 36/36/36
f 36/36/36 33/33/33 37/37/37
f 38/38/38 40/40/40 39/39/39
f 38/38/38 41/41/41 40/40/40
f 42/42/42 44/44/44 43/43/43
f 42/42/42 45/45/45 44/44/44
f 46/46/46 48/48/48 47/47/47
f 46/46/46 49/49/49 48/48/48
f 50/50/50 52/52/52 51/51/51
f 52/52/52 50/50/50 53/53/53
f 52/52/52 53/53/53 54/54/54
f 55/55/55 57/57/57 56/56/56
f 57/57/57 55/55/55 58/58/58
f 58/58/58 55/55/55 59/59/59
f 60/60/60 62/62/62 61/61/61
f 60/60/60 63/63/63 62/62/62
f 64/64/64 66/66/66 65/65/65
f 64/64/64 67/67/67 66/66/66
f 68/68/68 70/70/70 69/69/69
f 68/68/68 71/71/71 70/70/70
f 72/72/72 74/74/74 73/73/73
f 72/72/72 75/75/75 74/74/74
f 76/76/76 78/78/78 77/77/77
f 78/78/78 76/76/76 79/79/79
f 78/78/78 79/79/79 80/80/80
f 81/81/81 83/83/83 82/82/82
f 83/83/83 81/81/81 84/84/84
f 84/84/84 81/81/81 85/85/85
f 86/86/86 88/88/88 87/87/87
f 86/86/86 89/89/89 88/88/88
f 90/90/90 92/92/92 91/91/91
f 90/90/90 93/93/93 92/92/92
f 94/94/94 96/96/96 95/95/95
f 94/94/94 97/97/97 96/96/96
f 98/98/98 100/100/100 99/99/99
f 98/98/98 101/101/101 100/100/100
f 102/102/102 104/104/104 103/103/103
f 104/104/104 102/102/102 105/105/105
f 104/104/104 105/105/105 106/106/106
f 107/107/107 109/109/109 108/108/108
f 107/107/107 110/110/110 109/109/109
f 111/111/111 113/113/113 112/112/112
f 111/111/111 114/114/114 113/113/113
f 115/115/115 117/117/117 116/116/116
f 115/115/115 118/118/118 117/117/117
f 119/119/119 121/121/121 120/120/120
f 119/119/119 122/122/122 121/121/121
f 123/123/123 125/125/125 124/124/124
f 123/123/123 126/126/126 125/125/125
f 127/127/127 129/129/129 128/128/128
f 129/129/129 130/130/130 128/128/128
f 130/130/130 131/131/131 128/128/128
f 132/132/132 134/134/134 133/133/133
f 134/134/134 135/135/135 133/133/133
f 135/135/135 136/136/136 133/133/133
f 137/137/137 139/139/139 138/138/138
f 137/137/137 140/140/140 139/139/139
f 141/141/141 143/143/143 142/142/142
f 141/141/141 144/144/144 143/143/143
f 145/145/145 147/147/147 146/146/146
f 145/145/145 148/148/148 147/147/147
f 149/149/149 151/151/151 150/150/150
f 149/149/149 152/152/152 151/151/151
f 153/153/153 155/155/155 154/154/154
f 153/153/153 156/156/156 155/155/155
f 157/157/157 159/159/159 158/158/158
f 159/159/159 160/160/160 158/158/158
f 160/160/160 161/161/161 158/158/158
f 162/162/162 164/164/164 163/163/163
f 164/164/164 165/165/165 163/163/163
f 165/165/165 166/166/166 163/163/163
f 167/167/167 169/169/169 168/168/168
f 167/167/167 170/170/170 169/169/169
f 171/171/171 173/173/173 172/172/172
f 171/171/171 174/174/174 173/173/173
f 175/175/175 177/177/177 176/176/176
f 175/175/175 178/178/178 177/177/177
f 179/179/179 181/181/181 180/180/180
f 179/179/179 182/182/182 181/181/181
f 183/183/183 185/185/185 184/184/184
f 183/183/183 186/186/186 185/185/185
f 187/187/187 189/189/189 188/188/188
f 189/189/189 190/190/190 188/188/188
f 190/190/190 191/191/191 188/188/188
f 192/192/192 194/194/194 193/193/193
f 194/194/194 195/195/195 193/193/193
f 195/195/195 196/196/196 193/193/193
f 197/197/197 199/199/199 198/198/198
f 197/197/197 200/200/200 199/199/199
f 201/201/201 203/203/203 202/202/202
f 201/201/201 204/204/204 203/203/203
f 205/205/205 207/207/207 206/206/206
f 205/205/205 208/208/208 207/207/207
f 209/209/209 211/211/211 210/210/210
f 209/209/209 212/212/212 211/211/211
f 213/213/213 215/215/215 214/214/214
f 213/213/213 216/216/216 215/215/215
f 217/217/217 219/219/219 218/218/218
f 219/219/219 217/217/217 220/220/220
f 220/220/220 217/217/217 221/221/221
f 222/222/222 224/224/224 223/223/223
f 224/224/224 222/222/222 225/225/225
f 224/224/224 225/225/225 226/226/226
