#Pallete_A_05_27274_7.obj

v 0.5514227 -0.04080685 -0.6591141
v 0.1919372 -0.07624847 0.08870762
v 0.3190003 -0.1075554 0.1482884
v 0.6783682 -0.07216424 -0.5996491
v 0.1919372 -0.07624847 0.08870762
v 0.1970252 -0.04841834 0.09250367
v 0.3240883 -0.07972523 0.1520845
v 0.3190003 -0.1075554 0.1482884
v 0.1970252 -0.04841834 0.09250367
v 0.5565118 -0.01299712 -0.6554388
v 0.6834618 -0.0443503 -0.5958517
v 0.3240883 -0.07972523 0.1520845
v 0.5565118 -0.01299712 -0.6554388
v 0.5514227 -0.04080685 -0.6591141
v 0.6783682 -0.07216424 -0.5996491
v 0.6834618 -0.0443503 -0.5958517
v 0.6783682 -0.07216424 -0.5996491
v 0.3190003 -0.1075554 0.1482884
v 0.3240883 -0.07972523 0.1520845
v 0.6834618 -0.0443503 -0.5958517
v 0.5565118 -0.01299712 -0.6554388
v 0.1970252 -0.04841834 0.09250367
v 0.1919372 -0.07624847 0.08870762
v 0.5514227 -0.04080685 -0.6591141
v 0.9385629 -0.1362827 -0.4776318
v 0.5790706 -0.1717046 0.2701882
v 0.7061362 -0.2030187 0.3297696
v 1.065511 -0.1676287 -0.4180453
v 0.5790706 -0.1717046 0.2701882
v 0.5841649 -0.1438924 0.2739858
v 0.7112285 -0.1752011 0.3335668
v 0.7061362 -0.2030187 0.3297696
v 0.5841649 -0.1438924 0.2739858
v 0.9436504 -0.1084508 -0.4738359
v 1.070599 -0.1397986 -0.4142492
v 0.7112285 -0.1752011 0.3335668
v 0.9436504 -0.1084508 -0.4738359
v 0.9385629 -0.1362827 -0.4776318
v 1.065511 -0.1676287 -0.4180453
v 1.070599 -0.1397986 -0.4142492
v 1.065511 -0.1676287 -0.4180453
v 0.7061362 -0.2030187 0.3297696
v 0.7112285 -0.1752011 0.3335668
v 1.070599 -0.1397986 -0.4142492
v 0.9436504 -0.1084508 -0.4738359
v 0.5841649 -0.1438924 0.2739858
v 0.5790706 -0.1717046 0.2701882
v 0.9385629 -0.1362827 -0.4776318
v 0.8735548 -0.09138644 -0.5067098
v 0.514181 -0.1267782 0.2411053
v 0.3871154 -0.0954641 0.1815239
v 0.7464917 -0.06007955 -0.5662906
v 0.514181 -0.1267782 0.2411053
v 0.5090951 -0.1545969 0.2374308
v 0.3820295 -0.1232828 0.1778493
v 0.3871154 -0.0954641 0.1815239
v 0.5090951 -0.1545969 0.2374308
v 0.8684611 -0.1192004 -0.5105072
v 0.7413974 -0.0878917 -0.5700882
v 0.3820295 -0.1232828 0.1778493
v 0.8684611 -0.1192004 -0.5105072
v 0.8735548 -0.09138644 -0.5067098
v 0.7464917 -0.06007955 -0.5662906
v 0.7413974 -0.0878917 -0.5700882
v 0.7464917 -0.06007955 -0.5662906
v 0.3871154 -0.0954641 0.1815239
v 0.3820295 -0.1232828 0.1778493
v 0.7413974 -0.0878917 -0.5700882
v 0.8684611 -0.1192004 -0.5105072
v 0.5090951 -0.1545969 0.2374308
v 0.514181 -0.1267782 0.2411053
v 0.8735548 -0.09138644 -0.5067098
v 0.4864124 0.004078031 -0.6883136
v 0.1270445 -0.03131308 0.05962393
v -1.859799E-05 -6.196335E-06 4.312058E-05
v 0.3594669 0.03543542 -0.7477786
v 0.1270445 -0.03131308 0.05962393
v 0.1219527 -0.05913242 0.05582694
v -0.005112821 -0.02781834 -0.003754508
v -1.859799E-05 -6.196335E-06 4.312058E-05
v 0.1219527 -0.05913242 0.05582694
v 0.4813265 -0.02374068 -0.6919881
v 0.3542634 0.007566203 -0.751569
v -0.005112821 -0.02781834 -0.003754508
v 0.4813265 -0.02374068 -0.6919881
v 0.4864124 0.004078031 -0.6883136
v 0.3594669 0.03543542 -0.7477786
v 0.3542634 0.007566203 -0.751569
v 0.3594669 0.03543542 -0.7477786
v -1.859799E-05 -6.196335E-06 4.312058E-05
v -0.005112821 -0.02781834 -0.003754508
v 0.3542634 0.007566203 -0.751569
v 0.4813265 -0.02374068 -0.6919881
v 0.1219527 -0.05913242 0.05582694
v 0.1270445 -0.03131308 0.05962393
v 0.4864124 0.004078031 -0.6883136
v 0.3365973 0.02179829 -0.6248205
v 0.9901597 -0.1393708 -0.3183388
v 1.001083 -0.08014455 -0.310359
v 0.3475214 0.0810227 -0.6168406
v 0.9901597 -0.1393708 -0.3183388
v 0.9799348 -0.1403744 -0.2970967
v 0.9908521 -0.0811302 -0.2891185
v 1.001083 -0.08014455 -0.310359
v 0.9799348 -0.1403744 -0.2970967
v 0.3263749 0.02078746 -0.6035779
v 0.3372984 0.08001368 -0.595598
v 0.9908521 -0.0811302 -0.2891185
v 0.3263749 0.02078746 -0.6035779
v 0.3365973 0.02179829 -0.6248205
v 0.3475214 0.0810227 -0.6168406
v 0.3372984 0.08001368 -0.595598
v 0.3475214 0.0810227 -0.6168406
v 1.001083 -0.08014455 -0.310359
v 0.9908521 -0.0811302 -0.2891185
v 0.3372984 0.08001368 -0.595598
v 0.3263749 0.02078746 -0.6035779
v 0.9799348 -0.1403744 -0.2970967
v 0.9901597 -0.1393708 -0.3183388
v 0.3365973 0.02179829 -0.6248205
v 0.1023527 0.05542837 -0.1075067
v 0.7559059 -0.1057137 0.1989727
v 0.7449886 -0.1649579 0.1909944
v 0.09154414 -0.00375695 -0.1154924
v 0.7559059 -0.1057137 0.1989727
v 0.7661283 -0.1047029 0.17773
v 0.7552089 -0.1639585 0.1696302
v 0.7449886 -0.1649579 0.1909944
v 0.7661283 -0.1047029 0.17773
v 0.1125752 0.05643919 -0.1287494
v 0.1017672 -0.002747925 -0.1367349
v 0.7552089 -0.1639585 0.1696302
v 0.1125752 0.05643919 -0.1287494
v 0.1023527 0.05542837 -0.1075067
v 0.09154414 -0.00375695 -0.1154924
v 0.1017672 -0.002747925 -0.1367349
v 0.09154414 -0.00375695 -0.1154924
v 0.7449886 -0.1649579 0.1909944
v 0.7552089 -0.1639585 0.1696302
v 0.1017672 -0.002747925 -0.1367349
v 0.1125752 0.05643919 -0.1287494
v 0.7661283 -0.1047029 0.17773
v 0.7559059 -0.1057137 0.1989727
v 0.1023527 0.05542837 -0.1075067
v 0.2145016 0.009770211 -0.3706636
v 0.8680548 -0.1513719 -0.06418423
v 0.8788627 -0.09218474 -0.05619871
v 0.2253028 0.06897711 -0.3626798
v 0.8680548 -0.1513719 -0.06418423
v 0.8578317 -0.1523809 -0.04294169
v 0.8686397 -0.09319377 -0.03495618
v 0.8788627 -0.09218474 -0.05619871
v 0.8578317 -0.1523809 -0.04294169
v 0.2042786 0.008761186 -0.3494211
v 0.2150798 0.06796809 -0.3414373
v 0.8686397 -0.09319377 -0.03495618
v 0.2042786 0.008761186 -0.3494211
v 0.2145016 0.009770211 -0.3706636
v 0.2253028 0.06897711 -0.3626798
v 0.2150798 0.06796809 -0.3414373
v 0.2253028 0.06897711 -0.3626798
v 0.8788627 -0.09218474 -0.05619871
v 0.8686397 -0.09319377 -0.03495618
v 0.2150798 0.06796809 -0.3414373
v 0.2042786 0.008761186 -0.3494211
v 0.8578317 -0.1523809 -0.04294169
v 0.8680548 -0.1513719 -0.06418423
v 0.2145016 0.009770211 -0.3706636

vn -0.4348145 -0.199585 -0.8779297
vn -0.9746094 -0.1748047 0.140625
vn -0.1099854 -0.78125 0.6147461
vn 0.427002 -0.8129883 -0.3952637
vn -0.9746094 -0.1748047 0.140625
vn -0.427002 0.8129883 0.3952637
vn 0.4348145 0.199585 0.8779297
vn -0.1099854 -0.78125 0.6147461
vn -0.427002 0.8129883 0.3952637
vn 0.1099854 0.78125 -0.6147461
vn 0.9746094 0.1748047 -0.140625
vn 0.4348145 0.199585 0.8779297
vn 0.1099854 0.78125 -0.6147461
vn -0.4348145 -0.199585 -0.8779297
vn 0.427002 -0.8129883 -0.3952637
vn 0.9746094 0.1748047 -0.140625
vn 0.427002 -0.8129883 -0.3952637
vn -0.1099854 -0.78125 0.6147461
vn 0.4348145 0.199585 0.8779297
vn 0.9746094 0.1748047 -0.140625
vn 0.1099854 0.78125 -0.6147461
vn -0.427002 0.8129883 0.3952637
vn -0.9746094 -0.1748047 0.140625
vn -0.4348145 -0.199585 -0.8779297
vn -0.4348145 -0.199585 -0.8779297
vn -0.9746094 -0.1748047 0.140625
vn -0.1099854 -0.78125 0.6147461
vn 0.427002 -0.8129883 -0.3952637
vn -0.9746094 -0.1748047 0.140625
vn -0.427002 0.8129883 0.3952637
vn 0.4348145 0.199585 0.8779297
vn -0.1099854 -0.78125 0.6147461
vn -0.427002 0.8129883 0.3952637
vn 0.1099854 0.78125 -0.6147461
vn 0.9746094 0.1748047 -0.140625
vn 0.4348145 0.199585 0.8779297
vn 0.1099854 0.78125 -0.6147461
vn -0.4348145 -0.199585 -0.8779297
vn 0.427002 -0.8129883 -0.3952637
vn 0.9746094 0.1748047 -0.140625
vn 0.427002 -0.8129883 -0.3952637
vn -0.1099854 -0.78125 0.6147461
vn 0.4348145 0.199585 0.8779297
vn 0.9746094 0.1748047 -0.140625
vn 0.1099854 0.78125 -0.6147461
vn -0.427002 0.8129883 0.3952637
vn -0.9746094 -0.1748047 0.140625
vn -0.4348145 -0.199585 -0.8779297
vn 0.9746094 0.1748047 -0.140625
vn 0.4348145 0.199585 0.8779297
vn -0.427002 0.8129883 0.3952637
vn 0.1099854 0.78125 -0.6147461
vn 0.4348145 0.199585 0.8779297
vn -0.1099854 -0.78125 0.6147461
vn -0.9746094 -0.1748047 0.140625
vn -0.427002 0.8129883 0.3952637
vn -0.1099854 -0.78125 0.6147461
vn 0.427002 -0.8129883 -0.3952637
vn -0.4348145 -0.199585 -0.8779297
vn -0.9746094 -0.1748047 0.140625
vn 0.427002 -0.8129883 -0.3952637
vn 0.9746094 0.1748047 -0.140625
vn 0.1099854 0.78125 -0.6147461
vn -0.4348145 -0.199585 -0.8779297
vn 0.1099854 0.78125 -0.6147461
vn -0.427002 0.8129883 0.3952637
vn -0.9746094 -0.1748047 0.140625
vn -0.4348145 -0.199585 -0.8779297
vn 0.427002 -0.8129883 -0.3952637
vn -0.1099854 -0.78125 0.6147461
vn 0.4348145 0.199585 0.8779297
vn 0.9746094 0.1748047 -0.140625
vn 0.9746094 0.1748047 -0.140625
vn 0.4348145 0.199585 0.8779297
vn -0.427002 0.8129883 0.3952637
vn 0.1099854 0.78125 -0.6147461
vn 0.4348145 0.199585 0.8779297
vn -0.1099854 -0.78125 0.6147461
vn -0.9746094 -0.1748047 0.140625
vn -0.427002 0.8129883 0.3952637
vn -0.1099854 -0.78125 0.6147461
vn 0.427002 -0.8129883 -0.3952637
vn -0.4348145 -0.199585 -0.8779297
vn -0.9746094 -0.1748047 0.140625
vn 0.427002 -0.8129883 -0.3952637
vn 0.9746094 0.1748047 -0.140625
vn 0.1099854 0.78125 -0.6147461
vn -0.4348145 -0.199585 -0.8779297
vn 0.1099854 0.78125 -0.6147461
vn -0.427002 0.8129883 0.3952637
vn -0.9746094 -0.1748047 0.140625
vn -0.4348145 -0.199585 -0.8779297
vn 0.427002 -0.8129883 -0.3952637
vn -0.1099854 -0.78125 0.6147461
vn 0.4348145 0.199585 0.8779297
vn 0.9746094 0.1748047 -0.140625
vn -0.4348145 -0.199585 -0.8779297
vn 0.427002 -0.8129883 -0.3952637
vn 0.9746094 0.1748047 -0.140625
vn 0.1099854 0.78125 -0.6147461
vn 0.427002 -0.8129883 -0.3952637
vn -0.1099854 -0.78125 0.6147461
vn 0.4348145 0.199585 0.8779297
vn 0.9746094 0.1748047 -0.140625
vn -0.1099854 -0.78125 0.6147461
vn -0.9746094 -0.1748047 0.140625
vn -0.427002 0.8129883 0.3952637
vn 0.4348145 0.199585 0.8779297
vn -0.9746094 -0.1748047 0.140625
vn -0.4348145 -0.199585 -0.8779297
vn 0.1099854 0.78125 -0.6147461
vn -0.427002 0.8129883 0.3952637
vn 0.1099854 0.78125 -0.6147461
vn 0.9746094 0.1748047 -0.140625
vn 0.4348145 0.199585 0.8779297
vn -0.427002 0.8129883 0.3952637
vn -0.9746094 -0.1748047 0.140625
vn -0.1099854 -0.78125 0.6147461
vn 0.427002 -0.8129883 -0.3952637
vn -0.4348145 -0.199585 -0.8779297
vn -0.427002 0.8129883 0.3952637
vn 0.4348145 0.199585 0.8779297
vn -0.1099854 -0.78125 0.6147461
vn -0.9746094 -0.1748047 0.140625
vn 0.4348145 0.199585 0.8779297
vn 0.9746094 0.1748047 -0.140625
vn 0.427002 -0.8129883 -0.3952637
vn -0.1099854 -0.78125 0.6147461
vn 0.9746094 0.1748047 -0.140625
vn 0.1099854 0.78125 -0.6147461
vn -0.4348145 -0.199585 -0.8779297
vn 0.427002 -0.8129883 -0.3952637
vn 0.1099854 0.78125 -0.6147461
vn -0.427002 0.8129883 0.3952637
vn -0.9746094 -0.1748047 0.140625
vn -0.4348145 -0.199585 -0.8779297
vn -0.9746094 -0.1748047 0.140625
vn -0.1099854 -0.78125 0.6147461
vn 0.427002 -0.8129883 -0.3952637
vn -0.4348145 -0.199585 -0.8779297
vn 0.1099854 0.78125 -0.6147461
vn 0.9746094 0.1748047 -0.140625
vn 0.4348145 0.199585 0.8779297
vn -0.427002 0.8129883 0.3952637
vn -0.4348145 -0.199585 -0.8779297
vn 0.427002 -0.8129883 -0.3952637
vn 0.9746094 0.1748047 -0.140625
vn 0.1099854 0.78125 -0.6147461
vn 0.427002 -0.8129883 -0.3952637
vn -0.1099854 -0.78125 0.6147461
vn 0.4348145 0.199585 0.8779297
vn 0.9746094 0.1748047 -0.140625
vn -0.1099854 -0.78125 0.6147461
vn -0.9746094 -0.1748047 0.140625
vn -0.427002 0.8129883 0.3952637
vn 0.4348145 0.199585 0.8779297
vn -0.9746094 -0.1748047 0.140625
vn -0.4348145 -0.199585 -0.8779297
vn 0.1099854 0.78125 -0.6147461
vn -0.427002 0.8129883 0.3952637
vn 0.1099854 0.78125 -0.6147461
vn 0.9746094 0.1748047 -0.140625
vn 0.4348145 0.199585 0.8779297
vn -0.427002 0.8129883 0.3952637
vn -0.9746094 -0.1748047 0.140625
vn -0.1099854 -0.78125 0.6147461
vn 0.427002 -0.8129883 -0.3952637
vn -0.4348145 -0.199585 -0.8779297

vt -0.01838684 1
vt -0.01838684 -0.000198245
vt -0.1774902 -0.000198245
vt -0.1774902 1
vt -0.01838684 -0.000198245
vt -0.02671814 0.0141983
vt -0.1691895 0.0141983
vt -0.1774902 -0.000198245
vt -0.02671814 0.0141983
vt -0.02671814 0.9858398
vt -0.1691895 0.9858398
vt -0.1691895 0.0141983
vt -0.02671814 0.9858398
vt -0.01838684 1
vt -0.1774902 1
vt -0.1691895 0.9858398
vt -0.1774902 1
vt -0.1774902 -0.000198245
vt -0.1691895 0.0141983
vt -0.1691895 0.9858398
vt -0.02671814 0.9858398
vt -0.02671814 0.0141983
vt -0.01838684 -0.000198245
vt -0.01838684 1
vt 0.7841797 1
vt 0.7841797 -0.000198245
vt 0.625 -0.000198245
vt 0.625 1
vt 0.7841797 -0.000198245
vt 0.7758789 0.0141983
vt 0.6333008 0.0141983
vt 0.625 -0.000198245
vt 0.7758789 0.0141983
vt 0.7758789 0.9858398
vt 0.6333008 0.9858398
vt 0.6333008 0.0141983
vt 0.7758789 0.9858398
vt 0.7841797 1
vt 0.625 1
vt 0.6333008 0.9858398
vt 0.625 1
vt 0.625 -0.000198245
vt 0.6333008 0.0141983
vt 0.6333008 0.9858398
vt 0.7758789 0.9858398
vt 0.7758789 0.0141983
vt 0.7841797 -0.000198245
vt 0.7841797 1
vt 0.1801758 1
vt 0.1801758 -0.000198245
vt 0.02102661 -0.000198245
vt 0.02102661 1
vt 0.1801758 -0.000198245
vt 0.171875 0.0141983
vt 0.02935791 0.0141983
vt 0.02102661 -0.000198245
vt 0.171875 0.0141983
vt 0.171875 0.9858398
vt 0.02935791 0.9858398
vt 0.02935791 0.0141983
vt 0.171875 0.9858398
vt 0.1801758 1
vt 0.02102661 1
vt 0.02935791 0.9858398
vt 0.02102661 1
vt 0.02102661 -0.000198245
vt 0.02935791 0.0141983
vt 0.02935791 0.9858398
vt 0.171875 0.9858398
vt 0.171875 0.0141983
vt 0.1801758 -0.000198245
vt 0.1801758 1
vt 1.167969 1
vt 1.167969 -0.000198245
vt 1.008789 -0.000198245
vt 1.008789 1
vt 1.167969 -0.000198245
vt 1.160156 0.0141983
vt 1.017578 0.0141983
vt 1.008789 -0.000198245
vt 1.160156 0.0141983
vt 1.160156 0.9858398
vt 1.017578 0.9858398
vt 1.017578 0.0141983
vt 1.160156 0.9858398
vt 1.167969 1
vt 1.008789 1
vt 1.017578 0.9858398
vt 1.008789 1
vt 1.008789 -0.000198245
vt 1.017578 0.0141983
vt 1.017578 0.9858398
vt 1.160156 0.9858398
vt 1.160156 0.0141983
vt 1.167969 -0.000198245
vt 1.167969 1
vt -0.2237549 1
vt -0.2237549 -0.000198245
vt -0.3828125 -0.000198245
vt -0.3828125 1
vt -0.2237549 -0.000198245
vt -0.2320557 0.0141983
vt -0.3745117 0.0141983
vt -0.3828125 -0.000198245
vt -0.2320557 0.0141983
vt -0.2320557 0.9858398
vt -0.3745117 0.9858398
vt -0.3745117 0.0141983
vt -0.2320557 0.9858398
vt -0.2237549 1
vt -0.3828125 1
vt -0.3745117 0.9858398
vt -0.3828125 1
vt -0.3828125 -0.000198245
vt -0.3745117 0.0141983
vt -0.3745117 0.9858398
vt -0.2320557 0.9858398
vt -0.2320557 0.0141983
vt -0.2237549 -0.000198245
vt -0.2237549 1
vt 1.167969 1
vt 1.167969 -0.000198245
vt 1.008789 -0.000198245
vt 1.008789 1
vt 1.167969 -0.000198245
vt 1.160156 0.0141983
vt 1.017578 0.0141983
vt 1.008789 -0.000198245
vt 1.160156 0.0141983
vt 1.160156 0.9858398
vt 1.017578 0.9858398
vt 1.017578 0.0141983
vt 1.160156 0.9858398
vt 1.167969 1
vt 1.008789 1
vt 1.017578 0.9858398
vt 1.008789 1
vt 1.008789 -0.000198245
vt 1.017578 0.0141983
vt 1.017578 0.9858398
vt 1.160156 0.9858398
vt 1.160156 0.0141983
vt 1.167969 -0.000198245
vt 1.167969 1
vt -0.2237549 1
vt -0.2237549 -0.000198245
vt -0.3828125 -0.000198245
vt -0.3828125 1
vt -0.2237549 -0.000198245
vt -0.2320557 0.0141983
vt -0.3745117 0.0141983
vt -0.3828125 -0.000198245
vt -0.2320557 0.0141983
vt -0.2320557 0.9858398
vt -0.3745117 0.9858398
vt -0.3745117 0.0141983
vt -0.2320557 0.9858398
vt -0.2237549 1
vt -0.3828125 1
vt -0.3745117 0.9858398
vt -0.3828125 1
vt -0.3828125 -0.000198245
vt -0.3745117 0.0141983
vt -0.3745117 0.9858398
vt -0.2320557 0.9858398
vt -0.2320557 0.0141983
vt -0.2237549 -0.000198245
vt -0.2237549 1

g Pallete_A_05_27274_7
usemtl Pallete_A_05_27274_7
usemap Pallete_A_05_27274_7
f 1/1/1 3/3/3 2/2/2
f 1/1/1 4/4/4 3/3/3
f 5/5/5 7/7/7 6/6/6
f 5/5/5 8/8/8 7/7/7
f 9/9/9 11/11/11 10/10/10
f 9/9/9 12/12/12 11/11/11
f 13/13/13 15/15/15 14/14/14
f 13/13/13 16/16/16 15/15/15
f 17/17/17 19/19/19 18/18/18
f 17/17/17 20/20/20 19/19/19
f 21/21/21 23/23/23 22/22/22
f 21/21/21 24/24/24 23/23/23
f 25/25/25 27/27/27 26/26/26
f 25/25/25 28/28/28 27/27/27
f 29/29/29 31/31/31 30/30/30
f 29/29/29 32/32/32 31/31/31
f 33/33/33 35/35/35 34/34/34
f 33/33/33 36/36/36 35/35/35
f 37/37/37 39/39/39 38/38/38
f 37/37/37 40/40/40 39/39/39
f 41/41/41 43/43/43 42/42/42
f 41/41/41 44/44/44 43/43/43
f 45/45/45 47/47/47 46/46/46
f 45/45/45 48/48/48 47/47/47
f 49/49/49 51/51/51 50/50/50
f 49/49/49 52/52/52 51/51/51
f 53/53/53 55/55/55 54/54/54
f 53/53/53 56/56/56 55/55/55
f 57/57/57 59/59/59 58/58/58
f 57/57/57 60/60/60 59/59/59
f 61/61/61 63/63/63 62/62/62
f 61/61/61 64/64/64 63/63/63
f 65/65/65 67/67/67 66/66/66
f 65/65/65 68/68/68 67/67/67
f 69/69/69 71/71/71 70/70/70
f 69/69/69 72/72/72 71/71/71
f 73/73/73 75/75/75 74/74/74
f 73/73/73 76/76/76 75/75/75
f 77/77/77 79/79/79 78/78/78
f 77/77/77 80/80/80 79/79/79
f 81/81/81 83/83/83 82/82/82
f 81/81/81 84/84/84 83/83/83
f 85/85/85 87/87/87 86/86/86
f 85/85/85 88/88/88 87/87/87
f 89/89/89 91/91/91 90/90/90
f 89/89/89 92/92/92 91/91/91
f 93/93/93 95/95/95 94/94/94
f 93/93/93 96/96/96 95/95/95
f 97/97/97 99/99/99 98/98/98
f 97/97/97 100/100/100 99/99/99
f 101/101/101 103/103/103 102/102/102
f 101/101/101 104/104/104 103/103/103
f 105/105/105 107/107/107 106/106/106
f 105/105/105 108/108/108 107/107/107
f 109/109/109 111/111/111 110/110/110
f 109/109/109 112/112/112 111/111/111
f 113/113/113 115/115/115 114/114/114
f 113/113/113 116/116/116 115/115/115
f 117/117/117 119/119/119 118/118/118
f 117/117/117 120/120/120 119/119/119
f 121/121/121 123/123/123 122/122/122
f 121/121/121 124/124/124 123/123/123
f 125/125/125 127/127/127 126/126/126
f 125/125/125 128/128/128 127/127/127
f 129/129/129 131/131/131 130/130/130
f 129/129/129 132/132/132 131/131/131
f 133/133/133 135/135/135 134/134/134
f 133/133/133 136/136/136 135/135/135
f 137/137/137 139/139/139 138/138/138
f 137/137/137 140/140/140 139/139/139
f 141/141/141 143/143/143 142/142/142
f 141/141/141 144/144/144 143/143/143
f 145/145/145 147/147/147 146/146/146
f 145/145/145 148/148/148 147/147/147
f 149/149/149 151/151/151 150/150/150
f 149/149/149 152/152/152 151/151/151
f 153/153/153 155/155/155 154/154/154
f 153/153/153 156/156/156 155/155/155
f 157/157/157 159/159/159 158/158/158
f 157/157/157 160/160/160 159/159/159
f 161/161/161 163/163/163 162/162/162
f 161/161/161 164/164/164 163/163/163
f 165/165/165 167/167/167 166/166/166
f 165/165/165 168/168/168 167/167/167
