#Pipe_06_28437_32.obj

v -0.4497742 -0.1088623 -0.570939
v -0.4675038 -0.1556769 -0.5453852
v 0.6139897 -0.04642454 0.4010661
v 0.6317172 0.0003786103 0.3753907
v -0.4458505 -0.05379088 -0.5816989
v 0.6356396 0.05545364 0.3646305
v -0.4564211 0.001139842 -0.5760056
v 0.6250696 0.1103826 0.370324
v -0.4675038 -0.1556769 -0.5453852
v 0.5851421 -0.07784624 0.4376309
v 0.6139897 -0.04642454 0.4010661
v -0.4963486 -0.187089 -0.5086987
v 0.549597 -0.08906696 0.4796502
v -0.5320111 -0.1983434 -0.4666742
v 0.5125578 -0.07847302 0.52075
v -0.5689406 -0.187711 -0.4257025
v 0.4798988 -0.04758891 0.5544718
v -0.6015981 -0.1568137 -0.3918594
v 0.4564593 -0.001136289 0.5759016
v -0.6250308 -0.1103808 -0.3704279
v -0.503655 -0.1650238 -0.5027956
v 0.6019154 -0.02958752 0.4130618
v 0.5778364 -0.05578291 0.4435342
v -0.4795775 -0.1388417 -0.5333893
v 0.6166805 0.009428874 0.3916032
v -0.4649276 -0.09984755 -0.5547212
v 0.6198106 0.05529922 0.3827025
v -0.4616823 -0.05395493 -0.5637487
v 0.6109953 0.1011024 0.3875057
v -0.4704976 -0.008151736 -0.5589454
v -0.533447 -0.1744422 -0.4677906
v -0.503655 -0.1650238 -0.5027956
v 0.5778364 -0.05578291 0.4435342
v 0.5480458 -0.06518803 0.4786605
v -0.564301 -0.1655805 -0.4335032
v 0.5171953 -0.05635395 0.5128278
v -0.5914994 -0.1398318 -0.4054032
v 0.4899913 -0.0305891 0.5409264
v -0.6109571 -0.1010989 -0.3876098
v 0.4705358 0.008155289 0.5588413
v -0.6250308 -0.1103808 -0.3704279
v 0.4458894 0.05379264 0.581595
v 0.4564593 -0.001136289 0.5759016
v -0.6356014 -0.05545009 -0.3647346
v 0.4498124 0.1088659 0.5708349
v -0.6316783 -0.0003768551 -0.3754947
v 0.467542 0.1556804 0.5452811
v -0.6139509 0.0464263 -0.40117
v -0.6197718 -0.05529746 -0.3828064
v -0.6109571 -0.1010989 -0.3876098
v 0.4705358 0.008155289 0.5588413
v 0.4617205 0.05395848 0.5636446
v -0.6166423 -0.009425321 -0.3917073
v 0.4648484 0.0998174 0.5546224
v -0.6018772 0.02959108 -0.4131659
v 0.4796163 0.1388434 0.5332854
v -0.5777976 0.05578467 -0.4436381
v 0.5036932 0.1650274 0.5026915
v -0.6139509 0.0464263 -0.40117
v 0.4963868 0.1870925 0.5085946
v 0.467542 0.1556804 0.5452811
v -0.5851039 0.0778498 -0.437735
v 0.5320493 0.1983469 0.4665701
v -0.5495588 0.08907051 -0.4797543
v 0.5689788 0.1877145 0.4255984
v -0.5125196 0.07847657 -0.5208541
v 0.6016364 0.1568172 0.3917553
v -0.47986 0.04759067 -0.5545757
v -0.548007 0.06518978 -0.4787644
v -0.5777976 0.05578467 -0.4436381
v 0.5036932 0.1650274 0.5026915
v 0.5334858 0.1744439 0.4676867
v -0.5171571 0.0563575 -0.5129319
v 0.5643392 0.165584 0.4333992
v -0.4899531 0.03059265 -0.5410305
v 0.5915377 0.1398354 0.4052991
v -0.4704976 -0.008151736 -0.5589454
v 0.6109953 0.1011024 0.3875057
v -0.47986 0.04759067 -0.5545757
v -0.4564211 0.001139842 -0.5760056
v 0.6250696 0.1103826 0.370324
v 0.6016364 0.1568172 0.3917553
v -0.4497742 -0.1088623 -0.570939
v -0.4649276 -0.09984755 -0.5547212
v -0.4795775 -0.1388417 -0.5333893
v -0.4675038 -0.1556769 -0.5453852
v -0.4458505 -0.05379088 -0.5816989
v -0.503655 -0.1650238 -0.5027956
v -0.4616823 -0.05395493 -0.5637487
v -0.4963486 -0.187089 -0.5086987
v -0.4564211 0.001139842 -0.5760056
v -0.533447 -0.1744422 -0.4677906
v -0.4704976 -0.008151736 -0.5589454
v -0.5320111 -0.1983434 -0.4666742
v -0.47986 0.04759067 -0.5545757
v -0.564301 -0.1655805 -0.4335032
v -0.4899531 0.03059265 -0.5410305
v -0.5689406 -0.187711 -0.4257025
v -0.5125196 0.07847657 -0.5208541
v -0.5914994 -0.1398318 -0.4054032
v -0.5171571 0.0563575 -0.5129319
v -0.6015981 -0.1568137 -0.3918594
v -0.5495588 0.08907051 -0.4797543
v -0.6109571 -0.1010989 -0.3876098
v -0.548007 0.06518978 -0.4787644
v -0.6250308 -0.1103808 -0.3704279
v -0.5851039 0.0778498 -0.437735
v -0.6197718 -0.05529746 -0.3828064
v -0.5777976 0.05578467 -0.4436381
v -0.6356014 -0.05545009 -0.3647346
v -0.6139509 0.0464263 -0.40117
v -0.6166423 -0.009425321 -0.3917073
v -0.6018772 0.02959108 -0.4131659
v -0.6316783 -0.0003768551 -0.3754947
v 0.6317172 0.0003786103 0.3753907
v 0.6139897 -0.04642454 0.4010661
v 0.6019154 -0.02958752 0.4130618
v 0.6166805 0.009428874 0.3916032
v 0.5778364 -0.05578291 0.4435342
v 0.6356396 0.05545364 0.3646305
v 0.5851421 -0.07784624 0.4376309
v 0.6198106 0.05529922 0.3827025
v 0.5480458 -0.06518803 0.4786605
v 0.6250696 0.1103826 0.370324
v 0.549597 -0.08906696 0.4796502
v 0.6109953 0.1011024 0.3875057
v 0.5171953 -0.05635395 0.5128278
v 0.6016364 0.1568172 0.3917553
v 0.5125578 -0.07847302 0.52075
v 0.5915377 0.1398354 0.4052991
v 0.4899913 -0.0305891 0.5409264
v 0.5689788 0.1877145 0.4255984
v 0.4798988 -0.04758891 0.5544718
v 0.5643392 0.165584 0.4333992
v 0.4705358 0.008155289 0.5588413
v 0.5320493 0.1983469 0.4665701
v 0.4564593 -0.001136289 0.5759016
v 0.5334858 0.1744439 0.4676867
v 0.4617205 0.05395848 0.5636446
v 0.4963868 0.1870925 0.5085946
v 0.4458894 0.05379264 0.581595
v 0.5036932 0.1650274 0.5026915
v 0.4648484 0.0998174 0.5546224
v 0.467542 0.1556804 0.5452811
v 0.4498124 0.1088659 0.5708349
v 0.4796163 0.1388434 0.5332854

vn -0.08856201 -0.2266846 -0.9697266
vn -0.2614746 -0.4362793 -0.8608398
vn 0.6816406 -0.7314453 -0.02479553
vn 0.8457031 -0.5209961 -0.1134033
vn 0.02166748 0.04602051 -0.9985352
vn 0.9594727 -0.2612305 -0.1066284
vn 0.05865479 0.3269043 -0.9433594
vn 0.9985352 0.02651978 -0.04550171
vn -0.2614746 -0.4362793 -0.8608398
vn 0.4770508 -0.8579102 0.19104
vn 0.6816406 -0.7314453 -0.02479553
vn -0.463623 -0.559082 -0.6875
vn 0.270752 -0.8681641 0.4157715
vn -0.6694336 -0.5678711 -0.4790039
vn 0.1008911 -0.7729492 0.6259766
vn -0.8393555 -0.4731445 -0.2680664
vn -0.02006531 -0.5844727 0.8110352
vn -0.956543 -0.2841797 -0.06842041
vn -0.05865479 -0.3269043 0.9433594
vn -0.9985352 -0.02651978 0.04550171
vn -0.5400391 0.7895508 -0.291748
vn 0.3469238 0.3479004 0.8710938
vn 0.5258789 0.4516602 0.7207031
vn -0.7104492 0.6850586 -0.161377
vn 0.1971436 0.1567383 0.9677734
vn -0.8671875 0.4978027 0.0008416176
vn 0.09234619 -0.0758667 0.9926758
vn -0.9624023 0.2685547 -0.0390625
vn 0.06524658 -0.3273926 0.9423828
vn -0.9990234 0.01585388 -0.04544067
vn -0.3579102 0.8041992 -0.4748535
vn -0.5400391 0.7895508 -0.291748
vn 0.5258789 0.4516602 0.7207031
vn 0.7050781 0.458252 0.5410156
vn -0.2011719 0.7197266 -0.6645508
vn 0.8540039 0.3759766 0.3596191
vn -0.09838867 0.5517578 -0.828125
vn 0.9560547 0.2069092 0.206665
vn -0.06524658 0.3273926 -0.9423828
vn 0.9990234 -0.01585388 0.04544067
vn -0.9985352 -0.02651978 0.04550171
vn -0.02166748 -0.04602051 0.9985352
vn -0.05865479 -0.3269043 0.9433594
vn -0.9594727 0.2612305 0.1066284
vn 0.08856201 0.2266846 0.9697266
vn -0.8457031 0.5209961 0.1134033
vn 0.2614746 0.4362793 0.8608398
vn -0.6816406 0.7314453 0.02450562
vn -0.09979248 0.07830811 -0.9916992
vn -0.06524658 0.3273926 -0.9423828
vn 0.9990234 -0.01585388 0.04544067
vn 0.9624023 -0.2685547 0.03900146
vn -0.1971436 -0.1567383 -0.9677734
vn 0.8671875 -0.4978027 -0.0008416176
vn -0.3469238 -0.3479004 -0.8710938
vn 0.7104492 -0.6850586 0.161377
vn -0.5258789 -0.4516602 -0.7207031
vn 0.5400391 -0.7895508 0.291748
vn -0.6816406 0.7314453 0.02450562
vn 0.463623 0.559082 0.6875
vn 0.2614746 0.4362793 0.8608398
vn -0.4770508 0.8579102 -0.19104
vn 0.6694336 0.5678711 0.4790039
vn -0.270752 0.8681641 -0.4157715
vn 0.8393555 0.4731445 0.2680664
vn -0.1008911 0.7729492 -0.6259766
vn 0.956543 0.2841797 0.06842041
vn 0.02006531 0.5844727 -0.8110352
vn -0.7050781 -0.458252 -0.5410156
vn -0.5258789 -0.4516602 -0.7207031
vn 0.5400391 -0.7895508 0.291748
vn 0.3579102 -0.8041992 0.4748535
vn -0.8540039 -0.3759766 -0.3596191
vn 0.2011719 -0.7197266 0.6645508
vn -0.9560547 -0.2069092 -0.206665
vn 0.09838867 -0.5517578 0.828125
vn -0.9990234 0.01585388 -0.04544067
vn 0.06524658 -0.3273926 0.9423828
vn 0.02006531 0.5844727 -0.8110352
vn 0.05865479 0.3269043 -0.9433594
vn 0.9985352 0.02651978 -0.04550171
vn 0.956543 0.2841797 0.06842041
vn -0.08856201 -0.2266846 -0.9697266
vn -0.8671875 0.4978027 0.0008416176
vn -0.7104492 0.6850586 -0.161377
vn -0.2614746 -0.4362793 -0.8608398
vn 0.02166748 0.04602051 -0.9985352
vn -0.5400391 0.7895508 -0.291748
vn -0.9624023 0.2685547 -0.0390625
vn -0.463623 -0.559082 -0.6875
vn 0.05865479 0.3269043 -0.9433594
vn -0.3579102 0.8041992 -0.4748535
vn -0.9990234 0.01585388 -0.04544067
vn -0.6694336 -0.5678711 -0.4790039
vn 0.02006531 0.5844727 -0.8110352
vn -0.2011719 0.7197266 -0.6645508
vn -0.9560547 -0.2069092 -0.206665
vn -0.8393555 -0.4731445 -0.2680664
vn -0.1008911 0.7729492 -0.6259766
vn -0.09838867 0.5517578 -0.828125
vn -0.8540039 -0.3759766 -0.3596191
vn -0.956543 -0.2841797 -0.06842041
vn -0.270752 0.8681641 -0.4157715
vn -0.06524658 0.3273926 -0.9423828
vn -0.7050781 -0.458252 -0.5410156
vn -0.9985352 -0.02651978 0.04550171
vn -0.4770508 0.8579102 -0.19104
vn -0.09979248 0.07830811 -0.9916992
vn -0.5258789 -0.4516602 -0.7207031
vn -0.9594727 0.2612305 0.1066284
vn -0.6816406 0.7314453 0.02450562
vn -0.1971436 -0.1567383 -0.9677734
vn -0.3469238 -0.3479004 -0.8710938
vn -0.8457031 0.5209961 0.1134033
vn 0.8457031 -0.5209961 -0.1134033
vn 0.6816406 -0.7314453 -0.02479553
vn 0.3469238 0.3479004 0.8710938
vn 0.1971436 0.1567383 0.9677734
vn 0.5258789 0.4516602 0.7207031
vn 0.9594727 -0.2612305 -0.1066284
vn 0.4770508 -0.8579102 0.19104
vn 0.09234619 -0.0758667 0.9926758
vn 0.7050781 0.458252 0.5410156
vn 0.9985352 0.02651978 -0.04550171
vn 0.270752 -0.8681641 0.4157715
vn 0.06524658 -0.3273926 0.9423828
vn 0.8540039 0.3759766 0.3596191
vn 0.956543 0.2841797 0.06842041
vn 0.1008911 -0.7729492 0.6259766
vn 0.09838867 -0.5517578 0.828125
vn 0.9560547 0.2069092 0.206665
vn 0.8393555 0.4731445 0.2680664
vn -0.02006531 -0.5844727 0.8110352
vn 0.2011719 -0.7197266 0.6645508
vn 0.9990234 -0.01585388 0.04544067
vn 0.6694336 0.5678711 0.4790039
vn -0.05865479 -0.3269043 0.9433594
vn 0.3579102 -0.8041992 0.4748535
vn 0.9624023 -0.2685547 0.03900146
vn 0.463623 0.559082 0.6875
vn -0.02166748 -0.04602051 0.9985352
vn 0.5400391 -0.7895508 0.291748
vn 0.8671875 -0.4978027 -0.0008416176
vn 0.2614746 0.4362793 0.8608398
vn 0.08856201 0.2266846 0.9697266
vn 0.7104492 -0.6850586 0.161377

vt 1.375 -0.3112793
vt 1.25 -0.3112793
vt 1.25 1.311523
vt 1.375 1.311523
vt 1.5 -0.3112793
vt 1.5 1.311523
vt 1.625 -0.3112793
vt 1.625 1.311523
vt 1.25 -0.3112793
vt 1.125 1.311523
vt 1.25 1.311523
vt 1.125 -0.3112793
vt 1 1.311523
vt 1 -0.3112793
vt 0.875 1.311523
vt 0.875 -0.3112793
vt 0.7504883 1.311523
vt 0.75 -0.3112793
vt 0.625 1.311523
vt 0.6245117 -0.3112793
vt 1.125 -0.3112793
vt 1.25 1.311523
vt 1.125 1.311523
vt 1.25 -0.3112793
vt 1.375 1.311523
vt 1.375 -0.3112793
vt 1.5 1.311523
vt 1.5 -0.3112793
vt 1.625 1.311523
vt 1.625 -0.3112793
vt 1 -0.3112793
vt 1.125 -0.3112793
vt 1.125 1.311523
vt 1 1.311523
vt 0.875 -0.3112793
vt 0.875 1.311523
vt 0.75 -0.3112793
vt 0.7504883 1.311523
vt 0.6245117 -0.3112793
vt 0.625 1.311523
vt 0.6245117 -0.3112793
vt 0.5 1.311523
vt 0.625 1.311523
vt 0.4997559 -0.3112793
vt 0.3752441 1.311523
vt 0.3747559 -0.3112793
vt 0.25 1.311523
vt 0.25 -0.3112793
vt 0.4997559 -0.3112793
vt 0.6245117 -0.3112793
vt 0.625 1.311523
vt 0.5 1.311523
vt 0.3747559 -0.3112793
vt 0.3752441 1.311523
vt 0.25 -0.3112793
vt 0.25 1.311523
vt 0.125 -0.3112793
vt 0.125 1.311523
vt 0.25 -0.3112793
vt 0.125 1.311523
vt 0.25 1.311523
vt 0.125 -0.3112793
vt -1.889467E-05 1.311523
vt -1.889467E-05 -0.3112793
vt -0.1251221 1.311523
vt -0.1251221 -0.3112793
vt -0.2502441 1.311523
vt -0.2502441 -0.3112793
vt -1.889467E-05 -0.3112793
vt 0.125 -0.3112793
vt 0.125 1.311523
vt -1.889467E-05 1.311523
vt -0.1251221 -0.3112793
vt -0.1251221 1.311523
vt -0.2496338 -0.3112793
vt -0.2502441 1.311523
vt -0.3747559 -0.3112793
vt -0.3752441 1.311523
vt -0.2502441 -0.3112793
vt -0.3747559 -0.3112793
vt -0.3752441 1.311523
vt -0.2502441 1.311523
vt 0.6914063 0.9619141
vt 0.659668 0.8852539
vt 0.7949219 0.7949219
vt 0.8535156 0.8535156
vt 0.5 1
vt 0.8852539 0.659668
vt 0.5 0.9169922
vt 0.9619141 0.6914063
vt 0.3085938 0.9619141
vt 0.9169922 0.5
vt 0.3405762 0.8852539
vt 1 0.5
vt 0.1464844 0.8535156
vt 0.8852539 0.3405762
vt 0.2052002 0.7949219
vt 0.9619141 0.3085938
vt 0.03808594 0.6914063
vt 0.7949219 0.2052002
vt 0.1147461 0.659668
vt 0.8535156 0.1464844
vt -1.889467E-05 0.5
vt 0.659668 0.1147461
vt 0.08300781 0.5
vt 0.6914063 0.03808594
vt 0.03808594 0.3085938
vt 0.5 0.08300781
vt 0.1147461 0.3405762
vt 0.5 -1.889467E-05
vt 0.1464844 0.1464844
vt 0.3405762 0.1147461
vt 0.2052002 0.2052002
vt 0.3085938 0.03808594
vt 0.6914063 0.9619141
vt 0.8535156 0.8535156
vt 0.7949219 0.7949219
vt 0.659668 0.8852539
vt 0.8852539 0.659668
vt 0.5 1
vt 0.9619141 0.6914063
vt 0.5 0.9169922
vt 0.9169922 0.5
vt 0.3085938 0.9619141
vt 1 0.5
vt 0.3405762 0.8852539
vt 0.8852539 0.3405762
vt 0.1464844 0.8535156
vt 0.9619141 0.3085938
vt 0.2052002 0.7949219
vt 0.7949219 0.2052002
vt 0.03808594 0.6914063
vt 0.8535156 0.1464844
vt 0.1147461 0.659668
vt 0.659668 0.1147461
vt -1.889467E-05 0.5
vt 0.6914063 0.03808594
vt 0.08300781 0.5
vt 0.5 0.08300781
vt 0.03808594 0.3085938
vt 0.5 -1.889467E-05
vt 0.1147461 0.3405762
vt 0.3405762 0.1147461
vt 0.1464844 0.1464844
vt 0.3085938 0.03808594
vt 0.2052002 0.2052002

g Pipe_06_28437_32
usemtl Pipe_06_28437_32
usemap Pipe_06_28437_32
f 1/1/1 3/3/3 2/2/2
f 1/1/1 4/4/4 3/3/3
f 5/5/5 4/4/4 1/1/1
f 5/5/5 6/6/6 4/4/4
f 7/7/7 6/6/6 5/5/5
f 7/7/7 8/8/8 6/6/6
f 9/9/9 11/11/11 10/10/10
f 9/9/9 10/10/10 12/12/12
f 12/12/12 10/10/10 13/13/13
f 12/12/12 13/13/13 14/14/14
f 14/14/14 13/13/13 15/15/15
f 14/14/14 15/15/15 16/16/16
f 16/16/16 15/15/15 17/17/17
f 16/16/16 17/17/17 18/18/18
f 18/18/18 17/17/17 19/19/19
f 18/18/18 19/19/19 20/20/20
f 21/21/21 23/23/23 22/22/22
f 21/21/21 22/22/22 24/24/24
f 24/24/24 22/22/22 25/25/25
f 24/24/24 25/25/25 26/26/26
f 26/26/26 25/25/25 27/27/27
f 26/26/26 27/27/27 28/28/28
f 28/28/28 27/27/27 29/29/29
f 28/28/28 29/29/29 30/30/30
f 31/31/31 33/33/33 32/32/32
f 31/31/31 34/34/34 33/33/33
f 35/35/35 34/34/34 31/31/31
f 35/35/35 36/36/36 34/34/34
f 37/37/37 36/36/36 35/35/35
f 37/37/37 38/38/38 36/36/36
f 39/39/39 38/38/38 37/37/37
f 39/39/39 40/40/40 38/38/38
f 41/41/41 43/43/43 42/42/42
f 41/41/41 42/42/42 44/44/44
f 44/44/44 42/42/42 45/45/45
f 44/44/44 45/45/45 46/46/46
f 46/46/46 45/45/45 47/47/47
f 46/46/46 47/47/47 48/48/48
f 49/49/49 51/51/51 50/50/50
f 49/49/49 52/52/52 51/51/51
f 53/53/53 52/52/52 49/49/49
f 53/53/53 54/54/54 52/52/52
f 55/55/55 54/54/54 53/53/53
f 55/55/55 56/56/56 54/54/54
f 57/57/57 56/56/56 55/55/55
f 57/57/57 58/58/58 56/56/56
f 59/59/59 61/61/61 60/60/60
f 59/59/59 60/60/60 62/62/62
f 62/62/62 60/60/60 63/63/63
f 62/62/62 63/63/63 64/64/64
f 64/64/64 63/63/63 65/65/65
f 64/64/64 65/65/65 66/66/66
f 66/66/66 65/65/65 67/67/67
f 66/66/66 67/67/67 68/68/68
f 69/69/69 71/71/71 70/70/70
f 69/69/69 72/72/72 71/71/71
f 73/73/73 72/72/72 69/69/69
f 73/73/73 74/74/74 72/72/72
f 75/75/75 74/74/74 73/73/73
f 75/75/75 76/76/76 74/74/74
f 77/77/77 76/76/76 75/75/75
f 77/77/77 78/78/78 76/76/76
f 79/79/79 81/81/81 80/80/80
f 79/79/79 82/82/82 81/81/81
f 83/83/83 85/85/85 84/84/84
f 83/83/83 86/86/86 85/85/85
f 87/87/87 83/83/83 84/84/84
f 86/86/86 88/88/88 85/85/85
f 87/87/87 84/84/84 89/89/89
f 86/86/86 90/90/90 88/88/88
f 91/91/91 87/87/87 89/89/89
f 90/90/90 92/92/92 88/88/88
f 91/91/91 89/89/89 93/93/93
f 90/90/90 94/94/94 92/92/92
f 95/95/95 91/91/91 93/93/93
f 94/94/94 96/96/96 92/92/92
f 95/95/95 93/93/93 97/97/97
f 94/94/94 98/98/98 96/96/96
f 99/99/99 95/95/95 97/97/97
f 98/98/98 100/100/100 96/96/96
f 99/99/99 97/97/97 101/101/101
f 98/98/98 102/102/102 100/100/100
f 103/103/103 99/99/99 101/101/101
f 102/102/102 104/104/104 100/100/100
f 103/103/103 101/101/101 105/105/105
f 102/102/102 106/106/106 104/104/104
f 107/107/107 103/103/103 105/105/105
f 106/106/106 108/108/108 104/104/104
f 107/107/107 105/105/105 109/109/109
f 106/106/106 110/110/110 108/108/108
f 111/111/111 107/107/107 109/109/109
f 110/110/110 112/112/112 108/108/108
f 111/111/111 109/109/109 113/113/113
f 110/110/110 114/114/114 112/112/112
f 114/114/114 111/111/111 113/113/113
f 114/114/114 113/113/113 112/112/112
f 115/115/115 117/117/117 116/116/116
f 115/115/115 118/118/118 117/117/117
f 116/116/116 117/117/117 119/119/119
f 120/120/120 118/118/118 115/115/115
f 116/116/116 119/119/119 121/121/121
f 120/120/120 122/122/122 118/118/118
f 121/121/121 119/119/119 123/123/123
f 124/124/124 122/122/122 120/120/120
f 121/121/121 123/123/123 125/125/125
f 124/124/124 126/126/126 122/122/122
f 125/125/125 123/123/123 127/127/127
f 128/128/128 126/126/126 124/124/124
f 125/125/125 127/127/127 129/129/129
f 128/128/128 130/130/130 126/126/126
f 129/129/129 127/127/127 131/131/131
f 132/132/132 130/130/130 128/128/128
f 129/129/129 131/131/131 133/133/133
f 132/132/132 134/134/134 130/130/130
f 133/133/133 131/131/131 135/135/135
f 136/136/136 134/134/134 132/132/132
f 133/133/133 135/135/135 137/137/137
f 136/136/136 138/138/138 134/134/134
f 137/137/137 135/135/135 139/139/139
f 140/140/140 138/138/138 136/136/136
f 137/137/137 139/139/139 141/141/141
f 140/140/140 142/142/142 138/138/138
f 141/141/141 139/139/139 143/143/143
f 144/144/144 142/142/142 140/140/140
f 141/141/141 143/143/143 145/145/145
f 144/144/144 146/146/146 142/142/142
f 145/145/145 146/146/146 144/144/144
f 145/145/145 143/143/143 146/146/146
