#Pipe_04_27668_65.obj

v -1.002891 0.1847687 -0.006593939
v 0.9877104 0.141428 -0.2108324
v 0.9922284 0.1847687 -0.1461125
v -1.007447 0.141428 -0.07131387
v 0.9846984 0.07654033 -0.2540434
v -1.010459 0.07654033 -0.1145635
v 0.9836171 1.545262E-05 -0.269258
v -1.011502 1.545262E-05 -0.1297394
v -1.005787 0.1179056 -0.04783552
v -1.002002 0.1540535 0.00611063
v 0.9931166 0.1540535 -0.1334079
v 0.9893323 0.1179056 -0.1873541
v -1.008297 0.06382249 -0.08390259
v 0.9868222 0.06382249 -0.2234212
v -1.009185 1.545262E-05 -0.09656855
v 0.9859341 1.545262E-05 -0.2360871
v -1.008297 -0.06382295 -0.08390259
v 0.9868222 -0.06382295 -0.2234212
v -1.011502 1.545262E-05 -0.1297394
v 0.9846984 -0.0765408 -0.2540434
v 0.9836171 1.545262E-05 -0.269258
v -1.010459 -0.0765408 -0.1145635
v 0.9877104 -0.1414285 -0.2108324
v -1.007447 -0.1414285 -0.07131387
v 0.9922284 -0.1847692 -0.1461125
v -1.002891 -0.1847692 -0.006593939
v 0.9975574 -0.199988 -0.06973062
v -0.9975616 -0.199988 0.06974932
v -1.005787 -0.1179061 -0.04783552
v -1.008297 -0.06382295 -0.08390259
v 0.9868222 -0.06382295 -0.2234212
v 0.9893323 -0.1179061 -0.1873541
v -1.002002 -0.154054 0.00611063
v 0.9931166 -0.154054 -0.1334079
v -0.9975616 -0.1667417 0.06974932
v 0.9975574 -0.1667417 -0.06973062
v -0.9975616 -0.199988 0.06974932
v 1.002886 -0.1847692 0.006612634
v 0.9975574 -0.199988 -0.06973062
v -0.9922327 -0.1847692 0.1461312
v 1.007443 -0.1414285 0.07133257
v -0.9877146 -0.1414285 0.2108511
v 1.010455 -0.0765408 0.1145822
v -0.9847026 -0.0765408 0.2540621
v 1.011498 1.545262E-05 0.1297581
v -0.9836214 1.545262E-05 0.2692767
v 1.010455 0.07654033 0.1145822
v -0.9847026 0.07654033 0.2540621
v -0.9931208 -0.154054 0.1334266
v -0.9975616 -0.1667417 0.06974932
v 0.9975574 -0.1667417 -0.06973062
v 1.001998 -0.154054 -0.006091935
v -0.9893365 -0.1179061 0.1873728
v 1.005782 -0.1179061 0.04785421
v -0.9868265 -0.06382295 0.2234399
v 1.008293 -0.06382295 0.08392129
v -0.9859383 1.545262E-05 0.2361058
v 1.009181 1.545262E-05 0.09658724
v -0.9868265 0.06382249 0.2234399
v -0.9859383 1.545262E-05 0.2361058
v 1.009181 1.545262E-05 0.09658724
v 1.008293 0.06382249 0.08392129
v -0.9893365 0.1179056 0.1873728
v 1.005782 0.1179056 0.04785421
v -0.9931208 0.1540535 0.1334266
v 1.001998 0.1540535 -0.006091935
v -0.9847026 0.07654033 0.2540621
v 1.007443 0.141428 0.07133257
v 1.010455 0.07654033 0.1145822
v -0.9877146 0.141428 0.2108511
v 1.002886 0.1847687 0.006612634
v -0.9922327 0.1847687 0.1461312
v -0.9922327 0.1847687 0.1461312
v 0.9975574 0.1999875 -0.06973062
v 1.002886 0.1847687 0.006612634
v -0.9975616 0.1999875 0.06974932
v 0.9922284 0.1847687 -0.1461125
v -1.002891 0.1847687 -0.006593939
v -0.9975616 0.1667412 0.06974932
v -0.9931208 0.1540535 0.1334266
v 1.001998 0.1540535 -0.006091935
v 0.9975574 0.1667412 -0.06973062
v -1.002002 0.1540535 0.00611063
v 0.9931166 0.1540535 -0.1334079
v -1.002891 0.1847687 -0.006593939
v -1.002002 0.1540535 0.00611063
v -1.005787 0.1179056 -0.04783552
v -1.007447 0.141428 -0.07131387
v -0.9975616 0.1999875 0.06974932
v -1.008297 0.06382249 -0.08390259
v -0.9975616 0.1667412 0.06974932
v -1.010459 0.07654033 -0.1145635
v -0.9922327 0.1847687 0.1461312
v -1.009185 1.545262E-05 -0.09656855
v -0.9931208 0.1540535 0.1334266
v -1.011502 1.545262E-05 -0.1297394
v -0.9877146 0.141428 0.2108511
v -1.008297 -0.06382295 -0.08390259
v -0.9893365 0.1179056 0.1873728
v -1.010459 -0.0765408 -0.1145635
v -0.9847026 0.07654033 0.2540621
v -1.005787 -0.1179061 -0.04783552
v -0.9868265 0.06382249 0.2234399
v -1.007447 -0.1414285 -0.07131387
v -0.9836214 1.545262E-05 0.2692767
v -1.002002 -0.154054 0.00611063
v -0.9859383 1.545262E-05 0.2361058
v -1.002891 -0.1847692 -0.006593939
v -0.9847026 -0.0765408 0.2540621
v -0.9975616 -0.1667417 0.06974932
v -0.9868265 -0.06382295 0.2234399
v -0.9975616 -0.199988 0.06974932
v -0.9877146 -0.1414285 0.2108511
v -0.9931208 -0.154054 0.1334266
v -0.9893365 -0.1179061 0.1873728
v -0.9922327 -0.1847692 0.1461312
v 0.9922284 0.1847687 -0.1461125
v 0.9877104 0.141428 -0.2108324
v 0.9893323 0.1179056 -0.1873541
v 0.9931166 0.1540535 -0.1334079
v 0.9868222 0.06382249 -0.2234212
v 0.9975574 0.1999875 -0.06973062
v 0.9846984 0.07654033 -0.2540434
v 0.9975574 0.1667412 -0.06973062
v 0.9859341 1.545262E-05 -0.2360871
v 1.002886 0.1847687 0.006612634
v 0.9836171 1.545262E-05 -0.269258
v 1.001998 0.1540535 -0.006091935
v 0.9868222 -0.06382295 -0.2234212
v 1.007443 0.141428 0.07133257
v 0.9846984 -0.0765408 -0.2540434
v 1.005782 0.1179056 0.04785421
v 0.9893323 -0.1179061 -0.1873541
v 1.010455 0.07654033 0.1145822
v 0.9877104 -0.1414285 -0.2108324
v 1.008293 0.06382249 0.08392129
v 0.9931166 -0.154054 -0.1334079
v 1.011498 1.545262E-05 0.1297581
v 0.9922284 -0.1847692 -0.1461125
v 1.009181 1.545262E-05 0.09658724
v 0.9975574 -0.1667417 -0.06973062
v 1.010455 -0.0765408 0.1145822
v 0.9975574 -0.199988 -0.06973062
v 1.008293 -0.06382295 0.08392129
v 1.001998 -0.154054 -0.006091935
v 1.007443 -0.1414285 0.07133257
v 1.002886 -0.1847692 0.006612634
v 1.005782 -0.1179061 0.04785421

vn -0.02745056 0.9213867 -0.387207
vn -0.05099487 0.7099609 -0.7026367
vn -0.02745056 0.9213867 -0.387207
vn -0.05099487 0.7099609 -0.7026367
vn -0.06665039 0.3803711 -0.9223633
vn -0.06665039 0.3803711 -0.9223633
vn -0.06665039 0.003921509 -0.9975586
vn -0.06665039 0.003921509 -0.9975586
vn 0.05099487 -0.7099609 0.7026367
vn 0.02745056 -0.9213867 0.387207
vn 0.02745056 -0.9213867 0.387207
vn 0.05099487 -0.7099609 0.7026367
vn 0.06665039 -0.3803711 0.9223633
vn 0.06665039 -0.3803711 0.9223633
vn 0.06665039 0.003921509 0.9975586
vn 0.06665039 0.003921509 0.9975586
vn 0.06665039 0.3803711 0.9223633
vn 0.06665039 0.3803711 0.9223633
vn -0.06665039 0.003921509 -0.9975586
vn -0.06665039 -0.3803711 -0.9223633
vn -0.06665039 0.003921509 -0.9975586
vn -0.06665039 -0.3803711 -0.9223633
vn -0.05099487 -0.7099609 -0.7026367
vn -0.05099487 -0.7099609 -0.7026367
vn -0.02745056 -0.9213867 -0.387207
vn -0.02745056 -0.9213867 -0.387207
vn -0.003921509 -1 0
vn -0.003921509 -1 0
vn 0.05099487 0.7099609 0.7026367
vn 0.06665039 0.3803711 0.9223633
vn 0.06665039 0.3803711 0.9223633
vn 0.05099487 0.7099609 0.7026367
vn 0.02745056 0.9213867 0.387207
vn 0.02745056 0.9213867 0.387207
vn -0.003921509 1 0
vn -0.003921509 1 0
vn -0.003921509 -1 0
vn 0.02745056 -0.9213867 0.387207
vn -0.003921509 -1 0
vn 0.02745056 -0.9213867 0.387207
vn 0.05099487 -0.7099609 0.7026367
vn 0.05099487 -0.7099609 0.7026367
vn 0.06665039 -0.3803711 0.9223633
vn 0.06665039 -0.3803711 0.9223633
vn 0.06665039 0.003921509 0.9975586
vn 0.06665039 0.003921509 0.9975586
vn 0.06665039 0.3803711 0.9223633
vn 0.06665039 0.3803711 0.9223633
vn -0.02745056 0.9213867 -0.387207
vn -0.003921509 1 0
vn -0.003921509 1 0
vn -0.02745056 0.9213867 -0.387207
vn -0.05099487 0.7099609 -0.7026367
vn -0.05099487 0.7099609 -0.7026367
vn -0.06665039 0.3803711 -0.9223633
vn -0.06665039 0.3803711 -0.9223633
vn -0.06665039 0.003921509 -0.9975586
vn -0.06665039 0.003921509 -0.9975586
vn -0.06665039 -0.3803711 -0.9223633
vn -0.06665039 0.003921509 -0.9975586
vn -0.06665039 0.003921509 -0.9975586
vn -0.06665039 -0.3803711 -0.9223633
vn -0.05099487 -0.7099609 -0.7026367
vn -0.05099487 -0.7099609 -0.7026367
vn -0.02745056 -0.9213867 -0.387207
vn -0.02745056 -0.9213867 -0.387207
vn 0.06665039 0.3803711 0.9223633
vn 0.05099487 0.7099609 0.7026367
vn 0.06665039 0.3803711 0.9223633
vn 0.05099487 0.7099609 0.7026367
vn 0.02745056 0.9213867 0.387207
vn 0.02745056 0.9213867 0.387207
vn 0.02745056 0.9213867 0.387207
vn -0.003921509 1 0
vn 0.02745056 0.9213867 0.387207
vn -0.003921509 1 0
vn -0.02745056 0.9213867 -0.387207
vn -0.02745056 0.9213867 -0.387207
vn -0.003921509 -1 0
vn -0.02745056 -0.9213867 -0.387207
vn -0.02745056 -0.9213867 -0.387207
vn -0.003921509 -1 0
vn 0.02745056 -0.9213867 0.387207
vn 0.02745056 -0.9213867 0.387207
vn -1 0.003921509 0
vn -1 0.003921509 0
vn -1 -0.003921509 0
vn -1 -0.003921509 0
vn -1 0.003921509 0
vn -1 0.003921509 0
vn -1 0.003921509 0
vn -1 0.003921509 0
vn -1 -0.003921509 0
vn -1 0.003921509 0
vn -1 -0.003921509 0
vn -1 0.003921509 0
vn -1 0.003921509 0
vn -1 0.003921509 0
vn -1 0.003921509 0
vn -1 0.003921509 0
vn -1 0.003921509 0
vn -1 0.003921509 0
vn -1 0.003921509 0
vn -1 0.003921509 0
vn -1 0.003921509 0
vn -1 0.003921509 0
vn -1 0.003921509 0
vn -1 0.003921509 0
vn -1 -0.003921509 0
vn -1 0.003921509 0
vn -1 -0.003921509 0
vn -1 0.003921509 0
vn -1 0.003921509 0
vn -1 0.003921509 0
vn -1 0.003921509 0
vn -1 0.003921509 0
vn 1 -0.003921509 0
vn 1 0.003921509 0
vn 1 0.003921509 0
vn 1 -0.003921509 0
vn 1 0.003921509 0
vn 1 -0.003921509 0
vn 1 0.003921509 0
vn 1 -0.003921509 0
vn 1 0.003921509 0
vn 1 0.003921509 0
vn 1 0.003921509 0
vn 1 0.003921509 0
vn 1 0.003921509 0
vn 1 0.003921509 0
vn 1 0.003921509 0
vn 1 0.003921509 0
vn 1 0.003921509 0
vn 1 0.003921509 0
vn 1 0.003921509 0
vn 1 0.003921509 0
vn 1 0.003921509 0
vn 1 -0.003921509 0
vn 1 0.003921509 0
vn 1 -0.003921509 0
vn 1 0.003921509 0
vn 1 0.003921509 0
vn 1 0.003921509 0
vn 1 0.003921509 0
vn 1 0.003921509 0
vn 1 0.003921509 0
vn 1 0.003921509 0
vn 1 0.003921509 0

vt 1.375 -0.3112793
vt 1.25 1.311523
vt 1.375 1.311523
vt 1.25 -0.3112793
vt 1.125 1.311523
vt 1.125 -0.3112793
vt 1 1.311523
vt 1 -0.3112793
vt 1.25 -0.3112793
vt 1.375 -0.3112793
vt 1.375 1.311523
vt 1.25 1.311523
vt 1.125 -0.3112793
vt 1.125 1.311523
vt 1 -0.3112793
vt 1 1.311523
vt 0.875 -0.3112793
vt 0.875 1.311523
vt 1 -0.3112793
vt 0.875 1.311523
vt 1 1.311523
vt 0.875 -0.3112793
vt 0.7504883 1.311523
vt 0.75 -0.3112793
vt 0.625 1.311523
vt 0.6245117 -0.3112793
vt 0.5 1.311523
vt 0.4997559 -0.3112793
vt 0.75 -0.3112793
vt 0.875 -0.3112793
vt 0.875 1.311523
vt 0.7504883 1.311523
vt 0.6245117 -0.3112793
vt 0.625 1.311523
vt 0.4997559 -0.3112793
vt 0.5 1.311523
vt 0.4997559 -0.3112793
vt 0.3752441 1.311523
vt 0.5 1.311523
vt 0.3747559 -0.3112793
vt 0.25 1.311523
vt 0.25 -0.3112793
vt 0.125 1.311523
vt 0.125 -0.3112793
vt -1.889467E-05 1.311523
vt -1.889467E-05 -0.3112793
vt -0.1251221 1.311523
vt -0.1251221 -0.3112793
vt 0.3747559 -0.3112793
vt 0.4997559 -0.3112793
vt 0.5 1.311523
vt 0.3752441 1.311523
vt 0.25 -0.3112793
vt 0.25 1.311523
vt 0.125 -0.3112793
vt 0.125 1.311523
vt -1.889467E-05 -0.3112793
vt -1.889467E-05 1.311523
vt -0.1251221 -0.3112793
vt -1.889467E-05 -0.3112793
vt -1.889467E-05 1.311523
vt -0.1251221 1.311523
vt -0.2496338 -0.3112793
vt -0.2502441 1.311523
vt -0.3747559 -0.3112793
vt -0.3752441 1.311523
vt -0.1251221 -0.3112793
vt -0.2502441 1.311523
vt -0.1251221 1.311523
vt -0.2502441 -0.3112793
vt -0.3752441 1.311523
vt -0.3747559 -0.3112793
vt 1.625 -0.3112793
vt 1.5 1.311523
vt 1.625 1.311523
vt 1.5 -0.3112793
vt 1.375 1.311523
vt 1.375 -0.3112793
vt 1.5 -0.3112793
vt 1.625 -0.3112793
vt 1.625 1.311523
vt 1.5 1.311523
vt 1.375 -0.3112793
vt 1.375 1.311523
vt 0.6914063 0.9619141
vt 0.659668 0.8852539
vt 0.7949219 0.7949219
vt 0.8535156 0.8535156
vt 0.5 1
vt 0.8852539 0.659668
vt 0.5 0.9169922
vt 0.9619141 0.6914063
vt 0.3085938 0.9619141
vt 0.9169922 0.5
vt 0.3405762 0.8852539
vt 1 0.5
vt 0.1464844 0.8535156
vt 0.8852539 0.3405762
vt 0.2052002 0.7949219
vt 0.9619141 0.3085938
vt 0.03808594 0.6914063
vt 0.7949219 0.2052002
vt 0.1147461 0.659668
vt 0.8535156 0.1464844
vt -1.889467E-05 0.5
vt 0.659668 0.1147461
vt 0.08300781 0.5
vt 0.6914063 0.03808594
vt 0.03808594 0.3085938
vt 0.5 0.08300781
vt 0.1147461 0.3405762
vt 0.5 -1.889467E-05
vt 0.1464844 0.1464844
vt 0.3405762 0.1147461
vt 0.2052002 0.2052002
vt 0.3085938 0.03808594
vt 0.6914063 0.9619141
vt 0.8535156 0.8535156
vt 0.7949219 0.7949219
vt 0.659668 0.8852539
vt 0.8852539 0.659668
vt 0.5 1
vt 0.9619141 0.6914063
vt 0.5 0.9169922
vt 0.9169922 0.5
vt 0.3085938 0.9619141
vt 1 0.5
vt 0.3405762 0.8852539
vt 0.8852539 0.3405762
vt 0.1464844 0.8535156
vt 0.9619141 0.3085938
vt 0.2052002 0.7949219
vt 0.7949219 0.2052002
vt 0.03808594 0.6914063
vt 0.8535156 0.1464844
vt 0.1147461 0.659668
vt 0.659668 0.1147461
vt -1.889467E-05 0.5
vt 0.6914063 0.03808594
vt 0.08300781 0.5
vt 0.5 0.08300781
vt 0.03808594 0.3085938
vt 0.5 -1.889467E-05
vt 0.1147461 0.3405762
vt 0.3405762 0.1147461
vt 0.1464844 0.1464844
vt 0.3085938 0.03808594
vt 0.2052002 0.2052002

g Pipe_04_27668_65
usemtl Pipe_04_27668_65
usemap Pipe_04_27668_65
f 1/1/1 3/3/3 2/2/2
f 1/1/1 2/2/2 4/4/4
f 4/4/4 2/2/2 5/5/5
f 4/4/4 5/5/5 6/6/6
f 6/6/6 5/5/5 7/7/7
f 6/6/6 7/7/7 8/8/8
f 9/9/9 11/11/11 10/10/10
f 9/9/9 12/12/12 11/11/11
f 13/13/13 12/12/12 9/9/9
f 13/13/13 14/14/14 12/12/12
f 15/15/15 14/14/14 13/13/13
f 15/15/15 16/16/16 14/14/14
f 17/17/17 16/16/16 15/15/15
f 17/17/17 18/18/18 16/16/16
f 19/19/19 21/21/21 20/20/20
f 19/19/19 20/20/20 22/22/22
f 22/22/22 20/20/20 23/23/23
f 22/22/22 23/23/23 24/24/24
f 24/24/24 23/23/23 25/25/25
f 24/24/24 25/25/25 26/26/26
f 26/26/26 25/25/25 27/27/27
f 26/26/26 27/27/27 28/28/28
f 29/29/29 31/31/31 30/30/30
f 29/29/29 32/32/32 31/31/31
f 33/33/33 32/32/32 29/29/29
f 33/33/33 34/34/34 32/32/32
f 35/35/35 34/34/34 33/33/33
f 35/35/35 36/36/36 34/34/34
f 37/37/37 39/39/39 38/38/38
f 37/37/37 38/38/38 40/40/40
f 40/40/40 38/38/38 41/41/41
f 40/40/40 41/41/41 42/42/42
f 42/42/42 41/41/41 43/43/43
f 42/42/42 43/43/43 44/44/44
f 44/44/44 43/43/43 45/45/45
f 44/44/44 45/45/45 46/46/46
f 46/46/46 45/45/45 47/47/47
f 46/46/46 47/47/47 48/48/48
f 49/49/49 51/51/51 50/50/50
f 49/49/49 52/52/52 51/51/51
f 53/53/53 52/52/52 49/49/49
f 53/53/53 54/54/54 52/52/52
f 55/55/55 54/54/54 53/53/53
f 55/55/55 56/56/56 54/54/54
f 57/57/57 56/56/56 55/55/55
f 57/57/57 58/58/58 56/56/56
f 59/59/59 61/61/61 60/60/60
f 59/59/59 62/62/62 61/61/61
f 63/63/63 62/62/62 59/59/59
f 63/63/63 64/64/64 62/62/62
f 65/65/65 64/64/64 63/63/63
f 65/65/65 66/66/66 64/64/64
f 67/67/67 69/69/69 68/68/68
f 67/67/67 68/68/68 70/70/70
f 70/70/70 68/68/68 71/71/71
f 70/70/70 71/71/71 72/72/72
f 73/73/73 75/75/75 74/74/74
f 73/73/73 74/74/74 76/76/76
f 76/76/76 74/74/74 77/77/77
f 76/76/76 77/77/77 78/78/78
f 79/79/79 81/81/81 80/80/80
f 79/79/79 82/82/82 81/81/81
f 83/83/83 82/82/82 79/79/79
f 83/83/83 84/84/84 82/82/82
f 85/85/85 87/87/87 86/86/86
f 85/85/85 88/88/88 87/87/87
f 89/89/89 85/85/85 86/86/86
f 88/88/88 90/90/90 87/87/87
f 89/89/89 86/86/86 91/91/91
f 88/88/88 92/92/92 90/90/90
f 93/93/93 89/89/89 91/91/91
f 92/92/92 94/94/94 90/90/90
f 93/93/93 91/91/91 95/95/95
f 92/92/92 96/96/96 94/94/94
f 97/97/97 93/93/93 95/95/95
f 96/96/96 98/98/98 94/94/94
f 97/97/97 95/95/95 99/99/99
f 96/96/96 100/100/100 98/98/98
f 101/101/101 97/97/97 99/99/99
f 100/100/100 102/102/102 98/98/98
f 101/101/101 99/99/99 103/103/103
f 100/100/100 104/104/104 102/102/102
f 105/105/105 101/101/101 103/103/103
f 104/104/104 106/106/106 102/102/102
f 105/105/105 103/103/103 107/107/107
f 104/104/104 108/108/108 106/106/106
f 109/109/109 105/105/105 107/107/107
f 108/108/108 110/110/110 106/106/106
f 109/109/109 107/107/107 111/111/111
f 108/108/108 112/112/112 110/110/110
f 113/113/113 109/109/109 111/111/111
f 112/112/112 114/114/114 110/110/110
f 113/113/113 111/111/111 115/115/115
f 112/112/112 116/116/116 114/114/114
f 116/116/116 113/113/113 115/115/115
f 116/116/116 115/115/115 114/114/114
f 117/117/117 119/119/119 118/118/118
f 117/117/117 120/120/120 119/119/119
f 118/118/118 119/119/119 121/121/121
f 122/122/122 120/120/120 117/117/117
f 118/118/118 121/121/121 123/123/123
f 122/122/122 124/124/124 120/120/120
f 123/123/123 121/121/121 125/125/125
f 126/126/126 124/124/124 122/122/122
f 123/123/123 125/125/125 127/127/127
f 126/126/126 128/128/128 124/124/124
f 127/127/127 125/125/125 129/129/129
f 130/130/130 128/128/128 126/126/126
f 127/127/127 129/129/129 131/131/131
f 130/130/130 132/132/132 128/128/128
f 131/131/131 129/129/129 133/133/133
f 134/134/134 132/132/132 130/130/130
f 131/131/131 133/133/133 135/135/135
f 134/134/134 136/136/136 132/132/132
f 135/135/135 133/133/133 137/137/137
f 138/138/138 136/136/136 134/134/134
f 135/135/135 137/137/137 139/139/139
f 138/138/138 140/140/140 136/136/136
f 139/139/139 137/137/137 141/141/141
f 142/142/142 140/140/140 138/138/138
f 139/139/139 141/141/141 143/143/143
f 142/142/142 144/144/144 140/140/140
f 143/143/143 141/141/141 145/145/145
f 146/146/146 144/144/144 142/142/142
f 143/143/143 145/145/145 147/147/147
f 146/146/146 148/148/148 144/144/144
f 147/147/147 148/148/148 146/146/146
f 147/147/147 145/145/145 148/148/148
