#PlankPile_03_28393_5.obj

v -0.6439717 -0.1394696 0.3758592
v -0.6551099 -0.1007605 0.3711914
v 0.37389 0.08924597 -0.5022999
v 0.3850282 0.05053685 -0.4976321
v -0.6551099 -0.1007605 0.3711914
v -0.753248 -0.1442411 0.2461487
v 0.2757525 0.04576356 -0.6273425
v 0.37389 0.08924597 -0.5022999
v -0.753248 -0.1442411 0.2461487
v -0.7421171 -0.1829287 0.2508145
v 0.2868862 0.007085637 -0.622555
v 0.2757525 0.04576356 -0.6273425
v -0.7421171 -0.1829287 0.2508145
v -0.6439717 -0.1394696 0.3758592
v 0.3850282 0.05053685 -0.4976321
v 0.2868862 0.007085637 -0.622555
v 0.3850282 0.05053685 -0.4976321
v 0.37389 0.08924597 -0.5022999
v 0.2757525 0.04576356 -0.6273425
v 0.2868862 0.007085637 -0.622555
v -0.7421171 -0.1829287 0.2508145
v -0.753248 -0.1442411 0.2461487
v -0.6551099 -0.1007605 0.3711914
v -0.6439717 -0.1394696 0.3758592
v -0.5127435 -0.07020986 0.634753
v -0.5238818 -0.03150074 0.6300852
v 0.4343059 0.1278028 -0.3283111
v 0.4454442 0.08909364 -0.3236434
v -0.5238818 -0.03150074 0.6300852
v -0.6289119 -0.07618126 0.511407
v 0.3292776 0.08311684 -0.4469889
v 0.4343059 0.1278028 -0.3283111
v -0.6289119 -0.07618126 0.511407
v -0.6177789 -0.1148574 0.5161943
v 0.3404091 0.04442751 -0.4423229
v 0.3292776 0.08311684 -0.4469889
v -0.6177789 -0.1148574 0.5161943
v -0.5127435 -0.07020986 0.634753
v 0.4454442 0.08909364 -0.3236434
v 0.3404091 0.04442751 -0.4423229
v 0.4454442 0.08909364 -0.3236434
v 0.4343059 0.1278028 -0.3283111
v 0.3292776 0.08311684 -0.4469889
v 0.3404091 0.04442751 -0.4423229
v -0.6177789 -0.1148574 0.5161943
v -0.6289119 -0.07618126 0.511407
v -0.5238818 -0.03150074 0.6300852
v -0.5127435 -0.07020986 0.634753
v -0.6206326 -0.0902181 0.3133131
v -0.631771 -0.05150899 0.3086454
v 0.4940352 0.1828478 -0.4294384
v 0.5051734 0.1441387 -0.4247706
v -0.631771 -0.05150899 0.3086454
v -0.7185753 -0.09272172 0.1752208
v 0.4072361 0.1416021 -0.5629826
v 0.4940352 0.1828478 -0.4294384
v -0.7185753 -0.09272172 0.1752208
v -0.707437 -0.1314308 0.1798886
v 0.4183697 0.1029242 -0.558195
v 0.4072361 0.1416021 -0.5629826
v -0.707437 -0.1314308 0.1798886
v -0.6206326 -0.0902181 0.3133131
v 0.5051734 0.1441387 -0.4247706
v 0.4183697 0.1029242 -0.558195
v 0.5051734 0.1441387 -0.4247706
v 0.4940352 0.1828478 -0.4294384
v 0.4072361 0.1416021 -0.5629826
v 0.4183697 0.1029242 -0.558195
v -0.707437 -0.1314308 0.1798886
v -0.7185753 -0.09272172 0.1752208
v -0.631771 -0.05150899 0.3086454
v -0.6206326 -0.0902181 0.3133131
v -0.2768664 0.004463284 0.690325
v -0.2880047 0.0431724 0.6856572
v 0.7409927 0.2331861 -0.1878347
v 0.7521331 0.1944884 -0.1830455
v -0.2880047 0.0431724 0.6856572
v -0.3860291 -0.0002637191 0.5606083
v 0.6429729 0.1897542 -0.3127615
v 0.7409927 0.2331861 -0.1878347
v -0.3860291 -0.0002637191 0.5606083
v -0.3748989 -0.03894946 0.565274
v 0.6541038 0.1510666 -0.3080957
v 0.6429729 0.1897542 -0.3127615
v -0.3748989 -0.03894946 0.565274
v -0.2768664 0.004463284 0.690325
v 0.7521331 0.1944884 -0.1830455
v 0.6541038 0.1510666 -0.3080957
v 0.7521331 0.1944884 -0.1830455
v 0.7409927 0.2331861 -0.1878347
v 0.6429729 0.1897542 -0.3127615
v 0.6541038 0.1510666 -0.3080957
v -0.3748989 -0.03894946 0.565274
v -0.3860291 -0.0002637191 0.5606083
v -0.2880047 0.0431724 0.6856572
v -0.2768664 0.004463284 0.690325
v 0.6279351 0.2107761 -0.1226859
v 0.6168048 0.2494618 -0.1273516
v -0.6536966 -0.05914507 0.3427323
v -0.642563 -0.09782299 0.3475198
v 0.6168048 0.2494618 -0.1273516
v 0.6805313 0.2854684 0.0177564
v -0.589972 -0.0231331 0.4878399
v -0.6536966 -0.05914507 0.3427323
v 0.6805313 0.2854684 0.0177564
v 0.6916696 0.2467593 0.02242415
v -0.5788316 -0.0618308 0.4926291
v -0.589972 -0.0231331 0.4878399
v 0.6916696 0.2467593 0.02242415
v 0.6279351 0.2107761 -0.1226859
v -0.642563 -0.09782299 0.3475198
v -0.5788316 -0.0618308 0.4926291
v -0.642563 -0.09782299 0.3475198
v -0.6536966 -0.05914507 0.3427323
v -0.589972 -0.0231331 0.4878399
v -0.5788316 -0.0618308 0.4926291
v 0.6916696 0.2467593 0.02242415
v 0.6805313 0.2854684 0.0177564
v 0.6168048 0.2494618 -0.1273516
v 0.6279351 0.2107761 -0.1226859

vn -0.1270752 -0.5449219 0.8291016
vn -0.06878662 0.6074219 0.7915039
vn 0.8388672 0.5375977 0.08404541
vn 0.7744141 -0.6176758 0.1358643
vn -0.06878662 0.6074219 0.7915039
vn -0.7744141 0.6176758 -0.1358643
vn 0.1270752 0.5449219 -0.8291016
vn 0.8388672 0.5375977 0.08404541
vn -0.7744141 0.6176758 -0.1358643
vn -0.8388672 -0.5375977 -0.08404541
vn 0.06878662 -0.6074219 -0.7915039
vn 0.1270752 0.5449219 -0.8291016
vn -0.8388672 -0.5375977 -0.08404541
vn -0.1270752 -0.5449219 0.8291016
vn 0.7744141 -0.6176758 0.1358643
vn 0.06878662 -0.6074219 -0.7915039
vn 0.7744141 -0.6176758 0.1358643
vn 0.8388672 0.5375977 0.08404541
vn 0.1270752 0.5449219 -0.8291016
vn 0.06878662 -0.6074219 -0.7915039
vn -0.8388672 -0.5375977 -0.08404541
vn -0.7744141 0.6176758 -0.1358643
vn -0.06878662 0.6074219 0.7915039
vn -0.1270752 -0.5449219 0.8291016
vn -0.07348633 -0.5478516 0.8334961
vn -0.01524353 0.6044922 0.7963867
vn 0.8427734 0.5371094 0.0385437
vn 0.7832031 -0.6196289 0.0479126
vn -0.01524353 0.6044922 0.7963867
vn -0.7832031 0.6196289 -0.04803467
vn 0.07348633 0.5478516 -0.8334961
vn 0.8427734 0.5371094 0.0385437
vn -0.7832031 0.6196289 -0.04803467
vn -0.8427734 -0.5371094 -0.03857422
vn 0.01525116 -0.6044922 -0.7963867
vn 0.07348633 0.5478516 -0.8334961
vn -0.8427734 -0.5371094 -0.03857422
vn -0.07348633 -0.5478516 0.8334961
vn 0.7832031 -0.6196289 0.0479126
vn 0.01525116 -0.6044922 -0.7963867
vn 0.7832031 -0.6196289 0.0479126
vn 0.8427734 0.5371094 0.0385437
vn 0.07348633 0.5478516 -0.8334961
vn 0.01525116 -0.6044922 -0.7963867
vn -0.8427734 -0.5371094 -0.03857422
vn -0.7832031 0.6196289 -0.04803467
vn -0.01524353 0.6044922 0.7963867
vn -0.07348633 -0.5478516 0.8334961
vn -0.2198486 -0.5429688 0.8105469
vn -0.1590576 0.6166992 0.7709961
vn 0.824707 0.5371094 0.1772461
vn 0.7695313 -0.6064453 0.2000732
vn -0.1590576 0.6166992 0.7709961
vn -0.7695313 0.6064453 -0.2001953
vn 0.2198486 0.5429688 -0.8105469
vn 0.824707 0.5371094 0.1772461
vn -0.7695313 0.6064453 -0.2001953
vn -0.824707 -0.5371094 -0.1772461
vn 0.1590576 -0.6166992 -0.7709961
vn 0.2198486 0.5429688 -0.8105469
vn -0.824707 -0.5371094 -0.1772461
vn -0.2198486 -0.5429688 0.8105469
vn 0.7695313 -0.6064453 0.2000732
vn 0.1590576 -0.6166992 -0.7709961
vn 0.7695313 -0.6064453 0.2000732
vn 0.824707 0.5371094 0.1772461
vn 0.2198486 0.5429688 -0.8105469
vn 0.1590576 -0.6166992 -0.7709961
vn -0.824707 -0.5371094 -0.1772461
vn -0.7695313 0.6064453 -0.2001953
vn -0.1590576 0.6166992 0.7709961
vn -0.2198486 -0.5429688 0.8105469
vn -0.1270752 -0.5449219 0.8291016
vn -0.06878662 0.6074219 0.7915039
vn 0.8388672 0.5375977 0.08404541
vn 0.7744141 -0.6176758 0.1358643
vn -0.06878662 0.6074219 0.7915039
vn -0.7744141 0.6176758 -0.1358643
vn 0.1270752 0.5449219 -0.8291016
vn 0.8388672 0.5375977 0.08404541
vn -0.7744141 0.6176758 -0.1358643
vn -0.8388672 -0.5375977 -0.08404541
vn 0.06878662 -0.6074219 -0.7915039
vn 0.1270752 0.5449219 -0.8291016
vn -0.8388672 -0.5375977 -0.08404541
vn -0.1270752 -0.5449219 0.8291016
vn 0.7744141 -0.6176758 0.1358643
vn 0.06878662 -0.6074219 -0.7915039
vn 0.7744141 -0.6176758 0.1358643
vn 0.8388672 0.5375977 0.08404541
vn 0.1270752 0.5449219 -0.8291016
vn 0.06878662 -0.6074219 -0.7915039
vn -0.8388672 -0.5375977 -0.08404541
vn -0.7744141 0.6176758 -0.1358643
vn -0.06878662 0.6074219 0.7915039
vn -0.1270752 -0.5449219 0.8291016
vn 0.3039551 -0.6235352 -0.7202148
vn 0.3669434 0.5419922 -0.7558594
vn -0.715332 0.5966797 -0.3642578
vn -0.7753906 -0.5390625 -0.3288574
vn 0.3669434 0.5419922 -0.7558594
vn 0.7753906 0.5390625 0.3288574
vn -0.3039551 0.6235352 0.7202148
vn -0.715332 0.5966797 -0.3642578
vn 0.7753906 0.5390625 0.3288574
vn 0.715332 -0.5966797 0.3642578
vn -0.3669434 -0.5419922 0.7558594
vn -0.3039551 0.6235352 0.7202148
vn 0.715332 -0.5966797 0.3642578
vn 0.3039551 -0.6235352 -0.7202148
vn -0.7753906 -0.5390625 -0.3288574
vn -0.3669434 -0.5419922 0.7558594
vn -0.7753906 -0.5390625 -0.3288574
vn -0.715332 0.5966797 -0.3642578
vn -0.3039551 0.6235352 0.7202148
vn -0.3669434 -0.5419922 0.7558594
vn 0.715332 -0.5966797 0.3642578
vn 0.7753906 0.5390625 0.3288574
vn 0.3669434 0.5419922 -0.7558594
vn 0.3039551 -0.6235352 -0.7202148

vt 0.4760742 -0.003936768
vt 0.451416 -0.003936768
vt 0.451416 0.9960938
vt 0.4760742 0.9960938
vt 0.4987793 -0.003936768
vt 0.4313965 -0.003936768
vt 0.4313965 0.9960938
vt 0.4987793 0.9960938
vt 0.451416 -0.003936768
vt 0.4760742 -0.003936768
vt 0.4760742 0.9960938
vt 0.451416 0.9960938
vt 0.4313965 -0.003936768
vt 0.4987793 -0.003936768
vt 0.4987793 0.9960938
vt 0.4313965 0.9960938
vt 0.486084 0.5664063
vt 0.4619141 0.5664063
vt 0.4619141 0.6665039
vt 0.486084 0.6665039
vt 0.486084 0.6665039
vt 0.4619141 0.6665039
vt 0.4619141 0.5664063
vt 0.486084 0.5664063
vt 0.7255859 -0.003936768
vt 0.7011719 -0.003936768
vt 0.7011719 0.9960938
vt 0.7255859 0.9960938
vt 0.7485352 -0.003936768
vt 0.6806641 -0.003936768
vt 0.6806641 0.9960938
vt 0.7485352 0.9960938
vt 0.7011719 -0.003936768
vt 0.7255859 -0.003936768
vt 0.7255859 0.9960938
vt 0.7011719 0.9960938
vt 0.6806641 -0.003936768
vt 0.7485352 -0.003936768
vt 0.7485352 0.9960938
vt 0.6806641 0.9960938
vt 0.7363281 0.5664063
vt 0.7114258 0.5664063
vt 0.7114258 0.6665039
vt 0.7363281 0.6665039
vt 0.7363281 0.6665039
vt 0.7114258 0.6665039
vt 0.7114258 0.5664063
vt 0.7363281 0.5664063
vt 1.105469 -0.003936768
vt 1.081055 -0.003936768
vt 1.081055 0.9960938
vt 1.105469 0.9960938
vt 1.12793 -0.003936768
vt 1.060547 -0.003936768
vt 1.060547 0.9960938
vt 1.12793 0.9960938
vt 1.081055 -0.003936768
vt 1.105469 -0.003936768
vt 1.105469 0.9960938
vt 1.081055 0.9960938
vt 1.060547 -0.003936768
vt 1.12793 -0.003936768
vt 1.12793 0.9960938
vt 1.060547 0.9960938
vt 1.116211 0.5664063
vt 1.09082 0.5664063
vt 1.09082 0.6665039
vt 1.116211 0.6665039
vt 1.116211 0.6665039
vt 1.09082 0.6665039
vt 1.09082 0.5664063
vt 1.116211 0.5664063
vt 0.8891602 -0.003936768
vt 0.8642578 -0.003936768
vt 0.8642578 0.9960938
vt 0.8891602 0.9960938
vt 0.9121094 -0.003936768
vt 0.8447266 -0.003936768
vt 0.8447266 0.9960938
vt 0.9121094 0.9960938
vt 0.8642578 -0.003936768
vt 0.8891602 -0.003936768
vt 0.8891602 0.9960938
vt 0.8642578 0.9960938
vt 0.8447266 -0.003936768
vt 0.9121094 -0.003936768
vt 0.9121094 0.9960938
vt 0.8447266 0.9960938
vt 0.8999023 0.5664063
vt 0.875 0.5664063
vt 0.875 0.6665039
vt 0.8999023 0.6665039
vt 0.8999023 0.6665039
vt 0.875 0.6665039
vt 0.875 0.5664063
vt 0.8999023 0.5664063
vt 0.4760742 -0.003936768
vt 0.451416 -0.003936768
vt 0.451416 0.9960938
vt 0.4760742 0.9960938
vt 0.4987793 -0.003936768
vt 0.4313965 -0.003936768
vt 0.4313965 0.9960938
vt 0.4987793 0.9960938
vt 0.451416 -0.003936768
vt 0.4760742 -0.003936768
vt 0.4760742 0.9960938
vt 0.451416 0.9960938
vt 0.4313965 -0.003936768
vt 0.4987793 -0.003936768
vt 0.4987793 0.9960938
vt 0.4313965 0.9960938
vt 0.486084 0.5664063
vt 0.4619141 0.5664063
vt 0.4619141 0.6665039
vt 0.486084 0.6665039
vt 0.486084 0.6665039
vt 0.4619141 0.6665039
vt 0.4619141 0.5664063
vt 0.486084 0.5664063

g PlankPile_03_28393_5
usemtl PlankPile_03_28393_5
usemap PlankPile_03_28393_5
f 1/1/1 3/3/3 2/2/2
f 1/1/1 4/4/4 3/3/3
f 5/5/5 7/7/7 6/6/6
f 5/5/5 8/8/8 7/7/7
f 9/9/9 11/11/11 10/10/10
f 9/9/9 12/12/12 11/11/11
f 13/13/13 15/15/15 14/14/14
f 13/13/13 16/16/16 15/15/15
f 17/17/17 19/19/19 18/18/18
f 17/17/17 20/20/20 19/19/19
f 21/21/21 23/23/23 22/22/22
f 21/21/21 24/24/24 23/23/23
f 25/25/25 27/27/27 26/26/26
f 25/25/25 28/28/28 27/27/27
f 29/29/29 31/31/31 30/30/30
f 29/29/29 32/32/32 31/31/31
f 33/33/33 35/35/35 34/34/34
f 33/33/33 36/36/36 35/35/35
f 37/37/37 39/39/39 38/38/38
f 37/37/37 40/40/40 39/39/39
f 41/41/41 43/43/43 42/42/42
f 41/41/41 44/44/44 43/43/43
f 45/45/45 47/47/47 46/46/46
f 45/45/45 48/48/48 47/47/47
f 49/49/49 51/51/51 50/50/50
f 49/49/49 52/52/52 51/51/51
f 53/53/53 55/55/55 54/54/54
f 53/53/53 56/56/56 55/55/55
f 57/57/57 59/59/59 58/58/58
f 57/57/57 60/60/60 59/59/59
f 61/61/61 63/63/63 62/62/62
f 61/61/61 64/64/64 63/63/63
f 65/65/65 67/67/67 66/66/66
f 65/65/65 68/68/68 67/67/67
f 69/69/69 71/71/71 70/70/70
f 69/69/69 72/72/72 71/71/71
f 73/73/73 75/75/75 74/74/74
f 73/73/73 76/76/76 75/75/75
f 77/77/77 79/79/79 78/78/78
f 77/77/77 80/80/80 79/79/79
f 81/81/81 83/83/83 82/82/82
f 81/81/81 84/84/84 83/83/83
f 85/85/85 87/87/87 86/86/86
f 85/85/85 88/88/88 87/87/87
f 89/89/89 91/91/91 90/90/90
f 89/89/89 92/92/92 91/91/91
f 93/93/93 95/95/95 94/94/94
f 93/93/93 96/96/96 95/95/95
f 97/97/97 99/99/99 98/98/98
f 97/97/97 100/100/100 99/99/99
f 101/101/101 103/103/103 102/102/102
f 101/101/101 104/104/104 103/103/103
f 105/105/105 107/107/107 106/106/106
f 105/105/105 108/108/108 107/107/107
f 109/109/109 111/111/111 110/110/110
f 109/109/109 112/112/112 111/111/111
f 113/113/113 115/115/115 114/114/114
f 113/113/113 116/116/116 115/115/115
f 117/117/117 119/119/119 118/118/118
f 117/117/117 120/120/120 119/119/119
