#Pot_26619_111.obj

v -0.673521 0.1045326 -0.3034194
v -0.1990639 0.1045326 -0.681797
v 0.3925855 0.1045326 -0.5467454
v 0.6558584 0.1045326 5.714468E-06
v -0.6735097 0.1045326 0.3034217
v 0.392589 0.1045326 0.5467637
v -0.1990608 0.1045326 0.6817787

vn -0.0038414 1 0.0007872581
vn -0.0038414 1 0.0007872581
vn -0.0038414 1 0.0007872581
vn -0.0038414 1 0.0007872581
vn -0.0038414 1 0.0007872581
vn -0.0038414 1 0.0007872581
vn -0.0038414 1 0.0007872581

vt 0.282959 0.04959106
vt 0.01285553 0.3884277
vt 0.109314 0.8120117
vt 0.4995117 1
vt 0.7172852 0.04959106
vt 0.890625 0.8120117
vt 0.9873047 0.3884277

g Pot_26619_111
usemtl Pot_26619_111
usemap Pot_26619_111
f 1/1/1 3/3/3 2/2/2
f 3/3/3 1/1/1 4/4/4
f 4/4/4 1/1/1 5/5/5
f 4/4/4 5/5/5 6/6/6
f 6/6/6 5/5/5 7/7/7
