#Pot_(6)_26941_153.obj

v -0.6735249 0.1045328 -0.3033954
v -0.1990529 0.1045328 -0.6817775
v 0.3925887 0.1045328 -0.5467461
v 0.6558701 0.1045328 0
v -0.6735249 0.1045328 0.3033954
v 0.3925887 0.1045328 0.5467461
v -0.1990529 0.1045328 0.6817775

vn -0.003921509 1 0
vn -0.003921509 1 0
vn -0.003921509 1 0
vn -0.003921509 1 0
vn -0.003921509 1 0
vn -0.003921509 1 0
vn -0.003921509 1 0

vt 0.282959 0.04959106
vt 0.01285553 0.3884277
vt 0.109314 0.8120117
vt 0.4995117 1
vt 0.7172852 0.04959106
vt 0.890625 0.8120117
vt 0.9873047 0.3884277

g Pot_(6)_26941_153
usemtl Pot_(6)_26941_153
usemap Pot_(6)_26941_153
f 1/1/1 3/3/3 2/2/2
f 3/3/3 1/1/1 4/4/4
f 4/4/4 1/1/1 5/5/5
f 4/4/4 5/5/5 6/6/6
f 6/6/6 5/5/5 7/7/7
