#Pot_(2)_26259_321.obj

v -0.6735252 0.1045322 -0.3033955
v -0.199053 0.1045322 -0.6817779
v 0.392589 0.1045322 -0.5467464
v 0.6558704 0.1045322 0
v -0.6735252 0.1045322 0.3033955
v 0.392589 0.1045322 0.5467464
v -0.199053 0.1045322 0.6817779

vn -0.003921509 1 0
vn -0.003921509 1 0
vn -0.003921509 1 0
vn -0.003921509 1 0
vn -0.003921509 1 0
vn -0.003921509 1 0
vn -0.003921509 1 0

vt 0.282959 0.04959106
vt 0.01285553 0.3884277
vt 0.109314 0.8120117
vt 0.4995117 1
vt 0.7172852 0.04959106
vt 0.890625 0.8120117
vt 0.9873047 0.3884277

g Pot_(2)_26259_321
usemtl Pot_(2)_26259_321
usemap Pot_(2)_26259_321
f 1/1/1 3/3/3 2/2/2
f 3/3/3 1/1/1 4/4/4
f 4/4/4 1/1/1 5/5/5
f 4/4/4 5/5/5 6/6/6
f 6/6/6 5/5/5 7/7/7
