#Ramps03_24675_275.obj

v -4.304169 1.017834 -2.538452
v 0.1958618 1.017834 -2.538452
v -0.0001220703 0.744278 0.4377441
v -4.500183 0.744278 0.4377441
v -4.108704 2.11363 -5.321167
v 0.3913574 2.11363 -5.321167
v 0.1958618 1.017834 -2.538452
v -4.304169 1.017834 -2.538452
v -3.913239 3.927382 -7.698242
v 0.5868225 3.927382 -7.698242
v 0.3913574 2.11363 -5.321167
v -4.108704 2.11363 -5.321167
v -3.717224 6.320736 -9.490967
v 0.7828064 6.320736 -9.490967
v 0.5868225 3.927382 -7.698242
v -3.913239 3.927382 -7.698242
v -3.521759 9.112371 -10.56213
v 0.978302 9.112371 -10.56213
v 0.7828064 6.320736 -9.490967
v -3.717224 6.320736 -9.490967
v -3.326294 12.09057 -10.82739
v 1.173767 12.09057 -10.82739
v 0.978302 9.112371 -10.56213
v -3.521759 9.112371 -10.56213
v -3.13031 15.02894 -10.27185
v 1.369751 15.02894 -10.27185
v 1.173767 12.09057 -10.82739
v -3.326294 12.09057 -10.82739
v -2.934814 17.70162 -8.932373
v 1.565216 17.70162 -8.932373
v 1.369751 15.02894 -10.27185
v -3.13031 15.02894 -10.27185
v -2.739349 19.90788 -6.913696
v 1.760712 19.90788 -6.913696
v 1.565216 17.70162 -8.932373
v -2.934814 17.70162 -8.932373
v -2.543365 21.48162 -4.370972
v 1.956696 21.48162 -4.370972
v 1.760712 19.90788 -6.913696
v -2.739349 19.90788 -6.913696
v -2.34787 22.29757 -1.494507
v 2.152161 22.29757 -1.494507
v 1.956696 21.48162 -4.370972
v -2.543365 21.48162 -4.370972
v -2.152405 22.29757 1.495728
v 2.347656 22.29757 1.495728
v 2.152161 22.29757 -1.494507
v -2.34787 22.29757 -1.494507
v -1.956421 21.48162 4.372314
v 2.54364 21.48162 4.372314
v 2.347656 22.29757 1.495728
v -2.152405 22.29757 1.495728
v -1.760956 19.90841 6.915527
v 2.739105 19.90841 6.915527
v 2.54364 21.48162 4.372314
v -1.956421 21.48162 4.372314
v -1.56546 17.70109 8.933105
v 2.93457 17.70109 8.933105
v 2.739105 19.90841 6.915527
v -1.760956 19.90841 6.915527
v -1.369476 15.02842 10.27319
v 3.130585 15.02842 10.27319
v 2.93457 17.70109 8.933105
v -1.56546 17.70109 8.933105
v -1.174011 12.09005 10.82861
v 3.32605 12.09005 10.82861
v 3.130585 15.02842 10.27319
v -1.369476 15.02842 10.27319
v -0.9779968 9.111849 10.56238
v 3.521515 9.111849 10.56238
v 3.32605 12.09005 10.82861
v -1.174011 12.09005 10.82861
v -0.7825317 6.319689 9.491821
v 3.717529 6.319689 9.491821
v 3.521515 9.111849 10.56238
v -0.9779968 9.111849 10.56238
v -0.5870667 3.927906 7.697388
v 3.912994 3.927906 7.697388
v 3.717529 6.319689 9.491821
v -0.7825317 6.319689 9.491821
v -0.3910522 2.11363 5.320801
v 4.108459 2.11363 5.320801
v 3.912994 3.927906 7.697388
v -0.5870667 3.927906 7.697388
v -0.1955872 1.017834 2.538696
v 4.304443 1.017834 2.538696
v 4.108459 2.11363 5.320801
v -0.3910522 2.11363 5.320801
v -0.0001220703 0.744278 -0.4375
v 4.499939 0.744278 -0.4375
v 4.304443 1.017834 2.538696
v -0.1955872 1.017834 2.538696

vn -0.2155762 0.9765625 -0.003921509
vn -0.2485352 0.96875 -0.003921509
vn -0.124939 0.9921875 -0.003921509
vn -0.124939 0.9921875 -0.003921509
vn -0.4851074 0.8745117 -0.003921509
vn -0.4987793 0.8666992 -0.003921509
vn -0.2485352 0.96875 -0.003921509
vn -0.2155762 0.9765625 -0.003921509
vn -0.7045898 0.7099609 -0.003921509
vn -0.7124023 0.7021484 -0.003921509
vn -0.4987793 0.8666992 -0.003921509
vn -0.4851074 0.8745117 -0.003921509
vn -0.871582 0.4902344 -0.003921509
vn -0.8759766 0.4824219 -0.003921509
vn -0.7124023 0.7021484 -0.003921509
vn -0.7045898 0.7099609 -0.003921509
vn -0.9726563 0.2313232 -0.003921509
vn -0.9746094 0.2235107 -0.003921509
vn -0.8759766 0.4824219 -0.003921509
vn -0.871582 0.4902344 -0.003921509
vn -0.9990234 -0.04315186 -0.003921509
vn -0.9985352 -0.05099487 -0.003921509
vn -0.9746094 0.2235107 -0.003921509
vn -0.9726563 0.2313232 -0.003921509
vn -0.9482422 -0.317627 -0.003921509
vn -0.9453125 -0.3254395 -0.003921509
vn -0.9985352 -0.05099487 -0.003921509
vn -0.9990234 -0.04315186 -0.003921509
vn -0.828125 -0.5605469 -0.003921509
vn -0.8227539 -0.5688477 -0.003921509
vn -0.9453125 -0.3254395 -0.003921509
vn -0.9482422 -0.317627 -0.003921509
vn -0.6445313 -0.7646484 -0.003921509
vn -0.6347656 -0.7724609 -0.003921509
vn -0.8227539 -0.5688477 -0.003921509
vn -0.828125 -0.5605469 -0.003921509
vn -0.40625 -0.9135742 -0.003921509
vn -0.40625 -0.9135742 -0.003921509
vn -0.6347656 -0.7724609 -0.003921509
vn -0.6445313 -0.7646484 -0.003921509
vn -0.124939 -0.9921875 -0.003921509
vn -0.124939 -0.9921875 -0.003921509
vn -0.40625 -0.9135742 -0.003921509
vn -0.40625 -0.9135742 -0.003921509
vn 0.124939 -0.9921875 -0.003921509
vn 0.124939 -0.9921875 -0.003921509
vn -0.124939 -0.9921875 -0.003921509
vn -0.124939 -0.9921875 -0.003921509
vn 0.40625 -0.9135742 -0.003921509
vn 0.40625 -0.9135742 -0.003921509
vn 0.124939 -0.9921875 -0.003921509
vn 0.124939 -0.9921875 -0.003921509
vn 0.6347656 -0.7724609 -0.003921509
vn 0.6445313 -0.7646484 -0.003921509
vn 0.40625 -0.9135742 -0.003921509
vn 0.40625 -0.9135742 -0.003921509
vn 0.8227539 -0.5688477 -0.003921509
vn 0.828125 -0.5605469 -0.003921509
vn 0.6445313 -0.7646484 -0.003921509
vn 0.6347656 -0.7724609 -0.003921509
vn 0.9453125 -0.3254395 -0.003921509
vn 0.9482422 -0.317627 -0.003921509
vn 0.828125 -0.5605469 -0.003921509
vn 0.8227539 -0.5688477 -0.003921509
vn 0.9985352 -0.05099487 -0.003921509
vn 0.9990234 -0.04315186 -0.003921509
vn 0.9482422 -0.317627 -0.003921509
vn 0.9453125 -0.3254395 -0.003921509
vn 0.9746094 0.2235107 -0.003921509
vn 0.9726563 0.2313232 -0.003921509
vn 0.9990234 -0.04315186 -0.003921509
vn 0.9985352 -0.05099487 -0.003921509
vn 0.8759766 0.4824219 -0.003921509
vn 0.871582 0.4902344 -0.003921509
vn 0.9726563 0.2313232 -0.003921509
vn 0.9746094 0.2235107 -0.003921509
vn 0.7124023 0.7021484 -0.003921509
vn 0.7045898 0.7099609 -0.003921509
vn 0.871582 0.4902344 -0.003921509
vn 0.8759766 0.4824219 -0.003921509
vn 0.4987793 0.8666992 -0.003921509
vn 0.4851074 0.8745117 -0.003921509
vn 0.7045898 0.7099609 -0.003921509
vn 0.7124023 0.7021484 -0.003921509
vn 0.2485352 0.96875 -0.003921509
vn 0.2155762 0.9765625 -0.003921509
vn 0.4851074 0.8745117 -0.003921509
vn 0.4987793 0.8666992 -0.003921509
vn 0.124939 0.9921875 -0.003921509
vn 0.124939 0.9921875 -0.003921509
vn 0.2155762 0.9765625 -0.003921509
vn 0.2485352 0.96875 -0.003921509

vt 0.9106445 0.1176147
vt 0.7412109 0.1176147
vt 0.7412109 0.001721382
vt 0.9106445 0.001721382
vt 0.9106445 0.1176147
vt 0.7412109 0.1176147
vt 0.7412109 0.001721382
vt 0.9106445 0.001721382
vt 0.9106445 0.1176147
vt 0.7412109 0.1176147
vt 0.7412109 0.001721382
vt 0.9106445 0.001721382
vt 0.9106445 0.1176147
vt 0.7412109 0.1176147
vt 0.7412109 0.001721382
vt 0.9106445 0.001721382
vt 0.9106445 0.1176147
vt 0.7412109 0.1176147
vt 0.7412109 0.001721382
vt 0.9106445 0.001721382
vt 0.9106445 0.1176147
vt 0.7412109 0.1176147
vt 0.7412109 0.001721382
vt 0.9106445 0.001721382
vt 0.9106445 0.1176147
vt 0.7412109 0.1176147
vt 0.7412109 0.001721382
vt 0.9106445 0.001721382
vt 0.9106445 0.1176147
vt 0.7412109 0.1176147
vt 0.7412109 0.001721382
vt 0.9106445 0.001721382
vt 0.9106445 0.1176147
vt 0.7412109 0.1176147
vt 0.7412109 0.001721382
vt 0.9106445 0.001721382
vt 0.9106445 0.1176147
vt 0.7412109 0.1176147
vt 0.7412109 0.001721382
vt 0.9106445 0.001721382
vt 0.9106445 0.1176147
vt 0.7412109 0.1176147
vt 0.7412109 0.001721382
vt 0.9106445 0.001721382
vt 0.9106445 0.1176147
vt 0.7412109 0.1176147
vt 0.7412109 0.001721382
vt 0.9106445 0.001721382
vt 0.9106445 0.1176147
vt 0.7412109 0.1176147
vt 0.7412109 0.001721382
vt 0.9106445 0.001721382
vt 0.9106445 0.1176147
vt 0.7412109 0.1176147
vt 0.7412109 0.001721382
vt 0.9106445 0.001721382
vt 0.9106445 0.1176147
vt 0.7412109 0.1176147
vt 0.7412109 0.001721382
vt 0.9106445 0.001721382
vt 0.9106445 0.1176147
vt 0.7412109 0.1176147
vt 0.7412109 0.001721382
vt 0.9106445 0.001721382
vt 0.9106445 0.1176147
vt 0.7412109 0.1176147
vt 0.7412109 0.001721382
vt 0.9106445 0.001721382
vt 0.9106445 0.1176147
vt 0.7412109 0.1176147
vt 0.7412109 0.001721382
vt 0.9106445 0.001721382
vt 0.9106445 0.1176147
vt 0.7412109 0.1176147
vt 0.7412109 0.001721382
vt 0.9106445 0.001721382
vt 0.9106445 0.1176147
vt 0.7412109 0.1176147
vt 0.7412109 0.001721382
vt 0.9106445 0.001721382
vt 0.9106445 0.1176147
vt 0.7412109 0.1176147
vt 0.7412109 0.001721382
vt 0.9106445 0.001721382
vt 0.9106445 0.1176147
vt 0.7412109 0.1176147
vt 0.7412109 0.001721382
vt 0.9106445 0.001721382
vt 0.9106445 0.1176147
vt 0.7412109 0.1176147
vt 0.7412109 0.001721382
vt 0.9106445 0.001721382

g Ramps03_24675_275
usemtl Ramps03_24675_275
usemap Ramps03_24675_275
f 1/1/1 3/3/3 2/2/2
f 1/1/1 4/4/4 3/3/3
f 5/5/5 7/7/7 6/6/6
f 5/5/5 8/8/8 7/7/7
f 9/9/9 11/11/11 10/10/10
f 9/9/9 12/12/12 11/11/11
f 13/13/13 15/15/15 14/14/14
f 13/13/13 16/16/16 15/15/15
f 17/17/17 19/19/19 18/18/18
f 17/17/17 20/20/20 19/19/19
f 21/21/21 23/23/23 22/22/22
f 21/21/21 24/24/24 23/23/23
f 25/25/25 27/27/27 26/26/26
f 25/25/25 28/28/28 27/27/27
f 29/29/29 31/31/31 30/30/30
f 29/29/29 32/32/32 31/31/31
f 33/33/33 35/35/35 34/34/34
f 33/33/33 36/36/36 35/35/35
f 37/37/37 39/39/39 38/38/38
f 37/37/37 40/40/40 39/39/39
f 41/41/41 43/43/43 42/42/42
f 41/41/41 44/44/44 43/43/43
f 45/45/45 47/47/47 46/46/46
f 45/45/45 48/48/48 47/47/47
f 49/49/49 51/51/51 50/50/50
f 49/49/49 52/52/52 51/51/51
f 53/53/53 55/55/55 54/54/54
f 53/53/53 56/56/56 55/55/55
f 57/57/57 59/59/59 58/58/58
f 57/57/57 60/60/60 59/59/59
f 61/61/61 63/63/63 62/62/62
f 61/61/61 64/64/64 63/63/63
f 65/65/65 67/67/67 66/66/66
f 65/65/65 68/68/68 67/67/67
f 69/69/69 71/71/71 70/70/70
f 69/69/69 72/72/72 71/71/71
f 73/73/73 75/75/75 74/74/74
f 73/73/73 76/76/76 75/75/75
f 77/77/77 79/79/79 78/78/78
f 77/77/77 80/80/80 79/79/79
f 81/81/81 83/83/83 82/82/82
f 81/81/81 84/84/84 83/83/83
f 85/85/85 87/87/87 86/86/86
f 85/85/85 88/88/88 87/87/87
f 89/89/89 91/91/91 90/90/90
f 89/89/89 92/92/92 91/91/91
