#Ramps04_(1)_24926_267.obj

v -6.567017 1.599499 -3.917175
v -5.766235 1.561768 -3.822327
v -5.949707 1.047672 -2.477112
v -6.749878 1.072302 -2.578247
v -6.93335 0.9135132 -1.146545
v -6.749878 1.072302 -2.578247
v -5.949707 1.047672 -2.477112
v -6.132568 0.9035568 -1.04541
v -2.071167 1.599499 -3.917175
v -1.270386 1.561768 -3.822327
v -1.453857 1.047672 -2.477112
v -2.254028 1.072302 -2.578247
v -2.4375 0.9135132 -1.146545
v -2.254028 1.072302 -2.578247
v -1.453857 1.047672 -2.477112
v -1.636719 0.9035568 -1.04541
v -5.782959 5.147335 -8.567139
v -4.982788 5.066107 -8.506348
v -5.165649 3.9221 -7.632202
v -5.966431 3.995468 -7.704529
v -6.149292 3.110867 -6.568909
v -5.966431 3.995468 -7.704529
v -5.165649 3.9221 -7.632202
v -5.349121 3.049028 -6.48822
v -1.287109 5.147335 -8.567139
v -0.4869385 5.066107 -8.506348
v -0.6697998 3.9221 -7.632202
v -1.470581 3.995468 -7.704529
v -1.653442 3.110867 -6.568909
v -1.470581 3.995468 -7.704529
v -0.6697998 3.9221 -7.632202
v -0.8532715 3.049028 -6.48822
v -5.031006 10.60797 -10.65967
v -4.230225 10.50682 -10.65021
v -4.413696 9.074062 -10.50928
v -5.213867 9.174681 -10.5318
v -5.397339 7.825769 -10.03027
v -5.213867 9.174681 -10.5318
v -4.413696 9.074062 -10.50928
v -4.596558 7.730391 -9.993591
v -0.5351563 10.60797 -10.65967
v 0.265625 10.50682 -10.65021
v 0.08215332 9.074062 -10.50928
v -0.7185059 9.174681 -10.5318
v -0.9014893 7.825769 -10.03027
v -0.7185059 9.174681 -10.5318
v 0.08215332 9.074062 -10.50928
v -0.100708 7.730391 -9.993591
v -4.206665 16.35211 -9.568604
v -3.405884 16.26092 -9.614197
v -3.589355 14.96861 -10.2467
v -4.389526 15.06556 -10.21368
v -4.572998 13.65481 -10.49512
v -4.389526 15.06556 -10.21368
v -3.589355 14.96861 -10.2467
v -3.772217 13.55471 -10.51398
v 0.2891846 16.35211 -9.568604
v 1.089355 16.26092 -9.614197
v 0.9064941 14.96861 -10.2467
v 0.1057129 15.06556 -10.21368
v -0.07714844 13.65481 -10.49512
v 0.1057129 15.06556 -10.21368
v 0.9064941 14.96861 -10.2467
v 0.7231445 13.55471 -10.51398
v -3.437378 20.66454 -5.622498
v -2.636597 20.61108 -5.709473
v -2.820068 19.84282 -6.924194
v -3.620728 19.90728 -6.84668
v -3.803711 18.85655 -7.827148
v -3.620728 19.90728 -6.84668
v -2.820068 19.84282 -6.924194
v -3.00293 18.78109 -7.895813
v 1.058472 20.66454 -5.622498
v 1.858765 20.61108 -5.709473
v 1.675781 19.84282 -6.924194
v 0.8751221 19.90728 -6.84668
v 0.6921387 18.85655 -7.827148
v 0.8751221 19.90728 -6.84668
v 1.675781 19.84282 -6.924194
v 1.492432 18.78109 -7.895813
v -2.662842 22.26185 -0.0004272461
v -1.862549 22.26185 -0.1021118
v -2.04541 22.2477 -1.539551
v -2.846191 22.26185 -1.439453
v -3.029175 21.88243 -2.826111
v -2.846191 22.26185 -1.439453
v -2.04541 22.2477 -1.539551
v -2.228882 21.85466 -2.924133
v 1.83252 22.26185 -0.0004272461
v 2.633301 22.26185 -0.1021118
v 2.449829 22.2477 -1.539551
v 1.649658 22.26185 -1.439453
v 1.466187 21.88243 -2.826111
v 1.649658 22.26185 -1.439453
v 2.449829 22.2477 -1.539551
v 2.266968 21.85466 -2.924133
v -1.871948 20.66558 5.622681
v -1.071289 20.71956 5.536194
v -1.254639 21.46319 4.305725
v -2.054932 21.42284 4.398987
v -2.238281 21.82793 3.019165
v -2.054932 21.42284 4.398987
v -1.254639 21.46319 4.305725
v -1.437622 21.85571 2.921143
v 2.623901 20.66558 5.622681
v 3.424561 20.71956 5.536194
v 3.241211 21.46319 4.305725
v 2.440918 21.42284 4.398987
v 2.257568 21.82793 3.019165
v 2.440918 21.42284 4.398987
v 3.241211 21.46319 4.305725
v 3.058228 21.85571 2.921143
v -1.105347 16.35263 9.568787
v -0.3045654 16.44382 9.523193
v -0.4880371 17.72198 8.86499
v -1.288208 17.63918 8.923645
v -1.47168 18.7093 7.962524
v -1.288208 17.63918 8.923645
v -0.4880371 17.72198 8.86499
v -0.6708984 18.78424 7.893921
v 3.390503 16.35263 9.568787
v 4.190796 16.44382 9.523193
v 4.007813 17.72198 8.86499
v 3.207153 17.63918 8.923645
v 3.02417 18.7093 7.962524
v 3.207153 17.63918 8.923645
v 4.007813 17.72198 8.86499
v 3.824463 18.78424 7.893921
v -0.3056641 10.60849 10.6604
v 0.4946289 10.71015 10.66925
v 0.3117676 12.14449 10.78192
v -0.4890137 12.04177 10.78827
v -0.671875 13.45829 10.53357
v -0.4890137 12.04177 10.78827
v 0.3117676 12.14449 10.78192
v 0.1282959 13.55838 10.51471
v 4.190186 10.60849 10.6604
v 4.990479 10.71015 10.66925
v 4.807617 12.14449 10.78192
v 4.006836 12.04177 10.78827
v 3.823975 13.45829 10.53357
v 4.006836 12.04177 10.78827
v 4.807617 12.14449 10.78192
v 4.624146 13.55838 10.51471
v 0.470459 5.14786 8.56781
v 1.27124 5.229088 8.62915
v 1.088379 6.389864 9.480225
v 0.2875977 6.299204 9.431458
v 0.1047363 7.638681 9.959167
v 0.2875977 6.299204 9.431458
v 1.088379 6.389864 9.480225
v 0.9049072 7.733536 9.995361
v 4.966309 5.14786 8.56781
v 5.76709 5.229088 8.62915
v 5.58374 6.389864 9.480225
v 4.783447 6.299204 9.431458
v 4.600098 7.638681 9.959167
v 4.783447 6.299204 9.431458
v 5.58374 6.389864 9.480225
v 5.400757 7.733536 9.995361
v 1.249756 1.599499 3.917908
v 2.050537 1.636707 4.012756
v 1.867065 2.178577 5.346497
v 1.066895 2.126696 5.256836
v 0.8834229 2.989811 6.40979
v 1.066895 2.126696 5.256836
v 1.867065 2.178577 5.346497
v 1.684204 3.051649 6.490479
v 5.745605 1.599499 3.917908
v 6.545898 1.636707 4.012756
v 6.362915 2.178577 5.346497
v 5.562256 2.126696 5.256836
v 5.379272 2.989811 6.40979
v 5.562256 2.126696 5.256836
v 6.362915 2.178577 5.346497
v 6.180054 3.051649 6.490479

vn -0.3688965 0.9291992 -0.01176453
vn -0.3688965 0.9291992 -0.01176453
vn -0.2485352 0.96875 -0.003921509
vn -0.2485352 0.96875 -0.003921509
vn -0.1244507 0.9921875 0.01176453
vn -0.2485352 0.96875 -0.003921509
vn -0.2485352 0.96875 -0.003921509
vn -0.1244507 0.9921875 0.01176453
vn -0.3688965 0.9291992 -0.01176453
vn -0.3688965 0.9291992 -0.01176453
vn -0.2485352 0.96875 -0.003921509
vn -0.2485352 0.96875 -0.003921509
vn -0.1244507 0.9921875 0.01176453
vn -0.2485352 0.96875 -0.003921509
vn -0.2485352 0.96875 -0.003921509
vn -0.1244507 0.9921875 0.01176453
vn -0.7939453 0.6079102 -0.01176453
vn -0.7939453 0.6079102 -0.01176453
vn -0.7124023 0.7021484 0.003921509
vn -0.7124023 0.7021484 0.003921509
vn -0.6152344 0.7880859 0.01176453
vn -0.7124023 0.7021484 0.003921509
vn -0.7124023 0.7021484 0.003921509
vn -0.6152344 0.7880859 0.01176453
vn -0.7939453 0.6079102 -0.01176453
vn -0.7939453 0.6079102 -0.01176453
vn -0.7124023 0.7021484 0.003921509
vn -0.7124023 0.7021484 0.003921509
vn -0.6152344 0.7880859 0.01176453
vn -0.7124023 0.7021484 0.003921509
vn -0.7124023 0.7021484 0.003921509
vn -0.6152344 0.7880859 0.01176453
vn -0.9951172 0.09802246 -0.003921509
vn -0.9951172 0.09802246 -0.003921509
vn -0.9746094 0.2235107 0.003921509
vn -0.9746094 0.2235107 0.003921509
vn -0.9370117 0.3491211 0.01176453
vn -0.9746094 0.2235107 0.003921509
vn -0.9746094 0.2235107 0.003921509
vn -0.9370117 0.3491211 0.01176453
vn -0.9951172 0.09802246 -0.003921509
vn -0.9951172 0.09802246 -0.003921509
vn -0.9746094 0.2235107 0.003921509
vn -0.9746094 0.2235107 0.003921509
vn -0.9370117 0.3491211 0.01176453
vn -0.9746094 0.2235107 0.003921509
vn -0.9746094 0.2235107 0.003921509
vn -0.9370117 0.3491211 0.01176453
vn -0.8964844 -0.4431152 -0.003921509
vn -0.8964844 -0.4431152 -0.003921509
vn -0.9482422 -0.317627 0.003921509
vn -0.9482422 -0.317627 0.003921509
vn -0.9814453 -0.1921387 0.01176453
vn -0.9482422 -0.317627 0.003921509
vn -0.9482422 -0.317627 0.003921509
vn -0.9814453 -0.1921387 0.01176453
vn -0.8964844 -0.4431152 -0.003921509
vn -0.8964844 -0.4431152 -0.003921509
vn -0.9482422 -0.317627 0.003921509
vn -0.9482422 -0.317627 0.003921509
vn -0.9814453 -0.1921387 0.01176453
vn -0.9482422 -0.317627 0.003921509
vn -0.9482422 -0.317627 0.003921509
vn -0.9814453 -0.1921387 0.01176453
vn -0.5253906 -0.8510742 -0.003921509
vn -0.5253906 -0.8510742 -0.003921509
vn -0.6347656 -0.7724609 0.003921509
vn -0.6347656 -0.7724609 0.003921509
vn -0.734375 -0.6782227 0.01176453
vn -0.6347656 -0.7724609 0.003921509
vn -0.6347656 -0.7724609 0.003921509
vn -0.734375 -0.6782227 0.01176453
vn -0.5253906 -0.8510742 -0.003921509
vn -0.5253906 -0.8510742 -0.003921509
vn -0.6347656 -0.7724609 0.003921509
vn -0.6347656 -0.7724609 0.003921509
vn -0.734375 -0.6782227 0.01176453
vn -0.6347656 -0.7724609 0.003921509
vn -0.6347656 -0.7724609 0.003921509
vn -0.734375 -0.6782227 0.01176453
vn 0 -1 -0.01176453
vn 0 -1 -0.01176453
vn -0.124939 -0.9921875 -0.003921509
vn -0.124939 -0.9921875 -0.003921509
vn -0.2773438 -0.9609375 0.003921509
vn -0.124939 -0.9921875 -0.003921509
vn -0.124939 -0.9921875 -0.003921509
vn -0.2773438 -0.9609375 0.003921509
vn 0 -1 -0.01176453
vn 0 -1 -0.01176453
vn -0.124939 -0.9921875 -0.003921509
vn -0.124939 -0.9921875 -0.003921509
vn -0.2773438 -0.9609375 0.003921509
vn -0.124939 -0.9921875 -0.003921509
vn -0.124939 -0.9921875 -0.003921509
vn -0.2773438 -0.9609375 0.003921509
vn 0.5249023 -0.8510742 -0.01176453
vn 0.5249023 -0.8510742 -0.01176453
vn 0.40625 -0.9135742 -0.003921509
vn 0.40625 -0.9135742 -0.003921509
vn 0.2773438 -0.9609375 0.003921509
vn 0.40625 -0.9135742 -0.003921509
vn 0.40625 -0.9135742 -0.003921509
vn 0.2773438 -0.9609375 0.003921509
vn 0.5249023 -0.8510742 -0.01176453
vn 0.5249023 -0.8510742 -0.01176453
vn 0.40625 -0.9135742 -0.003921509
vn 0.40625 -0.9135742 -0.003921509
vn 0.2773438 -0.9609375 0.003921509
vn 0.40625 -0.9135742 -0.003921509
vn 0.40625 -0.9135742 -0.003921509
vn 0.2773438 -0.9609375 0.003921509
vn 0.8925781 -0.4509277 -0.01176453
vn 0.8925781 -0.4509277 -0.01176453
vn 0.8227539 -0.5688477 -0.003921509
vn 0.8227539 -0.5688477 -0.003921509
vn 0.7416992 -0.6704102 0.003921509
vn 0.8227539 -0.5688477 -0.003921509
vn 0.8227539 -0.5688477 -0.003921509
vn 0.7416992 -0.6704102 0.003921509
vn 0.8925781 -0.4509277 -0.01176453
vn 0.8925781 -0.4509277 -0.01176453
vn 0.8227539 -0.5688477 -0.003921509
vn 0.8227539 -0.5688477 -0.003921509
vn 0.7416992 -0.6704102 0.003921509
vn 0.8227539 -0.5688477 -0.003921509
vn 0.8227539 -0.5688477 -0.003921509
vn 0.7416992 -0.6704102 0.003921509
vn 0.996582 0.08233643 -0.01176453
vn 0.996582 0.08233643 -0.01176453
vn 0.9985352 -0.05099487 -0.003921509
vn 0.9985352 -0.05099487 -0.003921509
vn 0.9829102 -0.1843262 0.003921509
vn 0.9985352 -0.05099487 -0.003921509
vn 0.9985352 -0.05099487 -0.003921509
vn 0.9829102 -0.1843262 0.003921509
vn 0.996582 0.08233643 -0.01176453
vn 0.996582 0.08233643 -0.01176453
vn 0.9985352 -0.05099487 -0.003921509
vn 0.9985352 -0.05099487 -0.003921509
vn 0.9829102 -0.1843262 0.003921509
vn 0.9985352 -0.05099487 -0.003921509
vn 0.9985352 -0.05099487 -0.003921509
vn 0.9829102 -0.1843262 0.003921509
vn 0.8056641 0.5922852 -0.01176453
vn 0.8056641 0.5922852 -0.01176453
vn 0.8759766 0.4824219 -0.003921509
vn 0.8759766 0.4824219 -0.003921509
vn 0.9311523 0.3647461 0.003921509
vn 0.8759766 0.4824219 -0.003921509
vn 0.8759766 0.4824219 -0.003921509
vn 0.9311523 0.3647461 0.003921509
vn 0.8056641 0.5922852 -0.01176453
vn 0.8056641 0.5922852 -0.01176453
vn 0.8759766 0.4824219 -0.003921509
vn 0.8759766 0.4824219 -0.003921509
vn 0.9311523 0.3647461 0.003921509
vn 0.8759766 0.4824219 -0.003921509
vn 0.8759766 0.4824219 -0.003921509
vn 0.9311523 0.3647461 0.003921509
vn 0.3688965 0.9291992 -0.01176453
vn 0.3688965 0.9291992 -0.01176453
vn 0.4851074 0.8745117 -0.003921509
vn 0.4851074 0.8745117 -0.003921509
vn 0.6049805 0.7958984 0.003921509
vn 0.4851074 0.8745117 -0.003921509
vn 0.4851074 0.8745117 -0.003921509
vn 0.6049805 0.7958984 0.003921509
vn 0.3688965 0.9291992 -0.01176453
vn 0.3688965 0.9291992 -0.01176453
vn 0.4851074 0.8745117 -0.003921509
vn 0.4851074 0.8745117 -0.003921509
vn 0.6049805 0.7958984 0.003921509
vn 0.4851074 0.8745117 -0.003921509
vn 0.4851074 0.8745117 -0.003921509
vn 0.6049805 0.7958984 0.003921509

vt 0.3596191 0.09411621
vt 0.3596191 0.007556915
vt 0.447998 0.007556915
vt 0.447998 0.09411621
vt 0.3596191 0.09411621
vt 0.447998 0.09411621
vt 0.447998 0.007556915
vt 0.3596191 0.007556915
vt 0.3596191 0.09411621
vt 0.3596191 0.007556915
vt 0.447998 0.007556915
vt 0.447998 0.09411621
vt 0.3596191 0.09411621
vt 0.447998 0.09411621
vt 0.447998 0.007556915
vt 0.3596191 0.007556915
vt 0.3596191 0.09411621
vt 0.3596191 0.007556915
vt 0.447998 0.007556915
vt 0.447998 0.09411621
vt 0.3596191 0.09411621
vt 0.447998 0.09411621
vt 0.447998 0.007556915
vt 0.3596191 0.007556915
vt 0.3596191 0.09411621
vt 0.3596191 0.007556915
vt 0.447998 0.007556915
vt 0.447998 0.09411621
vt 0.3596191 0.09411621
vt 0.447998 0.09411621
vt 0.447998 0.007556915
vt 0.3596191 0.007556915
vt 0.3596191 0.09411621
vt 0.3596191 0.007556915
vt 0.447998 0.007556915
vt 0.447998 0.09411621
vt 0.3596191 0.09411621
vt 0.447998 0.09411621
vt 0.447998 0.007556915
vt 0.3596191 0.007556915
vt 0.3596191 0.09411621
vt 0.3596191 0.007556915
vt 0.447998 0.007556915
vt 0.447998 0.09411621
vt 0.3596191 0.09411621
vt 0.447998 0.09411621
vt 0.447998 0.007556915
vt 0.3596191 0.007556915
vt 0.3596191 0.09411621
vt 0.3596191 0.007556915
vt 0.447998 0.007556915
vt 0.447998 0.09411621
vt 0.3596191 0.09411621
vt 0.447998 0.09411621
vt 0.447998 0.007556915
vt 0.3596191 0.007556915
vt 0.3596191 0.09411621
vt 0.3596191 0.007556915
vt 0.447998 0.007556915
vt 0.447998 0.09411621
vt 0.3596191 0.09411621
vt 0.447998 0.09411621
vt 0.447998 0.007556915
vt 0.3596191 0.007556915
vt 0.3596191 0.09411621
vt 0.3596191 0.007556915
vt 0.447998 0.007556915
vt 0.447998 0.09411621
vt 0.3596191 0.09411621
vt 0.447998 0.09411621
vt 0.447998 0.007556915
vt 0.3596191 0.007556915
vt 0.3596191 0.09411621
vt 0.3596191 0.007556915
vt 0.447998 0.007556915
vt 0.447998 0.09411621
vt 0.3596191 0.09411621
vt 0.447998 0.09411621
vt 0.447998 0.007556915
vt 0.3596191 0.007556915
vt 0.3596191 0.09411621
vt 0.3596191 0.007556915
vt 0.447998 0.007556915
vt 0.447998 0.09411621
vt 0.3596191 0.09411621
vt 0.447998 0.09411621
vt 0.447998 0.007556915
vt 0.3596191 0.007556915
vt 0.3596191 0.09411621
vt 0.3596191 0.007556915
vt 0.447998 0.007556915
vt 0.447998 0.09411621
vt 0.3596191 0.09411621
vt 0.447998 0.09411621
vt 0.447998 0.007556915
vt 0.3596191 0.007556915
vt 0.3596191 0.09411621
vt 0.3596191 0.007556915
vt 0.447998 0.007556915
vt 0.447998 0.09411621
vt 0.3596191 0.09411621
vt 0.447998 0.09411621
vt 0.447998 0.007556915
vt 0.3596191 0.007556915
vt 0.3596191 0.09411621
vt 0.3596191 0.007556915
vt 0.447998 0.007556915
vt 0.447998 0.09411621
vt 0.3596191 0.09411621
vt 0.447998 0.09411621
vt 0.447998 0.007556915
vt 0.3596191 0.007556915
vt 0.3596191 0.09411621
vt 0.3596191 0.007556915
vt 0.447998 0.007556915
vt 0.447998 0.09411621
vt 0.3596191 0.09411621
vt 0.447998 0.09411621
vt 0.447998 0.007556915
vt 0.3596191 0.007556915
vt 0.3596191 0.09411621
vt 0.3596191 0.007556915
vt 0.447998 0.007556915
vt 0.447998 0.09411621
vt 0.3596191 0.09411621
vt 0.447998 0.09411621
vt 0.447998 0.007556915
vt 0.3596191 0.007556915
vt 0.3596191 0.09411621
vt 0.3596191 0.007556915
vt 0.447998 0.007556915
vt 0.447998 0.09411621
vt 0.3596191 0.09411621
vt 0.447998 0.09411621
vt 0.447998 0.007556915
vt 0.3596191 0.007556915
vt 0.3596191 0.09411621
vt 0.3596191 0.007556915
vt 0.447998 0.007556915
vt 0.447998 0.09411621
vt 0.3596191 0.09411621
vt 0.447998 0.09411621
vt 0.447998 0.007556915
vt 0.3596191 0.007556915
vt 0.3596191 0.09411621
vt 0.3596191 0.007556915
vt 0.447998 0.007556915
vt 0.447998 0.09411621
vt 0.3596191 0.09411621
vt 0.447998 0.09411621
vt 0.447998 0.007556915
vt 0.3596191 0.007556915
vt 0.3596191 0.09411621
vt 0.3596191 0.007556915
vt 0.447998 0.007556915
vt 0.447998 0.09411621
vt 0.3596191 0.09411621
vt 0.447998 0.09411621
vt 0.447998 0.007556915
vt 0.3596191 0.007556915
vt 0.3596191 0.09411621
vt 0.3596191 0.007556915
vt 0.447998 0.007556915
vt 0.447998 0.09411621
vt 0.3596191 0.09411621
vt 0.447998 0.09411621
vt 0.447998 0.007556915
vt 0.3596191 0.007556915
vt 0.3596191 0.09411621
vt 0.3596191 0.007556915
vt 0.447998 0.007556915
vt 0.447998 0.09411621
vt 0.3596191 0.09411621
vt 0.447998 0.09411621
vt 0.447998 0.007556915
vt 0.3596191 0.007556915

g Ramps04_(1)_24926_267
usemtl Ramps04_(1)_24926_267
usemap Ramps04_(1)_24926_267
f 1/1/1 3/3/3 2/2/2
f 1/1/1 4/4/4 3/3/3
f 5/5/5 7/7/7 6/6/6
f 5/5/5 8/8/8 7/7/7
f 9/9/9 11/11/11 10/10/10
f 9/9/9 12/12/12 11/11/11
f 13/13/13 15/15/15 14/14/14
f 13/13/13 16/16/16 15/15/15
f 17/17/17 19/19/19 18/18/18
f 17/17/17 20/20/20 19/19/19
f 21/21/21 23/23/23 22/22/22
f 21/21/21 24/24/24 23/23/23
f 25/25/25 27/27/27 26/26/26
f 25/25/25 28/28/28 27/27/27
f 29/29/29 31/31/31 30/30/30
f 29/29/29 32/32/32 31/31/31
f 33/33/33 35/35/35 34/34/34
f 33/33/33 36/36/36 35/35/35
f 37/37/37 39/39/39 38/38/38
f 37/37/37 40/40/40 39/39/39
f 41/41/41 43/43/43 42/42/42
f 41/41/41 44/44/44 43/43/43
f 45/45/45 47/47/47 46/46/46
f 45/45/45 48/48/48 47/47/47
f 49/49/49 51/51/51 50/50/50
f 49/49/49 52/52/52 51/51/51
f 53/53/53 55/55/55 54/54/54
f 53/53/53 56/56/56 55/55/55
f 57/57/57 59/59/59 58/58/58
f 57/57/57 60/60/60 59/59/59
f 61/61/61 63/63/63 62/62/62
f 61/61/61 64/64/64 63/63/63
f 65/65/65 67/67/67 66/66/66
f 65/65/65 68/68/68 67/67/67
f 69/69/69 71/71/71 70/70/70
f 69/69/69 72/72/72 71/71/71
f 73/73/73 75/75/75 74/74/74
f 73/73/73 76/76/76 75/75/75
f 77/77/77 79/79/79 78/78/78
f 77/77/77 80/80/80 79/79/79
f 81/81/81 83/83/83 82/82/82
f 81/81/81 84/84/84 83/83/83
f 85/85/85 87/87/87 86/86/86
f 85/85/85 88/88/88 87/87/87
f 89/89/89 91/91/91 90/90/90
f 89/89/89 92/92/92 91/91/91
f 93/93/93 95/95/95 94/94/94
f 93/93/93 96/96/96 95/95/95
f 97/97/97 99/99/99 98/98/98
f 97/97/97 100/100/100 99/99/99
f 101/101/101 103/103/103 102/102/102
f 101/101/101 104/104/104 103/103/103
f 105/105/105 107/107/107 106/106/106
f 105/105/105 108/108/108 107/107/107
f 109/109/109 111/111/111 110/110/110
f 109/109/109 112/112/112 111/111/111
f 113/113/113 115/115/115 114/114/114
f 113/113/113 116/116/116 115/115/115
f 117/117/117 119/119/119 118/118/118
f 117/117/117 120/120/120 119/119/119
f 121/121/121 123/123/123 122/122/122
f 121/121/121 124/124/124 123/123/123
f 125/125/125 127/127/127 126/126/126
f 125/125/125 128/128/128 127/127/127
f 129/129/129 131/131/131 130/130/130
f 129/129/129 132/132/132 131/131/131
f 133/133/133 135/135/135 134/134/134
f 133/133/133 136/136/136 135/135/135
f 137/137/137 139/139/139 138/138/138
f 137/137/137 140/140/140 139/139/139
f 141/141/141 143/143/143 142/142/142
f 141/141/141 144/144/144 143/143/143
f 145/145/145 147/147/147 146/146/146
f 145/145/145 148/148/148 147/147/147
f 149/149/149 151/151/151 150/150/150
f 149/149/149 152/152/152 151/151/151
f 153/153/153 155/155/155 154/154/154
f 153/153/153 156/156/156 155/155/155
f 157/157/157 159/159/159 158/158/158
f 157/157/157 160/160/160 159/159/159
f 161/161/161 163/163/163 162/162/162
f 161/161/161 164/164/164 163/163/163
f 165/165/165 167/167/167 166/166/166
f 165/165/165 168/168/168 167/167/167
f 169/169/169 171/171/171 170/170/170
f 169/169/169 172/172/172 171/171/171
f 173/173/173 175/175/175 174/174/174
f 173/173/173 176/176/176 175/175/175
