#RubbishC_03_27770_203.obj

v -0.3747605 -6.270444E-05 -2.342469
v -1.182331 -5.633351E-05 -2.168575
v -0.8348187 -4.091313E-05 -2.431306
v -0.7526001 -5.691204E-05 -2.171425
v -0.7141345 0.0124878 -2.056045
v -1.529846 -6.456159E-05 -1.905844
v -0.9893394 0.08039961 -1.618735
v -1.803036 -4.90217E-05 -1.532702
v 0.08541099 -5.681776E-05 -2.25376
v -0.6593273 0.04994017 -1.893504
v -0.1977225 0.08022825 -1.790251
v 0.04210676 0.08835395 -1.687417
v 0.5570346 -4.322111E-05 -2.047776
v -0.4894241 0.140683 -1.403824
v -0.2144846 0.1043346 -1.595653
v -0.2417973 0.2157005 -1.277611
v -0.6037706 0.2325278 -1.221486
v -1.211866 0.1131492 -1.322639
v -0.9078203 0.1728355 -1.272123
v -1.319981 0.1100711 -1.273126
v -0.9955596 0.3206202 -1.108135
v -0.7517122 0.351387 -0.9855485
v -0.2692785 0.1814854 -1.067537
v -1.511559 0.09195779 -1.153912
v -1.515376 0.1243829 -0.8462786
v -1.269535 0.2584786 -1.24601
v -1.774125 0.06698978 -0.9907519
v -2.076229 -4.309843E-05 -1.159681
v -1.88835 0.1427489 -0.5210632
v -2.250704 -5.770922E-05 -0.7313629
v -2.425052 -5.237989E-05 -0.302926
v 0.005938275 0.1691842 -1.151389
v -1.233008 0.2705775 -0.6886096
v -0.9967559 0.3579186 -0.5567343
v -1.726736 0.206439 -0.4273548
v -1.330407 0.182163 -0.5652956
v -1.145323 0.2399823 -0.2843182
v -0.5542176 0.2855698 -0.3095993
v -0.3111503 0.3185536 -0.7479768
v -0.2494672 0.2036798 -0.7145973
v 0.2449484 0.2105918 -0.4385358
v -0.4944169 0.2113457 -0.2760813
v -1.826059 0.133026 -0.1745741
v -1.416656 0.1956354 -0.351071
v -0.7412052 0.2181707 -0.1817886
v -0.7393406 0.2036834 0.1624027
v -1.233345 0.1701734 -0.1230622
v -1.443516 0.1673434 -0.2526633
v -1.611264 0.2122803 -0.03886644
v -1.354878 0.1538036 0.1231541
v -1.897109 0.08038922 0.006599673
v -2.125173 0.01250109 0.4704343
v -2.466397 -2.875185E-05 0.130665
v -1.674483 0.1105615 0.1630903
v -1.957973 0.04994607 0.4317442
v -1.452097 0.1406808 0.3195901
v -1.26855 0.1517267 0.4313492
v -0.9772383 0.1691902 0.608925
v -1.52143 0.1168271 0.4976622
v -1.627967 0.08025001 0.7706531
v -2.243545 -4.622756E-05 0.4980843
v -2.191016 -5.401701E-05 0.9095591
v -2.507979 -6.712648E-05 0.564266
v -1.874057 -4.692802E-05 1.25473
v -1.512214 -5.701282E-05 1.657121
v -1.201297 0.09646191 1.07106
v -0.7505041 0.1661824 1.343578
v -1.045691 -4.783233E-05 1.872147
v -0.7243168 -4.104115E-05 1.86702
v -0.5815285 0.1611316 1.041155
v -0.5411336 0.09767877 1.451322
v -0.5571067 -5.456728E-05 2.047793
v -0.4937774 0.260186 0.8841465
v -0.3208741 0.1100724 1.123433
v -0.2450552 0.2857169 0.4386448
v -0.2499175 0.1720722 1.017778
v -0.005998186 0.1691612 1.151375
v -0.09081742 0.1029497 1.284523
v -0.2820615 0.09645768 1.584618
v -0.1851139 0.09318145 1.626151
v 0.1976208 0.08023639 1.79027
v -0.08548245 -4.27687E-05 2.253778
v 0.2556391 0.08184958 1.284743
v 0.7515746 0.170164 0.9856167
v 0.4892954 0.1407009 1.403889
v 0.5225704 0.255886 0.8621286
v 0.1820937 0.2045846 0.6770638
v 0.3142991 0.006244366 2.154967
v 0.3746885 -3.508396E-05 2.342487
v 0.7139646 0.0124942 2.056161
v 0.4816145 0.06154765 1.853771
v 0.2493765 0.2590332 0.7146735
v 0.371762 0.2680371 0.4953761
v 0.1649051 0.1792606 0.476306
v -0.000116784 0.2182187 -1.413691E-05
v 0.4943269 0.2113356 0.2761164
v 0.7260231 0.2116459 0.6053362
v 0.5795533 0.2054591 0.3237389
v 0.7392415 0.1080843 -0.1624946
v 0.8357685 0.139398 0.4668548
v 1.233293 0.1624388 0.1230961
v 0.9967278 0.1282248 0.5566931
v 1.131952 0.1208758 0.6322748
v 0.9771811 0.1691649 -0.6088173
v 1.173761 0.2327732 -0.2773269
v 0.4937431 0.1749181 -0.884053
v 0.7503942 0.09874847 -1.343562
v 0.1236929 0.138173 -1.336313
v 0.2819446 0.09645449 -1.584581
v 1.028665 -6.621215E-05 -1.84191
v 1.451327 -5.552603E-05 -1.54825
v 1.20118 0.09644846 -1.071023
v 1.139062 0.217153 -0.5102051
v 1.503237 0.08497706 -0.8584208
v 1.624952 -4.591947E-05 -1.333992
v 1.295476 0.219439 -0.4149297
v 1.627866 0.08021463 -0.7706344
v 1.873985 -5.086037E-05 -1.254713
v 2.125056 0.08205516 -0.4704781
v 2.190944 -4.377138E-05 -0.9095414
v 1.451967 0.1407049 -0.3195253
v 1.728475 0.06522901 -0.1251125
v 1.957876 0.04990751 -0.4316728
v 1.897053 0.04105711 -0.006595302
v 1.535429 0.1831121 0.3093782
v 1.374317 0.1971159 0.4846398
v 1.515245 0.0998268 0.8463187
v 1.726625 0.09698501 0.4273112
v 2.194515 -4.65057E-05 0.6999885
v 2.42498 -4.720657E-05 0.3029438
v 2.076157 -5.648804E-05 1.159699
v 2.466325 -6.903654E-05 -0.1306474
v 1.802964 -5.056477E-05 1.53272
v 2.243506 0.06845242 -0.4981256
v 2.507792 -6.975458E-05 -0.5642426
v 0.919776 0.1463493 1.070139
v 1.269364 0.09698181 1.246107
v 1.12939 0.06157353 1.432386
v 1.693692 -6.666104E-05 1.681905
v 0.9892455 0.05411996 1.618739
v 1.529658 -7.231946E-05 1.905867
v 0.7975162 0.204764 1.330926
v 0.7172287 0.1904981 1.50179
v 0.6592297 0.04991342 1.893575
v 1.182259 -4.145488E-05 2.168592
v 0.752528 -4.087635E-05 2.171443
v 0.8347467 -5.687526E-05 2.431324
v -1.319981 0.1100711 -1.273126
v -1.269535 0.2584786 -1.24601
v -1.515376 0.1243829 -0.8462786
v -1.211866 0.1131492 -1.322639
v -0.9955596 0.3206202 -1.108135

vn 0.3146973 0.9443359 0.09338379
vn 0.309082 0.9462891 0.09332275
vn 0.3205566 0.9428711 0.09326172
vn 0.3146973 0.9443359 0.09338379
vn 0.3005371 0.9536133 -0.01428223
vn 0.2424316 0.9692383 -0.03866577
vn 0.253418 0.9604492 -0.1156006
vn 0.1887207 0.9814453 -0.03915405
vn 0.3410645 0.9379883 -0.0607605
vn 0.2890625 0.9526367 -0.09436035
vn 0.3237305 0.9438477 -0.06216431
vn 0.3691406 0.9248047 -0.08996582
vn 0.3862305 0.9213867 -0.04589844
vn 0.2790527 0.9360352 -0.2150879
vn 0.3115234 0.9418945 -0.1265869
vn 0.3691406 0.9291992 -0.004302979
vn 0.3842773 0.8852539 -0.2614746
vn 0.1812744 0.902832 -0.3898926
vn 0.2980957 0.8696289 -0.3930664
vn -0.052948 0.9536133 -0.2958984
vn 0.204834 0.940918 -0.2700195
vn 0.362793 0.9238281 -0.1217041
vn 0.484375 0.8745117 0.02416992
vn -0.004051208 0.9951172 -0.1004028
vn 0.06604004 0.9970703 -0.03793335
vn -0.01951599 0.9145508 -0.4040527
vn 0.1524658 0.9873047 -0.04196167
vn 0.1401367 0.9897461 -0.02416992
vn 0.07830811 0.9970703 -0.01263428
vn 0.08282471 0.9951172 0.05453491
vn 0.109436 0.9838867 0.1420898
vn 0.4020996 0.9150391 0.02516174
vn -0.07336426 0.9912109 0.1121216
vn 0.151123 0.9604492 0.2333984
vn 0.1580811 0.9873047 0.003700256
vn 0.05065918 0.9951172 0.08526611
vn 0.1324463 0.9306641 0.3415527
vn 0.5395508 0.6508789 0.5341797
vn 0.7817383 0.6079102 0.1385498
vn 0.6713867 0.7182617 0.1833496
vn 0.371582 0.9238281 0.09429932
vn 0.5224609 0.777832 0.3493652
vn -0.03240967 0.9833984 0.1793213
vn 0.2296143 0.9609375 0.1533203
vn 0.2878418 0.8979492 0.3334961
vn 0.2415771 0.9702148 0.02159119
vn 0.215332 0.9433594 0.2526855
vn 0.3190918 0.9257813 0.2022705
vn 0.2208252 0.940918 0.2563477
vn 0.2680664 0.9443359 0.1904297
vn 0.06408691 0.9838867 0.1673584
vn 0.2094727 0.9736328 0.09088135
vn 0.2858887 0.9536133 0.09283447
vn 0.1203003 0.9643555 0.2354736
vn 0.1448975 0.9760742 0.1607666
vn 0.2036133 0.9746094 0.09069824
vn 0.2243652 0.9638672 0.1433105
vn 0.1866455 0.9677734 0.1695557
vn 0.1815186 0.9707031 0.1584473
vn 0.1815186 0.9707031 0.1584473
vn 0.2973633 0.9501953 0.09307861
vn 0.2858887 0.9536133 0.09283447
vn 0.3205566 0.9428711 0.09326172
vn 0.1973877 0.9624023 0.1871338
vn 0.1821289 0.9575195 0.2242432
vn 0.1866455 0.9677734 0.1695557
vn 0.3134766 0.9277344 0.2023926
vn 0.2398682 0.9238281 0.2976074
vn 0.279541 0.909668 0.307373
vn 0.2854004 0.9077148 0.3081055
vn 0.3498535 0.9052734 0.2416992
vn 0.2320557 0.9365234 0.2624512
vn 0.2568359 0.9179688 0.3029785
vn 0.2819824 0.8828125 0.3759766
vn 0.3603516 0.9282227 0.09417725
vn 0.2790527 0.8754883 0.3947754
vn 0.244873 0.887207 0.390625
vn 0.282959 0.9174805 0.2788086
vn 0.2849121 0.9379883 0.1977539
vn 0.2905273 0.9360352 0.1993408
vn 0.2963867 0.9335938 0.2005615
vn 0.2866211 0.9262695 0.2446289
vn 0.2885742 0.9155273 0.279541
vn 0.3955078 0.9038086 0.1636963
vn 0.1674805 0.9819336 0.08959961
vn 0.4130859 0.8671875 0.2783203
vn 0.09667969 0.9951172 0.004852295
vn 0.3249512 0.9238281 0.2019043
vn 0.3205566 0.9423828 0.09375
vn 0.3422852 0.918457 0.1986084
vn 0.3312988 0.8920898 0.3076172
vn 0.07556152 0.9931641 0.08624268
vn 0.206543 0.9741211 -0.09246826
vn 0.3005371 0.9536133 -0.01428223
vn 0.371582 0.9238281 0.09429932
vn 0.3918457 0.9189453 -0.04275513
vn 0.5537109 0.8325195 0.01450348
vn 0.4633789 0.8857422 -0.01902771
vn 0.3205566 0.9423828 0.09375
vn 0.484375 0.8745117 0.02416992
vn 0.3432617 0.9345703 0.09393311
vn 0.3771973 0.9213867 0.09442139
vn 0.2973633 0.9501953 0.09307861
vn 0.2536621 0.9672852 0.009391785
vn 0.3134766 0.9277344 0.2023926
vn 0.380127 0.9248047 0.002868652
vn 0.3974609 0.9169922 -0.03924561
vn 0.4194336 0.9077148 -0.0211792
vn 0.375 0.9257813 -0.05126953
vn 0.402832 0.9121094 -0.07562256
vn 0.4306641 0.9008789 -0.05621338
vn 0.4196777 0.9052734 -0.06494141
vn 0.2541504 0.9663086 -0.04556274
vn 0.4797363 0.8764648 -0.0430603
vn 0.4306641 0.9008789 -0.05621338
vn 0.5244141 0.8461914 0.09503174
vn 0.4614258 0.8847656 0.06268311
vn 0.3918457 0.9189453 -0.04275513
vn 0.4020996 0.9150391 0.02516174
vn 0.4743652 0.8789063 -0.05029297
vn 0.5454102 0.8330078 0.09490967
vn 0.4936523 0.8666992 0.07012939
vn 0.3828125 0.9189453 0.09448242
vn 0.4453125 0.8803711 0.1622314
vn 0.5029297 0.8588867 0.09509277
vn 0.3308105 0.921875 0.2011719
vn 0.4267578 0.8837891 0.1906738
vn 0.5244141 0.8461914 0.09503174
vn 0.4516602 0.8798828 0.1480713
vn 0.4213867 0.9008789 0.105957
vn 0.4453125 0.8803711 0.1622314
vn 0.5078125 0.855957 0.09509277
vn 0.4086914 0.8881836 0.2094727
vn 0.5063477 0.8623047 0.006893158
vn 0.5327148 0.8461914 0.014328
vn 0.4016113 0.9023438 0.1556396
vn 0.4328613 0.8828125 0.1826172
vn 0.4667969 0.8535156 0.2314453
vn 0.373291 0.8979492 0.2330322
vn 0.4511719 0.8476563 0.2790527
vn 0.3657227 0.9111328 0.1887207
vn 0.3955078 0.9038086 0.1636963
vn 0.322998 0.9038086 0.2802734
vn 0.3862305 0.8657227 0.3178711
vn 0.3320313 0.9384766 0.09368896
vn 0.3261719 0.9404297 0.09362793
vn 0.3205566 0.9428711 0.09326172
vn -0.052948 0.9536133 -0.2958984
vn -0.01951599 0.9145508 -0.4040527
vn 0.06604004 0.9970703 -0.03793335
vn 0.1812744 0.902832 -0.3898926
vn 0.204834 0.940918 -0.2700195

vt 0.02438354 1.147461
vt 0.1491699 1.024414
vt 0.04193115 1.040039
vt 0.1072998 1.107422
vt 0.1335449 1.133789
vt 0.2553711 1.007813
vt 0.2631836 1.140625
vt 0.3774414 1.003906
vt 0.00585556 1.253906
vt 0.1657715 1.166016
vt 0.1394043 1.263672
vt 0.1374512 1.322266
vt 0.004882813 1.376953
vt 0.2563477 1.256836
vt 0.1843262 1.28418
vt 0.2573242 1.317383
vt 0.309082 1.256836
vt 0.355957 1.134766
vt 0.3325195 1.196289
vt 0.3803711 1.121094
vt 0.3793945 1.199219
vt 0.378418 1.256836
vt 0.3051758 1.335938
vt 0.4309082 1.099609
vt 0.5004883 1.131836
vt 0.3803711 1.133789
vt 0.5004883 1.071289
vt 0.5004883 0.9995117
vt 0.6210938 1.09375
vt 0.6220703 1.003906
vt 0.7451172 1.007813
vt 0.2573242 1.37793
vt 0.5004883 1.200195
vt 0.5004883 1.257813
vt 0.6201172 1.133789
vt 0.5380859 1.194336
vt 0.5761719 1.257813
vt 0.5004883 1.365234
vt 0.3793945 1.364258
vt 0.3793945 1.378906
vt 0.3803711 1.5
vt 0.5004883 1.379883
vt 0.6875 1.137695
vt 0.5966797 1.199219
vt 0.5488281 1.34375
vt 0.6210938 1.378906
vt 0.6220703 1.256836
vt 0.6210938 1.204102
vt 0.6884766 1.192383
vt 0.6894531 1.256836
vt 0.7363281 1.140625
vt 0.8666992 1.133789
vt 0.8510742 1.024414
vt 0.7402344 1.199219
vt 0.8349609 1.166016
vt 0.7431641 1.256836
vt 0.7431641 1.303711
vt 0.7421875 1.37793
vt 0.7900391 1.259766
vt 0.8598633 1.263672
vt 0.8920898 1.107422
vt 0.9760742 1.147461
vt 0.9575195 1.040039
vt 0.9946289 1.253906
vt 0.9946289 1.376953
vt 0.8647461 1.379883
vt 0.8647461 1.5
vt 0.9946289 1.5
vt 0.9946289 1.567383
vt 0.7832031 1.5
vt 0.8647461 1.553711
vt 0.9946289 1.623047
vt 0.7402344 1.5
vt 0.7714844 1.55957
vt 0.6191406 1.5
vt 0.7412109 1.561523
vt 0.7421875 1.62207
vt 0.7802734 1.621094
vt 0.8647461 1.620117
vt 0.8637695 1.643555
vt 0.8598633 1.736328
vt 0.9946289 1.745117
vt 0.7431641 1.685547
vt 0.6220703 1.742188
vt 0.7431641 1.742188
vt 0.6210938 1.686523
vt 0.6201172 1.604492
vt 0.9301758 1.805664
vt 0.9760742 1.852539
vt 0.8666992 1.866211
vt 0.8442383 1.795898
vt 0.6210938 1.621094
vt 0.5605469 1.621094
vt 0.5800781 1.580078
vt 0.5004883 1.5
vt 0.5004883 1.620117
vt 0.5419922 1.697266
vt 0.5004883 1.641602
vt 0.3793945 1.621094
vt 0.5004883 1.702148
vt 0.378418 1.742188
vt 0.5004883 1.741211
vt 0.5004883 1.774414
vt 0.2573242 1.62207
vt 0.3012695 1.691406
vt 0.2592773 1.5
vt 0.1345215 1.5
vt 0.204834 1.378906
vt 0.1345215 1.379883
vt 0.004882813 1.5
vt 0.004882813 1.623047
vt 0.1345215 1.620117
vt 0.2573242 1.663086
vt 0.1384277 1.702148
vt 0.004882813 1.683594
vt 0.2573242 1.702148
vt 0.1394043 1.736328
vt 0.00585556 1.745117
vt 0.1335449 1.866211
vt 0.02438354 1.852539
vt 0.2563477 1.742188
vt 0.2602539 1.814453
vt 0.1657715 1.833984
vt 0.2631836 1.859375
vt 0.3793945 1.818359
vt 0.4387207 1.804688
vt 0.5004883 1.867188
vt 0.3803711 1.866211
vt 0.3774414 1.996094
vt 0.2553711 1.991211
vt 0.5004883 2
vt 0.1491699 1.975586
vt 0.6220703 1.996094
vt 0.1072998 1.892578
vt 0.04193115 1.959961
vt 0.6210938 1.782227
vt 0.6201172 1.866211
vt 0.6787109 1.862305
vt 0.6708984 1.994141
vt 0.7363281 1.859375
vt 0.7451172 1.991211
vt 0.6933594 1.790039
vt 0.7402344 1.795898
vt 0.8349609 1.833984
vt 0.8510742 1.975586
vt 0.8920898 1.892578
vt 0.9575195 1.959961
vt 0.3803711 1.121094
vt 0.3803711 1.133789
vt 0.5004883 1.131836
vt 0.355957 1.134766
vt 0.3793945 1.199219

g RubbishC_03_27770_203
usemtl RubbishC_03_27770_203
usemap RubbishC_03_27770_203
f 1/1/1 3/3/3 2/2/2
f 1/1/1 2/2/2 4/4/4
f 5/5/5 1/1/1 4/4/4
f 2/2/2 5/5/5 4/4/4
f 2/2/2 6/6/6 5/5/5
f 5/5/5 6/6/6 7/7/7
f 8/8/8 7/7/7 6/6/6
f 5/5/5 9/9/9 1/1/1
f 5/5/5 7/7/7 10/10/10
f 11/11/11 5/5/5 10/10/10
f 11/11/11 9/9/9 5/5/5
f 7/7/7 11/11/11 10/10/10
f 12/12/12 9/9/9 11/11/11
f 13/13/13 9/9/9 12/12/12
f 7/7/7 14/14/14 11/11/11
f 11/11/11 15/15/15 12/12/12
f 11/11/11 14/14/14 15/15/15
f 15/15/15 14/14/14 16/16/16
f 12/12/12 15/15/15 16/16/16
f 17/17/17 14/14/14 7/7/7
f 16/16/16 14/14/14 17/17/17
f 7/7/7 8/8/8 18/18/18
f 19/19/19 7/7/7 18/18/18
f 17/17/17 7/7/7 19/19/19
f 18/18/18 8/8/8 20/20/20
f 21/21/21 19/19/19 18/18/18
f 22/22/22 17/17/17 19/19/19
f 22/22/22 19/19/19 21/21/21
f 16/16/16 17/17/17 23/23/23
f 23/23/23 17/17/17 22/22/22
f 8/8/8 24/24/24 20/20/20
f 20/20/20 24/24/24 25/25/25
f 25/25/25 21/21/21 26/26/26
f 8/8/8 27/27/27 24/24/24
f 24/24/24 27/27/27 25/25/25
f 8/8/8 28/28/28 27/27/27
f 29/29/29 27/27/27 28/28/28
f 25/25/25 27/27/27 29/29/29
f 29/29/29 28/28/28 30/30/30
f 31/31/31 29/29/29 30/30/30
f 32/32/32 16/16/16 23/23/23
f 12/12/12 16/16/16 32/32/32
f 25/25/25 33/33/33 21/21/21
f 21/21/21 33/33/33 34/34/34
f 21/21/21 34/34/34 22/22/22
f 25/25/25 29/29/29 35/35/35
f 36/36/36 33/33/33 25/25/25
f 35/35/35 36/36/36 25/25/25
f 37/37/37 34/34/34 33/33/33
f 37/37/37 33/33/33 36/36/36
f 22/22/22 34/34/34 38/38/38
f 38/38/38 34/34/34 37/37/37
f 23/23/23 22/22/22 39/39/39
f 22/22/22 38/38/38 39/39/39
f 40/40/40 23/23/23 39/39/39
f 32/32/32 23/23/23 40/40/40
f 41/41/41 32/32/32 40/40/40
f 39/39/39 42/42/42 40/40/40
f 39/39/39 38/38/38 42/42/42
f 42/42/42 41/41/41 40/40/40
f 29/29/29 43/43/43 35/35/35
f 29/29/29 31/31/31 43/43/43
f 35/35/35 44/44/44 36/36/36
f 36/36/36 44/44/44 37/37/37
f 38/38/38 37/37/37 45/45/45
f 42/42/42 38/38/38 45/45/45
f 42/42/42 45/45/45 46/46/46
f 47/47/47 45/45/45 37/37/37
f 47/47/47 37/37/37 44/44/44
f 46/46/46 45/45/45 47/47/47
f 48/48/48 44/44/44 35/35/35
f 47/47/47 44/44/44 48/48/48
f 43/43/43 49/49/49 35/35/35
f 49/49/49 48/48/48 35/35/35
f 48/48/48 50/50/50 47/47/47
f 50/50/50 46/46/46 47/47/47
f 49/49/49 50/50/50 48/48/48
f 43/43/43 31/31/31 51/51/51
f 51/51/51 49/49/49 43/43/43
f 51/51/51 31/31/31 52/52/52
f 52/52/52 31/31/31 53/53/53
f 51/51/51 54/54/54 49/49/49
f 54/54/54 50/50/50 49/49/49
f 55/55/55 54/54/54 51/51/51
f 51/51/51 52/52/52 55/55/55
f 54/54/54 56/56/56 50/50/50
f 55/55/55 56/56/56 54/54/54
f 57/57/57 50/50/50 56/56/56
f 46/46/46 50/50/50 57/57/57
f 46/46/46 57/57/57 58/58/58
f 59/59/59 57/57/57 56/56/56
f 55/55/55 59/59/59 56/56/56
f 59/59/59 58/58/58 57/57/57
f 60/60/60 59/59/59 55/55/55
f 52/52/52 60/60/60 55/55/55
f 58/58/58 59/59/59 60/60/60
f 52/52/52 53/53/53 61/61/61
f 53/53/53 62/62/62 61/61/61
f 62/62/62 52/52/52 61/61/61
f 53/53/53 63/63/63 62/62/62
f 62/62/62 64/64/64 52/52/52
f 52/52/52 64/64/64 60/60/60
f 60/60/60 64/64/64 65/65/65
f 60/60/60 65/65/65 66/66/66
f 58/58/58 60/60/60 66/66/66
f 65/65/65 67/67/67 66/66/66
f 65/65/65 68/68/68 67/67/67
f 67/67/67 68/68/68 69/69/69
f 67/67/67 70/70/70 66/66/66
f 70/70/70 58/58/58 66/66/66
f 67/67/67 69/69/69 71/71/71
f 71/71/71 70/70/70 67/67/67
f 71/71/71 69/69/69 72/72/72
f 70/70/70 73/73/73 58/58/58
f 71/71/71 74/74/74 70/70/70
f 74/74/74 73/73/73 70/70/70
f 58/58/58 73/73/73 75/75/75
f 58/58/58 75/75/75 46/46/46
f 74/74/74 76/76/76 73/73/73
f 75/75/75 73/73/73 76/76/76
f 77/77/77 76/76/76 74/74/74
f 78/78/78 74/74/74 71/71/71
f 77/77/77 74/74/74 78/78/78
f 71/71/71 72/72/72 79/79/79
f 78/78/78 71/71/71 79/79/79
f 72/72/72 80/80/80 79/79/79
f 80/80/80 78/78/78 79/79/79
f 80/80/80 72/72/72 81/81/81
f 81/81/81 72/72/72 82/82/82
f 80/80/80 83/83/83 78/78/78
f 78/78/78 83/83/83 77/77/77
f 81/81/81 83/83/83 80/80/80
f 77/77/77 83/83/83 84/84/84
f 83/83/83 85/85/85 84/84/84
f 81/81/81 85/85/85 83/83/83
f 77/77/77 84/84/84 86/86/86
f 87/87/87 76/76/76 77/77/77
f 75/75/75 76/76/76 87/87/87
f 81/81/81 82/82/82 88/88/88
f 89/89/89 88/88/88 82/82/82
f 90/90/90 88/88/88 89/89/89
f 81/81/81 88/88/88 91/91/91
f 91/91/91 85/85/85 81/81/81
f 91/91/91 88/88/88 90/90/90
f 77/77/77 86/86/86 92/92/92
f 87/87/87 77/77/77 92/92/92
f 86/86/86 93/93/93 92/92/92
f 93/93/93 87/87/87 92/92/92
f 94/94/94 75/75/75 87/87/87
f 93/93/93 94/94/94 87/87/87
f 94/94/94 95/95/95 75/75/75
f 75/75/75 95/95/95 46/46/46
f 46/46/46 95/95/95 42/42/42
f 42/42/42 95/95/95 41/41/41
f 96/96/96 95/95/95 94/94/94
f 96/96/96 94/94/94 93/93/93
f 41/41/41 95/95/95 96/96/96
f 86/86/86 97/97/97 93/93/93
f 84/84/84 97/97/97 86/86/86
f 93/93/93 98/98/98 96/96/96
f 93/93/93 97/97/97 98/98/98
f 96/96/96 98/98/98 99/99/99
f 41/41/41 96/96/96 99/99/99
f 97/97/97 100/100/100 98/98/98
f 84/84/84 100/100/100 97/97/97
f 99/99/99 98/98/98 100/100/100
f 99/99/99 100/100/100 101/101/101
f 101/101/101 100/100/100 102/102/102
f 84/84/84 102/102/102 100/100/100
f 101/101/101 102/102/102 103/103/103
f 103/103/103 102/102/102 84/84/84
f 104/104/104 41/41/41 99/99/99
f 101/101/101 105/105/105 99/99/99
f 105/105/105 104/104/104 99/99/99
f 104/104/104 106/106/106 41/41/41
f 107/107/107 106/106/106 104/104/104
f 41/41/41 106/106/106 32/32/32
f 106/106/106 108/108/108 32/32/32
f 107/107/107 108/108/108 106/106/106
f 12/12/12 32/32/32 108/108/108
f 12/12/12 108/108/108 109/109/109
f 108/108/108 107/107/107 109/109/109
f 13/13/13 12/12/12 109/109/109
f 107/107/107 13/13/13 109/109/109
f 107/107/107 110/110/110 13/13/13
f 111/111/111 110/110/110 107/107/107
f 107/107/107 104/104/104 112/112/112
f 111/111/111 107/107/107 112/112/112
f 105/105/105 113/113/113 104/104/104
f 104/104/104 113/113/113 112/112/112
f 114/114/114 111/111/111 112/112/112
f 113/113/113 114/114/114 112/112/112
f 114/114/114 115/115/115 111/111/111
f 105/105/105 116/116/116 113/113/113
f 113/113/113 116/116/116 114/114/114
f 101/101/101 116/116/116 105/105/105
f 117/117/117 115/115/115 114/114/114
f 117/117/117 118/118/118 115/115/115
f 119/119/119 118/118/118 117/117/117
f 120/120/120 118/118/118 119/119/119
f 114/114/114 116/116/116 121/121/121
f 101/101/101 121/121/121 116/116/116
f 114/114/114 121/121/121 117/117/117
f 117/117/117 121/121/121 122/122/122
f 122/122/122 121/121/121 101/101/101
f 119/119/119 117/117/117 123/123/123
f 117/117/117 122/122/122 123/123/123
f 123/123/123 122/122/122 124/124/124
f 124/124/124 119/119/119 123/123/123
f 122/122/122 101/101/101 125/125/125
f 124/124/124 122/122/122 125/125/125
f 101/101/101 126/126/126 125/125/125
f 125/125/125 126/126/126 127/127/127
f 125/125/125 127/127/127 128/128/128
f 124/124/124 125/125/125 128/128/128
f 101/101/101 103/103/103 126/126/126
f 126/126/126 103/103/103 127/127/127
f 129/129/129 124/124/124 128/128/128
f 127/127/127 129/129/129 128/128/128
f 129/129/129 130/130/130 124/124/124
f 124/124/124 130/130/130 119/119/119
f 127/127/127 131/131/131 129/129/129
f 119/119/119 130/130/130 132/132/132
f 133/133/133 131/131/131 127/127/127
f 119/119/119 132/132/132 134/134/134
f 120/120/120 119/119/119 134/134/134
f 132/132/132 120/120/120 134/134/134
f 132/132/132 135/135/135 120/120/120
f 127/127/127 103/103/103 136/136/136
f 103/103/103 84/84/84 136/136/136
f 133/133/133 127/127/127 137/137/137
f 127/127/127 136/136/136 137/137/137
f 138/138/138 133/133/133 137/137/137
f 136/136/136 138/138/138 137/137/137
f 138/138/138 139/139/139 133/133/133
f 140/140/140 139/139/139 138/138/138
f 140/140/140 141/141/141 139/139/139
f 84/84/84 142/142/142 136/136/136
f 136/136/136 142/142/142 138/138/138
f 142/142/142 140/140/140 138/138/138
f 84/84/84 85/85/85 142/142/142
f 142/142/142 85/85/85 143/143/143
f 142/142/142 143/143/143 140/140/140
f 91/91/91 143/143/143 85/85/85
f 140/140/140 143/143/143 91/91/91
f 140/140/140 91/91/91 144/144/144
f 91/91/91 90/90/90 144/144/144
f 90/90/90 140/140/140 144/144/144
f 90/90/90 141/141/141 140/140/140
f 145/145/145 141/141/141 90/90/90
f 145/145/145 90/90/90 146/146/146
f 90/90/90 89/89/89 146/146/146
f 89/89/89 145/145/145 146/146/146
f 89/89/89 147/147/147 145/145/145
f 148/148/148 150/150/150 149/149/149
f 151/151/151 148/148/148 149/149/149
f 152/152/152 151/151/151 149/149/149
