#RubbishD_03_28080_8.obj

v -0.02409816 7.412431E-05 -2.327737
v -0.8561435 5.086228E-05 -2.420369
v -0.4701871 4.605655E-05 -2.557588
v -0.4267692 4.411358E-05 -2.286484
v -0.4056196 0.01613914 -2.165616
v -1.242098 6.888078E-05 -2.283028
v 0.4217517 4.738169E-05 -2.097876
v -0.7455822 0.1042853 -1.840543
v -1.570532 4.321911E-05 -2.018054
v -0.3752073 0.06473096 -1.994866
v 0.07002884 0.1040367 -1.750787
v 0.2940658 0.1145494 -1.577636
v 0.8617347 4.567827E-05 -1.753873
v -0.2788101 0.1824142 -1.479209
v 0.02435609 0.1353086 -1.572665
v -0.05042182 0.279713 -1.281423
v 0.1777741 0.2193709 -1.083786
v -0.4200268 0.3014872 -1.343595
v -0.1092856 0.2353215 -1.092162
v 0.5179893 0.1250345 -1.404358
v 0.9495022 0.1280158 -1.028482
v 1.30171 6.73498E-05 -1.409872
v 1.679596 5.6342E-05 -0.9986877
v 0.322963 0.1791043 -1.220618
v -0.6028995 0.4556678 -1.168122
v -0.1987205 0.4130474 -0.8040394
v -0.142173 0.2640748 -0.7530198
v 0.3100132 0.2730062 -0.3356351
v -0.5067511 0.3703499 -0.4678464
v -0.4520493 0.2740239 -0.4173253
v 0.6248019 0.2267944 -0.6767155
v 1.066192 0.2193716 -0.2634919
v -0.7158746 0.2241325 -1.487875
v 1.358696 0.1250162 -0.6282324
v 1.628475 0.1101987 -0.3317341
v 1.820892 7.052971E-05 -0.7414359
v 1.212995 0.2815953 -0.1191102
v 1.739799 0.1040395 -0.2093712
v 2.057608 5.56577E-05 -0.5875063
v 2.190996 0.1063832 0.2317033
v 2.322313 4.867191E-05 -0.1613457
v -1.011964 0.1467301 -1.632146
v -0.8279001 0.4157538 -1.36118
v -1.127048 0.1428188 -1.619834
v -1.336218 0.1191758 -1.568341
v -1.385802 0.161356 -1.279464
v -1.080807 0.3351059 -1.57825
v -1.622427 0.08691071 -1.497892
v -1.89885 5.665011E-05 -1.753086
v -1.806571 0.1851117 -1.091261
v -2.136861 3.949678E-05 -1.40459
v -2.374762 5.541564E-05 -1.056222
v -0.9115408 0.4640601 -0.8416229
v -1.12753 0.3508491 -1.041074
v -1.100532 0.3111849 -0.6320496
v -0.7125512 0.2828451 -0.4069795
v -1.243109 0.2362957 -0.9556987
v -1.65928 0.2677113 -0.9514992
v -1.361162 0.2537387 -0.7810221
v -1.212391 0.2206353 -0.5079144
v -0.762031 0.2640685 -0.08172135
v -1.402749 0.216946 -0.6968869
v -1.796188 0.1724661 -0.7448161
v -1.370479 0.1993864 -0.3144338
v -1.602107 0.2752131 -0.548659
v -1.894164 0.1042551 -0.5965346
v -2.190964 0.01616549 -0.2316261
v -2.480918 4.204856E-05 -0.66049
v -1.695384 0.143352 -0.3782941
v -2.018475 0.06470735 -0.215043
v -1.739689 0.1040336 0.2093841
v -1.496716 0.1824195 -0.1599262
v -1.330297 0.1967298 0.003696518
v -1.592596 0.151479 -0.01420134
v -1.066104 0.2194023 0.2636617
v -2.313284 4.713875E-05 -0.24318
v -2.322253 5.539413E-05 0.1613974
v -2.586957 6.237992E-05 -0.2647632
v -2.057545 5.802495E-05 0.5876796
v -1.756452 4.240575E-05 1.081998
v -1.358608 0.1250503 0.628225
v -0.9494167 0.2154529 1.02853
v -1.322963 5.968451E-05 1.433103
v -1.001452 6.342314E-05 1.530244
v -0.7357898 0.2088622 0.7969632
v -0.7565423 0.1267081 1.196589
v -0.8616737 5.658969E-05 1.753925
v -0.6247064 0.3373447 0.6767585
v -0.4878533 0.1427185 0.9573991
v -0.309936 0.3704756 0.3357055
v -0.401199 0.2230994 0.8802765
v -0.1776885 0.2193916 1.083834
v -0.2823175 0.1334878 1.182391
v -0.5178996 0.1250434 1.404472
v -0.4274887 0.1208376 1.474533
v -0.06991641 0.1040478 1.750921
v -0.4216906 5.488628E-05 2.097928
v 0.06328618 0.1061589 1.292716
v 0.6029573 0.2206494 1.168174
v 0.2788802 0.1824391 1.479211
v 0.392938 0.331809 0.9789352
v 0.08078647 0.2653359 0.6963316
v -0.008096771 0.008093568 2.13176
v 0.02427479 6.723632E-05 2.327783
v 0.4056206 0.01614797 2.165589
v 0.204069 0.07989554 1.901071
v 0.1422655 0.3359133 0.7531289
v 0.2971182 0.3475777 0.585253
v 0.09355877 0.2324043 0.5015283
v 0.0001368627 0.2829553 5.936773E-05
v 0.4521752 0.274022 0.417408
v 0.6342969 0.274406 0.8014428
v 0.762053 0.1402024 0.08182245
v 0.5300265 0.2664133 0.4893569
v 0.7644861 0.180775 0.7058151
v 1.212439 0.2106114 0.5079336
v 1.212869 0.3018159 0.111492
v 0.9116619 0.1663322 0.8416958
v 1.354841 0.2845871 0.02049891
v 1.496789 0.1824453 0.1600492
v 1.743723 0.08469069 0.4312605
v 1.035369 0.1566938 0.9558306
v 2.018504 0.06470656 0.2150885
v 1.894225 0.05327981 0.5966358
v 1.486123 0.2374413 0.779605
v 1.29919 0.2555593 0.893741
v 1.385904 0.1294515 1.27943
v 0.7582473 0.1898515 1.301403
v 1.659448 0.1258398 0.9516237
v 2.085569 5.805575E-05 1.357348
v 2.374823 4.685233E-05 1.056274
v 1.898911 4.561785E-05 1.753138
v 2.480979 6.021941E-05 0.6605419
v 1.570593 5.904885E-05 2.018106
v 2.313368 0.08880337 0.2432334
v 2.58702 3.449383E-05 0.2648156
v 1.080869 0.1258339 1.5783
v 0.9133588 0.07988889 1.709396
v 1.439317 7.383576E-05 2.124141
v 0.7457212 0.07017285 1.840647
v 1.242275 7.247985E-05 2.283074
v 0.597288 0.2655787 1.508388
v 0.4916944 0.2470077 1.644046
v 0.3753527 0.06472024 1.994906
v 0.8562046 5.140568E-05 2.42042
v 0.4268303 5.815439E-05 2.286536
v 0.4702482 5.621142E-05 2.557639
v -1.127048 0.1428188 -1.619834
v -1.080807 0.3351059 -1.57825
v -1.385802 0.161356 -1.279464
v -1.011964 0.1467301 -1.632146
v -0.8279001 0.4157538 -1.36118
v -0.4520493 0.2740239 -0.4173253
v -0.7125512 0.2828451 -0.4069795
v -0.5067511 0.3703499 -0.4678464
v -0.1987205 0.4130474 -0.8040394
v -0.142173 0.2640748 -0.7530198
v -0.1092856 0.2353215 -1.092162

vn 0.3310547 0.9389648 0.09368896
vn 0.3193359 0.9428711 0.09350586
vn 0.3193359 0.9428711 0.09350586
vn 0.3251953 0.940918 0.09362793
vn 0.3400879 0.9384766 -0.06222534
vn 0.2753906 0.9570313 -0.09301758
vn 0.4025879 0.9086914 -0.1099854
vn 0.3083496 0.9345703 -0.1781006
vn 0.2092285 0.9731445 -0.09649658
vn 0.3500977 0.9243164 -0.1523438
vn 0.385498 0.9155273 -0.1170654
vn 0.4418945 0.8896484 -0.116394
vn 0.4587402 0.8823242 -0.1036377
vn 0.3815918 0.8754883 -0.2963867
vn 0.3886719 0.9018555 -0.1893311
vn 0.4199219 0.9072266 -0.0224762
vn 0.4475098 0.894043 0.0152359
vn 0.515625 0.7880859 -0.3361816
vn 0.5395508 0.8408203 0.03723145
vn 0.4423828 0.8925781 -0.08520508
vn 0.4645996 0.8833008 -0.06433105
vn 0.4755859 0.8754883 -0.0881958
vn 0.5029297 0.8623047 -0.05413818
vn 0.4865723 0.8701172 -0.0760498
vn 0.4458008 0.8798828 -0.1645508
vn 0.7944336 0.5664063 0.2191162
vn 0.6791992 0.7050781 0.203125
vn 0.3967285 0.9179688 0.01704407
vn 0.4023438 0.6435547 0.6508789
vn 0.4492188 0.7880859 0.4211426
vn 0.4130859 0.909668 0.04241943
vn 0.2692871 0.9628906 -0.003042221
vn 0.4477539 0.753418 -0.4812012
vn 0.4921875 0.8676758 -0.0692749
vn 0.5566406 0.8295898 -0.03918457
vn 0.5029297 0.8623047 -0.05413818
vn 0.28125 0.9550781 -0.09442139
vn 0.5180664 0.8540039 0.04458618
vn 0.4536133 0.890625 -0.03485107
vn 0.4279785 0.8989258 0.09490967
vn 0.5566406 0.8295898 -0.03918457
vn 0.3061523 0.815918 -0.4907227
vn 0.2890625 0.887207 -0.3598633
vn 0.03019714 0.9086914 -0.4165039
vn 0.02453613 0.9804688 -0.1960449
vn 0.06512451 0.9873047 -0.1436768
vn 0.08496094 0.8540039 -0.5136719
vn 0.171875 0.9760742 -0.1320801
vn 0.1536865 0.980957 -0.1181641
vn 0.06634521 0.9941406 -0.08410645
vn 0.06646729 0.996582 -0.04440308
vn 0.05856323 0.9975586 0.04321289
vn 0.06500244 0.9692383 0.2365723
vn -0.1751709 0.9819336 0.07354736
vn -0.0236969 0.9272461 0.3742676
vn 0.1850586 0.9082031 0.375
vn -0.006702423 0.9980469 0.0612793
vn 0.1292725 0.9916992 -0.008750916
vn 0.1834717 0.96875 0.1660156
vn 0.1323242 0.9580078 0.255127
vn 0.2263184 0.9731445 0.04278564
vn 0.2731934 0.9306641 0.2429199
vn -0.1356201 0.9853516 0.1016846
vn 0.2324219 0.9594727 0.1594238
vn 0.1638184 0.9541016 0.2507324
vn -0.02423096 0.9892578 0.1434326
vn 0.1635742 0.9824219 0.08947754
vn 0.2722168 0.9575195 0.0925293
vn 0.02018738 0.9716797 0.2353516
vn 0.07958984 0.987793 0.1352539
vn 0.1099854 0.9819336 0.1531982
vn 0.1575928 0.9833984 0.08929443
vn 0.1782227 0.9716797 0.1538086
vn 0.1201782 0.9755859 0.1842041
vn 0.1324463 0.9873047 0.08843994
vn 0.2841797 0.9541016 0.09277344
vn 0.2722168 0.9575195 0.0925293
vn 0.3193359 0.9428711 0.09350586
vn 0.1362305 0.9814453 0.1337891
vn 0.09979248 0.9741211 0.2033691
vn 0.1051025 0.9711914 0.2142334
vn 0.2617188 0.9350586 0.2391357
vn 0.1394043 0.9262695 0.3498535
vn 0.173584 0.9125977 0.3696289
vn 0.1937256 0.9135742 0.3571777
vn 0.2895508 0.9052734 0.3103027
vn 0.1490479 0.9501953 0.2731934
vn 0.1595459 0.9272461 0.3388672
vn 0.1707764 0.8886719 0.4257813
vn 0.3769531 0.9213867 0.09442139
vn 0.1538086 0.878418 0.4521484
vn 0.09979248 0.8916016 0.4418945
vn 0.1967773 0.9213867 0.3349609
vn 0.2388916 0.9438477 0.2279053
vn 0.2546387 0.949707 0.1829834
vn 0.2388916 0.9438477 0.2279053
vn 0.2203369 0.9306641 0.2915039
vn 0.2113037 0.9248047 0.315918
vn 0.3896484 0.9047852 0.1716309
vn 0.1324463 0.9873047 0.08843994
vn 0.359375 0.8647461 0.3510742
vn 0.07287598 0.9956055 -0.0559082
vn 0.2790527 0.9287109 0.2443848
vn 0.3076172 0.9467773 0.09326172
vn 0.3022461 0.9204102 0.2479248
vn 0.2397461 0.8964844 0.3723145
vn 0.04681396 0.9990234 0.001818657
vn 0.2612305 0.949707 -0.1719971
vn 0.3457031 0.9379883 -0.01448822
vn 0.4023438 0.9150391 0.0239563
vn 0.447998 0.8930664 -0.0413208
vn 0.6157227 0.7822266 0.09399414
vn 0.3193359 0.9428711 0.09350586
vn 0.5356445 0.84375 -0.0401001
vn 0.5317383 0.8417969 0.0949707
vn 0.3483887 0.9326172 0.09399414
vn 0.2717285 0.9428711 0.1934814
vn 0.3774414 0.9077148 0.1821289
vn 0.5810547 0.8115234 0.06256104
vn 0.5859375 0.7924805 0.1680908
vn 0.5341797 0.831543 0.1523438
vn 0.260498 0.9472656 0.1868896
vn 0.3896484 0.9047852 0.1716309
vn 0.4667969 0.8793945 0.09509277
vn 0.5478516 0.8310547 0.09484863
vn 0.2849121 0.9267578 0.2457275
vn 0.4172363 0.875 0.2452393
vn 0.4216309 0.9003906 0.1085205
vn 0.5488281 0.8178711 0.1719971
vn 0.4729004 0.862793 0.1790771
vn 0.4338379 0.8823242 0.1835938
vn 0.4477539 0.8676758 0.2164307
vn 0.5419922 0.8325195 0.1135254
vn 0.3752441 0.887207 0.2692871
vn 0.5639648 0.8203125 0.09472656
vn 0.6005859 0.7939453 0.09423828
vn 0.4172363 0.875 0.2452393
vn 0.4462891 0.8481445 0.2854004
vn 0.3432617 0.9067383 0.2446289
vn 0.3950195 0.8364258 0.3796387
vn 0.3474121 0.9165039 0.197998
vn 0.3835449 0.90625 0.1772461
vn 0.2426758 0.9042969 0.3513184
vn 0.2978516 0.859375 0.4152832
vn 0.3193359 0.9428711 0.09350586
vn 0.3193359 0.9428711 0.09350586
vn 0.3193359 0.9428711 0.09350586
vn 0.03019714 0.9086914 -0.4165039
vn 0.08496094 0.8540039 -0.5136719
vn 0.06512451 0.9873047 -0.1436768
vn 0.3061523 0.815918 -0.4907227
vn 0.2890625 0.887207 -0.3598633
vn 0.4492188 0.7880859 0.4211426
vn 0.1850586 0.9082031 0.375
vn 0.4023438 0.6435547 0.6508789
vn 0.7944336 0.5664063 0.2191162
vn 0.6791992 0.7050781 0.203125
vn 0.5395508 0.8408203 0.03723145

vt 0.02438354 1.147461
vt 0.1491699 1.024414
vt 0.04193115 1.040039
vt 0.1072998 1.107422
vt 0.1335449 1.133789
vt 0.2553711 1.007813
vt 0.00585556 1.253906
vt 0.2631836 1.140625
vt 0.3774414 1.003906
vt 0.1657715 1.166016
vt 0.1394043 1.263672
vt 0.1374512 1.322266
vt 0.004882813 1.376953
vt 0.2563477 1.256836
vt 0.1843262 1.28418
vt 0.2573242 1.317383
vt 0.2573242 1.37793
vt 0.309082 1.256836
vt 0.3051758 1.335938
vt 0.1345215 1.379883
vt 0.1345215 1.5
vt 0.004882813 1.5
vt 0.004882813 1.623047
vt 0.204834 1.378906
vt 0.378418 1.256836
vt 0.3793945 1.364258
vt 0.3793945 1.378906
vt 0.3803711 1.5
vt 0.5004883 1.365234
vt 0.5004883 1.379883
vt 0.2592773 1.5
vt 0.2573242 1.62207
vt 0.3325195 1.196289
vt 0.1345215 1.620117
vt 0.1384277 1.702148
vt 0.004882813 1.683594
vt 0.2573242 1.663086
vt 0.1394043 1.736328
vt 0.00585556 1.745117
vt 0.1335449 1.866211
vt 0.02438354 1.852539
vt 0.355957 1.134766
vt 0.3793945 1.199219
vt 0.3803711 1.121094
vt 0.4309082 1.099609
vt 0.5004883 1.131836
vt 0.3803711 1.133789
vt 0.5004883 1.071289
vt 0.5004883 0.9995117
vt 0.6210938 1.09375
vt 0.6220703 1.003906
vt 0.7451172 1.007813
vt 0.5004883 1.257813
vt 0.5004883 1.200195
vt 0.5761719 1.257813
vt 0.5488281 1.34375
vt 0.5380859 1.194336
vt 0.6201172 1.133789
vt 0.5966797 1.199219
vt 0.6220703 1.256836
vt 0.6210938 1.378906
vt 0.6210938 1.204102
vt 0.6875 1.137695
vt 0.6894531 1.256836
vt 0.6884766 1.192383
vt 0.7363281 1.140625
vt 0.8666992 1.133789
vt 0.8510742 1.024414
vt 0.7402344 1.199219
vt 0.8349609 1.166016
vt 0.8598633 1.263672
vt 0.7431641 1.256836
vt 0.7431641 1.303711
vt 0.7900391 1.259766
vt 0.7421875 1.37793
vt 0.8920898 1.107422
vt 0.9760742 1.147461
vt 0.9575195 1.040039
vt 0.9946289 1.253906
vt 0.9946289 1.376953
vt 0.8647461 1.379883
vt 0.8647461 1.5
vt 0.9946289 1.5
vt 0.9946289 1.567383
vt 0.7832031 1.5
vt 0.8647461 1.553711
vt 0.9946289 1.623047
vt 0.7402344 1.5
vt 0.7714844 1.55957
vt 0.6191406 1.5
vt 0.7412109 1.561523
vt 0.7421875 1.62207
vt 0.7802734 1.621094
vt 0.8647461 1.620117
vt 0.8637695 1.643555
vt 0.8598633 1.736328
vt 0.9946289 1.745117
vt 0.7431641 1.685547
vt 0.6220703 1.742188
vt 0.7431641 1.742188
vt 0.6210938 1.686523
vt 0.6201172 1.604492
vt 0.9301758 1.805664
vt 0.9760742 1.852539
vt 0.8666992 1.866211
vt 0.8442383 1.795898
vt 0.6210938 1.621094
vt 0.5605469 1.621094
vt 0.5800781 1.580078
vt 0.5004883 1.5
vt 0.5004883 1.620117
vt 0.5419922 1.697266
vt 0.3793945 1.621094
vt 0.5004883 1.641602
vt 0.5004883 1.702148
vt 0.378418 1.742188
vt 0.3012695 1.691406
vt 0.5004883 1.741211
vt 0.2573242 1.702148
vt 0.2563477 1.742188
vt 0.2602539 1.814453
vt 0.5004883 1.774414
vt 0.1657715 1.833984
vt 0.2631836 1.859375
vt 0.3793945 1.818359
vt 0.4387207 1.804688
vt 0.5004883 1.867188
vt 0.6210938 1.782227
vt 0.3803711 1.866211
vt 0.3774414 1.996094
vt 0.2553711 1.991211
vt 0.5004883 2
vt 0.1491699 1.975586
vt 0.6220703 1.996094
vt 0.1072998 1.892578
vt 0.04193115 1.959961
vt 0.6201172 1.866211
vt 0.6787109 1.862305
vt 0.6708984 1.994141
vt 0.7363281 1.859375
vt 0.7451172 1.991211
vt 0.6933594 1.790039
vt 0.7402344 1.795898
vt 0.8349609 1.833984
vt 0.8510742 1.975586
vt 0.8920898 1.892578
vt 0.9575195 1.959961
vt 0.3803711 1.121094
vt 0.3803711 1.133789
vt 0.5004883 1.131836
vt 0.355957 1.134766
vt 0.3793945 1.199219
vt 0.5004883 1.379883
vt 0.5488281 1.34375
vt 0.5004883 1.365234
vt 0.3793945 1.364258
vt 0.3793945 1.378906
vt 0.3051758 1.335938

g RubbishD_03_28080_8
usemtl RubbishD_03_28080_8
usemap RubbishD_03_28080_8
f 1/1/1 3/3/3 2/2/2
f 1/1/1 2/2/2 4/4/4
f 5/5/5 1/1/1 4/4/4
f 2/2/2 5/5/5 4/4/4
f 2/2/2 6/6/6 5/5/5
f 5/5/5 7/7/7 1/1/1
f 5/5/5 6/6/6 8/8/8
f 9/9/9 8/8/8 6/6/6
f 5/5/5 8/8/8 10/10/10
f 11/11/11 5/5/5 10/10/10
f 11/11/11 7/7/7 5/5/5
f 8/8/8 11/11/11 10/10/10
f 12/12/12 7/7/7 11/11/11
f 13/13/13 7/7/7 12/12/12
f 8/8/8 14/14/14 11/11/11
f 11/11/11 15/15/15 12/12/12
f 11/11/11 14/14/14 15/15/15
f 15/15/15 14/14/14 16/16/16
f 12/12/12 15/15/15 16/16/16
f 12/12/12 16/16/16 17/17/17
f 16/16/16 14/14/14 18/18/18
f 18/18/18 14/14/14 8/8/8
f 17/17/17 16/16/16 19/19/19
f 16/16/16 18/18/18 19/19/19
f 13/13/13 12/12/12 20/20/20
f 21/21/21 13/13/13 20/20/20
f 21/21/21 22/22/22 13/13/13
f 23/23/23 22/22/22 21/21/21
f 12/12/12 24/24/24 20/20/20
f 12/12/12 17/17/17 24/24/24
f 24/24/24 21/21/21 20/20/20
f 21/21/21 24/24/24 17/17/17
f 19/19/19 18/18/18 25/25/25
f 19/19/19 25/25/25 26/26/26
f 17/17/17 19/19/19 27/27/27
f 28/28/28 17/17/17 27/27/27
f 25/25/25 29/29/29 26/26/26
f 30/30/30 28/28/28 27/27/27
f 21/21/21 17/17/17 31/31/31
f 28/28/28 31/31/31 17/17/17
f 21/21/21 31/31/31 32/32/32
f 32/32/32 31/31/31 28/28/28
f 25/25/25 18/18/18 33/33/33
f 18/18/18 8/8/8 33/33/33
f 21/21/21 32/32/32 34/34/34
f 23/23/23 21/21/21 34/34/34
f 35/35/35 23/23/23 34/34/34
f 35/35/35 36/36/36 23/23/23
f 32/32/32 37/37/37 34/34/34
f 37/37/37 35/35/35 34/34/34
f 38/38/38 36/36/36 35/35/35
f 38/38/38 39/39/39 36/36/36
f 40/40/40 39/39/39 38/38/38
f 41/41/41 39/39/39 40/40/40
f 33/33/33 8/8/8 42/42/42
f 43/43/43 33/33/33 42/42/42
f 8/8/8 44/44/44 42/42/42
f 25/25/25 33/33/33 43/43/43
f 8/8/8 9/9/9 44/44/44
f 9/9/9 45/45/45 44/44/44
f 44/44/44 45/45/45 46/46/46
f 46/46/46 43/43/43 47/47/47
f 9/9/9 48/48/48 45/45/45
f 45/45/45 48/48/48 46/46/46
f 9/9/9 49/49/49 48/48/48
f 50/50/50 48/48/48 49/49/49
f 46/46/46 48/48/48 50/50/50
f 50/50/50 49/49/49 51/51/51
f 52/52/52 50/50/50 51/51/51
f 43/43/43 53/53/53 25/25/25
f 25/25/25 53/53/53 29/29/29
f 43/43/43 54/54/54 53/53/53
f 46/46/46 54/54/54 43/43/43
f 29/29/29 53/53/53 55/55/55
f 55/55/55 53/53/53 54/54/54
f 29/29/29 55/55/55 56/56/56
f 57/57/57 54/54/54 46/46/46
f 55/55/55 54/54/54 57/57/57
f 46/46/46 50/50/50 58/58/58
f 58/58/58 57/57/57 46/46/46
f 57/57/57 59/59/59 55/55/55
f 58/58/58 59/59/59 57/57/57
f 60/60/60 56/56/56 55/55/55
f 60/60/60 55/55/55 59/59/59
f 61/61/61 56/56/56 60/60/60
f 30/30/30 56/56/56 61/61/61
f 60/60/60 59/59/59 62/62/62
f 62/62/62 59/59/59 58/58/58
f 50/50/50 63/63/63 58/58/58
f 50/50/50 52/52/52 63/63/63
f 62/62/62 64/64/64 60/60/60
f 64/64/64 61/61/61 60/60/60
f 65/65/65 62/62/62 58/58/58
f 63/63/63 65/65/65 58/58/58
f 65/65/65 64/64/64 62/62/62
f 63/63/63 52/52/52 66/66/66
f 66/66/66 65/65/65 63/63/63
f 66/66/66 52/52/52 67/67/67
f 67/67/67 52/52/52 68/68/68
f 66/66/66 69/69/69 65/65/65
f 69/69/69 64/64/64 65/65/65
f 70/70/70 69/69/69 66/66/66
f 66/66/66 67/67/67 70/70/70
f 67/67/67 71/71/71 70/70/70
f 69/69/69 72/72/72 64/64/64
f 70/70/70 72/72/72 69/69/69
f 73/73/73 64/64/64 72/72/72
f 61/61/61 64/64/64 73/73/73
f 70/70/70 74/74/74 72/72/72
f 71/71/71 74/74/74 70/70/70
f 74/74/74 73/73/73 72/72/72
f 71/71/71 73/73/73 74/74/74
f 61/61/61 73/73/73 75/75/75
f 73/73/73 71/71/71 75/75/75
f 67/67/67 68/68/68 76/76/76
f 68/68/68 77/77/77 76/76/76
f 77/77/77 67/67/67 76/76/76
f 68/68/68 78/78/78 77/77/77
f 77/77/77 79/79/79 67/67/67
f 67/67/67 79/79/79 71/71/71
f 71/71/71 79/79/79 80/80/80
f 71/71/71 80/80/80 81/81/81
f 75/75/75 71/71/71 81/81/81
f 80/80/80 82/82/82 81/81/81
f 80/80/80 83/83/83 82/82/82
f 82/82/82 83/83/83 84/84/84
f 82/82/82 85/85/85 81/81/81
f 85/85/85 75/75/75 81/81/81
f 82/82/82 84/84/84 86/86/86
f 86/86/86 85/85/85 82/82/82
f 86/86/86 84/84/84 87/87/87
f 85/85/85 88/88/88 75/75/75
f 86/86/86 89/89/89 85/85/85
f 89/89/89 88/88/88 85/85/85
f 75/75/75 88/88/88 90/90/90
f 75/75/75 90/90/90 61/61/61
f 89/89/89 91/91/91 88/88/88
f 90/90/90 88/88/88 91/91/91
f 92/92/92 91/91/91 89/89/89
f 93/93/93 89/89/89 86/86/86
f 92/92/92 89/89/89 93/93/93
f 86/86/86 87/87/87 94/94/94
f 93/93/93 86/86/86 94/94/94
f 87/87/87 95/95/95 94/94/94
f 95/95/95 93/93/93 94/94/94
f 95/95/95 87/87/87 96/96/96
f 96/96/96 87/87/87 97/97/97
f 95/95/95 98/98/98 93/93/93
f 93/93/93 98/98/98 92/92/92
f 96/96/96 98/98/98 95/95/95
f 92/92/92 98/98/98 99/99/99
f 98/98/98 100/100/100 99/99/99
f 96/96/96 100/100/100 98/98/98
f 92/92/92 99/99/99 101/101/101
f 102/102/102 91/91/91 92/92/92
f 90/90/90 91/91/91 102/102/102
f 96/96/96 97/97/97 103/103/103
f 104/104/104 103/103/103 97/97/97
f 105/105/105 103/103/103 104/104/104
f 96/96/96 103/103/103 106/106/106
f 106/106/106 100/100/100 96/96/96
f 106/106/106 103/103/103 105/105/105
f 92/92/92 101/101/101 107/107/107
f 102/102/102 92/92/92 107/107/107
f 101/101/101 108/108/108 107/107/107
f 108/108/108 102/102/102 107/107/107
f 109/109/109 90/90/90 102/102/102
f 108/108/108 109/109/109 102/102/102
f 109/109/109 110/110/110 90/90/90
f 90/90/90 110/110/110 61/61/61
f 61/61/61 110/110/110 30/30/30
f 30/30/30 110/110/110 28/28/28
f 111/111/111 110/110/110 109/109/109
f 28/28/28 110/110/110 111/111/111
f 111/111/111 109/109/109 108/108/108
f 101/101/101 112/112/112 108/108/108
f 99/99/99 112/112/112 101/101/101
f 28/28/28 111/111/111 113/113/113
f 32/32/32 28/28/28 113/113/113
f 108/108/108 114/114/114 111/111/111
f 108/108/108 112/112/112 114/114/114
f 111/111/111 114/114/114 113/113/113
f 112/112/112 115/115/115 114/114/114
f 99/99/99 115/115/115 112/112/112
f 113/113/113 114/114/114 115/115/115
f 113/113/113 115/115/115 116/116/116
f 116/116/116 117/117/117 113/113/113
f 117/117/117 32/32/32 113/113/113
f 116/116/116 115/115/115 118/118/118
f 99/99/99 118/118/118 115/115/115
f 117/117/117 37/37/37 32/32/32
f 117/117/117 119/119/119 37/37/37
f 116/116/116 119/119/119 117/117/117
f 37/37/37 119/119/119 35/35/35
f 35/35/35 119/119/119 120/120/120
f 116/116/116 120/120/120 119/119/119
f 35/35/35 120/120/120 38/38/38
f 38/38/38 120/120/120 121/121/121
f 121/121/121 120/120/120 116/116/116
f 122/122/122 118/118/118 99/99/99
f 116/116/116 118/118/118 122/122/122
f 38/38/38 121/121/121 123/123/123
f 40/40/40 38/38/38 123/123/123
f 123/123/123 121/121/121 124/124/124
f 124/124/124 40/40/40 123/123/123
f 121/121/121 116/116/116 125/125/125
f 124/124/124 121/121/121 125/125/125
f 116/116/116 122/122/122 126/126/126
f 116/116/116 126/126/126 125/125/125
f 126/126/126 122/122/122 127/127/127
f 125/125/125 126/126/126 127/127/127
f 122/122/122 99/99/99 128/128/128
f 127/127/127 122/122/122 128/128/128
f 124/124/124 125/125/125 129/129/129
f 125/125/125 127/127/127 129/129/129
f 130/130/130 124/124/124 129/129/129
f 127/127/127 130/130/130 129/129/129
f 130/130/130 131/131/131 124/124/124
f 124/124/124 131/131/131 40/40/40
f 127/127/127 132/132/132 130/130/130
f 40/40/40 131/131/131 133/133/133
f 134/134/134 132/132/132 127/127/127
f 40/40/40 133/133/133 135/135/135
f 41/41/41 40/40/40 135/135/135
f 133/133/133 41/41/41 135/135/135
f 133/133/133 136/136/136 41/41/41
f 134/134/134 127/127/127 137/137/137
f 127/127/127 128/128/128 137/137/137
f 138/138/138 134/134/134 137/137/137
f 128/128/128 138/138/138 137/137/137
f 138/138/138 139/139/139 134/134/134
f 140/140/140 139/139/139 138/138/138
f 140/140/140 141/141/141 139/139/139
f 128/128/128 142/142/142 138/138/138
f 142/142/142 140/140/140 138/138/138
f 99/99/99 142/142/142 128/128/128
f 99/99/99 100/100/100 142/142/142
f 142/142/142 100/100/100 143/143/143
f 142/142/142 143/143/143 140/140/140
f 106/106/106 143/143/143 100/100/100
f 140/140/140 143/143/143 106/106/106
f 140/140/140 106/106/106 144/144/144
f 106/106/106 105/105/105 144/144/144
f 105/105/105 140/140/140 144/144/144
f 105/105/105 141/141/141 140/140/140
f 145/145/145 141/141/141 105/105/105
f 145/145/145 105/105/105 146/146/146
f 105/105/105 104/104/104 146/146/146
f 104/104/104 145/145/145 146/146/146
f 104/104/104 147/147/147 145/145/145
f 148/148/148 150/150/150 149/149/149
f 151/151/151 148/148/148 149/149/149
f 152/152/152 151/151/151 149/149/149
f 153/153/153 155/155/155 154/154/154
f 156/156/156 155/155/155 153/153/153
f 156/156/156 153/153/153 157/157/157
f 157/157/157 158/158/158 156/156/156
