#RubbishC_02_27633_202.obj

v -1.060042 0.2350069 0.6988283
v -1.290025 0.1919093 0.682899
v -1.599151 0.1339932 0.6613358
v -1.958216 5.517558E-05 1.84598
v -1.384497 5.235355E-05 2.62526
v -1.803953 1.326563E-05 2.405126
v -1.607611 2.874883E-05 2.155673
v -1.521454 0.01735169 2.042803
v -2.112752 1.950205E-05 1.286849
v -0.9651685 6.051493E-05 2.845542
v -0.9787432 0.1116377 2.076848
v -1.542151 0.1114531 1.313664
v -1.570638 0.1226797 0.9874352
v -2.165516 3.304388E-05 0.6433915
v -1.400287 0.06930601 1.883148
v -0.5927937 0.1571488 2.139452
v -0.4921119 0.1529355 2.227707
v -0.4825712 4.616625E-05 2.91663
v -0.2843263 0.1276996 2.364845
v -9.051184E-05 0.1728069 2.18049
v -9.008052E-05 0.09311906 2.552809
v -0.0001172455 1.005466E-05 2.987722
v 0.4897952 0.19838 2.390407
v 0.4825968 5.018658E-05 2.916595
v 0.9651814 3.650132E-05 2.845478
v -0.7023863 0.2401004 1.774991
v -0.5069998 0.4454232 1.770728
v -0.4930073 0.3590172 2.155806
v -1.037826 0.195465 1.396855
v -0.8119612 0.322985 1.410398
v -1.354943 0.1449073 1.21261
v -1.048971 0.2996253 1.04775
v -0.5194692 0.4882084 1.428159
v -0.8420859 0.2520404 0.9493541
v -1.060042 0.2350069 0.6988283
v -0.5270621 0.4424667 0.799481
v -0.5281291 0.2830022 0.711394
v -0.5281747 0.2924632 8.715881E-05
v -7.500143E-05 0.3967681 0.7974648
v -8.641733E-05 0.2935314 0.7112973
v -1.290025 0.1919093 0.682899
v -1.599151 0.1339932 0.6613358
v -6.282942E-05 0.4971474 1.434252
v -1.064793 0.243028 3.276538E-05
v -1.618265 0.1371735 1.344165E-05
v -2.218274 5.545261E-05 7.523424E-05
v -2.165545 2.415128E-05 -0.6434177
v -6.199934E-05 0.3758909 1.774277
v 0.3261223 0.3333632 1.430437
v 0.2131046 0.3030255 0.9243421
v -1.059996 0.2350222 -0.6989052
v -1.599173 0.1339987 -0.6613113
v 0.1630978 0.2530843 1.805534
v -1.558774 0.1180307 -1.123061
v -2.057755 3.421721E-05 -0.965161
v 0.4928984 0.2866815 2.155686
v 0.403916 0.2718217 1.768801
v 0.5193502 0.2363591 1.428106
v -1.052428 0.3016756 -0.9369776
v -1.542049 0.1114906 -1.313576
v -2.112687 4.666712E-05 -1.286921
v -1.521354 0.1140398 -2.042761
v -1.958273 4.101716E-05 -1.845938
v 0.7758263 0.1847436 2.109762
v 0.5081286 0.23247 1.737999
v 0.7903541 0.2948245 1.791265
v 0.9786209 0.1116318 2.076833
v 1.521361 0.01736018 2.042788
v 1.384493 3.408098E-05 2.625354
v 0.8075922 0.2135813 1.410746
v 1.008208 0.153589 1.736791
v 1.400136 0.06931391 1.883228
v 1.542034 0.1114528 1.313645
v 1.037847 0.195449 1.396905
v 1.046461 0.2107775 1.127138
v 1.236879 0.1622345 1.363865
v 0.5281758 0.2829903 0.7113765
v 1.060035 0.2350206 0.6988263
v -3.391E-05 0.3031452 0.0001083476
v 0.528205 0.3969679 1.021956E-05
v -0.0001031766 0.2935363 -0.7113197
v 0.3525672 0.2490243 -0.4727587
v -0.5281979 0.1501193 -0.7113101
v -0.8564706 0.3233436 -1.117581
v -0.5194606 0.2256076 -1.428107
v -1.045187 0.304844 -1.16693
v -5.850781E-05 0.1936119 -1.202843
v -1.037881 0.1954303 -1.396894
v -1.464932E-06 0.2854637 -0.8339688
v 0.2640253 0.3723959 -0.7113333
v -1.001099 0.090694 -1.819235
v 0.183355 0.2939853 -1.167283
v 0.5193906 0.2363838 -1.428081
v -2.953789E-05 0.178221 -1.434316
v 0.5233875 0.3554482 -1.101461
v 1.059951 0.2349821 -0.6988974
v 0.5281433 0.2842499 -0.6145872
v 0.5281293 0.3598222 -0.711405
v 1.062348 0.2390148 -0.3494284
v 1.064732 0.3613822 3.969566E-05
v 1.195769 0.1528535 -0.3363464
v 1.25393 0.2238001 2.094698E-05
v -6.337664E-05 0.1678991 -1.629007
v 1.599211 0.1340162 0.6614345
v 1.225729 0.1430291 -0.6873856
v 1.6096 0.1356974 -0.2955738
v 1.618264 0.2308496 1.81223E-05
v 2.296449 2.117805E-05 0.643442
v 2.112742 6.846445E-05 1.286903
v 2.254689 2.668704E-05 0.0001178435
v 2.085294 7.216872E-05 -0.3492094
v 2.165443 2.626713E-05 -0.6433994
v 1.958199 2.029724E-05 1.845929
v 1.607539 4.24621E-05 2.155682
v 1.803788 4.483105E-05 2.405086
v 1.599187 0.1340008 -0.6613516
v 1.58753 0.1294005 -0.7931757
v 2.112679 3.980896E-05 -1.286856
v 1.048177 0.1137079 -1.067455
v 1.542007 0.1114344 -1.313585
v 1.037791 0.1954163 -1.396844
v 1.816937 0.008673597 -1.664871
v 1.958272 5.995599E-05 -1.845998
v 1.521341 0.01735004 -2.042753
v 1.454875 0.08559062 -1.664005
v 0.8128137 0.284431 -1.69008
v 1.010863 0.2646382 -1.706921
v 0.9786355 0.07516127 -2.076751
v 1.400182 0.06932699 -1.88321
v 0.5107938 0.2033522 -1.664605
v -9.882297E-05 0.1387159 -2.180501
v -0.2596881 0.273795 -1.804277
v -0.5032619 0.2543081 -1.873763
v 0.7359092 0.08557941 -2.116328
v 0.4929474 0.1348005 -2.155758
v 0.4824975 1.514815E-05 -2.916638
v 0.6756122 5.108525E-05 -2.888181
v 0.9652242 5.461664E-05 -2.84556
v -9.975691E-05 2.949683E-05 -2.987725
v -0.4826208 2.798633E-05 -2.835834
v 1.384553 6.077463E-05 -2.625278
v 1.607537 3.256556E-05 -2.155681
v 1.803736 2.628585E-05 -2.405129
v -0.4929842 0.1348061 -2.155721
v -0.9786777 0.05704575 -2.076717
v -0.9652552 2.481308E-05 -2.845486
v -1.384566 2.523003E-05 -2.625362
v -1.400238 0.06933998 -1.883152
v -1.607593 0.09513897 -2.155617
v -1.803875 4.653422E-05 -2.405098
v -0.4921119 0.1529355 2.227707
v -0.4930073 0.3590172 2.155806
v -9.051184E-05 0.1728069 2.18049
v -0.5927937 0.1571488 2.139452
v -0.5069998 0.4454232 1.770728
v -8.641733E-05 0.2935314 0.7112973
v 0.2131046 0.3030255 0.9243421
v -7.500143E-05 0.3967681 0.7974648
v -0.5270621 0.4424667 0.799481
v -0.5281291 0.2830022 0.711394
v -0.8420859 0.2520404 0.9493541

vn 0.2548828 0.9624023 0.09191895
vn 0.1755371 0.9741211 0.1420898
vn 0.1828613 0.965332 0.1855469
vn 0.3415527 0.9282227 0.1478271
vn 0.3520508 0.9243164 0.1479492
vn 0.3825684 0.9116211 0.1485596
vn 0.3571777 0.9223633 0.1480713
vn 0.260498 0.9379883 0.229126
vn 0.1947021 0.9526367 0.2332764
vn 0.2741699 0.9155273 0.2946777
vn 0.1942139 0.9262695 0.3232422
vn 0.1990967 0.9492188 0.2438965
vn 0.1595459 0.9672852 0.1967773
vn 0.1633301 0.9628906 0.2155762
vn 0.1939697 0.9384766 0.2858887
vn -0.0880127 0.8740234 0.4777832
vn 0.1274414 0.7646484 0.6318359
vn 0.309082 0.8867188 0.34375
vn 0.3208008 0.7929688 0.5180664
vn 0.3571777 0.8193359 0.4489746
vn 0.3015137 0.8701172 0.3894043
vn 0.3217773 0.8613281 0.3935547
vn 0.4101563 0.8154297 0.407959
vn 0.4101563 0.8154297 0.407959
vn 0.5087891 0.7915039 0.3378906
vn -0.1674805 0.9223633 0.3476563
vn 0.05084229 0.902832 0.427002
vn 0.005023956 0.7729492 0.6342773
vn 0.05117798 0.9428711 0.3295898
vn -0.07489014 0.9677734 0.2404785
vn 0.1392822 0.9506836 0.2770996
vn 0.2474365 0.9482422 0.1981201
vn 0.1149902 0.9750977 0.1888428
vn 0.2254639 0.9741211 -0.01467133
vn 0.2548828 0.9624023 0.09191895
vn 0.09924316 0.9179688 -0.3845215
vn 0.2161865 0.9438477 -0.2502441
vn 0.3312988 0.9321289 0.147583
vn 0.6142578 0.6894531 -0.3837891
vn 0.4868164 0.8476563 -0.2102051
vn 0.1755371 0.9741211 0.1420898
vn 0.1828613 0.965332 0.1855469
vn 0.5947266 0.7636719 0.2514648
vn 0.2785645 0.9492188 0.1461182
vn 0.1889648 0.9770508 0.09936523
vn 0.1673584 0.9819336 0.08581543
vn 0.1601563 0.9799805 0.1166992
vn 0.6074219 0.6450195 0.4638672
vn 0.722168 0.6665039 0.18396
vn 0.6230469 0.78125 0.03213501
vn 0.333252 0.9116211 0.2412109
vn 0.1601563 0.9799805 0.1166992
vn 0.519043 0.7607422 0.3894043
vn 0.1287842 0.9892578 0.06585693
vn 0.1673584 0.9819336 0.08581543
vn 0.4213867 0.8398438 0.3422852
vn 0.5019531 0.8408203 0.2021484
vn 0.5839844 0.7929688 0.1732178
vn 0.2788086 0.9130859 0.2980957
vn 0.213501 0.9760742 0.04168701
vn 0.208374 0.9672852 0.1435547
vn 0.3032227 0.9487305 0.09063721
vn 0.1220703 0.9882813 0.08929443
vn 0.6279297 0.6640625 0.4057617
vn 0.5053711 0.8588867 0.08306885
vn 0.5717773 0.8066406 0.1480713
vn 0.5922852 0.7329102 0.3344727
vn 0.484375 0.8432617 0.2325439
vn 0.4130859 0.8984375 0.1489258
vn 0.4770508 0.8657227 0.15271
vn 0.6323242 0.7387695 0.2337646
vn 0.5297852 0.7963867 0.2912598
vn 0.546875 0.8061523 0.2266846
vn 0.4902344 0.8422852 0.2242432
vn 0.4958496 0.8413086 0.2143555
vn 0.5292969 0.8081055 0.2580566
vn 0.4145508 0.8769531 0.2425537
vn 0.5239258 0.8227539 0.2211914
vn 0.314209 0.9462891 0.07653809
vn 0.3415527 0.9282227 0.1478271
vn 0.208374 0.9672852 0.1435547
vn 0.2866211 0.940918 0.1794434
vn 0.3876953 0.909668 0.1485596
vn 0.4746094 0.8725586 0.1156616
vn 0.3776855 0.9140625 0.1484375
vn 0.2089844 0.9760742 -0.05886841
vn 0.2304688 0.9731445 0.01705933
vn 0.236084 0.9682617 -0.08087158
vn 0.1577148 0.9863281 0.04794312
vn 0.2276611 0.9072266 0.3540039
vn 0.2419434 0.9697266 -0.0304718
vn 0.1755371 0.9814453 -0.07873535
vn 0.3930664 0.918457 0.04415894
vn 0.3776855 0.9248047 0.04437256
vn 0.512207 0.855957 -0.06689453
vn 0.6977539 0.7163086 0.01776123
vn 0.4101563 0.8154297 0.407959
vn 0.4572754 0.7988281 0.3913574
vn 0.6811523 0.7324219 -0.001394272
vn 0.6206055 0.777832 0.09606934
vn 0.6547852 0.7558594 -0.003469467
vn 0.6030273 0.7924805 0.08917236
vn 0.4660645 0.8798828 0.09283447
vn 0.5644531 0.7910156 0.2363281
vn 0.5913086 0.8056641 0.04129028
vn 0.5263672 0.8500977 0.008255005
vn 0.5131836 0.8505859 0.1123657
vn 0.5839844 0.7929688 0.1732178
vn 0.5361328 0.8227539 0.1885986
vn 0.6264648 0.765625 0.1463623
vn 0.6274414 0.7773438 0.04605103
vn 0.5878906 0.7998047 0.1220093
vn 0.4230957 0.894043 0.1490479
vn 0.407959 0.9008789 0.1489258
vn 0.3825684 0.9116211 0.1485596
vn 0.5053711 0.8588867 0.08306885
vn 0.4916992 0.8579102 0.1491699
vn 0.5537109 0.8305664 0.0569458
vn 0.5727539 0.8183594 0.04632568
vn 0.5205078 0.8408203 0.1489258
vn 0.4733887 0.8334961 0.2854004
vn 0.5009766 0.8623047 0.07305908
vn 0.4230957 0.894043 0.1490479
vn 0.4824219 0.8745117 0.04476929
vn 0.5966797 0.8027344 0.008178711
vn 0.4030762 0.9140625 0.04544067
vn 0.578125 0.815918 0.01100159
vn 0.4973145 0.8618164 -0.09991455
vn 0.5737305 0.8168945 -0.05871582
vn 0.3359375 0.9399414 0.05874634
vn 0.4143066 0.909668 -0.0307312
vn 0.4963379 0.8657227 0.0645752
vn 0.2580566 0.965332 -0.04348755
vn 0.4289551 0.8994141 -0.081604
vn 0.4094238 0.9116211 -0.03155518
vn 0.4541016 0.890625 -0.01757813
vn 0.4731445 0.8803711 0.034729
vn 0.4377441 0.8969727 0.06018066
vn 0.3840332 0.9228516 -0.03320313
vn 0.3322754 0.9428711 -0.02363586
vn 0.4130859 0.8984375 0.1489258
vn 0.407959 0.9008789 0.1489258
vn 0.3825684 0.9116211 0.1485596
vn 0.3000488 0.9492188 -0.09240723
vn 0.3266602 0.9448242 0.01490784
vn 0.3476563 0.9375 0.006393433
vn 0.279541 0.9584961 -0.05740356
vn 0.3518066 0.9345703 0.05072021
vn 0.197998 0.9799805 -0.01737976
vn 0.1590576 0.9868164 -0.03250122
vn 0.1274414 0.7646484 0.6318359
vn 0.005023956 0.7729492 0.6342773
vn 0.3571777 0.8193359 0.4489746
vn -0.0880127 0.8740234 0.4777832
vn 0.05084229 0.902832 0.427002
vn 0.4868164 0.8476563 -0.2102051
vn 0.6230469 0.78125 0.03213501
vn 0.6142578 0.6894531 -0.3837891
vn 0.09924316 0.9179688 -0.3845215
vn 0.2161865 0.9438477 -0.2502441
vn 0.2254639 0.9741211 -0.01467133

vt 0.2573242 1.37793
vt 0.204834 1.378906
vt 0.1345215 1.379883
vt 0.02438354 1.147461
vt 0.1491699 1.024414
vt 0.04193115 1.040039
vt 0.1072998 1.107422
vt 0.1335449 1.133789
vt 0.00585556 1.253906
vt 0.2553711 1.007813
vt 0.2631836 1.140625
vt 0.1394043 1.263672
vt 0.1374512 1.322266
vt 0.004882813 1.376953
vt 0.1657715 1.166016
vt 0.355957 1.134766
vt 0.3803711 1.121094
vt 0.3774414 1.003906
vt 0.4309082 1.099609
vt 0.5004883 1.131836
vt 0.5004883 1.071289
vt 0.5004883 0.9995117
vt 0.6210938 1.09375
vt 0.6220703 1.003906
vt 0.7451172 1.007813
vt 0.3325195 1.196289
vt 0.3793945 1.199219
vt 0.3803711 1.133789
vt 0.2563477 1.256836
vt 0.309082 1.256836
vt 0.1843262 1.28418
vt 0.2573242 1.317383
vt 0.378418 1.256836
vt 0.3051758 1.335938
vt 0.2573242 1.37793
vt 0.3793945 1.364258
vt 0.3793945 1.378906
vt 0.3803711 1.5
vt 0.5004883 1.365234
vt 0.5004883 1.379883
vt 0.204834 1.378906
vt 0.1345215 1.379883
vt 0.5004883 1.257813
vt 0.2592773 1.5
vt 0.1345215 1.5
vt 0.004882813 1.5
vt 0.004882813 1.623047
vt 0.5004883 1.200195
vt 0.5761719 1.257813
vt 0.5488281 1.34375
vt 0.2573242 1.62207
vt 0.1345215 1.620117
vt 0.5380859 1.194336
vt 0.1384277 1.702148
vt 0.004882813 1.683594
vt 0.6201172 1.133789
vt 0.5966797 1.199219
vt 0.6220703 1.256836
vt 0.2573242 1.663086
vt 0.1394043 1.736328
vt 0.00585556 1.745117
vt 0.1335449 1.866211
vt 0.02438354 1.852539
vt 0.6875 1.137695
vt 0.6210938 1.204102
vt 0.6884766 1.192383
vt 0.7363281 1.140625
vt 0.8666992 1.133789
vt 0.8510742 1.024414
vt 0.6894531 1.256836
vt 0.7402344 1.199219
vt 0.8349609 1.166016
vt 0.8598633 1.263672
vt 0.7431641 1.256836
vt 0.7431641 1.303711
vt 0.7900391 1.259766
vt 0.6210938 1.378906
vt 0.7421875 1.37793
vt 0.5004883 1.5
vt 0.6191406 1.5
vt 0.5004883 1.620117
vt 0.5800781 1.580078
vt 0.3793945 1.621094
vt 0.3012695 1.691406
vt 0.378418 1.742188
vt 0.2573242 1.702148
vt 0.5004883 1.702148
vt 0.2563477 1.742188
vt 0.5004883 1.641602
vt 0.5605469 1.621094
vt 0.2602539 1.814453
vt 0.5419922 1.697266
vt 0.6220703 1.742188
vt 0.5004883 1.741211
vt 0.6210938 1.686523
vt 0.7421875 1.62207
vt 0.6201172 1.604492
vt 0.6210938 1.621094
vt 0.7412109 1.561523
vt 0.7402344 1.5
vt 0.7714844 1.55957
vt 0.7832031 1.5
vt 0.5004883 1.774414
vt 0.8647461 1.379883
vt 0.7802734 1.621094
vt 0.8647461 1.553711
vt 0.8647461 1.5
vt 0.9946289 1.376953
vt 0.9946289 1.253906
vt 0.9946289 1.5
vt 0.9946289 1.567383
vt 0.9946289 1.623047
vt 0.9760742 1.147461
vt 0.8920898 1.107422
vt 0.9575195 1.040039
vt 0.8647461 1.620117
vt 0.8637695 1.643555
vt 0.9946289 1.745117
vt 0.7431641 1.685547
vt 0.8598633 1.736328
vt 0.7431641 1.742188
vt 0.9301758 1.805664
vt 0.9760742 1.852539
vt 0.8666992 1.866211
vt 0.8442383 1.795898
vt 0.6933594 1.790039
vt 0.7402344 1.795898
vt 0.7363281 1.859375
vt 0.8349609 1.833984
vt 0.6210938 1.782227
vt 0.5004883 1.867188
vt 0.4387207 1.804688
vt 0.3793945 1.818359
vt 0.6787109 1.862305
vt 0.6201172 1.866211
vt 0.6220703 1.996094
vt 0.6708984 1.994141
vt 0.7451172 1.991211
vt 0.5004883 2
vt 0.3774414 1.996094
vt 0.8510742 1.975586
vt 0.8920898 1.892578
vt 0.9575195 1.959961
vt 0.3803711 1.866211
vt 0.2631836 1.859375
vt 0.2553711 1.991211
vt 0.1491699 1.975586
vt 0.1657715 1.833984
vt 0.1072998 1.892578
vt 0.04193115 1.959961
vt 0.3803711 1.121094
vt 0.3803711 1.133789
vt 0.5004883 1.131836
vt 0.355957 1.134766
vt 0.3793945 1.199219
vt 0.5004883 1.379883
vt 0.5488281 1.34375
vt 0.5004883 1.365234
vt 0.3793945 1.364258
vt 0.3793945 1.378906
vt 0.3051758 1.335938

g RubbishC_02_27633_202
usemtl RubbishC_02_27633_202
usemap RubbishC_02_27633_202
f 1/1/1 3/3/3 2/2/2
f 4/4/4 6/6/6 5/5/5
f 4/4/4 5/5/5 7/7/7
f 8/8/8 4/4/4 7/7/7
f 5/5/5 8/8/8 7/7/7
f 8/8/8 9/9/9 4/4/4
f 5/5/5 10/10/10 8/8/8
f 8/8/8 10/10/10 11/11/11
f 12/12/12 9/9/9 8/8/8
f 13/13/13 9/9/9 12/12/12
f 14/14/14 9/9/9 13/13/13
f 8/8/8 11/11/11 15/15/15
f 12/12/12 8/8/8 15/15/15
f 11/11/11 12/12/12 15/15/15
f 10/10/10 16/16/16 11/11/11
f 16/16/16 10/10/10 17/17/17
f 17/17/17 10/10/10 18/18/18
f 18/18/18 19/19/19 17/17/17
f 17/17/17 19/19/19 20/20/20
f 18/18/18 21/21/21 19/19/19
f 19/19/19 21/21/21 20/20/20
f 18/18/18 22/22/22 21/21/21
f 23/23/23 21/21/21 22/22/22
f 20/20/20 21/21/21 23/23/23
f 23/23/23 22/22/22 24/24/24
f 25/25/25 23/23/23 24/24/24
f 26/26/26 11/11/11 16/16/16
f 27/27/27 26/26/26 16/16/16
f 20/20/20 27/27/27 28/28/28
f 11/11/11 29/29/29 12/12/12
f 30/30/30 11/11/11 26/26/26
f 30/30/30 29/29/29 11/11/11
f 12/12/12 29/29/29 31/31/31
f 12/12/12 31/31/31 13/13/13
f 31/31/31 29/29/29 32/32/32
f 32/32/32 29/29/29 30/30/30
f 13/13/13 31/31/31 32/32/32
f 33/33/33 30/30/30 26/26/26
f 33/33/33 26/26/26 27/27/27
f 32/32/32 30/30/30 34/34/34
f 34/34/34 30/30/30 33/33/33
f 35/35/35 32/32/32 34/34/34
f 13/13/13 32/32/32 35/35/35
f 34/34/34 33/33/33 36/36/36
f 35/35/35 34/34/34 37/37/37
f 38/38/38 35/35/35 37/37/37
f 33/33/33 39/39/39 36/36/36
f 40/40/40 38/38/38 37/37/37
f 13/13/13 35/35/35 41/41/41
f 13/13/13 41/41/41 42/42/42
f 14/14/14 13/13/13 42/42/42
f 27/27/27 43/43/43 33/33/33
f 33/33/33 43/43/43 39/39/39
f 44/44/44 42/42/42 35/35/35
f 38/38/38 44/44/44 35/35/35
f 45/45/45 14/14/14 42/42/42
f 42/42/42 44/44/44 45/45/45
f 45/45/45 46/46/46 14/14/14
f 47/47/47 46/46/46 45/45/45
f 27/27/27 48/48/48 43/43/43
f 20/20/20 48/48/48 27/27/27
f 39/39/39 43/43/43 49/49/49
f 49/49/49 43/43/43 48/48/48
f 39/39/39 49/49/49 50/50/50
f 45/45/45 44/44/44 51/51/51
f 51/51/51 44/44/44 38/38/38
f 47/47/47 45/45/45 52/52/52
f 45/45/45 51/51/51 52/52/52
f 53/53/53 48/48/48 20/20/20
f 49/49/49 48/48/48 53/53/53
f 54/54/54 47/47/47 52/52/52
f 54/54/54 55/55/55 47/47/47
f 56/56/56 53/53/53 20/20/20
f 20/20/20 23/23/23 56/56/56
f 53/53/53 57/57/57 49/49/49
f 56/56/56 57/57/57 53/53/53
f 58/58/58 50/50/50 49/49/49
f 58/58/58 49/49/49 57/57/57
f 51/51/51 59/59/59 52/52/52
f 59/59/59 54/54/54 52/52/52
f 60/60/60 55/55/55 54/54/54
f 60/60/60 61/61/61 55/55/55
f 62/62/62 61/61/61 60/60/60
f 63/63/63 61/61/61 62/62/62
f 23/23/23 64/64/64 56/56/56
f 25/25/25 64/64/64 23/23/23
f 65/65/65 57/57/57 56/56/56
f 58/58/58 57/57/57 65/65/65
f 64/64/64 66/66/66 56/56/56
f 66/66/66 65/65/65 56/56/56
f 64/64/64 25/25/25 67/67/67
f 67/67/67 66/66/66 64/64/64
f 67/67/67 25/25/25 68/68/68
f 68/68/68 25/25/25 69/69/69
f 66/66/66 70/70/70 65/65/65
f 65/65/65 70/70/70 58/58/58
f 67/67/67 71/71/71 66/66/66
f 71/71/71 70/70/70 66/66/66
f 72/72/72 71/71/71 67/67/67
f 67/67/67 68/68/68 72/72/72
f 68/68/68 73/73/73 72/72/72
f 71/71/71 74/74/74 70/70/70
f 72/72/72 74/74/74 71/71/71
f 75/75/75 58/58/58 70/70/70
f 75/75/75 70/70/70 74/74/74
f 72/72/72 76/76/76 74/74/74
f 73/73/73 76/76/76 72/72/72
f 76/76/76 75/75/75 74/74/74
f 73/73/73 75/75/75 76/76/76
f 75/75/75 77/77/77 58/58/58
f 77/77/77 50/50/50 58/58/58
f 40/40/40 50/50/50 77/77/77
f 73/73/73 78/78/78 75/75/75
f 77/77/77 75/75/75 78/78/78
f 77/77/77 79/79/79 40/40/40
f 40/40/40 79/79/79 38/38/38
f 78/78/78 80/80/80 77/77/77
f 80/80/80 79/79/79 77/77/77
f 38/38/38 79/79/79 81/81/81
f 82/82/82 79/79/79 80/80/80
f 81/81/81 79/79/79 82/82/82
f 38/38/38 81/81/81 83/83/83
f 51/51/51 38/38/38 83/83/83
f 84/84/84 51/51/51 83/83/83
f 84/84/84 59/59/59 51/51/51
f 85/85/85 84/84/84 83/83/83
f 85/85/85 86/86/86 84/84/84
f 84/84/84 86/86/86 59/59/59
f 83/83/83 87/87/87 85/85/85
f 59/59/59 86/86/86 54/54/54
f 54/54/54 86/86/86 88/88/88
f 85/85/85 88/88/88 86/86/86
f 54/54/54 88/88/88 60/60/60
f 81/81/81 89/89/89 83/83/83
f 83/83/83 89/89/89 87/87/87
f 81/81/81 82/82/82 90/90/90
f 90/90/90 89/89/89 81/81/81
f 60/60/60 88/88/88 91/91/91
f 91/91/91 88/88/88 85/85/85
f 92/92/92 87/87/87 89/89/89
f 90/90/90 92/92/92 89/89/89
f 93/93/93 87/87/87 92/92/92
f 93/93/93 94/94/94 87/87/87
f 85/85/85 87/87/87 94/94/94
f 93/93/93 92/92/92 95/95/95
f 95/95/95 92/92/92 90/90/90
f 96/96/96 93/93/93 95/95/95
f 90/90/90 82/82/82 97/97/97
f 82/82/82 80/80/80 97/97/97
f 95/95/95 90/90/90 98/98/98
f 96/96/96 95/95/95 98/98/98
f 90/90/90 97/97/97 98/98/98
f 97/97/97 96/96/96 98/98/98
f 80/80/80 99/99/99 97/97/97
f 97/97/97 99/99/99 96/96/96
f 80/80/80 100/100/100 99/99/99
f 78/78/78 100/100/100 80/80/80
f 101/101/101 99/99/99 100/100/100
f 96/96/96 99/99/99 101/101/101
f 102/102/102 100/100/100 78/78/78
f 101/101/101 100/100/100 102/102/102
f 103/103/103 94/94/94 93/93/93
f 85/85/85 94/94/94 103/103/103
f 102/102/102 78/78/78 104/104/104
f 78/78/78 73/73/73 104/104/104
f 96/96/96 101/101/101 105/105/105
f 106/106/106 101/101/101 102/102/102
f 105/105/105 101/101/101 106/106/106
f 107/107/107 102/102/102 104/104/104
f 106/106/106 102/102/102 107/107/107
f 73/73/73 108/108/108 104/104/104
f 108/108/108 107/107/107 104/104/104
f 73/73/73 109/109/109 108/108/108
f 108/108/108 110/110/110 107/107/107
f 107/107/107 110/110/110 111/111/111
f 107/107/107 111/111/111 106/106/106
f 68/68/68 109/109/109 73/73/73
f 106/106/106 111/111/111 112/112/112
f 113/113/113 109/109/109 68/68/68
f 113/113/113 68/68/68 114/114/114
f 68/68/68 69/69/69 114/114/114
f 69/69/69 113/113/113 114/114/114
f 69/69/69 115/115/115 113/113/113
f 106/106/106 112/112/112 116/116/116
f 105/105/105 106/106/106 116/116/116
f 112/112/112 117/117/117 116/116/116
f 117/117/117 105/105/105 116/116/116
f 118/118/118 117/117/117 112/112/112
f 117/117/117 119/119/119 105/105/105
f 105/105/105 119/119/119 96/96/96
f 96/96/96 119/119/119 93/93/93
f 117/117/117 118/118/118 120/120/120
f 120/120/120 119/119/119 117/117/117
f 119/119/119 121/121/121 93/93/93
f 120/120/120 121/121/121 119/119/119
f 120/120/120 118/118/118 122/122/122
f 123/123/123 122/122/122 118/118/118
f 124/124/124 122/122/122 123/123/123
f 120/120/120 122/122/122 125/125/125
f 125/125/125 121/121/121 120/120/120
f 125/125/125 122/122/122 124/124/124
f 93/93/93 121/121/121 126/126/126
f 125/125/125 127/127/127 121/121/121
f 126/126/126 121/121/121 127/127/127
f 128/128/128 127/127/127 125/125/125
f 126/126/126 127/127/127 128/128/128
f 125/125/125 124/124/124 129/129/129
f 128/128/128 125/125/125 129/129/129
f 124/124/124 128/128/128 129/129/129
f 93/93/93 126/126/126 130/130/130
f 103/103/103 93/93/93 130/130/130
f 131/131/131 103/103/103 130/130/130
f 132/132/132 103/103/103 131/131/131
f 85/85/85 103/103/103 132/132/132
f 85/85/85 132/132/132 133/133/133
f 133/133/133 132/132/132 131/131/131
f 91/91/91 85/85/85 133/133/133
f 130/130/130 126/126/126 134/134/134
f 126/126/126 128/128/128 134/134/134
f 131/131/131 130/130/130 135/135/135
f 130/130/130 134/134/134 135/135/135
f 134/134/134 136/136/136 135/135/135
f 136/136/136 131/131/131 135/135/135
f 134/134/134 137/137/137 136/136/136
f 128/128/128 137/137/137 134/134/134
f 128/128/128 138/138/138 137/137/137
f 136/136/136 139/139/139 131/131/131
f 124/124/124 138/138/138 128/128/128
f 131/131/131 139/139/139 140/140/140
f 141/141/141 138/138/138 124/124/124
f 141/141/141 124/124/124 142/142/142
f 124/124/124 123/123/123 142/142/142
f 123/123/123 141/141/141 142/142/142
f 123/123/123 143/143/143 141/141/141
f 131/131/131 140/140/140 144/144/144
f 133/133/133 131/131/131 144/144/144
f 140/140/140 145/145/145 144/144/144
f 145/145/145 133/133/133 144/144/144
f 140/140/140 146/146/146 145/145/145
f 145/145/145 91/91/91 133/133/133
f 145/145/145 146/146/146 62/62/62
f 62/62/62 146/146/146 147/147/147
f 148/148/148 91/91/91 145/145/145
f 145/145/145 62/62/62 148/148/148
f 60/60/60 91/91/91 148/148/148
f 62/62/62 60/60/60 148/148/148
f 62/62/62 147/147/147 149/149/149
f 63/63/63 62/62/62 149/149/149
f 147/147/147 63/63/63 149/149/149
f 147/147/147 150/150/150 63/63/63
f 151/151/151 153/153/153 152/152/152
f 154/154/154 151/151/151 152/152/152
f 155/155/155 154/154/154 152/152/152
f 156/156/156 158/158/158 157/157/157
f 159/159/159 158/158/158 156/156/156
f 159/159/159 156/156/156 160/160/160
f 160/160/160 161/161/161 159/159/159
