#Shutter_02_28344_211.obj

v 0.5419669 -0.0746573 0.6814225
v 0.5509515 -0.02931538 0.6777421
v 0.8304319 -0.1594252 -0.2205152
v 0.8214473 -0.2047671 -0.2168347
v 0.5509515 -0.02931538 0.6777421
v -0.8214988 0.2047479 0.2168266
v -0.5420184 0.07463814 -0.6814306
v 0.8304319 -0.1594252 -0.2205152
v -0.8214988 0.2047479 0.2168266
v -0.830484 0.1594078 0.2205069
v -0.5510002 0.02930583 -0.6776285
v -0.5420184 0.07463814 -0.6814306
v -0.830484 0.1594078 0.2205069
v 0.5419669 -0.0746573 0.6814225
v 0.8214473 -0.2047671 -0.2168347
v -0.5510002 0.02930583 -0.6776285
v 0.8214473 -0.2047671 -0.2168347
v 0.8304319 -0.1594252 -0.2205152
v -0.5420184 0.07463814 -0.6814306
v -0.5510002 0.02930583 -0.6776285
v -0.830484 0.1594078 0.2205069
v -0.8214988 0.2047479 0.2168266
v 0.5509515 -0.02931538 0.6777421
v 0.5419669 -0.0746573 0.6814225

vn 0.0262146 -0.6928711 0.7207031
vn 0.5991211 0.3078613 0.7387695
vn 0.9223633 0.1364746 -0.3618164
vn 0.3425293 -0.862793 -0.3718262
vn 0.5991211 0.3078613 0.7387695
vn -0.3425293 0.862793 0.3718262
vn -0.0262146 0.6928711 -0.7207031
vn 0.9223633 0.1364746 -0.3618164
vn -0.3425293 0.862793 0.3718262
vn -0.9223633 -0.1364746 0.3618164
vn -0.5991211 -0.3081055 -0.7387695
vn -0.0262146 0.6928711 -0.7207031
vn -0.9223633 -0.1364746 0.3618164
vn 0.0262146 -0.6928711 0.7207031
vn 0.3425293 -0.862793 -0.3718262
vn -0.5991211 -0.3081055 -0.7387695
vn 0.3425293 -0.862793 -0.3718262
vn 0.9223633 0.1364746 -0.3618164
vn -0.0262146 0.6928711 -0.7207031
vn -0.5991211 -0.3081055 -0.7387695
vn -0.9223633 -0.1364746 0.3618164
vn -0.3425293 0.862793 0.3718262
vn 0.5991211 0.3078613 0.7387695
vn 0.0262146 -0.6928711 0.7207031

vt 0.1762695 -0.006835938
vt 0.1762695 0.02490234
vt 0.8237305 0.02490234
vt 0.8237305 -0.006835938
vt 0.5097656 0.9995117
vt 0.5097656 2
vt 0.9995117 2
vt 0.9995117 0.9995117
vt 0.1762695 1.993164
vt 0.1762695 2.025391
vt 0.8237305 2.025391
vt 0.8237305 1.993164
vt -0.0001220703 3
vt -0.0001220703 4
vt 0.9995117 4
vt 0.9995117 3
vt 0.9995117 -0.006835938
vt 0.9995117 0.02490234
vt 2 0.02490234
vt 2 -0.006835938
vt -1 -0.006835938
vt -1 0.02490234
vt -0.0001220703 0.02490234
vt -0.0001220703 -0.006835938

g Shutter_02_28344_211
usemtl Shutter_02_28344_211
usemap Shutter_02_28344_211
f 1/1/1 3/3/3 2/2/2
f 1/1/1 4/4/4 3/3/3
f 5/5/5 7/7/7 6/6/6
f 5/5/5 8/8/8 7/7/7
f 9/9/9 11/11/11 10/10/10
f 9/9/9 12/12/12 11/11/11
f 13/13/13 15/15/15 14/14/14
f 13/13/13 16/16/16 15/15/15
f 17/17/17 19/19/19 18/18/18
f 17/17/17 20/20/20 19/19/19
f 21/21/21 23/23/23 22/22/22
f 21/21/21 24/24/24 23/23/23
