#Shutter_04_28025_31.obj

v -0.3230832 -0.1795649 0.6360372
v -0.3298228 -0.163784 0.6368625
v 0.4038312 0.1516384 0.5959434
v 0.4105708 0.1358382 0.5951182
v -0.3298228 -0.163784 0.6368625
v -0.4105605 -0.135837 -0.5950407
v 0.3230935 0.1795661 -0.6359597
v 0.4038312 0.1516384 0.5959434
v -0.4105605 -0.135837 -0.5950407
v -0.4038209 -0.1516372 -0.595866
v 0.3298331 0.1637852 -0.636785
v 0.3230935 0.1795661 -0.6359597
v -0.4038209 -0.1516372 -0.595866
v -0.3230832 -0.1795649 0.6360372
v 0.4105708 0.1358382 0.5951182
v 0.3298331 0.1637852 -0.636785
v 0.4105708 0.1358382 0.5951182
v 0.4038312 0.1516384 0.5959434
v 0.3230935 0.1795661 -0.6359597
v 0.3298331 0.1637852 -0.636785
v -0.4038209 -0.1516372 -0.595866
v -0.4105605 -0.135837 -0.5950407
v -0.3298228 -0.163784 0.6368625
v -0.3230832 -0.1795649 0.6360372

vn -0.2646484 -0.769043 0.5820313
vn -0.7192383 0.2895508 0.6313477
vn 0.3393555 0.7441406 0.5751953
vn 0.7939453 -0.3144531 0.5205078
vn -0.7192383 0.2895508 0.6313477
vn -0.7939453 0.3144531 -0.5205078
vn 0.2646484 0.769043 -0.5820313
vn 0.3393555 0.7441406 0.5751953
vn -0.7939453 0.3144531 -0.5205078
vn -0.3393555 -0.7441406 -0.5751953
vn 0.7192383 -0.2895508 -0.6313477
vn 0.2646484 0.769043 -0.5820313
vn -0.3393555 -0.7441406 -0.5751953
vn -0.2646484 -0.769043 0.5820313
vn 0.7939453 -0.3144531 0.5205078
vn 0.7192383 -0.2895508 -0.6313477
vn 0.7939453 -0.3144531 0.5205078
vn 0.3393555 0.7441406 0.5751953
vn 0.2646484 0.769043 -0.5820313
vn 0.7192383 -0.2895508 -0.6313477
vn -0.3393555 -0.7441406 -0.5751953
vn -0.7939453 0.3144531 -0.5205078
vn -0.7192383 0.2895508 0.6313477
vn -0.2646484 -0.769043 0.5820313

vt 0.1762695 -0.006835938
vt 0.1762695 0.02490234
vt 0.8237305 0.02490234
vt 0.8237305 -0.006835938
vt -0.0001220703 0.9995117
vt -0.0001220703 2
vt 0.9995117 2
vt 0.9995117 0.9995117
vt 0.1762695 1.993164
vt 0.1762695 2.025391
vt 0.8237305 2.025391
vt 0.8237305 1.993164
vt -0.0001220703 3
vt -0.0001220703 4
vt 0.9995117 4
vt 0.9995117 3
vt 0.9995117 -0.006835938
vt 0.9995117 0.02490234
vt 2 0.02490234
vt 2 -0.006835938
vt -1 -0.006835938
vt -1 0.02490234
vt -0.0001220703 0.02490234
vt -0.0001220703 -0.006835938

g Shutter_04_28025_31
usemtl Shutter_04_28025_31
usemap Shutter_04_28025_31
f 1/1/1 3/3/3 2/2/2
f 1/1/1 4/4/4 3/3/3
f 5/5/5 7/7/7 6/6/6
f 5/5/5 8/8/8 7/7/7
f 9/9/9 11/11/11 10/10/10
f 9/9/9 12/12/12 11/11/11
f 13/13/13 15/15/15 14/14/14
f 13/13/13 16/16/16 15/15/15
f 17/17/17 19/19/19 18/18/18
f 17/17/17 20/20/20 19/19/19
f 21/21/21 23/23/23 22/22/22
f 21/21/21 24/24/24 23/23/23
